G04*
G04 #@! TF.GenerationSoftware,Altium Limited,Altium Designer,20.2.6 (244)*
G04*
G04 Layer_Physical_Order=2*
G04 Layer_Color=16711680*
%FSLAX25Y25*%
%MOIN*%
G70*
G04*
G04 #@! TF.SameCoordinates,E97EBE13-EBD0-4CAC-9F2B-1EA0C24CC531*
G04*
G04*
G04 #@! TF.FilePolarity,Positive*
G04*
G01*
G75*
%ADD14C,0.01181*%
%ADD15C,0.01000*%
%ADD44C,0.06500*%
%ADD45R,0.06500X0.06500*%
%ADD55C,0.02000*%
%ADD56C,0.01100*%
%ADD58C,0.05000*%
%ADD59C,0.01076*%
%ADD61C,0.01500*%
%ADD63C,0.27559*%
%ADD64C,0.06000*%
%ADD65R,0.06000X0.06000*%
%ADD66R,0.06000X0.06000*%
%ADD67C,0.12795*%
%ADD68C,0.09626*%
%ADD69C,0.06024*%
%ADD70C,0.05504*%
%ADD71R,0.05504X0.05504*%
%ADD72C,0.06299*%
%ADD73R,0.13780X0.13780*%
%ADD74C,0.13780*%
%ADD75C,0.03000*%
%ADD76C,0.03500*%
%ADD77C,0.03937*%
%ADD78C,0.05000*%
G04:AMPARAMS|DCode=79|XSize=63.16mil|YSize=128.43mil|CornerRadius=18.63mil|HoleSize=0mil|Usage=FLASHONLY|Rotation=270.000|XOffset=0mil|YOffset=0mil|HoleType=Round|Shape=RoundedRectangle|*
%AMROUNDEDRECTD79*
21,1,0.06316,0.09117,0,0,270.0*
21,1,0.02590,0.12843,0,0,270.0*
1,1,0.03727,-0.04558,-0.01295*
1,1,0.03727,-0.04558,0.01295*
1,1,0.03727,0.04558,0.01295*
1,1,0.03727,0.04558,-0.01295*
%
%ADD79ROUNDEDRECTD79*%
G04:AMPARAMS|DCode=80|XSize=63.16mil|YSize=37.49mil|CornerRadius=18.74mil|HoleSize=0mil|Usage=FLASHONLY|Rotation=270.000|XOffset=0mil|YOffset=0mil|HoleType=Round|Shape=RoundedRectangle|*
%AMROUNDEDRECTD80*
21,1,0.06316,0.00000,0,0,270.0*
21,1,0.02568,0.03749,0,0,270.0*
1,1,0.03749,0.00000,-0.01284*
1,1,0.03749,0.00000,0.01284*
1,1,0.03749,0.00000,0.01284*
1,1,0.03749,0.00000,-0.01284*
%
%ADD80ROUNDEDRECTD80*%
%ADD81R,0.03749X0.06316*%
G36*
X366821Y609293D02*
X368181Y609115D01*
X369559Y608746D01*
X370876Y608201D01*
X372111Y607489D01*
X373199Y606655D01*
X373269Y606595D01*
X374226Y605639D01*
X374284Y605571D01*
X375119Y604483D01*
X375832Y603248D01*
X376378Y601931D01*
X376747Y600554D01*
X376926Y599195D01*
X376933Y599104D01*
X376933Y598427D01*
X376933Y342520D01*
X376933Y341847D01*
X376926Y341761D01*
X376749Y340410D01*
X376382Y339043D01*
X375841Y337737D01*
X375134Y336511D01*
X374304Y335430D01*
X374248Y335365D01*
X373296Y334413D01*
X373232Y334358D01*
X372150Y333528D01*
X370925Y332820D01*
X369618Y332279D01*
X368252Y331913D01*
X366900Y331735D01*
X366815Y331728D01*
X366142Y331728D01*
X78740Y331728D01*
X77912D01*
X77570Y331755D01*
X75867Y331979D01*
X75835Y331987D01*
X73996Y332480D01*
X72212Y333219D01*
X70563Y334171D01*
X70535Y334188D01*
X69172Y335234D01*
X68911Y335457D01*
X67740Y336627D01*
X67517Y336889D01*
X66472Y338251D01*
X66454Y338280D01*
X65502Y339928D01*
X64763Y341712D01*
X64270Y343552D01*
X64263Y343584D01*
X64039Y345287D01*
X64012Y345629D01*
X64012Y346457D01*
X64012Y594484D01*
X64012Y595308D01*
X64038Y595645D01*
X64262Y597342D01*
X64267Y597367D01*
X64759Y599202D01*
X65493Y600976D01*
X66440Y602617D01*
X66457Y602644D01*
X67498Y604002D01*
X67718Y604259D01*
X68884Y605426D01*
X69140Y605644D01*
X70499Y606688D01*
X70513Y606696D01*
X72164Y607650D01*
X73938Y608386D01*
X75762Y608876D01*
X75800Y608885D01*
X77495Y609109D01*
X77833Y609135D01*
X78656Y609136D01*
X366055Y609300D01*
X366733Y609300D01*
X366821Y609293D01*
D02*
G37*
%LPC*%
G36*
X324165Y589744D02*
X323196Y589616D01*
X322293Y589242D01*
X321518Y588647D01*
X320923Y587872D01*
X320549Y586969D01*
X320422Y586000D01*
X320549Y585031D01*
X320923Y584128D01*
X321518Y583353D01*
X322293Y582758D01*
X323196Y582384D01*
X324165Y582256D01*
X325134Y582384D01*
X326037Y582758D01*
X326813Y583353D01*
X327408Y584128D01*
X327782Y585031D01*
X327909Y586000D01*
X327782Y586969D01*
X327408Y587872D01*
X326813Y588647D01*
X326037Y589242D01*
X325134Y589616D01*
X324165Y589744D01*
D02*
G37*
G36*
X272000D02*
X271031Y589616D01*
X270128Y589242D01*
X269353Y588647D01*
X268758Y587872D01*
X268384Y586969D01*
X268256Y586000D01*
X268384Y585031D01*
X268758Y584128D01*
X269353Y583353D01*
X270128Y582758D01*
X271031Y582384D01*
X272000Y582256D01*
X272969Y582384D01*
X273872Y582758D01*
X274647Y583353D01*
X275242Y584128D01*
X275616Y585031D01*
X275744Y586000D01*
X275616Y586969D01*
X275242Y587872D01*
X274647Y588647D01*
X273872Y589242D01*
X272969Y589616D01*
X272000Y589744D01*
D02*
G37*
G36*
X350394Y601138D02*
X348122Y600960D01*
X345905Y600428D01*
X343800Y599555D01*
X341857Y598365D01*
X340124Y596884D01*
X338643Y595151D01*
X337452Y593208D01*
X336580Y591102D01*
X336048Y588886D01*
X335869Y586614D01*
X336048Y584342D01*
X336580Y582126D01*
X337452Y580020D01*
X338643Y578077D01*
X340124Y576344D01*
X341857Y574864D01*
X343800Y573673D01*
X345905Y572801D01*
X348122Y572269D01*
X350394Y572090D01*
X352666Y572269D01*
X354882Y572801D01*
X356988Y573673D01*
X358931Y574864D01*
X360664Y576344D01*
X362144Y578077D01*
X363335Y580020D01*
X364207Y582126D01*
X364739Y584342D01*
X364918Y586614D01*
X364739Y588886D01*
X364207Y591102D01*
X363335Y593208D01*
X362144Y595151D01*
X360664Y596884D01*
X358931Y598365D01*
X356988Y599555D01*
X354882Y600428D01*
X352666Y600960D01*
X350394Y601138D01*
D02*
G37*
G36*
X86614D02*
X84342Y600960D01*
X82126Y600428D01*
X80020Y599555D01*
X78077Y598365D01*
X76344Y596884D01*
X74864Y595151D01*
X73673Y593208D01*
X72801Y591102D01*
X72269Y588886D01*
X72090Y586614D01*
X72269Y584342D01*
X72801Y582126D01*
X73673Y580020D01*
X74864Y578077D01*
X76344Y576344D01*
X78077Y574864D01*
X80020Y573673D01*
X82126Y572801D01*
X84342Y572269D01*
X86614Y572090D01*
X88886Y572269D01*
X91102Y572801D01*
X93208Y573673D01*
X95151Y574864D01*
X96884Y576344D01*
X98365Y578077D01*
X99555Y580020D01*
X100428Y582126D01*
X100960Y584342D01*
X101138Y586614D01*
X100960Y588886D01*
X100428Y591102D01*
X99555Y593208D01*
X98365Y595151D01*
X96884Y596884D01*
X95151Y598365D01*
X93208Y599555D01*
X91102Y600428D01*
X88886Y600960D01*
X86614Y601138D01*
D02*
G37*
G36*
X252649Y577843D02*
X237469D01*
Y562663D01*
X252649D01*
Y577843D01*
D02*
G37*
G36*
X189495Y577843D02*
X174316D01*
Y562663D01*
X189495D01*
Y577843D01*
D02*
G37*
G36*
X151906Y577879D02*
X150418Y577733D01*
X148987Y577299D01*
X147668Y576594D01*
X146513Y575645D01*
X145564Y574490D01*
X144860Y573171D01*
X144425Y571741D01*
X144279Y570253D01*
X144425Y568765D01*
X144860Y567334D01*
X145564Y566016D01*
X146513Y564860D01*
X147668Y563911D01*
X148987Y563207D01*
X150418Y562773D01*
X151906Y562626D01*
X153393Y562773D01*
X154824Y563207D01*
X156142Y563911D01*
X157298Y564860D01*
X158247Y566016D01*
X158951Y567334D01*
X159385Y568765D01*
X159532Y570253D01*
X159385Y571741D01*
X158951Y573171D01*
X158247Y574490D01*
X157298Y575645D01*
X156142Y576594D01*
X154824Y577299D01*
X153393Y577733D01*
X151906Y577879D01*
D02*
G37*
G36*
X320583Y573841D02*
X319191Y573704D01*
X317853Y573298D01*
X316620Y572639D01*
X315540Y571752D01*
X314653Y570671D01*
X313994Y569438D01*
X313588Y568100D01*
X313451Y566709D01*
X313588Y565317D01*
X313994Y563979D01*
X314653Y562746D01*
X315540Y561666D01*
X316620Y560779D01*
X317853Y560120D01*
X319191Y559714D01*
X320583Y559577D01*
X321974Y559714D01*
X323312Y560120D01*
X324545Y560779D01*
X325626Y561666D01*
X326513Y562746D01*
X327172Y563979D01*
X327578Y565317D01*
X327715Y566709D01*
X327578Y568100D01*
X327172Y569438D01*
X326513Y570671D01*
X325626Y571752D01*
X324545Y572639D01*
X323312Y573298D01*
X321974Y573704D01*
X320583Y573841D01*
D02*
G37*
G36*
X275583D02*
X274191Y573704D01*
X272853Y573298D01*
X271620Y572639D01*
X270540Y571752D01*
X269653Y570671D01*
X268994Y569438D01*
X268588Y568100D01*
X268451Y566709D01*
X268588Y565317D01*
X268994Y563979D01*
X269653Y562746D01*
X270540Y561666D01*
X271620Y560779D01*
X272853Y560120D01*
X274191Y559714D01*
X275583Y559577D01*
X276974Y559714D01*
X278312Y560120D01*
X279545Y560779D01*
X280626Y561666D01*
X281513Y562746D01*
X282172Y563979D01*
X282578Y565317D01*
X282715Y566709D01*
X282578Y568100D01*
X282172Y569438D01*
X281513Y570671D01*
X280626Y571752D01*
X279545Y572639D01*
X278312Y573298D01*
X276974Y573704D01*
X275583Y573841D01*
D02*
G37*
G36*
X108000Y557984D02*
X106969Y557848D01*
X106008Y557450D01*
X105183Y556817D01*
X104550Y555992D01*
X104152Y555031D01*
X104016Y554000D01*
X104152Y552969D01*
X104550Y552008D01*
X105183Y551183D01*
X106008Y550550D01*
X106969Y550152D01*
X108000Y550016D01*
X109031Y550152D01*
X109992Y550550D01*
X110817Y551183D01*
X111450Y552008D01*
X111848Y552969D01*
X111984Y554000D01*
X111848Y555031D01*
X111450Y555992D01*
X110817Y556817D01*
X109992Y557450D01*
X109031Y557848D01*
X108000Y557984D01*
D02*
G37*
G36*
X358900Y572098D02*
X357944Y571908D01*
X357134Y571366D01*
X356592Y570556D01*
X356482Y570000D01*
X356461Y569947D01*
X356431Y569769D01*
X356392Y569618D01*
X356339Y569464D01*
X356270Y569306D01*
X356187Y569144D01*
X356086Y568979D01*
X355974Y568817D01*
X355734Y568525D01*
X334888Y547678D01*
X326412D01*
X324383Y549708D01*
X325044Y550461D01*
X325795Y549885D01*
X327136Y549330D01*
X328575Y549140D01*
X330014Y549330D01*
X331355Y549885D01*
X332507Y550769D01*
X333390Y551921D01*
X333946Y553262D01*
X334135Y554701D01*
X333946Y556140D01*
X333390Y557481D01*
X332507Y558633D01*
X331355Y559516D01*
X330014Y560072D01*
X328575Y560261D01*
X327136Y560072D01*
X325795Y559516D01*
X324643Y558633D01*
X323759Y557481D01*
X323204Y556140D01*
X323014Y554701D01*
X323204Y553262D01*
X323759Y551921D01*
X324336Y551169D01*
X323582Y550509D01*
X317545Y556545D01*
X317066Y556866D01*
X316500Y556978D01*
X280200D01*
X279634Y556866D01*
X279155Y556545D01*
X266155Y543545D01*
X265834Y543066D01*
X265722Y542500D01*
Y526900D01*
X265834Y526334D01*
X266155Y525855D01*
X272655Y519355D01*
X273134Y519034D01*
X273700Y518922D01*
X288988D01*
X296922Y510988D01*
Y469498D01*
X297034Y468933D01*
X297355Y468453D01*
X301230Y464577D01*
X301301Y464496D01*
X301436Y464323D01*
X301554Y464153D01*
X301654Y463987D01*
X301737Y463825D01*
X301805Y463667D01*
X301859Y463513D01*
X301898Y463362D01*
X301928Y463184D01*
X301949Y463132D01*
X302059Y462575D01*
X302601Y461765D01*
X303411Y461223D01*
X304367Y461033D01*
X305323Y461223D01*
X305673Y461457D01*
X306573Y460856D01*
X306502Y460500D01*
X306692Y459544D01*
X307234Y458734D01*
X308044Y458192D01*
X309000Y458002D01*
X309956Y458192D01*
X310766Y458734D01*
X311308Y459544D01*
X311498Y460500D01*
X311308Y461456D01*
X310766Y462266D01*
X310661Y462337D01*
X310641Y462359D01*
X310522Y462514D01*
X310418Y462672D01*
X310329Y462835D01*
X310254Y463002D01*
X310193Y463175D01*
X310145Y463355D01*
X310110Y463544D01*
X310096Y463675D01*
Y463947D01*
X309983Y464513D01*
X309663Y464992D01*
X302778Y471876D01*
Y513600D01*
X302666Y514166D01*
X302345Y514645D01*
X292010Y524981D01*
X291530Y525301D01*
X290965Y525414D01*
X276377D01*
X272178Y529612D01*
Y539588D01*
X281612Y549022D01*
X315888D01*
X318749Y546161D01*
X318334Y545161D01*
X312150D01*
Y540965D01*
X312137Y540953D01*
X312067Y540913D01*
X311941Y540864D01*
X311758Y540817D01*
X311520Y540779D01*
X311254Y540757D01*
X310895D01*
X310412Y540661D01*
X310002Y540387D01*
X309783Y540168D01*
X308935Y540735D01*
X308965Y540807D01*
X309084Y541709D01*
X308965Y542610D01*
X308618Y543449D01*
X308064Y544171D01*
X307343Y544724D01*
X306504Y545072D01*
X305602Y545190D01*
X304701Y545072D01*
X303861Y544724D01*
X303140Y544171D01*
X302587Y543449D01*
X302239Y542610D01*
X302213Y542407D01*
X302144D01*
X301661Y542310D01*
X301252Y542037D01*
X299967Y540752D01*
X299020Y541219D01*
X299084Y541709D01*
X298966Y542610D01*
X298618Y543449D01*
X298064Y544171D01*
X297343Y544724D01*
X296503Y545072D01*
X295602Y545190D01*
X294701Y545072D01*
X293862Y544724D01*
X293140Y544171D01*
X292587Y543449D01*
X292239Y542610D01*
X292121Y541709D01*
X292239Y540807D01*
X292587Y539968D01*
X293140Y539247D01*
X293862Y538693D01*
X294701Y538345D01*
X295602Y538227D01*
X296092Y538291D01*
X296559Y537344D01*
X294710Y535495D01*
X294436Y535085D01*
X294340Y534602D01*
Y534151D01*
X293340Y533811D01*
X293064Y534171D01*
X292343Y534724D01*
X291504Y535072D01*
X290602Y535190D01*
X289701Y535072D01*
X288861Y534724D01*
X288140Y534171D01*
X287587Y533450D01*
X287239Y532610D01*
X287121Y531709D01*
X287239Y530807D01*
X287587Y529968D01*
X288140Y529247D01*
X288861Y528693D01*
X289701Y528345D01*
X290207Y528279D01*
X290270Y528259D01*
X290787Y528201D01*
X291717Y528038D01*
X292110Y527939D01*
X292474Y527823D01*
X292800Y527696D01*
X293089Y527557D01*
X293340Y527409D01*
X293556Y527253D01*
X293612Y527203D01*
X325708Y495107D01*
X325708Y495107D01*
X340338Y480477D01*
Y453088D01*
X340434Y452605D01*
X340707Y452196D01*
X354296Y438607D01*
Y433130D01*
X354257Y433098D01*
X353301Y432908D01*
X352491Y432366D01*
X351949Y431556D01*
X351759Y430600D01*
X351949Y429644D01*
X352491Y428834D01*
X353301Y428292D01*
X354257Y428102D01*
X355213Y428292D01*
X355861Y428725D01*
X356024Y428834D01*
X357013Y428638D01*
X357074Y428606D01*
X357844Y428092D01*
X358800Y427902D01*
X359756Y428092D01*
X360566Y428634D01*
X361108Y429444D01*
X361298Y430400D01*
X361108Y431356D01*
X360566Y432166D01*
X359756Y432708D01*
X358800Y432898D01*
X358704Y432977D01*
Y439910D01*
X358608Y440393D01*
X358334Y440802D01*
X344745Y454391D01*
Y481780D01*
X344649Y482263D01*
X344376Y482673D01*
X327571Y499477D01*
X299713Y527335D01*
X300180Y528282D01*
X300602Y528227D01*
X301503Y528345D01*
X302343Y528693D01*
X303064Y529247D01*
X303338Y529603D01*
X304338Y529263D01*
Y527874D01*
X304434Y527390D01*
X304708Y526981D01*
X305972Y525716D01*
X305972Y525716D01*
X306246Y525306D01*
X326999Y504552D01*
X326999Y504552D01*
X346838Y484714D01*
Y468556D01*
X346934Y468073D01*
X347207Y467663D01*
X347286Y467584D01*
X347332Y467519D01*
X347384Y467421D01*
X347432Y467305D01*
X347474Y467167D01*
X347509Y467008D01*
X347532Y466838D01*
X347550Y466390D01*
X347543Y466206D01*
X347502Y466000D01*
X347692Y465044D01*
X348234Y464234D01*
X349044Y463692D01*
X350000Y463502D01*
X350956Y463692D01*
X351766Y464234D01*
X352308Y465044D01*
X352498Y466000D01*
X352308Y466956D01*
X352277Y467002D01*
X352998Y467723D01*
X353044Y467692D01*
X354000Y467502D01*
X354956Y467692D01*
X355766Y468234D01*
X356308Y469044D01*
X356498Y470000D01*
X356308Y470956D01*
X355766Y471766D01*
X354956Y472308D01*
X354393Y472420D01*
X354337Y472440D01*
X354105Y472477D01*
X354047Y472489D01*
X353867Y472528D01*
X353659Y472587D01*
X353461Y472656D01*
X353274Y472737D01*
X353097Y472827D01*
X352928Y472929D01*
X352768Y473041D01*
X352641Y473145D01*
X351262Y474523D01*
Y486000D01*
X351166Y486483D01*
X350893Y486893D01*
X329565Y508220D01*
X329565Y508220D01*
X310361Y527424D01*
X310648Y527711D01*
X310921Y528121D01*
X310952Y528273D01*
X311504Y528345D01*
X312343Y528693D01*
X313064Y529247D01*
X313618Y529968D01*
X313966Y530807D01*
X314084Y531709D01*
X313966Y532610D01*
X313618Y533450D01*
X313064Y534171D01*
X312343Y534724D01*
X311504Y535072D01*
X310602Y535190D01*
X309701Y535072D01*
X309650Y535050D01*
X309083Y535898D01*
X311418Y538232D01*
X313388D01*
X313510Y538257D01*
X319054D01*
Y544441D01*
X320054Y544855D01*
X323855Y541055D01*
X324334Y540734D01*
X324900Y540622D01*
X337400D01*
X337966Y540734D01*
X338445Y541055D01*
X351612Y554222D01*
X356342D01*
X356450Y554214D01*
X356668Y554187D01*
X356871Y554150D01*
X357059Y554104D01*
X357233Y554048D01*
X357393Y553985D01*
X357539Y553913D01*
X357674Y553834D01*
X357821Y553730D01*
X357872Y553707D01*
X358344Y553392D01*
X359300Y553202D01*
X360256Y553392D01*
X361066Y553934D01*
X361608Y554744D01*
X361798Y555700D01*
X361608Y556656D01*
X361066Y557466D01*
X360256Y558008D01*
X359300Y558198D01*
X358344Y558008D01*
X357872Y557693D01*
X357821Y557670D01*
X357674Y557566D01*
X357539Y557487D01*
X357393Y557415D01*
X357233Y557352D01*
X357059Y557297D01*
X356871Y557250D01*
X356678Y557215D01*
X356302Y557178D01*
X351000D01*
X350434Y557066D01*
X349955Y556745D01*
X336788Y543578D01*
X326300D01*
X326214Y543722D01*
X326781Y544722D01*
X335500D01*
X336066Y544834D01*
X336545Y545155D01*
X357854Y566463D01*
X357936Y566534D01*
X358109Y566669D01*
X358279Y566786D01*
X358444Y566887D01*
X358606Y566970D01*
X358764Y567038D01*
X358918Y567092D01*
X359069Y567131D01*
X359247Y567161D01*
X359300Y567181D01*
X359856Y567292D01*
X360666Y567834D01*
X361208Y568644D01*
X361398Y569600D01*
X361208Y570556D01*
X360666Y571366D01*
X359856Y571908D01*
X358900Y572098D01*
D02*
G37*
G36*
X267590Y560261D02*
X266151Y560072D01*
X264810Y559516D01*
X263659Y558633D01*
X262775Y557481D01*
X262220Y556140D01*
X262030Y554701D01*
X262220Y553262D01*
X262775Y551921D01*
X263659Y550769D01*
X264810Y549885D01*
X266151Y549330D01*
X267590Y549140D01*
X269030Y549330D01*
X270371Y549885D01*
X271522Y550769D01*
X272406Y551921D01*
X272962Y553262D01*
X273151Y554701D01*
X272962Y556140D01*
X272406Y557481D01*
X271522Y558633D01*
X270371Y559516D01*
X269030Y560072D01*
X267590Y560261D01*
D02*
G37*
G36*
X285602Y545190D02*
X284701Y545072D01*
X283861Y544724D01*
X283140Y544171D01*
X282587Y543449D01*
X282239Y542610D01*
X282121Y541709D01*
X282239Y540807D01*
X282587Y539968D01*
X283140Y539247D01*
X283861Y538693D01*
X284701Y538345D01*
X285602Y538227D01*
X286504Y538345D01*
X287343Y538693D01*
X288064Y539247D01*
X288618Y539968D01*
X288966Y540807D01*
X289084Y541709D01*
X288966Y542610D01*
X288618Y543449D01*
X288064Y544171D01*
X287343Y544724D01*
X286504Y545072D01*
X285602Y545190D01*
D02*
G37*
G36*
X187762Y524950D02*
X179862D01*
Y517050D01*
X187762D01*
Y524950D01*
D02*
G37*
G36*
X164600Y524984D02*
X163569Y524848D01*
X162608Y524450D01*
X161783Y523817D01*
X161150Y522992D01*
X160751Y522031D01*
X160616Y521000D01*
X160751Y519969D01*
X161150Y519008D01*
X161783Y518183D01*
X162608Y517550D01*
X163569Y517152D01*
X164600Y517016D01*
X165631Y517152D01*
X166592Y517550D01*
X167417Y518183D01*
X168050Y519008D01*
X168448Y519969D01*
X168584Y521000D01*
X168448Y522031D01*
X168050Y522992D01*
X167417Y523817D01*
X166592Y524450D01*
X165631Y524848D01*
X164600Y524984D01*
D02*
G37*
G36*
X282800Y514914D02*
X282527Y514859D01*
X282424Y514791D01*
X282049Y514674D01*
X281715Y514633D01*
X281273Y514659D01*
X281168Y514680D01*
X281000Y514714D01*
X275000D01*
X274727Y514659D01*
X274495Y514505D01*
X274341Y514273D01*
X274286Y514000D01*
Y492296D01*
X269495Y487505D01*
X269341Y487273D01*
X269286Y487000D01*
Y476000D01*
X269341Y475727D01*
X269495Y475495D01*
X271495Y473495D01*
X271727Y473341D01*
X272000Y473286D01*
X290387D01*
X290660Y473341D01*
X290891Y473495D01*
X292862Y475466D01*
X293017Y475698D01*
X293071Y475971D01*
X293071Y483842D01*
X293017Y484115D01*
X292862Y484347D01*
X281714Y495496D01*
Y497516D01*
X282452Y497894D01*
X282714Y497952D01*
X282880Y497841D01*
X283154Y497786D01*
X293648Y497786D01*
X293921Y497841D01*
X294152Y497995D01*
X294307Y498227D01*
X294361Y498500D01*
X294361Y510752D01*
X294307Y511026D01*
X294152Y511257D01*
X290705Y514705D01*
X290705Y514705D01*
X290473Y514859D01*
X290200Y514914D01*
X282800Y514914D01*
D02*
G37*
G36*
X74600Y542098D02*
X73644Y541908D01*
X72834Y541366D01*
X72292Y540556D01*
X72102Y539600D01*
X72292Y538644D01*
X72612Y538166D01*
X72637Y538112D01*
X72768Y537932D01*
X72834Y537834D01*
X72835Y537832D01*
X72923Y537698D01*
X73035Y537502D01*
X73130Y537308D01*
X73210Y537116D01*
X73274Y536926D01*
X73323Y536737D01*
X73358Y536549D01*
X73377Y536383D01*
Y515200D01*
X73470Y514732D01*
X73735Y514335D01*
X93335Y494735D01*
X93732Y494470D01*
X94200Y494377D01*
X107865D01*
X107964Y493376D01*
X107732Y493330D01*
X107335Y493065D01*
X96044Y481774D01*
X95945Y481693D01*
X95811Y481596D01*
X95672Y481510D01*
X95528Y481434D01*
X95379Y481367D01*
X95224Y481310D01*
X95061Y481262D01*
X94892Y481224D01*
X94693Y481192D01*
X94635Y481171D01*
X94142Y481072D01*
X93414Y480586D01*
X92928Y479858D01*
X92757Y479000D01*
X92928Y478142D01*
X93414Y477414D01*
X94142Y476928D01*
X95000Y476757D01*
X95858Y476928D01*
X96586Y477414D01*
X97072Y478142D01*
X97171Y478635D01*
X97192Y478693D01*
X97224Y478892D01*
X97262Y479061D01*
X97310Y479224D01*
X97367Y479379D01*
X97434Y479528D01*
X97510Y479672D01*
X97596Y479811D01*
X97693Y479945D01*
X97774Y480044D01*
X108707Y490976D01*
X145100D01*
X145568Y491070D01*
X145965Y491335D01*
X162407Y507776D01*
X164215D01*
X164340Y507766D01*
X164512Y507741D01*
X164676Y507707D01*
X164835Y507663D01*
X164989Y507610D01*
X165138Y507548D01*
X165282Y507476D01*
X165423Y507394D01*
X165579Y507289D01*
X165641Y507263D01*
X165994Y507028D01*
X166852Y506857D01*
X167710Y507028D01*
X168438Y507514D01*
X168924Y508242D01*
X169095Y509100D01*
X168924Y509958D01*
X168438Y510686D01*
X167710Y511172D01*
X166852Y511343D01*
X165994Y511172D01*
X165491Y510837D01*
X165460Y510821D01*
X165412Y510784D01*
X165266Y510686D01*
X165249Y510662D01*
X165140Y510587D01*
X164989Y510497D01*
X164838Y510421D01*
X164687Y510357D01*
X164535Y510305D01*
X164382Y510265D01*
X164226Y510237D01*
X164101Y510223D01*
X161900D01*
X161432Y510130D01*
X161035Y509865D01*
X144593Y493424D01*
X137480D01*
X136946Y494423D01*
X137160Y494744D01*
X137350Y495700D01*
X137160Y496656D01*
X136618Y497466D01*
X135808Y498008D01*
X135463Y498076D01*
X135561Y499077D01*
X137186D01*
X137355Y499060D01*
X137550Y499027D01*
X137744Y498981D01*
X137937Y498921D01*
X138130Y498847D01*
X138323Y498759D01*
X138517Y498657D01*
X138711Y498539D01*
X138921Y498395D01*
X138983Y498368D01*
X139396Y498092D01*
X140352Y497902D01*
X141308Y498092D01*
X142118Y498634D01*
X142660Y499444D01*
X142850Y500400D01*
X142660Y501356D01*
X142118Y502166D01*
X141308Y502708D01*
X140352Y502898D01*
X139396Y502708D01*
X138836Y502334D01*
X138808Y502320D01*
X138763Y502285D01*
X138586Y502166D01*
X138562Y502131D01*
X138387Y502010D01*
X138189Y501889D01*
X137995Y501786D01*
X137804Y501700D01*
X137618Y501632D01*
X137434Y501580D01*
X137254Y501543D01*
X137092Y501523D01*
X95307D01*
X81640Y515190D01*
X81536Y515321D01*
X81427Y515478D01*
X81329Y515647D01*
X81240Y515826D01*
X81160Y516018D01*
X81090Y516223D01*
X81031Y516441D01*
X80998Y516598D01*
X80998Y516600D01*
X80975Y516716D01*
X80941Y516936D01*
X80920Y516992D01*
X80808Y517556D01*
X80266Y518366D01*
X79456Y518908D01*
X78500Y519098D01*
X77544Y518908D01*
X76824Y518426D01*
X76394Y518530D01*
X75823Y518804D01*
Y536383D01*
X75842Y536549D01*
X75877Y536737D01*
X75926Y536926D01*
X75990Y537116D01*
X76070Y537308D01*
X76165Y537502D01*
X76277Y537698D01*
X76365Y537832D01*
X76366Y537834D01*
X76432Y537932D01*
X76563Y538112D01*
X76588Y538166D01*
X76908Y538644D01*
X77098Y539600D01*
X76908Y540556D01*
X76366Y541366D01*
X75556Y541908D01*
X74600Y542098D01*
D02*
G37*
G36*
X190000Y590228D02*
X119100D01*
X118265Y590118D01*
X117486Y589795D01*
X116818Y589282D01*
X95530Y567995D01*
X95017Y567326D01*
X94695Y566548D01*
X94585Y565712D01*
Y555000D01*
X94695Y554165D01*
X95017Y553386D01*
X95530Y552718D01*
X96199Y552205D01*
X96977Y551882D01*
X97812Y551772D01*
X98648Y551882D01*
X99426Y552205D01*
X100095Y552718D01*
X100608Y553386D01*
X100930Y554165D01*
X101040Y555000D01*
Y564375D01*
X120437Y583772D01*
X188663D01*
X195772Y576663D01*
Y566400D01*
X195882Y565565D01*
X196205Y564786D01*
X196718Y564118D01*
X222286Y538549D01*
X222286Y519000D01*
Y516000D01*
X222341Y515727D01*
X222495Y515495D01*
X222895Y515095D01*
X223127Y514941D01*
X223400Y514886D01*
X225055D01*
X225065Y514882D01*
X225900Y514772D01*
X226735Y514882D01*
X226745Y514886D01*
X236015D01*
X236281Y514398D01*
X236416Y513886D01*
X236341Y513773D01*
X236286Y513500D01*
Y497296D01*
X229495Y490505D01*
X229341Y490273D01*
X229286Y490000D01*
X229286Y469323D01*
X228362Y468940D01*
X205801Y491501D01*
X205388Y491778D01*
X204900Y491875D01*
X170028D01*
X166001Y495901D01*
X165588Y496177D01*
X165100Y496275D01*
X159559D01*
X159440Y496286D01*
X159278Y496313D01*
X159122Y496351D01*
X158970Y496399D01*
X158823Y496458D01*
X158678Y496528D01*
X158537Y496609D01*
X158451Y496667D01*
X158438Y496686D01*
X158295Y496782D01*
X158242Y496823D01*
X158210Y496838D01*
X157710Y497172D01*
X156852Y497343D01*
X155994Y497172D01*
X155266Y496686D01*
X154780Y495958D01*
X154609Y495100D01*
X154780Y494242D01*
X155266Y493514D01*
X155994Y493028D01*
X156256Y492975D01*
X156777Y491964D01*
X156774Y491930D01*
X156609Y491100D01*
X156780Y490242D01*
X156793Y490222D01*
X156333Y489110D01*
X156142Y489072D01*
X155414Y488586D01*
X154928Y487858D01*
X154757Y487000D01*
X154928Y486142D01*
X155414Y485414D01*
X156142Y484928D01*
X156215Y484913D01*
X156780Y483958D01*
X156609Y483100D01*
X156780Y482242D01*
X157266Y481514D01*
X157571Y481310D01*
X157883Y481030D01*
X157717Y480161D01*
X156730Y480183D01*
X156466Y480577D01*
X155739Y481063D01*
X154880Y481234D01*
X154022Y481063D01*
X153294Y480577D01*
X153032Y480185D01*
X153024Y480178D01*
X153004Y480143D01*
X152998Y480137D01*
X152988Y480133D01*
X152943Y480120D01*
X152887Y480109D01*
X152745Y480095D01*
X152559D01*
X152090Y480001D01*
X151693Y479736D01*
X132824Y460866D01*
X132085Y461063D01*
X131824Y461247D01*
Y464693D01*
X140565Y473435D01*
X140830Y473832D01*
X140924Y474300D01*
Y480700D01*
X140830Y481168D01*
X140565Y481565D01*
X140444Y481686D01*
X140387Y481757D01*
X140310Y481869D01*
X140239Y481989D01*
X140174Y482120D01*
X140114Y482260D01*
X140064Y482403D01*
X139972Y482758D01*
X139937Y482951D01*
X139912Y483016D01*
X139824Y483458D01*
X139338Y484186D01*
X138610Y484672D01*
X137752Y484843D01*
X136894Y484672D01*
X136423Y484358D01*
X135565Y484683D01*
X135423Y484801D01*
Y484801D01*
X135330Y485269D01*
X135064Y485666D01*
X132265Y488465D01*
X131868Y488730D01*
X131400Y488824D01*
X114600D01*
X114132Y488730D01*
X113735Y488465D01*
X85410Y460140D01*
X85279Y460036D01*
X85122Y459927D01*
X84953Y459829D01*
X84774Y459740D01*
X84582Y459660D01*
X84377Y459590D01*
X84159Y459531D01*
X84002Y459498D01*
X84000Y459498D01*
X83884Y459475D01*
X83664Y459441D01*
X83608Y459420D01*
X83044Y459308D01*
X82234Y458766D01*
X81692Y457956D01*
X81502Y457000D01*
X81692Y456044D01*
X82234Y455234D01*
X83044Y454692D01*
X84000Y454502D01*
X84956Y454692D01*
X85766Y455234D01*
X86308Y456044D01*
X86420Y456608D01*
X86440Y456664D01*
X86475Y456884D01*
X86498Y457000D01*
X86498Y457002D01*
X86531Y457159D01*
X86590Y457377D01*
X86660Y457582D01*
X86740Y457774D01*
X86829Y457953D01*
X86927Y458122D01*
X87036Y458279D01*
X87140Y458410D01*
X115107Y486376D01*
X121950D01*
X122262Y485498D01*
X122267Y485377D01*
X121195Y484305D01*
X121041Y484073D01*
X120986Y483800D01*
Y444000D01*
X121041Y443727D01*
X121195Y443495D01*
X122195Y442495D01*
X122427Y442341D01*
X122700Y442286D01*
X124504D01*
X124764Y441846D01*
X124922Y441286D01*
X124528Y440697D01*
X124357Y439839D01*
X124528Y438980D01*
X125014Y438252D01*
X125742Y437766D01*
X126600Y437595D01*
X127458Y437766D01*
X128186Y438252D01*
X128376Y438537D01*
X129376Y438234D01*
Y435107D01*
X120410Y426140D01*
X120279Y426035D01*
X120122Y425927D01*
X119953Y425829D01*
X119774Y425740D01*
X119582Y425660D01*
X119377Y425591D01*
X119159Y425531D01*
X119002Y425498D01*
X119000Y425498D01*
X118884Y425475D01*
X118664Y425441D01*
X118608Y425420D01*
X118044Y425308D01*
X117234Y424766D01*
X116692Y423956D01*
X116502Y423000D01*
X116692Y422044D01*
X117234Y421234D01*
X118044Y420692D01*
X119000Y420502D01*
X119956Y420692D01*
X120766Y421234D01*
X121066Y421682D01*
X122130Y421780D01*
X122223Y421750D01*
X122234Y421734D01*
X123044Y421192D01*
X124000Y421002D01*
X124956Y421192D01*
X125766Y421734D01*
X125849Y421857D01*
X127051D01*
X127134Y421734D01*
X127944Y421192D01*
X128900Y421002D01*
X129856Y421192D01*
X130666Y421734D01*
X130855Y422016D01*
X132045D01*
X132234Y421734D01*
X133044Y421192D01*
X134000Y421002D01*
X134956Y421192D01*
X135766Y421734D01*
X135899Y421932D01*
X137101D01*
X137234Y421734D01*
X138044Y421192D01*
X139000Y421002D01*
X139956Y421192D01*
X140766Y421734D01*
X140899Y421932D01*
X142101D01*
X142234Y421734D01*
X143044Y421192D01*
X144000Y421002D01*
X144956Y421192D01*
X145766Y421734D01*
X146308Y422544D01*
X146498Y423500D01*
X146352Y424233D01*
X146356Y424238D01*
X146429Y424325D01*
X146575Y424471D01*
X146840Y424868D01*
X146933Y425336D01*
Y436422D01*
X147933Y436836D01*
X162135Y422635D01*
X162532Y422370D01*
X163000Y422276D01*
X170783D01*
X170949Y422258D01*
X171137Y422223D01*
X171326Y422174D01*
X171516Y422110D01*
X171708Y422030D01*
X171902Y421935D01*
X172098Y421823D01*
X172232Y421735D01*
X172234Y421734D01*
X172332Y421668D01*
X172512Y421537D01*
X172566Y421512D01*
X173044Y421192D01*
X174000Y421002D01*
X174956Y421192D01*
X175766Y421734D01*
X175849Y421857D01*
X177051D01*
X177134Y421734D01*
X177944Y421192D01*
X178900Y421002D01*
X179856Y421192D01*
X180666Y421734D01*
X180855Y422016D01*
X182045D01*
X182234Y421734D01*
X183044Y421192D01*
X184000Y421002D01*
X184956Y421192D01*
X185766Y421734D01*
X185899Y421932D01*
X187101D01*
X187234Y421734D01*
X188044Y421192D01*
X189000Y421002D01*
X189956Y421192D01*
X190766Y421734D01*
X190899Y421932D01*
X192101D01*
X192234Y421734D01*
X193044Y421192D01*
X194000Y421002D01*
X194956Y421192D01*
X195766Y421734D01*
X195899Y421932D01*
X197101D01*
X197234Y421734D01*
X198044Y421192D01*
X199000Y421002D01*
X199956Y421192D01*
X200766Y421734D01*
X200849Y421857D01*
X202051D01*
X202134Y421734D01*
X202944Y421192D01*
X203900Y421002D01*
X204856Y421192D01*
X205666Y421734D01*
X206208Y422544D01*
X206225Y422631D01*
X207310Y422960D01*
X207635Y422635D01*
X208032Y422370D01*
X208500Y422276D01*
X225883D01*
X226049Y422258D01*
X226237Y422223D01*
X226426Y422174D01*
X226616Y422110D01*
X226808Y422030D01*
X227002Y421935D01*
X227198Y421823D01*
X227332Y421735D01*
X227334Y421734D01*
X227432Y421668D01*
X227612Y421537D01*
X227666Y421512D01*
X228144Y421192D01*
X229100Y421002D01*
X230056Y421192D01*
X230866Y421734D01*
X230949Y421857D01*
X232151D01*
X232234Y421734D01*
X233044Y421192D01*
X234000Y421002D01*
X234956Y421192D01*
X235766Y421734D01*
X235899Y421932D01*
X237101D01*
X237234Y421734D01*
X238044Y421192D01*
X239000Y421002D01*
X239956Y421192D01*
X240766Y421734D01*
X240899Y421932D01*
X242101D01*
X242234Y421734D01*
X243044Y421192D01*
X244000Y421002D01*
X244956Y421192D01*
X245766Y421734D01*
X245899Y421932D01*
X247101D01*
X247234Y421734D01*
X248044Y421192D01*
X249000Y421002D01*
X249956Y421192D01*
X250766Y421734D01*
X250899Y421932D01*
X252101D01*
X252234Y421734D01*
X253044Y421192D01*
X254000Y421002D01*
X254956Y421192D01*
X255766Y421734D01*
X256131Y422279D01*
X257005Y422404D01*
X257288Y422347D01*
X257364Y422234D01*
X258174Y421692D01*
X259130Y421502D01*
X259201Y421516D01*
X259258Y421505D01*
X259381Y421467D01*
X259515Y421411D01*
X259661Y421336D01*
X259818Y421241D01*
X259977Y421130D01*
X260230Y420919D01*
X281357Y399792D01*
X281622Y399474D01*
X281730Y399326D01*
X281818Y399190D01*
X281883Y399074D01*
X281926Y398982D01*
X281948Y398917D01*
X281966Y398830D01*
X281984Y398786D01*
X282092Y398244D01*
X282634Y397434D01*
X283444Y396892D01*
X284400Y396702D01*
X285356Y396892D01*
X286166Y397434D01*
X286708Y398244D01*
X286898Y399200D01*
X286708Y400156D01*
X286166Y400966D01*
X285356Y401508D01*
X284814Y401616D01*
X284770Y401634D01*
X284683Y401652D01*
X284618Y401674D01*
X284526Y401717D01*
X284410Y401782D01*
X284274Y401870D01*
X284131Y401975D01*
X283729Y402322D01*
X261946Y424105D01*
X261621Y424475D01*
X261554Y424562D01*
X261513Y424622D01*
X261508Y424629D01*
X261504Y424642D01*
X261498Y424650D01*
X261438Y424956D01*
X260896Y425766D01*
X260086Y426308D01*
X260224Y427300D01*
X265700D01*
Y434700D01*
X266689Y434726D01*
X296972D01*
X303354Y428343D01*
X303457Y428217D01*
X303571Y428056D01*
X303673Y427888D01*
X303765Y427711D01*
X303845Y427525D01*
X303914Y427330D01*
X303973Y427125D01*
X304016Y426928D01*
X304022Y426899D01*
X304060Y426662D01*
X304080Y426607D01*
X304192Y426044D01*
X304734Y425234D01*
X305544Y424692D01*
X306500Y424502D01*
X307456Y424692D01*
X308266Y425234D01*
X308808Y426044D01*
X308998Y427000D01*
X308831Y427839D01*
X309114Y428299D01*
X309496Y428726D01*
X309500Y428725D01*
X319426D01*
X319588Y428709D01*
X319782Y428676D01*
X319974Y428629D01*
X320163Y428568D01*
X320351Y428494D01*
X320538Y428405D01*
X320725Y428301D01*
X320895Y428193D01*
X320920Y428176D01*
X321113Y428036D01*
X321167Y428011D01*
X321644Y427692D01*
X322600Y427502D01*
X323556Y427692D01*
X324366Y428234D01*
X324908Y429044D01*
X325098Y430000D01*
X324908Y430956D01*
X324366Y431766D01*
X323556Y432308D01*
X322600Y432498D01*
X321644Y432308D01*
X321167Y431989D01*
X321113Y431964D01*
X320920Y431824D01*
X320895Y431807D01*
X320725Y431699D01*
X320538Y431595D01*
X320351Y431506D01*
X320163Y431432D01*
X319974Y431371D01*
X319782Y431324D01*
X319588Y431291D01*
X319426Y431275D01*
X314331D01*
X314041Y432036D01*
X313994Y432274D01*
X314508Y433044D01*
X314698Y434000D01*
X314508Y434956D01*
X313966Y435766D01*
X313156Y436308D01*
X312593Y436420D01*
X312538Y436440D01*
X312301Y436478D01*
X312272Y436484D01*
X312075Y436527D01*
X311870Y436586D01*
X311675Y436655D01*
X311489Y436736D01*
X311312Y436827D01*
X311144Y436929D01*
X310983Y437043D01*
X310857Y437146D01*
X286777Y461226D01*
X287191Y462225D01*
X289752D01*
X317379Y434599D01*
X317792Y434323D01*
X318280Y434226D01*
X323872D01*
X327254Y430843D01*
X327357Y430717D01*
X327471Y430556D01*
X327573Y430388D01*
X327664Y430211D01*
X327745Y430025D01*
X327814Y429830D01*
X327873Y429625D01*
X327916Y429428D01*
X327922Y429399D01*
X327960Y429162D01*
X327980Y429107D01*
X328092Y428544D01*
X328634Y427734D01*
X329444Y427192D01*
X330400Y427002D01*
X331356Y427192D01*
X332166Y427734D01*
X332708Y428544D01*
X332898Y429500D01*
X332708Y430456D01*
X332166Y431266D01*
X332066Y431333D01*
X332132Y431811D01*
X332367Y432335D01*
X333156Y432492D01*
X333966Y433034D01*
X334508Y433844D01*
X334698Y434800D01*
X334508Y435756D01*
X333966Y436566D01*
X333156Y437108D01*
X332593Y437220D01*
X332538Y437240D01*
X332301Y437278D01*
X332272Y437284D01*
X332075Y437327D01*
X331870Y437386D01*
X331675Y437455D01*
X331489Y437536D01*
X331312Y437627D01*
X331144Y437729D01*
X330983Y437843D01*
X330857Y437946D01*
X328101Y440701D01*
X327688Y440977D01*
X327200Y441075D01*
X320328D01*
X294521Y466882D01*
X294107Y467158D01*
X293620Y467255D01*
X293599D01*
X293500Y467275D01*
X255865D01*
X255526Y468274D01*
X255639Y468361D01*
X256232Y469134D01*
X256605Y470034D01*
X256732Y471000D01*
X256605Y471966D01*
X256232Y472866D01*
X255639Y473639D01*
X254866Y474232D01*
X253966Y474605D01*
X253000Y474732D01*
X252034Y474605D01*
X251134Y474232D01*
X250361Y473639D01*
X249768Y472866D01*
X249395Y471966D01*
X249268Y471000D01*
X249395Y470034D01*
X249768Y469134D01*
X250361Y468361D01*
X250474Y468274D01*
X250135Y467275D01*
X245865D01*
X245526Y468274D01*
X245639Y468361D01*
X246232Y469134D01*
X246605Y470034D01*
X246732Y471000D01*
X246605Y471966D01*
X246232Y472866D01*
X245639Y473639D01*
X244866Y474232D01*
X243966Y474605D01*
X243000Y474732D01*
X242034Y474605D01*
X241134Y474232D01*
X240361Y473639D01*
X239768Y472866D01*
X239395Y471966D01*
X239268Y471000D01*
X239395Y470034D01*
X239768Y469134D01*
X240361Y468361D01*
X240474Y468274D01*
X240135Y467275D01*
X237689D01*
X237371Y467283D01*
X236714Y468274D01*
X236714Y476704D01*
X239296Y479286D01*
X246000Y479286D01*
X246273Y479341D01*
X246505Y479495D01*
X246505Y479495D01*
X247505Y480495D01*
X247659Y480727D01*
X247714Y481000D01*
Y490000D01*
X247659Y490273D01*
X247505Y490505D01*
X243714Y494296D01*
Y505764D01*
X244714Y505862D01*
X244741Y505727D01*
X244895Y505495D01*
X245127Y505341D01*
X245400Y505286D01*
X251000Y505286D01*
X251273Y505341D01*
X251505Y505495D01*
X251659Y505727D01*
X251714Y506000D01*
X251714Y517900D01*
X251659Y518173D01*
X251505Y518405D01*
X228364Y541545D01*
X228182Y541782D01*
X202228Y567737D01*
Y578000D01*
X202118Y578835D01*
X201795Y579614D01*
X201282Y580282D01*
X192282Y589282D01*
X191614Y589795D01*
X190835Y590118D01*
X190000Y590228D01*
D02*
G37*
G36*
X148000Y557984D02*
X146969Y557848D01*
X146008Y557450D01*
X145183Y556817D01*
X144550Y555992D01*
X144152Y555031D01*
X144016Y554000D01*
X144152Y552969D01*
X144550Y552008D01*
X145183Y551183D01*
X146008Y550550D01*
X146969Y550152D01*
X148000Y550016D01*
X149031Y550152D01*
X149592Y549302D01*
X130595Y530305D01*
X130441Y530073D01*
X130386Y529800D01*
X130386Y513600D01*
X130441Y513327D01*
X130595Y513095D01*
X130827Y512941D01*
X131100Y512886D01*
X133348D01*
X133396Y512765D01*
X133514Y511886D01*
X133135Y511633D01*
X133107Y511619D01*
X133063Y511584D01*
X132885Y511466D01*
X132861Y511431D01*
X132686Y511309D01*
X132488Y511188D01*
X132294Y511085D01*
X132103Y511000D01*
X131917Y510931D01*
X131734Y510879D01*
X131553Y510843D01*
X131391Y510823D01*
X105456D01*
X104988Y510730D01*
X104591Y510464D01*
X104089Y509962D01*
X103963Y509866D01*
X103813Y509769D01*
X103649Y509682D01*
X103468Y509603D01*
X103271Y509533D01*
X103057Y509473D01*
X102825Y509423D01*
X102576Y509384D01*
X102573Y509383D01*
X102500Y509398D01*
X101544Y509208D01*
X100734Y508666D01*
X100192Y507856D01*
X100002Y506900D01*
X100192Y505944D01*
X100734Y505134D01*
X101544Y504592D01*
X102500Y504402D01*
X103456Y504592D01*
X104266Y505134D01*
X104808Y505944D01*
X104894Y506376D01*
X104919Y506436D01*
X104970Y506675D01*
X105027Y506886D01*
X105095Y507088D01*
X105173Y507281D01*
X105261Y507467D01*
X105360Y507645D01*
X105469Y507816D01*
X105589Y507980D01*
X105699Y508111D01*
X105963Y508376D01*
X131485D01*
X131654Y508359D01*
X131849Y508326D01*
X132043Y508280D01*
X132236Y508220D01*
X132429Y508146D01*
X132623Y508058D01*
X132816Y507956D01*
X133010Y507838D01*
X133220Y507694D01*
X133282Y507667D01*
X133695Y507391D01*
X134651Y507201D01*
X135607Y507391D01*
X136417Y507933D01*
X136959Y508743D01*
X137149Y509699D01*
X136959Y510655D01*
X136417Y511466D01*
X135788Y511886D01*
X135906Y512765D01*
X135954Y512886D01*
X145200Y512886D01*
X145473Y512941D01*
X145705Y513095D01*
X145859Y513327D01*
X145914Y513600D01*
X145914Y533604D01*
X158082Y545772D01*
X188663D01*
X195572Y538863D01*
Y513782D01*
X187995Y506205D01*
X187841Y505973D01*
X187786Y505700D01*
X187786Y499700D01*
X187841Y499427D01*
X187995Y499195D01*
X188227Y499041D01*
X188500Y498986D01*
X204800D01*
X205073Y499041D01*
X205305Y499195D01*
X205505Y499395D01*
X205659Y499627D01*
X205714Y499900D01*
Y510100D01*
X205659Y510373D01*
X205505Y510605D01*
X202028Y514082D01*
Y540200D01*
X201918Y541035D01*
X201595Y541814D01*
X201082Y542482D01*
X192282Y551282D01*
X191614Y551795D01*
X190835Y552118D01*
X190000Y552228D01*
X156000D01*
X155894Y552214D01*
X152800D01*
X152602Y552174D01*
X152320Y552371D01*
X151814Y552886D01*
X151848Y552969D01*
X151984Y554000D01*
X151848Y555031D01*
X151450Y555992D01*
X150817Y556817D01*
X149992Y557450D01*
X149031Y557848D01*
X148000Y557984D01*
D02*
G37*
G36*
X335056Y475950D02*
X327156D01*
Y468050D01*
X335056D01*
Y475950D01*
D02*
G37*
G36*
X311894Y475984D02*
X310862Y475848D01*
X309902Y475450D01*
X309076Y474817D01*
X308443Y473992D01*
X308045Y473031D01*
X307910Y472000D01*
X308045Y470969D01*
X308443Y470008D01*
X309076Y469183D01*
X309902Y468550D01*
X310862Y468152D01*
X311894Y468016D01*
X312925Y468152D01*
X313886Y468550D01*
X314711Y469183D01*
X315344Y470008D01*
X315742Y470969D01*
X315878Y472000D01*
X315742Y473031D01*
X315344Y473992D01*
X314711Y474817D01*
X313886Y475450D01*
X312925Y475848D01*
X311894Y475984D01*
D02*
G37*
G36*
X343000Y539714D02*
X342727Y539659D01*
X342495Y539505D01*
X342341Y539273D01*
X342286Y539000D01*
Y503000D01*
X342341Y502727D01*
X342495Y502495D01*
X353286Y491704D01*
Y476000D01*
X353341Y475727D01*
X353495Y475495D01*
X360772Y468218D01*
Y468000D01*
X360882Y467165D01*
X361205Y466386D01*
X361718Y465718D01*
X362386Y465205D01*
X363165Y464882D01*
X364000Y464772D01*
X364835Y464882D01*
X365614Y465205D01*
X366282Y465718D01*
X366795Y466386D01*
X367118Y467165D01*
X367228Y468000D01*
Y535000D01*
X367118Y535835D01*
X366795Y536614D01*
X366714Y536720D01*
Y538000D01*
X366659Y538273D01*
X366505Y538505D01*
X365505Y539505D01*
X365273Y539659D01*
X365000Y539714D01*
X343000Y539714D01*
D02*
G37*
G36*
X344000Y406498D02*
X343044Y406308D01*
X342234Y405766D01*
X341692Y404956D01*
X341582Y404400D01*
X341561Y404347D01*
X341531Y404169D01*
X341492Y404018D01*
X341439Y403864D01*
X341371Y403706D01*
X341287Y403544D01*
X341186Y403379D01*
X341074Y403217D01*
X340834Y402925D01*
X333388Y395478D01*
X295958D01*
X295850Y395486D01*
X295632Y395513D01*
X295429Y395550D01*
X295241Y395597D01*
X295067Y395652D01*
X294907Y395715D01*
X294761Y395787D01*
X294626Y395866D01*
X294479Y395970D01*
X294428Y395993D01*
X293956Y396308D01*
X293000Y396498D01*
X292044Y396308D01*
X291234Y395766D01*
X290692Y394956D01*
X290502Y394000D01*
X290692Y393044D01*
X291234Y392234D01*
X292044Y391692D01*
X293000Y391502D01*
X293956Y391692D01*
X294428Y392007D01*
X294479Y392030D01*
X294626Y392134D01*
X294761Y392213D01*
X294907Y392285D01*
X295067Y392348D01*
X295241Y392404D01*
X295429Y392450D01*
X295622Y392485D01*
X295998Y392522D01*
X334000D01*
X334566Y392634D01*
X335045Y392955D01*
X342954Y400863D01*
X343035Y400934D01*
X343209Y401069D01*
X343378Y401186D01*
X343544Y401287D01*
X343706Y401370D01*
X343864Y401439D01*
X344018Y401492D01*
X344169Y401531D01*
X344347Y401561D01*
X344400Y401581D01*
X344956Y401692D01*
X345766Y402234D01*
X346308Y403044D01*
X346498Y404000D01*
X346308Y404956D01*
X345766Y405766D01*
X344956Y406308D01*
X344000Y406498D01*
D02*
G37*
G36*
X133800Y373098D02*
X132844Y372908D01*
X132034Y372366D01*
X131968Y372268D01*
X130766Y372266D01*
X129956Y372808D01*
X129000Y372998D01*
X128044Y372808D01*
X127234Y372266D01*
X126692Y371456D01*
X126502Y370500D01*
X126692Y369544D01*
X127234Y368734D01*
X127505Y368552D01*
X127522Y368287D01*
Y367900D01*
X127634Y367334D01*
X127955Y366855D01*
X131855Y362955D01*
X132334Y362634D01*
X132900Y362522D01*
X140588D01*
X143812Y359297D01*
Y351209D01*
X143925Y350643D01*
X144246Y350164D01*
X144796Y349614D01*
X144808Y349600D01*
X145027Y349318D01*
X145229Y349008D01*
X145415Y348670D01*
X145585Y348302D01*
X145738Y347903D01*
X145870Y347483D01*
X146091Y346514D01*
X146171Y345986D01*
X146193Y345927D01*
X146249Y345495D01*
X146637Y344559D01*
X147254Y343754D01*
X148059Y343137D01*
X148995Y342750D01*
X150000Y342617D01*
X151005Y342750D01*
X151941Y343137D01*
X152746Y343754D01*
X153363Y344559D01*
X153751Y345495D01*
X153883Y346500D01*
X153751Y347505D01*
X153363Y348441D01*
X152746Y349246D01*
X151941Y349863D01*
X151005Y350251D01*
X150581Y350306D01*
X150530Y350326D01*
X149478Y350512D01*
X149026Y350627D01*
X148597Y350762D01*
X148198Y350915D01*
X147830Y351085D01*
X147492Y351271D01*
X147182Y351473D01*
X146900Y351692D01*
X146886Y351704D01*
X146769Y351821D01*
Y352866D01*
X147769Y353359D01*
X148059Y353137D01*
X148995Y352749D01*
X150000Y352617D01*
X151005Y352749D01*
X151941Y353137D01*
X152746Y353754D01*
X152835Y353870D01*
X153835Y353531D01*
Y351187D01*
X153947Y350621D01*
X154268Y350142D01*
X154796Y349614D01*
X154808Y349600D01*
X155027Y349318D01*
X155229Y349008D01*
X155415Y348670D01*
X155585Y348302D01*
X155738Y347903D01*
X155870Y347483D01*
X156091Y346514D01*
X156171Y345986D01*
X156193Y345927D01*
X156249Y345495D01*
X156637Y344559D01*
X157254Y343754D01*
X158059Y343137D01*
X158995Y342750D01*
X160000Y342617D01*
X161005Y342750D01*
X161941Y343137D01*
X162746Y343754D01*
X163363Y344559D01*
X163751Y345495D01*
X163883Y346500D01*
X163751Y347505D01*
X163363Y348441D01*
X162746Y349246D01*
X161941Y349863D01*
X161005Y350251D01*
X160581Y350306D01*
X160530Y350326D01*
X159478Y350512D01*
X159026Y350627D01*
X158597Y350762D01*
X158198Y350915D01*
X157830Y351085D01*
X157492Y351271D01*
X157182Y351473D01*
X156900Y351692D01*
X156886Y351704D01*
X156791Y351799D01*
Y359187D01*
X156679Y359753D01*
X156358Y360232D01*
X147845Y368745D01*
X147366Y369066D01*
X146800Y369178D01*
X137312D01*
X136937Y369554D01*
X136866Y369635D01*
X136731Y369809D01*
X136614Y369978D01*
X136513Y370144D01*
X136430Y370306D01*
X136362Y370464D01*
X136308Y370618D01*
X136269Y370769D01*
X136239Y370947D01*
X136219Y371000D01*
X136108Y371556D01*
X135566Y372366D01*
X134756Y372908D01*
X133800Y373098D01*
D02*
G37*
G36*
X270000Y382443D02*
X269142Y382272D01*
X268726Y381995D01*
X268671Y381970D01*
X268533Y381872D01*
X268410Y381797D01*
X268281Y381731D01*
X268143Y381673D01*
X267997Y381623D01*
X267842Y381581D01*
X267677Y381548D01*
X267502Y381524D01*
X267396Y381516D01*
X182736D01*
X182232Y381416D01*
X181805Y381130D01*
X175315Y374641D01*
X175194Y374541D01*
X175031Y374424D01*
X174863Y374320D01*
X174688Y374229D01*
X174506Y374149D01*
X174317Y374080D01*
X174120Y374024D01*
X174002Y373998D01*
X174000Y373998D01*
X173864Y373971D01*
X173678Y373942D01*
X173627Y373924D01*
X173044Y373808D01*
X172234Y373266D01*
X171692Y372456D01*
X171502Y371500D01*
X171692Y370544D01*
X172234Y369734D01*
X173044Y369192D01*
X174000Y369002D01*
X174956Y369192D01*
X175766Y369734D01*
X176308Y370544D01*
X176416Y371085D01*
X176437Y371143D01*
X176476Y371373D01*
X176523Y371572D01*
X176582Y371765D01*
X176652Y371951D01*
X176735Y372131D01*
X176829Y372305D01*
X176936Y372475D01*
X177056Y372639D01*
X177156Y372760D01*
X183281Y378884D01*
X267396D01*
X267502Y378876D01*
X267677Y378852D01*
X267842Y378818D01*
X267997Y378777D01*
X268143Y378727D01*
X268281Y378669D01*
X268410Y378603D01*
X268533Y378528D01*
X268671Y378430D01*
X268726Y378405D01*
X268860Y378316D01*
X268557Y377316D01*
X192800D01*
X192297Y377216D01*
X191870Y376930D01*
X185730Y370791D01*
X184956Y371308D01*
X184000Y371498D01*
X183044Y371308D01*
X182234Y370766D01*
X181692Y369956D01*
X181502Y369000D01*
X181692Y368044D01*
X182234Y367234D01*
X183044Y366692D01*
X184000Y366502D01*
X184956Y366692D01*
X185766Y367234D01*
X186308Y368044D01*
X186322Y368116D01*
X186713Y368193D01*
X187139Y368479D01*
X193345Y374684D01*
X196362D01*
X196385Y374656D01*
X196723Y373684D01*
X191388Y368349D01*
X191267Y368248D01*
X191103Y368130D01*
X190934Y368025D01*
X190760Y367932D01*
X190579Y367851D01*
X190391Y367781D01*
X190197Y367724D01*
X189994Y367678D01*
X189761Y367640D01*
X189706Y367620D01*
X189144Y367508D01*
X188334Y366966D01*
X187792Y366156D01*
X187602Y365200D01*
X187792Y364244D01*
X188334Y363434D01*
X189144Y362892D01*
X189706Y362780D01*
X189761Y362760D01*
X189993Y362722D01*
X190197Y362676D01*
X190391Y362619D01*
X190579Y362549D01*
X190759Y362468D01*
X190934Y362375D01*
X191103Y362270D01*
X191267Y362152D01*
X191388Y362052D01*
X192858Y360582D01*
X192880Y360525D01*
X192854Y360423D01*
X192464Y360183D01*
X191709Y359959D01*
X191005Y360250D01*
X190000Y360383D01*
X188995Y360250D01*
X188059Y359863D01*
X187254Y359246D01*
X186637Y358441D01*
X186249Y357505D01*
X186117Y356500D01*
X186249Y355495D01*
X186637Y354559D01*
X187254Y353754D01*
X188059Y353137D01*
X188995Y352749D01*
X190000Y352617D01*
X191005Y352749D01*
X191941Y353137D01*
X192544Y353600D01*
X193234Y353387D01*
X193544Y353153D01*
Y351640D01*
X193645Y351136D01*
X193930Y350709D01*
X194803Y349836D01*
X194868Y349765D01*
X195063Y349502D01*
X195248Y349202D01*
X195421Y348863D01*
X195582Y348484D01*
X195730Y348066D01*
X195861Y347617D01*
X196084Y346568D01*
X196171Y345989D01*
X196193Y345928D01*
X196249Y345495D01*
X196637Y344559D01*
X197254Y343754D01*
X198059Y343137D01*
X198995Y342750D01*
X200000Y342617D01*
X201005Y342750D01*
X201941Y343137D01*
X202746Y343754D01*
X203363Y344559D01*
X203750Y345495D01*
X203883Y346500D01*
X203750Y347505D01*
X203363Y348441D01*
X202746Y349246D01*
X201941Y349863D01*
X201005Y350251D01*
X200572Y350307D01*
X200511Y350329D01*
X199932Y350416D01*
X198883Y350639D01*
X198434Y350770D01*
X198016Y350917D01*
X197637Y351079D01*
X197298Y351252D01*
X196998Y351437D01*
X196735Y351633D01*
X196664Y351697D01*
X196176Y352185D01*
Y360440D01*
X196076Y360943D01*
X195791Y361370D01*
X193248Y363912D01*
X193148Y364034D01*
X193030Y364197D01*
X192925Y364366D01*
X192832Y364541D01*
X192751Y364721D01*
X192681Y364909D01*
X192624Y365104D01*
X192602Y365200D01*
X192624Y365297D01*
X192681Y365491D01*
X192751Y365679D01*
X192832Y365859D01*
X192925Y366034D01*
X193030Y366203D01*
X193148Y366367D01*
X193248Y366488D01*
X198445Y371684D01*
X201762D01*
X201785Y371656D01*
X202123Y370684D01*
X200188Y368748D01*
X200066Y368648D01*
X199903Y368530D01*
X199734Y368425D01*
X199559Y368332D01*
X199379Y368251D01*
X199191Y368181D01*
X198996Y368124D01*
X198794Y368078D01*
X198561Y368040D01*
X198506Y368020D01*
X197944Y367908D01*
X197134Y367366D01*
X196592Y366556D01*
X196402Y365600D01*
X196592Y364644D01*
X197134Y363834D01*
X197944Y363292D01*
X198900Y363102D01*
X199856Y363292D01*
X200666Y363834D01*
X201208Y364644D01*
X201320Y365206D01*
X201340Y365261D01*
X201378Y365493D01*
X201424Y365697D01*
X201481Y365891D01*
X201551Y366079D01*
X201632Y366259D01*
X201725Y366434D01*
X201830Y366603D01*
X201948Y366767D01*
X202048Y366888D01*
X203845Y368684D01*
X249006D01*
X249309Y367684D01*
X248834Y367366D01*
X248292Y366556D01*
X248102Y365600D01*
X248156Y365330D01*
X247424Y364297D01*
X247101Y364252D01*
X246985Y364265D01*
X246932Y364290D01*
X246456Y364608D01*
X245500Y364798D01*
X244544Y364608D01*
X243734Y364066D01*
X243192Y363256D01*
X243002Y362300D01*
X243192Y361344D01*
X243465Y360935D01*
X242803Y360127D01*
X242505Y360250D01*
X241500Y360383D01*
X240495Y360250D01*
X239559Y359863D01*
X238754Y359246D01*
X238137Y358441D01*
X237750Y357505D01*
X237617Y356500D01*
X237750Y355495D01*
X238137Y354559D01*
X238656Y353883D01*
X238454Y353278D01*
X238225Y352915D01*
X237532Y352829D01*
X234716Y355645D01*
Y357163D01*
X234731Y357320D01*
X234763Y357519D01*
X234808Y357713D01*
X234865Y357902D01*
X234936Y358087D01*
X235019Y358269D01*
X235116Y358447D01*
X235227Y358623D01*
X235365Y358815D01*
X235390Y358868D01*
X235708Y359344D01*
X235898Y360300D01*
X235708Y361256D01*
X235166Y362066D01*
X234356Y362608D01*
X233400Y362798D01*
X232444Y362608D01*
X231634Y362066D01*
X231092Y361256D01*
X230902Y360300D01*
X231092Y359344D01*
X231410Y358868D01*
X231435Y358815D01*
X231573Y358623D01*
X231684Y358447D01*
X231781Y358269D01*
X231864Y358087D01*
X231935Y357902D01*
X231992Y357713D01*
X232037Y357519D01*
X232069Y357320D01*
X232084Y357163D01*
Y355100D01*
X232184Y354596D01*
X232470Y354170D01*
X236170Y350470D01*
X236596Y350184D01*
X237100Y350084D01*
X238205D01*
X238468Y349682D01*
X238631Y349084D01*
X238137Y348441D01*
X237750Y347505D01*
X237617Y346500D01*
X237750Y345495D01*
X238137Y344559D01*
X238754Y343754D01*
X239559Y343137D01*
X240495Y342750D01*
X241500Y342617D01*
X242505Y342750D01*
X243441Y343137D01*
X244246Y343754D01*
X244863Y344559D01*
X245251Y345495D01*
X245383Y346500D01*
X245251Y347505D01*
X244863Y348441D01*
X244369Y349084D01*
X244532Y349682D01*
X244795Y350084D01*
X245955D01*
X246270Y349769D01*
X246332Y349700D01*
X246532Y349435D01*
X246721Y349133D01*
X246899Y348793D01*
X247064Y348416D01*
X247216Y348000D01*
X247351Y347554D01*
X247585Y346518D01*
X247677Y345946D01*
X247697Y345890D01*
X247749Y345495D01*
X248137Y344559D01*
X248754Y343754D01*
X249559Y343137D01*
X250495Y342750D01*
X251500Y342617D01*
X252505Y342750D01*
X253441Y343137D01*
X254246Y343754D01*
X254863Y344559D01*
X255251Y345495D01*
X255383Y346500D01*
X255251Y347505D01*
X254863Y348441D01*
X254246Y349246D01*
X253441Y349863D01*
X252505Y350251D01*
X252032Y350313D01*
X251968Y350335D01*
X251381Y350415D01*
X250322Y350628D01*
X249869Y350755D01*
X249448Y350898D01*
X249069Y351055D01*
X248730Y351224D01*
X248431Y351405D01*
X248172Y351596D01*
X248099Y351662D01*
X247430Y352330D01*
X247004Y352616D01*
X246500Y352716D01*
X244535D01*
X244195Y353716D01*
X244246Y353754D01*
X244863Y354559D01*
X245251Y355495D01*
X245383Y356500D01*
X245251Y357505D01*
X244863Y358441D01*
X244439Y358993D01*
X244935Y359914D01*
X245500Y359802D01*
X246456Y359992D01*
X246932Y360310D01*
X246985Y360335D01*
X247177Y360473D01*
X247353Y360584D01*
X247531Y360681D01*
X247713Y360764D01*
X247898Y360835D01*
X248087Y360892D01*
X248281Y360937D01*
X248480Y360969D01*
X248637Y360984D01*
X251558D01*
X254984Y357558D01*
Y351700D01*
X255084Y351197D01*
X255370Y350770D01*
X256303Y349836D01*
X256367Y349765D01*
X256563Y349502D01*
X256748Y349202D01*
X256921Y348863D01*
X257083Y348484D01*
X257230Y348066D01*
X257361Y347617D01*
X257584Y346568D01*
X257671Y345989D01*
X257693Y345928D01*
X257750Y345495D01*
X258137Y344559D01*
X258754Y343754D01*
X259559Y343137D01*
X260495Y342750D01*
X261500Y342617D01*
X262505Y342750D01*
X263441Y343137D01*
X264246Y343754D01*
X264863Y344559D01*
X265250Y345495D01*
X265383Y346500D01*
X265250Y347505D01*
X264863Y348441D01*
X264246Y349246D01*
X263441Y349863D01*
X262505Y350251D01*
X262072Y350307D01*
X262011Y350329D01*
X261432Y350416D01*
X260384Y350639D01*
X259934Y350770D01*
X259516Y350917D01*
X259137Y351079D01*
X258798Y351252D01*
X258498Y351437D01*
X258235Y351633D01*
X258164Y351697D01*
X257616Y352245D01*
Y353596D01*
X258616Y353935D01*
X258754Y353754D01*
X259559Y353137D01*
X260495Y352749D01*
X261500Y352617D01*
X262505Y352749D01*
X263441Y353137D01*
X264246Y353754D01*
X264284Y353805D01*
X265284Y353465D01*
Y351400D01*
X265384Y350897D01*
X265670Y350470D01*
X266303Y349836D01*
X266368Y349765D01*
X266563Y349502D01*
X266748Y349202D01*
X266921Y348863D01*
X267083Y348484D01*
X267230Y348066D01*
X267361Y347617D01*
X267584Y346568D01*
X267671Y345989D01*
X267692Y345928D01*
X267750Y345495D01*
X268137Y344559D01*
X268754Y343754D01*
X269559Y343137D01*
X270495Y342750D01*
X271500Y342617D01*
X272505Y342750D01*
X273441Y343137D01*
X274246Y343754D01*
X274863Y344559D01*
X275251Y345495D01*
X275383Y346500D01*
X275251Y347505D01*
X274863Y348441D01*
X274246Y349246D01*
X273441Y349863D01*
X272505Y350251D01*
X272072Y350307D01*
X272011Y350329D01*
X271432Y350416D01*
X270384Y350639D01*
X269934Y350770D01*
X269516Y350917D01*
X269137Y351079D01*
X268798Y351252D01*
X268498Y351437D01*
X268235Y351633D01*
X268164Y351697D01*
X267916Y351945D01*
Y359100D01*
X267816Y359604D01*
X267530Y360030D01*
X261030Y366530D01*
X260603Y366816D01*
X260100Y366916D01*
X253737D01*
X253580Y366931D01*
X253381Y366963D01*
X253187Y367008D01*
X252998Y367065D01*
X252813Y367136D01*
X252631Y367219D01*
X252453Y367316D01*
X252277Y367427D01*
X252085Y367565D01*
X252032Y367590D01*
X251891Y367684D01*
X252194Y368684D01*
X274255D01*
X279070Y363870D01*
X279497Y363584D01*
X280000Y363484D01*
X292723D01*
X292732Y363484D01*
X292999Y363450D01*
X293275Y363391D01*
X293559Y363309D01*
X293851Y363201D01*
X294152Y363066D01*
X294454Y362909D01*
X295114Y362493D01*
X295452Y362244D01*
X295509Y362217D01*
X295786Y362005D01*
X296565Y361682D01*
X297400Y361572D01*
X298235Y361682D01*
X299014Y362005D01*
X299682Y362518D01*
X300195Y363186D01*
X300518Y363965D01*
X300628Y364800D01*
X300518Y365635D01*
X300195Y366414D01*
X299682Y367082D01*
X299014Y367595D01*
X298235Y367918D01*
X297400Y368028D01*
X296565Y367918D01*
X295786Y367595D01*
X295516Y367388D01*
X295465Y367366D01*
X294773Y366880D01*
X294462Y366695D01*
X294152Y366534D01*
X293851Y366399D01*
X293559Y366291D01*
X293275Y366209D01*
X292999Y366150D01*
X292732Y366116D01*
X292723Y366116D01*
X280545D01*
X275977Y370684D01*
X276315Y371656D01*
X276338Y371684D01*
X278355D01*
X280570Y369470D01*
X280996Y369184D01*
X281500Y369084D01*
X299155D01*
X305069Y363170D01*
Y359815D01*
X304704Y359563D01*
X304069Y359381D01*
X303441Y359863D01*
X302505Y360250D01*
X301500Y360383D01*
X300495Y360250D01*
X299559Y359863D01*
X298754Y359246D01*
X298137Y358441D01*
X297749Y357505D01*
X297617Y356500D01*
X297749Y355495D01*
X298137Y354559D01*
X298754Y353754D01*
X299559Y353137D01*
X300495Y352749D01*
X301500Y352617D01*
X302505Y352749D01*
X303441Y353137D01*
X304069Y353619D01*
X304704Y353437D01*
X305069Y353185D01*
Y351615D01*
X305169Y351112D01*
X305454Y350685D01*
X306303Y349836D01*
X306367Y349765D01*
X306563Y349502D01*
X306748Y349202D01*
X306921Y348863D01*
X307083Y348484D01*
X307230Y348066D01*
X307361Y347617D01*
X307584Y346568D01*
X307671Y345989D01*
X307693Y345928D01*
X307750Y345495D01*
X308137Y344559D01*
X308754Y343754D01*
X309559Y343137D01*
X310495Y342750D01*
X311500Y342617D01*
X312505Y342750D01*
X313441Y343137D01*
X314246Y343754D01*
X314863Y344559D01*
X315250Y345495D01*
X315383Y346500D01*
X315250Y347505D01*
X314863Y348441D01*
X314246Y349246D01*
X313441Y349863D01*
X312505Y350251D01*
X312072Y350307D01*
X312011Y350329D01*
X311432Y350416D01*
X310384Y350639D01*
X309934Y350770D01*
X309516Y350917D01*
X309137Y351079D01*
X308798Y351252D01*
X308498Y351437D01*
X308235Y351633D01*
X308164Y351697D01*
X307701Y352160D01*
Y363715D01*
X307600Y364219D01*
X307315Y364646D01*
X300630Y371330D01*
X300203Y371616D01*
X299700Y371716D01*
X289990D01*
X289455Y372716D01*
X289608Y372944D01*
X289798Y373900D01*
X289608Y374856D01*
X289066Y375666D01*
X288256Y376208D01*
X287300Y376398D01*
X287155Y376369D01*
X287033Y376384D01*
X286912Y376409D01*
X286792Y376445D01*
X286674Y376492D01*
X286555Y376551D01*
X286436Y376622D01*
X286315Y376708D01*
X286240Y376769D01*
X286079Y376930D01*
X285652Y377216D01*
X285149Y377316D01*
X271443D01*
X271140Y378316D01*
X271586Y378614D01*
X272072Y379342D01*
X272243Y380200D01*
X272072Y381058D01*
X271586Y381786D01*
X270858Y382272D01*
X270000Y382443D01*
D02*
G37*
G36*
X179000Y366498D02*
X178044Y366308D01*
X177234Y365766D01*
X176692Y364956D01*
X176582Y364400D01*
X176561Y364347D01*
X176531Y364169D01*
X176492Y364018D01*
X176438Y363864D01*
X176371Y363706D01*
X176287Y363544D01*
X176186Y363379D01*
X176074Y363217D01*
X175834Y362925D01*
X174055Y361145D01*
X173734Y360666D01*
X173622Y360100D01*
Y359747D01*
X173115Y359457D01*
X172622Y359341D01*
X171941Y359863D01*
X171005Y360250D01*
X170000Y360383D01*
X168995Y360250D01*
X168059Y359863D01*
X167254Y359246D01*
X166637Y358441D01*
X166250Y357505D01*
X166117Y356500D01*
X166250Y355495D01*
X166637Y354559D01*
X167254Y353754D01*
X168059Y353137D01*
X168995Y352749D01*
X170000Y352617D01*
X171005Y352749D01*
X171941Y353137D01*
X172622Y353659D01*
X173115Y353543D01*
X173622Y353253D01*
Y352100D01*
X173734Y351534D01*
X174055Y351055D01*
X175033Y350076D01*
X175069Y350036D01*
X175257Y349776D01*
X175430Y349480D01*
X175587Y349145D01*
X175728Y348771D01*
X175851Y348357D01*
X175952Y347912D01*
X176101Y346867D01*
X176124Y346550D01*
X176117Y346500D01*
X176140Y346329D01*
X176143Y346289D01*
X176147Y346272D01*
X176250Y345495D01*
X176637Y344559D01*
X177254Y343754D01*
X178059Y343137D01*
X178995Y342750D01*
X180000Y342617D01*
X181005Y342750D01*
X181941Y343137D01*
X182746Y343754D01*
X183363Y344559D01*
X183750Y345495D01*
X183883Y346500D01*
X183750Y347505D01*
X183363Y348441D01*
X182746Y349246D01*
X181941Y349863D01*
X181005Y350251D01*
X180822Y350274D01*
X179897Y350517D01*
X179489Y350658D01*
X179092Y350820D01*
X178715Y351000D01*
X178358Y351196D01*
X178019Y351411D01*
X177699Y351642D01*
X177412Y351879D01*
X177084Y352206D01*
X177155Y352571D01*
X177571Y352832D01*
X178266Y353052D01*
X178995Y352749D01*
X180000Y352617D01*
X181005Y352749D01*
X181941Y353137D01*
X182746Y353754D01*
X183363Y354559D01*
X183750Y355495D01*
X183883Y356500D01*
X183750Y357505D01*
X183363Y358441D01*
X182746Y359246D01*
X181941Y359863D01*
X181005Y360250D01*
X180000Y360383D01*
X179444Y360310D01*
X179371Y360323D01*
X179334Y360338D01*
X178707Y361005D01*
X178643Y361174D01*
X178670Y361258D01*
X178798Y361410D01*
X178864Y361438D01*
X179018Y361492D01*
X179169Y361531D01*
X179347Y361561D01*
X179400Y361581D01*
X179956Y361692D01*
X180766Y362234D01*
X181308Y363044D01*
X181498Y364000D01*
X181308Y364956D01*
X180766Y365766D01*
X179956Y366308D01*
X179000Y366498D01*
D02*
G37*
G36*
X291500Y360383D02*
X290495Y360250D01*
X289559Y359863D01*
X288754Y359246D01*
X288137Y358441D01*
X287750Y357505D01*
X287617Y356500D01*
X287750Y355495D01*
X288137Y354559D01*
X288754Y353754D01*
X289559Y353137D01*
X290495Y352749D01*
X291500Y352617D01*
X292505Y352749D01*
X293441Y353137D01*
X294246Y353754D01*
X294863Y354559D01*
X295251Y355495D01*
X295383Y356500D01*
X295251Y357505D01*
X294863Y358441D01*
X294246Y359246D01*
X293441Y359863D01*
X292505Y360250D01*
X291500Y360383D01*
D02*
G37*
G36*
X281500D02*
X280495Y360250D01*
X279559Y359863D01*
X278754Y359246D01*
X278137Y358441D01*
X277749Y357505D01*
X277617Y356500D01*
X277749Y355495D01*
X278137Y354559D01*
X278754Y353754D01*
X279559Y353137D01*
X280495Y352749D01*
X281500Y352617D01*
X282505Y352749D01*
X283441Y353137D01*
X284246Y353754D01*
X284863Y354559D01*
X285250Y355495D01*
X285383Y356500D01*
X285250Y357505D01*
X284863Y358441D01*
X284246Y359246D01*
X283441Y359863D01*
X282505Y360250D01*
X281500Y360383D01*
D02*
G37*
G36*
X130000D02*
X128995Y360250D01*
X128059Y359863D01*
X127254Y359246D01*
X126637Y358441D01*
X126250Y357505D01*
X126117Y356500D01*
X126250Y355495D01*
X126637Y354559D01*
X127254Y353754D01*
X128059Y353137D01*
X128995Y352749D01*
X130000Y352617D01*
X131005Y352749D01*
X131941Y353137D01*
X132746Y353754D01*
X133363Y354559D01*
X133750Y355495D01*
X133883Y356500D01*
X133750Y357505D01*
X133363Y358441D01*
X132746Y359246D01*
X131941Y359863D01*
X131005Y360250D01*
X130000Y360383D01*
D02*
G37*
G36*
X301500Y350383D02*
X300495Y350251D01*
X299559Y349863D01*
X298754Y349246D01*
X298137Y348441D01*
X297749Y347505D01*
X297617Y346500D01*
X297749Y345495D01*
X298137Y344559D01*
X298754Y343754D01*
X299559Y343137D01*
X300495Y342750D01*
X301500Y342617D01*
X302505Y342750D01*
X303441Y343137D01*
X304246Y343754D01*
X304863Y344559D01*
X305251Y345495D01*
X305383Y346500D01*
X305251Y347505D01*
X304863Y348441D01*
X304246Y349246D01*
X303441Y349863D01*
X302505Y350251D01*
X301500Y350383D01*
D02*
G37*
G36*
X291500D02*
X290495Y350251D01*
X289559Y349863D01*
X288754Y349246D01*
X288137Y348441D01*
X287750Y347505D01*
X287617Y346500D01*
X287750Y345495D01*
X288137Y344559D01*
X288754Y343754D01*
X289559Y343137D01*
X290495Y342750D01*
X291500Y342617D01*
X292505Y342750D01*
X293441Y343137D01*
X294246Y343754D01*
X294863Y344559D01*
X295251Y345495D01*
X295383Y346500D01*
X295251Y347505D01*
X294863Y348441D01*
X294246Y349246D01*
X293441Y349863D01*
X292505Y350251D01*
X291500Y350383D01*
D02*
G37*
G36*
X190000D02*
X188995Y350251D01*
X188059Y349863D01*
X187254Y349246D01*
X186637Y348441D01*
X186249Y347505D01*
X186117Y346500D01*
X186249Y345495D01*
X186637Y344559D01*
X187254Y343754D01*
X188059Y343137D01*
X188995Y342750D01*
X190000Y342617D01*
X191005Y342750D01*
X191941Y343137D01*
X192746Y343754D01*
X193363Y344559D01*
X193751Y345495D01*
X193883Y346500D01*
X193751Y347505D01*
X193363Y348441D01*
X192746Y349246D01*
X191941Y349863D01*
X191005Y350251D01*
X190000Y350383D01*
D02*
G37*
G36*
X140000D02*
X138995Y350251D01*
X138059Y349863D01*
X137254Y349246D01*
X136637Y348441D01*
X136249Y347505D01*
X136117Y346500D01*
X136249Y345495D01*
X136637Y344559D01*
X137254Y343754D01*
X138059Y343137D01*
X138995Y342750D01*
X140000Y342617D01*
X141005Y342750D01*
X141941Y343137D01*
X142746Y343754D01*
X143363Y344559D01*
X143751Y345495D01*
X143883Y346500D01*
X143751Y347505D01*
X143363Y348441D01*
X142746Y349246D01*
X141941Y349863D01*
X141005Y350251D01*
X140000Y350383D01*
D02*
G37*
G36*
X130000D02*
X128995Y350251D01*
X128059Y349863D01*
X127254Y349246D01*
X126637Y348441D01*
X126250Y347505D01*
X126117Y346500D01*
X126250Y345495D01*
X126637Y344559D01*
X127254Y343754D01*
X128059Y343137D01*
X128995Y342750D01*
X130000Y342617D01*
X131005Y342750D01*
X131941Y343137D01*
X132746Y343754D01*
X133363Y344559D01*
X133750Y345495D01*
X133883Y346500D01*
X133750Y347505D01*
X133363Y348441D01*
X132746Y349246D01*
X131941Y349863D01*
X131005Y350251D01*
X130000Y350383D01*
D02*
G37*
G36*
X281500D02*
X280495Y350251D01*
X279559Y349863D01*
X278754Y349246D01*
X278137Y348441D01*
X277749Y347505D01*
X277693Y347072D01*
X277671Y347011D01*
X277584Y346432D01*
X277361Y345384D01*
X277230Y344934D01*
X277083Y344516D01*
X276921Y344137D01*
X276748Y343798D01*
X276563Y343498D01*
X276367Y343235D01*
X276303Y343164D01*
X274455Y341316D01*
X177045D01*
X175197Y343164D01*
X175133Y343235D01*
X174937Y343498D01*
X174752Y343798D01*
X174579Y344137D01*
X174417Y344516D01*
X174270Y344934D01*
X174139Y345383D01*
X173916Y346432D01*
X173829Y347011D01*
X173808Y347072D01*
X173750Y347505D01*
X173363Y348441D01*
X172746Y349246D01*
X171941Y349863D01*
X171005Y350251D01*
X170000Y350383D01*
X168995Y350251D01*
X168059Y349863D01*
X167254Y349246D01*
X166637Y348441D01*
X166250Y347505D01*
X166117Y346500D01*
X166250Y345495D01*
X166637Y344559D01*
X167254Y343754D01*
X168059Y343137D01*
X168995Y342750D01*
X169428Y342692D01*
X169489Y342671D01*
X170068Y342584D01*
X171116Y342361D01*
X171566Y342230D01*
X171984Y342083D01*
X172363Y341921D01*
X172702Y341748D01*
X173002Y341563D01*
X173265Y341367D01*
X173336Y341303D01*
X175570Y339070D01*
X175996Y338784D01*
X176500Y338684D01*
X275000D01*
X275503Y338784D01*
X275930Y339070D01*
X278164Y341303D01*
X278235Y341368D01*
X278498Y341563D01*
X278798Y341748D01*
X279137Y341921D01*
X279516Y342083D01*
X279934Y342230D01*
X280383Y342361D01*
X281432Y342584D01*
X282011Y342671D01*
X282072Y342692D01*
X282505Y342750D01*
X283441Y343137D01*
X284246Y343754D01*
X284863Y344559D01*
X285250Y345495D01*
X285383Y346500D01*
X285250Y347505D01*
X284863Y348441D01*
X284246Y349246D01*
X283441Y349863D01*
X282505Y350251D01*
X281500Y350383D01*
D02*
G37*
G36*
X354331Y368855D02*
X352059Y368676D01*
X349843Y368144D01*
X347737Y367272D01*
X345794Y366081D01*
X344060Y364601D01*
X342580Y362868D01*
X341389Y360925D01*
X340517Y358819D01*
X339985Y356603D01*
X339806Y354331D01*
X339985Y352059D01*
X340517Y349843D01*
X341389Y347737D01*
X342580Y345794D01*
X344060Y344060D01*
X345794Y342580D01*
X347737Y341389D01*
X349843Y340517D01*
X352059Y339985D01*
X354331Y339806D01*
X356603Y339985D01*
X358819Y340517D01*
X360925Y341389D01*
X362868Y342580D01*
X364601Y344060D01*
X366081Y345794D01*
X367272Y347737D01*
X368144Y349843D01*
X368676Y352059D01*
X368855Y354331D01*
X368676Y356603D01*
X368144Y358819D01*
X367272Y360925D01*
X366081Y362868D01*
X364601Y364601D01*
X362868Y366081D01*
X360925Y367272D01*
X358819Y368144D01*
X356603Y368676D01*
X354331Y368855D01*
D02*
G37*
G36*
X86614D02*
X84342Y368676D01*
X82126Y368144D01*
X80020Y367272D01*
X78077Y366081D01*
X76344Y364601D01*
X74864Y362868D01*
X73673Y360925D01*
X72801Y358819D01*
X72269Y356603D01*
X72090Y354331D01*
X72269Y352059D01*
X72801Y349843D01*
X73673Y347737D01*
X74864Y345794D01*
X76344Y344060D01*
X78077Y342580D01*
X80020Y341389D01*
X82126Y340517D01*
X84342Y339985D01*
X86614Y339806D01*
X88886Y339985D01*
X91102Y340517D01*
X93208Y341389D01*
X95151Y342580D01*
X96884Y344060D01*
X98365Y345794D01*
X99555Y347737D01*
X100428Y349843D01*
X100960Y352059D01*
X101138Y354331D01*
X100960Y356603D01*
X100428Y358819D01*
X99555Y360925D01*
X98365Y362868D01*
X96884Y364601D01*
X95151Y366081D01*
X93208Y367272D01*
X91102Y368144D01*
X88886Y368676D01*
X86614Y368855D01*
D02*
G37*
%LPD*%
G36*
X359126Y567865D02*
X358919Y567829D01*
X358713Y567775D01*
X358506Y567704D01*
X358301Y567616D01*
X358096Y567510D01*
X357891Y567386D01*
X357686Y567244D01*
X357482Y567085D01*
X357278Y566909D01*
X357075Y566714D01*
X356014Y567775D01*
X356209Y567978D01*
X356544Y568386D01*
X356686Y568591D01*
X356810Y568795D01*
X356916Y569001D01*
X357004Y569206D01*
X357076Y569412D01*
X357129Y569619D01*
X357165Y569826D01*
X359126Y567865D01*
D02*
G37*
G36*
X358232Y554313D02*
X358061Y554434D01*
X357877Y554542D01*
X357681Y554638D01*
X357473Y554721D01*
X357253Y554791D01*
X357021Y554848D01*
X356776Y554893D01*
X356519Y554924D01*
X356250Y554944D01*
X355969Y554950D01*
Y556450D01*
X356250Y556456D01*
X356776Y556507D01*
X357021Y556552D01*
X357253Y556609D01*
X357473Y556679D01*
X357681Y556762D01*
X357877Y556857D01*
X358061Y556966D01*
X358232Y557087D01*
Y554313D01*
D02*
G37*
G36*
X303172Y540418D02*
X303144Y540454D01*
X303099Y540486D01*
X303037Y540514D01*
X302959Y540539D01*
X302865Y540559D01*
X302754Y540576D01*
X302482Y540599D01*
X302144Y540606D01*
Y541682D01*
X302277Y541685D01*
X302501Y541703D01*
X302593Y541719D01*
X302671Y541740D01*
X302735Y541766D01*
X302786Y541796D01*
X302824Y541831D01*
X302848Y541871D01*
X302858Y541915D01*
X303172Y540418D01*
D02*
G37*
G36*
X312862Y538969D02*
X310895Y538957D01*
Y540033D01*
X311270Y540042D01*
X311606Y540070D01*
X311902Y540117D01*
X312159Y540183D01*
X312377Y540267D01*
X312555Y540370D01*
X312694Y540492D01*
X312793Y540633D01*
X312854Y540792D01*
X312874Y540971D01*
X312862Y538969D01*
D02*
G37*
G36*
X293410Y531669D02*
X293643Y530757D01*
X293783Y530341D01*
X293938Y529953D01*
X294109Y529591D01*
X294295Y529256D01*
X294497Y528949D01*
X294714Y528668D01*
X294947Y528414D01*
X294244Y527595D01*
X294004Y527810D01*
X293731Y528007D01*
X293425Y528188D01*
X293085Y528351D01*
X292712Y528497D01*
X292306Y528625D01*
X291867Y528737D01*
X290888Y528908D01*
X290349Y528968D01*
X293316Y532165D01*
X293410Y531669D01*
D02*
G37*
G36*
X352147Y472626D02*
X352338Y472471D01*
X352539Y472330D01*
X352750Y472203D01*
X352971Y472090D01*
X353202Y471991D01*
X353443Y471906D01*
X353694Y471835D01*
X353955Y471778D01*
X354226Y471735D01*
X352265Y469774D01*
X352222Y470045D01*
X352165Y470306D01*
X352094Y470557D01*
X352009Y470798D01*
X351910Y471029D01*
X351797Y471250D01*
X351670Y471461D01*
X351529Y471662D01*
X351374Y471853D01*
X351205Y472035D01*
X351965Y472795D01*
X352147Y472626D01*
D02*
G37*
G36*
X348671Y468754D02*
X349058Y468427D01*
X349255Y468282D01*
X349658Y468031D01*
X349863Y467924D01*
X350070Y467830D01*
X350280Y467748D01*
X350492Y467679D01*
X348253Y466111D01*
X348265Y466390D01*
X348244Y466901D01*
X348212Y467132D01*
X348166Y467347D01*
X348105Y467545D01*
X348030Y467727D01*
X347941Y467893D01*
X347837Y468042D01*
X347720Y468176D01*
X348480Y468936D01*
X348671Y468754D01*
D02*
G37*
G36*
X302745Y466223D02*
X303153Y465887D01*
X303358Y465745D01*
X303563Y465622D01*
X303768Y465515D01*
X303974Y465427D01*
X304180Y465356D01*
X304386Y465302D01*
X304593Y465267D01*
X302632Y463306D01*
X302596Y463512D01*
X302543Y463719D01*
X302472Y463925D01*
X302383Y464130D01*
X302277Y464336D01*
X302153Y464541D01*
X302011Y464745D01*
X301852Y464949D01*
X301676Y465153D01*
X301481Y465356D01*
X302542Y466417D01*
X302745Y466223D01*
D02*
G37*
G36*
X309376Y463690D02*
X309403Y463440D01*
X309448Y463198D01*
X309510Y462964D01*
X309591Y462737D01*
X309689Y462517D01*
X309806Y462305D01*
X309940Y462100D01*
X310092Y461902D01*
X310262Y461712D01*
X307503Y461406D01*
X307572Y461536D01*
X307634Y461686D01*
X307689Y461855D01*
X307736Y462044D01*
X307776Y462252D01*
X307835Y462726D01*
X307853Y462993D01*
X307867Y463584D01*
X309367Y463947D01*
X309376Y463690D01*
D02*
G37*
G36*
X290200Y514200D02*
X293648Y510752D01*
X293648Y498500D01*
X283154Y498500D01*
X282800Y498853D01*
X282800Y514200D01*
X290200Y514200D01*
D02*
G37*
G36*
X281000Y495200D02*
X292358Y483842D01*
X292358Y475971D01*
X290387Y474000D01*
X272000D01*
X270000Y476000D01*
Y487000D01*
X275000Y492000D01*
Y514000D01*
X281000D01*
X281000Y495200D01*
D02*
G37*
G36*
X75818Y538302D02*
X75668Y538069D01*
X75534Y537836D01*
X75419Y537602D01*
X75322Y537367D01*
X75242Y537130D01*
X75180Y536893D01*
X75135Y536654D01*
X75109Y536414D01*
X75100Y536173D01*
X74100D01*
X74091Y536414D01*
X74064Y536654D01*
X74020Y536893D01*
X73958Y537130D01*
X73878Y537367D01*
X73781Y537602D01*
X73665Y537836D01*
X73532Y538069D01*
X73382Y538302D01*
X73213Y538532D01*
X75987D01*
X75818Y538302D01*
D02*
G37*
G36*
X80279Y516543D02*
X80337Y516273D01*
X80408Y516014D01*
X80492Y515766D01*
X80589Y515531D01*
X80700Y515307D01*
X80825Y515096D01*
X80962Y514895D01*
X81113Y514707D01*
X81277Y514530D01*
X80570Y513823D01*
X80393Y513987D01*
X80205Y514138D01*
X80005Y514276D01*
X79793Y514400D01*
X79569Y514510D01*
X79334Y514608D01*
X79086Y514692D01*
X78827Y514763D01*
X78557Y514820D01*
X78274Y514865D01*
X80235Y516826D01*
X80279Y516543D01*
D02*
G37*
G36*
X165977Y507881D02*
X165802Y507999D01*
X165621Y508104D01*
X165435Y508197D01*
X165244Y508277D01*
X165046Y508345D01*
X164844Y508401D01*
X164635Y508444D01*
X164421Y508475D01*
X164202Y508494D01*
X163977Y508500D01*
X163906Y509500D01*
X164119Y509508D01*
X164329Y509530D01*
X164536Y509568D01*
X164740Y509621D01*
X164941Y509689D01*
X165138Y509773D01*
X165333Y509871D01*
X165524Y509985D01*
X165713Y510114D01*
X165898Y510257D01*
X165977Y507881D01*
D02*
G37*
G36*
X139325Y498983D02*
X139098Y499138D01*
X138870Y499277D01*
X138639Y499400D01*
X138405Y499506D01*
X138170Y499596D01*
X137932Y499669D01*
X137692Y499726D01*
X137450Y499767D01*
X137205Y499792D01*
X136958Y499800D01*
X136898Y500800D01*
X137134Y500810D01*
X137369Y500838D01*
X137603Y500886D01*
X137838Y500953D01*
X138073Y501039D01*
X138308Y501144D01*
X138542Y501268D01*
X138777Y501412D01*
X139011Y501574D01*
X139245Y501756D01*
X139325Y498983D01*
D02*
G37*
G36*
X133825Y494283D02*
X133598Y494439D01*
X133370Y494577D01*
X133139Y494700D01*
X132905Y494806D01*
X132670Y494896D01*
X132432Y494969D01*
X132192Y495026D01*
X131950Y495067D01*
X131705Y495092D01*
X131458Y495100D01*
X131398Y496100D01*
X131633Y496110D01*
X131869Y496138D01*
X132104Y496186D01*
X132338Y496253D01*
X132573Y496339D01*
X132808Y496444D01*
X133042Y496568D01*
X133277Y496712D01*
X133511Y496874D01*
X133745Y497056D01*
X133825Y494283D01*
D02*
G37*
G36*
X97414Y480707D02*
X97264Y480548D01*
X97127Y480381D01*
X97003Y480208D01*
X96891Y480028D01*
X96792Y479841D01*
X96706Y479648D01*
X96632Y479448D01*
X96571Y479241D01*
X96523Y479027D01*
X96487Y478806D01*
X94806Y480487D01*
X95027Y480523D01*
X95241Y480571D01*
X95448Y480632D01*
X95648Y480706D01*
X95841Y480792D01*
X96028Y480891D01*
X96208Y481003D01*
X96381Y481127D01*
X96548Y481264D01*
X96707Y481414D01*
X97414Y480707D01*
D02*
G37*
G36*
X251000Y517900D02*
X251000Y506000D01*
X245400Y506000D01*
X245400Y515600D01*
X223400D01*
X223000Y516000D01*
Y519000D01*
X223000Y545247D01*
X223462Y545438D01*
X251000Y517900D01*
D02*
G37*
G36*
X157980Y496123D02*
X158160Y496003D01*
X158344Y495897D01*
X158534Y495805D01*
X158729Y495727D01*
X158930Y495663D01*
X159135Y495614D01*
X159346Y495578D01*
X159562Y495557D01*
X159783Y495550D01*
X159704Y494450D01*
X159471Y494444D01*
X159028Y494399D01*
X158819Y494359D01*
X158617Y494308D01*
X158423Y494245D01*
X158237Y494171D01*
X158059Y494086D01*
X157889Y493990D01*
X157727Y493882D01*
X157806Y496257D01*
X157980Y496123D01*
D02*
G37*
G36*
X159980Y492123D02*
X160160Y492003D01*
X160345Y491897D01*
X160534Y491805D01*
X160729Y491727D01*
X160930Y491663D01*
X161135Y491614D01*
X161346Y491578D01*
X161562Y491557D01*
X161783Y491550D01*
X161704Y490450D01*
X161471Y490444D01*
X161028Y490399D01*
X160819Y490359D01*
X160617Y490308D01*
X160423Y490245D01*
X160237Y490171D01*
X160059Y490086D01*
X159889Y489990D01*
X159727Y489882D01*
X159806Y492257D01*
X159980Y492123D01*
D02*
G37*
G36*
X158084Y488067D02*
X158260Y487959D01*
X158442Y487863D01*
X158630Y487780D01*
X158825Y487710D01*
X159026Y487652D01*
X159234Y487607D01*
X159448Y487575D01*
X159669Y487556D01*
X159896Y487550D01*
Y486450D01*
X159669Y486444D01*
X159448Y486424D01*
X159234Y486392D01*
X159026Y486348D01*
X158825Y486290D01*
X158630Y486220D01*
X158442Y486137D01*
X158260Y486041D01*
X158084Y485933D01*
X157915Y485811D01*
Y488189D01*
X158084Y488067D01*
D02*
G37*
G36*
X159980Y484123D02*
X160160Y484003D01*
X160345Y483897D01*
X160534Y483805D01*
X160729Y483727D01*
X160930Y483663D01*
X161135Y483614D01*
X161346Y483578D01*
X161562Y483557D01*
X161783Y483550D01*
X161704Y482450D01*
X161471Y482444D01*
X161028Y482399D01*
X160819Y482359D01*
X160617Y482308D01*
X160423Y482245D01*
X160237Y482171D01*
X160059Y482086D01*
X159889Y481989D01*
X159727Y481882D01*
X159806Y484258D01*
X159980Y484123D01*
D02*
G37*
G36*
X139274Y482606D02*
X139381Y482194D01*
X139448Y482002D01*
X139525Y481820D01*
X139612Y481648D01*
X139708Y481485D01*
X139814Y481331D01*
X139929Y481188D01*
X140053Y481053D01*
X139347Y480346D01*
X139218Y480465D01*
X139078Y480575D01*
X138927Y480674D01*
X138765Y480765D01*
X138592Y480846D01*
X138408Y480918D01*
X138213Y480981D01*
X138007Y481034D01*
X137790Y481078D01*
X137562Y481112D01*
X139235Y482827D01*
X139274Y482606D01*
D02*
G37*
G36*
X183084Y480567D02*
X183260Y480459D01*
X183442Y480363D01*
X183630Y480280D01*
X183825Y480210D01*
X184026Y480152D01*
X184234Y480107D01*
X184448Y480076D01*
X184669Y480056D01*
X184896Y480050D01*
Y478950D01*
X184669Y478944D01*
X184448Y478925D01*
X184234Y478893D01*
X184026Y478848D01*
X183825Y478790D01*
X183630Y478720D01*
X183442Y478637D01*
X183260Y478541D01*
X183084Y478433D01*
X182915Y478311D01*
Y480689D01*
X183084Y480567D01*
D02*
G37*
G36*
X153699Y478067D02*
X153644Y478125D01*
X153577Y478176D01*
X153496Y478222D01*
X153402Y478262D01*
X153295Y478295D01*
X153174Y478322D01*
X153040Y478344D01*
X152893Y478359D01*
X152559Y478371D01*
Y479371D01*
X152716Y479375D01*
X152993Y479402D01*
X153113Y479426D01*
X153220Y479457D01*
X153314Y479495D01*
X153396Y479539D01*
X153466Y479591D01*
X153523Y479649D01*
X153567Y479715D01*
X153699Y478067D01*
D02*
G37*
G36*
X200378Y479773D02*
X200554Y479663D01*
X200734Y479566D01*
X200918Y479482D01*
X201105Y479411D01*
X201297Y479353D01*
X201492Y479308D01*
X201691Y479276D01*
X201893Y479256D01*
X202100Y479250D01*
Y478150D01*
X201893Y478144D01*
X201691Y478124D01*
X201492Y478092D01*
X201297Y478047D01*
X201105Y477989D01*
X200918Y477918D01*
X200734Y477834D01*
X200554Y477737D01*
X200378Y477627D01*
X200206Y477504D01*
Y479896D01*
X200378Y479773D01*
D02*
G37*
G36*
X134774Y479480D02*
X135117Y479182D01*
X135287Y479052D01*
X135622Y478830D01*
X135788Y478738D01*
X135952Y478659D01*
X136116Y478592D01*
X136277Y478538D01*
X134352Y477119D01*
X134350Y477380D01*
X134314Y477852D01*
X134279Y478064D01*
X134234Y478259D01*
X134178Y478438D01*
X134111Y478600D01*
X134033Y478746D01*
X133945Y478875D01*
X133846Y478988D01*
X134600Y479648D01*
X134774Y479480D01*
D02*
G37*
G36*
X175133Y477627D02*
X174937Y477583D01*
X174744Y477526D01*
X174555Y477457D01*
X174369Y477374D01*
X174186Y477280D01*
X174007Y477172D01*
X173831Y477052D01*
X173658Y476919D01*
X173488Y476773D01*
X173322Y476615D01*
X172526Y477233D01*
X172668Y477387D01*
X172797Y477550D01*
X172913Y477723D01*
X173015Y477905D01*
X173105Y478098D01*
X173181Y478300D01*
X173244Y478512D01*
X173295Y478733D01*
X173332Y478965D01*
X173356Y479206D01*
X175133Y477627D01*
D02*
G37*
G36*
X170133D02*
X169937Y477583D01*
X169744Y477526D01*
X169555Y477457D01*
X169369Y477374D01*
X169186Y477280D01*
X169007Y477172D01*
X168831Y477052D01*
X168658Y476919D01*
X168488Y476773D01*
X168322Y476615D01*
X167526Y477233D01*
X167668Y477387D01*
X167797Y477550D01*
X167912Y477723D01*
X168015Y477905D01*
X168105Y478098D01*
X168181Y478300D01*
X168244Y478512D01*
X168295Y478733D01*
X168332Y478965D01*
X168356Y479206D01*
X170133Y477627D01*
D02*
G37*
G36*
X165133D02*
X164937Y477583D01*
X164744Y477526D01*
X164555Y477457D01*
X164369Y477374D01*
X164186Y477280D01*
X164007Y477172D01*
X163831Y477052D01*
X163658Y476919D01*
X163488Y476773D01*
X163322Y476615D01*
X162526Y477233D01*
X162668Y477387D01*
X162797Y477550D01*
X162912Y477723D01*
X163015Y477905D01*
X163105Y478098D01*
X163181Y478300D01*
X163244Y478512D01*
X163295Y478733D01*
X163332Y478965D01*
X163356Y479206D01*
X165133Y477627D01*
D02*
G37*
G36*
X160133D02*
X159937Y477583D01*
X159744Y477526D01*
X159555Y477457D01*
X159369Y477374D01*
X159186Y477280D01*
X159007Y477172D01*
X158831Y477052D01*
X158658Y476919D01*
X158488Y476773D01*
X158322Y476615D01*
X157526Y477233D01*
X157668Y477387D01*
X157797Y477550D01*
X157913Y477723D01*
X158015Y477905D01*
X158105Y478098D01*
X158181Y478300D01*
X158244Y478512D01*
X158295Y478733D01*
X158332Y478965D01*
X158356Y479206D01*
X160133Y477627D01*
D02*
G37*
G36*
X180173Y480725D02*
X179928Y480358D01*
X179757Y479500D01*
X179928Y478642D01*
X180414Y477914D01*
X181142Y477428D01*
X182000Y477257D01*
X182858Y477428D01*
X183275Y477706D01*
X183331Y477732D01*
X183480Y477839D01*
X183614Y477921D01*
X183752Y477994D01*
X183895Y478057D01*
X184044Y478111D01*
X184199Y478155D01*
X184362Y478190D01*
X184532Y478215D01*
X184649Y478226D01*
X191472D01*
X195399Y474299D01*
X195511Y474224D01*
X195208Y473223D01*
X176428D01*
X176186Y473586D01*
X175458Y474072D01*
X174600Y474243D01*
X173742Y474072D01*
X173014Y473586D01*
X172528Y472858D01*
X172357Y472000D01*
X172528Y471142D01*
X173014Y470414D01*
X173742Y469928D01*
X174600Y469757D01*
X175458Y469928D01*
X176186Y470414D01*
X176428Y470777D01*
X195376D01*
X202768Y463384D01*
X202741Y463144D01*
X202245Y462223D01*
X199603D01*
X199478Y462237D01*
X199322Y462265D01*
X199169Y462305D01*
X199017Y462357D01*
X198866Y462421D01*
X198715Y462497D01*
X198564Y462587D01*
X198454Y462662D01*
X198438Y462686D01*
X198292Y462784D01*
X198244Y462821D01*
X198213Y462837D01*
X197710Y463172D01*
X196852Y463343D01*
X195994Y463172D01*
X195266Y462686D01*
X194780Y461958D01*
X194681Y461463D01*
X193718Y461071D01*
X193661Y461069D01*
X186165Y468565D01*
X185768Y468830D01*
X185300Y468924D01*
X180686D01*
X180528Y468892D01*
X179958Y469272D01*
X179100Y469443D01*
X178242Y469272D01*
X177514Y468786D01*
X177028Y468058D01*
X176857Y467200D01*
X177028Y466342D01*
X177514Y465614D01*
X178242Y465128D01*
X179100Y464957D01*
X179958Y465128D01*
X180621Y465570D01*
X180726Y465609D01*
X180753Y465606D01*
X180785Y465590D01*
X181478Y464513D01*
X181442Y464332D01*
X181613Y463474D01*
X181981Y462922D01*
X181780Y462278D01*
X181538Y461922D01*
X176760D01*
X174010Y464672D01*
X174095Y465100D01*
X173924Y465958D01*
X173438Y466686D01*
X172710Y467172D01*
X171852Y467343D01*
X170994Y467172D01*
X170266Y466686D01*
X169438D01*
X168710Y467172D01*
X167852Y467343D01*
X166994Y467172D01*
X166459Y466815D01*
X166023Y466981D01*
X165529Y467664D01*
X165542Y467812D01*
X174015Y476285D01*
X174108Y476365D01*
X174250Y476474D01*
X174392Y476571D01*
X174534Y476656D01*
X174678Y476731D01*
X174822Y476794D01*
X174968Y476848D01*
X175116Y476891D01*
X175289Y476930D01*
X175345Y476955D01*
X175710Y477028D01*
X176438Y477514D01*
X176924Y478242D01*
X177095Y479100D01*
X176924Y479958D01*
X176438Y480686D01*
X176379Y480725D01*
X176682Y481726D01*
X179708D01*
X180173Y480725D01*
D02*
G37*
G36*
X132733Y471127D02*
X132537Y471082D01*
X132344Y471026D01*
X132155Y470957D01*
X131969Y470874D01*
X131786Y470780D01*
X131607Y470672D01*
X131431Y470552D01*
X131258Y470419D01*
X131088Y470273D01*
X130922Y470115D01*
X130126Y470733D01*
X130268Y470887D01*
X130397Y471050D01*
X130512Y471223D01*
X130615Y471405D01*
X130705Y471598D01*
X130781Y471800D01*
X130844Y472012D01*
X130895Y472233D01*
X130932Y472465D01*
X130956Y472706D01*
X132733Y471127D01*
D02*
G37*
G36*
X202921Y471188D02*
X202969Y470987D01*
X203030Y470791D01*
X203104Y470599D01*
X203192Y470411D01*
X203294Y470228D01*
X203409Y470050D01*
X203538Y469876D01*
X203680Y469706D01*
X203836Y469542D01*
X203059Y468764D01*
X202893Y468920D01*
X202724Y469062D01*
X202550Y469191D01*
X202372Y469306D01*
X202189Y469408D01*
X202001Y469496D01*
X201809Y469570D01*
X201613Y469631D01*
X201412Y469679D01*
X201206Y469712D01*
X202888Y471393D01*
X202921Y471188D01*
D02*
G37*
G36*
X243000Y494000D02*
X247000Y490000D01*
Y481000D01*
X246000Y480000D01*
X239000Y480000D01*
X236000Y477000D01*
X236000Y468000D01*
X230000Y468000D01*
X230000Y490000D01*
X237000Y497000D01*
Y513500D01*
X243000D01*
Y494000D01*
D02*
G37*
G36*
X185207Y464327D02*
X185257Y464117D01*
X185320Y463913D01*
X185396Y463715D01*
X185484Y463524D01*
X185584Y463338D01*
X185698Y463159D01*
X185824Y462986D01*
X185963Y462819D01*
X186114Y462658D01*
X185424Y461934D01*
X185266Y462082D01*
X185100Y462218D01*
X184927Y462341D01*
X184746Y462451D01*
X184558Y462548D01*
X184363Y462632D01*
X184161Y462704D01*
X183950Y462763D01*
X183733Y462809D01*
X183508Y462843D01*
X185170Y464543D01*
X185207Y464327D01*
D02*
G37*
G36*
X156973Y462073D02*
X156874Y461896D01*
X156786Y461711D01*
X156710Y461521D01*
X156646Y461324D01*
X156594Y461121D01*
X156553Y460912D01*
X156523Y460697D01*
X156506Y460475D01*
X156500Y460247D01*
X155500Y460142D01*
X155492Y460352D01*
X155468Y460560D01*
X155429Y460765D01*
X155374Y460967D01*
X155303Y461167D01*
X155216Y461364D01*
X155113Y461559D01*
X154994Y461751D01*
X154860Y461941D01*
X154710Y462128D01*
X157085Y462245D01*
X156973Y462073D01*
D02*
G37*
G36*
X197991Y462114D02*
X198180Y461985D01*
X198371Y461871D01*
X198566Y461773D01*
X198763Y461689D01*
X198964Y461621D01*
X199168Y461568D01*
X199375Y461530D01*
X199585Y461508D01*
X199798Y461500D01*
X199727Y460500D01*
X199502Y460494D01*
X199282Y460475D01*
X199069Y460444D01*
X198860Y460401D01*
X198658Y460345D01*
X198460Y460277D01*
X198269Y460197D01*
X198082Y460104D01*
X197902Y459999D01*
X197727Y459881D01*
X197806Y462257D01*
X197991Y462114D01*
D02*
G37*
G36*
X86777Y459070D02*
X86613Y458893D01*
X86462Y458705D01*
X86325Y458504D01*
X86200Y458293D01*
X86089Y458069D01*
X85992Y457833D01*
X85908Y457586D01*
X85837Y457327D01*
X85780Y457057D01*
X85735Y456774D01*
X83774Y458735D01*
X84057Y458780D01*
X84327Y458837D01*
X84586Y458908D01*
X84834Y458992D01*
X85069Y459090D01*
X85293Y459200D01*
X85505Y459324D01*
X85705Y459462D01*
X85893Y459613D01*
X86070Y459777D01*
X86777Y459070D01*
D02*
G37*
G36*
X202769Y457074D02*
X202819Y456865D01*
X202882Y456661D01*
X202957Y456463D01*
X203045Y456272D01*
X203146Y456086D01*
X203259Y455907D01*
X203385Y455734D01*
X203524Y455567D01*
X203676Y455406D01*
X202986Y454682D01*
X202827Y454830D01*
X202661Y454966D01*
X202488Y455088D01*
X202308Y455198D01*
X202120Y455296D01*
X201925Y455380D01*
X201722Y455452D01*
X201512Y455511D01*
X201294Y455557D01*
X201070Y455591D01*
X202731Y457291D01*
X202769Y457074D01*
D02*
G37*
G36*
X150133Y452627D02*
X149937Y452583D01*
X149744Y452526D01*
X149555Y452457D01*
X149369Y452374D01*
X149186Y452280D01*
X149007Y452172D01*
X148831Y452052D01*
X148658Y451919D01*
X148488Y451773D01*
X148322Y451615D01*
X147526Y452233D01*
X147668Y452387D01*
X147797Y452550D01*
X147913Y452723D01*
X148015Y452905D01*
X148105Y453098D01*
X148181Y453300D01*
X148244Y453512D01*
X148295Y453733D01*
X148332Y453965D01*
X148356Y454206D01*
X150133Y452627D01*
D02*
G37*
G36*
X243398Y450688D02*
X243735Y450400D01*
X243800Y450358D01*
X243857Y450328D01*
X243906Y450309D01*
X243948Y450303D01*
X243983Y450308D01*
X243052Y449290D01*
X243053Y449324D01*
X243043Y449366D01*
X243020Y449417D01*
X242985Y449476D01*
X242938Y449544D01*
X242878Y449620D01*
X242722Y449798D01*
X242517Y450011D01*
X243295Y450789D01*
X243398Y450688D01*
D02*
G37*
G36*
X175375Y448073D02*
X175423Y447859D01*
X175484Y447652D01*
X175558Y447452D01*
X175644Y447259D01*
X175743Y447072D01*
X175855Y446892D01*
X175979Y446719D01*
X176116Y446553D01*
X176266Y446393D01*
X175559Y445686D01*
X175399Y445836D01*
X175233Y445973D01*
X175060Y446097D01*
X174880Y446209D01*
X174693Y446308D01*
X174500Y446394D01*
X174300Y446468D01*
X174093Y446529D01*
X173879Y446577D01*
X173659Y446613D01*
X175339Y448293D01*
X175375Y448073D01*
D02*
G37*
G36*
X170375D02*
X170423Y447859D01*
X170484Y447652D01*
X170558Y447452D01*
X170644Y447259D01*
X170743Y447072D01*
X170855Y446892D01*
X170979Y446719D01*
X171116Y446553D01*
X171266Y446393D01*
X170559Y445686D01*
X170399Y445836D01*
X170233Y445973D01*
X170060Y446097D01*
X169880Y446209D01*
X169693Y446308D01*
X169500Y446394D01*
X169300Y446468D01*
X169093Y446529D01*
X168879Y446577D01*
X168658Y446613D01*
X170340Y448293D01*
X170375Y448073D01*
D02*
G37*
G36*
X163910Y447004D02*
X163793Y446819D01*
X163689Y446629D01*
X163600Y446436D01*
X163524Y446238D01*
X163462Y446036D01*
X163414Y445830D01*
X163380Y445619D01*
X163359Y445405D01*
X163352Y445186D01*
X162352D01*
X162345Y445405D01*
X162324Y445619D01*
X162290Y445830D01*
X162242Y446036D01*
X162180Y446238D01*
X162104Y446436D01*
X162015Y446629D01*
X161911Y446819D01*
X161794Y447004D01*
X161663Y447185D01*
X164041D01*
X163910Y447004D01*
D02*
G37*
G36*
X157910D02*
X157793Y446819D01*
X157689Y446629D01*
X157600Y446436D01*
X157524Y446238D01*
X157462Y446036D01*
X157414Y445830D01*
X157379Y445619D01*
X157359Y445405D01*
X157352Y445186D01*
X156352D01*
X156345Y445405D01*
X156324Y445619D01*
X156290Y445830D01*
X156242Y446036D01*
X156180Y446238D01*
X156104Y446436D01*
X156015Y446629D01*
X155911Y446819D01*
X155794Y447004D01*
X155663Y447185D01*
X158041D01*
X157910Y447004D01*
D02*
G37*
G36*
X151916Y447123D02*
X151829Y446952D01*
X151752Y446773D01*
X151685Y446586D01*
X151628Y446392D01*
X151582Y446189D01*
X151546Y445978D01*
X151505Y445533D01*
X151500Y445299D01*
X150500Y445122D01*
X150491Y445326D01*
X150466Y445529D01*
X150423Y445731D01*
X150363Y445930D01*
X150286Y446128D01*
X150192Y446324D01*
X150081Y446518D01*
X149952Y446711D01*
X149807Y446902D01*
X149644Y447091D01*
X152014Y447287D01*
X151916Y447123D01*
D02*
G37*
G36*
X238195Y445513D02*
X237974Y445477D01*
X237760Y445429D01*
X237552Y445367D01*
X237352Y445294D01*
X237158Y445207D01*
X236971Y445108D01*
X236791Y444997D01*
X236618Y444872D01*
X236452Y444735D01*
X236293Y444586D01*
X235586Y445293D01*
X235735Y445452D01*
X235872Y445618D01*
X235997Y445791D01*
X236108Y445971D01*
X236207Y446158D01*
X236294Y446352D01*
X236367Y446553D01*
X236428Y446760D01*
X236477Y446974D01*
X236513Y447195D01*
X238195Y445513D01*
D02*
G37*
G36*
X132500Y483100D02*
Y478700D01*
X127000Y473200D01*
Y443000D01*
X122700D01*
X121700Y444000D01*
Y483800D01*
X122800Y484900D01*
X130700D01*
X132500Y483100D01*
D02*
G37*
G36*
X159022Y463022D02*
X159852Y462857D01*
X159986Y462884D01*
X170515Y452355D01*
X170912Y452089D01*
X171380Y451996D01*
X178273D01*
X186967Y443303D01*
X186807Y442968D01*
X186377Y442478D01*
X186088Y442536D01*
X181147D01*
X176626Y447056D01*
X176545Y447155D01*
X176448Y447289D01*
X176362Y447428D01*
X176286Y447572D01*
X176219Y447721D01*
X176162Y447876D01*
X176114Y448039D01*
X176076Y448208D01*
X176044Y448407D01*
X176023Y448465D01*
X175924Y448958D01*
X175438Y449686D01*
X174710Y450172D01*
X173852Y450343D01*
X172994Y450172D01*
X172266Y449686D01*
X171906Y449148D01*
X171442Y449058D01*
X171262D01*
X170798Y449148D01*
X170438Y449686D01*
X169710Y450172D01*
X168852Y450343D01*
X167994Y450172D01*
X167266Y449686D01*
X166780Y448958D01*
X166609Y448100D01*
X166780Y447242D01*
X167266Y446514D01*
X167994Y446028D01*
X168487Y445929D01*
X168545Y445908D01*
X168744Y445876D01*
X168913Y445838D01*
X169076Y445790D01*
X169231Y445733D01*
X169380Y445666D01*
X169524Y445590D01*
X169663Y445504D01*
X169797Y445407D01*
X169896Y445326D01*
X177552Y437670D01*
X177162Y436670D01*
X168261D01*
X164076Y440855D01*
Y445401D01*
X164088Y445528D01*
X164114Y445691D01*
X164152Y445850D01*
X164199Y446005D01*
X164258Y446158D01*
X164327Y446308D01*
X164408Y446457D01*
X164501Y446604D01*
X164619Y446767D01*
X164645Y446823D01*
X164924Y447242D01*
X165095Y448100D01*
X164924Y448958D01*
X164438Y449686D01*
X163710Y450172D01*
X162852Y450343D01*
X161994Y450172D01*
X161266Y449686D01*
X160780Y448958D01*
X160609Y448100D01*
X160780Y447242D01*
X161059Y446823D01*
X161085Y446767D01*
X161203Y446604D01*
X161296Y446457D01*
X161377Y446308D01*
X161446Y446158D01*
X161505Y446005D01*
X161552Y445850D01*
X161590Y445691D01*
X161616Y445528D01*
X161628Y445401D01*
Y440348D01*
X161636Y440308D01*
X160715Y439816D01*
X158075Y442455D01*
Y445401D01*
X158088Y445528D01*
X158114Y445691D01*
X158152Y445850D01*
X158199Y446005D01*
X158258Y446158D01*
X158327Y446308D01*
X158408Y446457D01*
X158501Y446604D01*
X158619Y446767D01*
X158645Y446823D01*
X158924Y447242D01*
X159095Y448100D01*
X158924Y448958D01*
X158438Y449686D01*
X157710Y450172D01*
X156852Y450343D01*
X156223Y450218D01*
X155491Y450622D01*
X155224Y450861D01*
Y453105D01*
X156865Y454747D01*
X157130Y455144D01*
X157223Y455612D01*
Y460497D01*
X157233Y460621D01*
X157257Y460796D01*
X157290Y460963D01*
X157331Y461124D01*
X157382Y461278D01*
X157441Y461425D01*
X157509Y461568D01*
X157585Y461705D01*
X157684Y461857D01*
X157707Y461917D01*
X157924Y462242D01*
X157977Y462504D01*
X158988Y463025D01*
X159022Y463022D01*
D02*
G37*
G36*
X128654Y441185D02*
X128533Y441059D01*
X128335Y440814D01*
X128257Y440696D01*
X128193Y440581D01*
X128143Y440469D01*
X128108Y440359D01*
X128086Y440251D01*
X128079Y440147D01*
X128086Y440045D01*
X126807Y441324D01*
X126909Y441317D01*
X127013Y441325D01*
X127120Y441346D01*
X127230Y441382D01*
X127343Y441431D01*
X127458Y441495D01*
X127576Y441573D01*
X127697Y441665D01*
X127820Y441772D01*
X127947Y441892D01*
X128654Y441185D01*
D02*
G37*
G36*
X238434Y440762D02*
X238253Y440893D01*
X238068Y441010D01*
X237879Y441113D01*
X237685Y441203D01*
X237487Y441279D01*
X237285Y441341D01*
X237079Y441389D01*
X236869Y441423D01*
X236654Y441444D01*
X236435Y441451D01*
X236435Y442451D01*
X236654Y442458D01*
X236869Y442478D01*
X237079Y442513D01*
X237285Y442561D01*
X237487Y442623D01*
X237685Y442699D01*
X237879Y442788D01*
X238068Y442892D01*
X238253Y443009D01*
X238434Y443139D01*
X238434Y440762D01*
D02*
G37*
G36*
X258446Y445357D02*
X258745Y445136D01*
X259079Y444931D01*
X259447Y444744D01*
X259851Y444573D01*
X260288Y444420D01*
X260761Y444283D01*
X261810Y444061D01*
X262387Y443975D01*
X259025Y440613D01*
X258939Y441190D01*
X258717Y442239D01*
X258580Y442712D01*
X258427Y443149D01*
X258256Y443553D01*
X258069Y443921D01*
X257864Y444255D01*
X257643Y444554D01*
X257404Y444818D01*
X258182Y445596D01*
X258446Y445357D01*
D02*
G37*
G36*
X256778Y440958D02*
X256835Y440700D01*
X256906Y440452D01*
X256991Y440213D01*
X257090Y439983D01*
X257204Y439763D01*
X257332Y439552D01*
X257474Y439351D01*
X257630Y439159D01*
X257801Y438977D01*
X257023Y438199D01*
X256841Y438370D01*
X256649Y438526D01*
X256448Y438668D01*
X256237Y438796D01*
X256017Y438910D01*
X255787Y439009D01*
X255548Y439094D01*
X255299Y439165D01*
X255042Y439222D01*
X254774Y439265D01*
X256735Y441226D01*
X256778Y440958D01*
D02*
G37*
G36*
X330359Y437430D02*
X330551Y437274D01*
X330752Y437132D01*
X330963Y437004D01*
X331183Y436890D01*
X331413Y436791D01*
X331652Y436706D01*
X331901Y436635D01*
X332158Y436578D01*
X332426Y436535D01*
X330465Y434574D01*
X330422Y434842D01*
X330365Y435100D01*
X330294Y435348D01*
X330209Y435587D01*
X330110Y435817D01*
X329996Y436037D01*
X329868Y436248D01*
X329726Y436449D01*
X329570Y436641D01*
X329399Y436823D01*
X330177Y437601D01*
X330359Y437430D01*
D02*
G37*
G36*
X310359Y436630D02*
X310551Y436474D01*
X310752Y436332D01*
X310963Y436204D01*
X311183Y436090D01*
X311413Y435991D01*
X311652Y435906D01*
X311900Y435835D01*
X312158Y435778D01*
X312426Y435735D01*
X310465Y433774D01*
X310422Y434042D01*
X310365Y434300D01*
X310294Y434548D01*
X310209Y434787D01*
X310110Y435017D01*
X309996Y435237D01*
X309868Y435448D01*
X309726Y435649D01*
X309570Y435841D01*
X309399Y436023D01*
X310177Y436801D01*
X310359Y436630D01*
D02*
G37*
G36*
X259024Y430242D02*
X259014Y430283D01*
X258983Y430319D01*
X258931Y430351D01*
X258859Y430379D01*
X258767Y430402D01*
X258653Y430421D01*
X258520Y430436D01*
X258190Y430453D01*
X257994Y430456D01*
Y431556D01*
X258190Y431558D01*
X258653Y431590D01*
X258767Y431609D01*
X258859Y431632D01*
X258931Y431660D01*
X258983Y431692D01*
X259014Y431728D01*
X259024Y431769D01*
Y430242D01*
D02*
G37*
G36*
X307349Y430349D02*
X306893Y429420D01*
X306838Y429440D01*
X306601Y429478D01*
X306572Y429484D01*
X306375Y429527D01*
X306170Y429586D01*
X305975Y429655D01*
X305789Y429736D01*
X305612Y429827D01*
X305444Y429929D01*
X305283Y430043D01*
X305157Y430146D01*
X298401Y436901D01*
X297988Y437178D01*
X297500Y437275D01*
X264865D01*
X264526Y438274D01*
X264639Y438361D01*
X265232Y439134D01*
X265605Y440034D01*
X265732Y441000D01*
X265605Y441966D01*
X265232Y442866D01*
X264639Y443639D01*
X263866Y444232D01*
X262966Y444605D01*
X262552Y444659D01*
X262492Y444681D01*
X261937Y444764D01*
X260934Y444976D01*
X260506Y445100D01*
X260108Y445239D01*
X259749Y445391D01*
X259428Y445555D01*
X259145Y445728D01*
X258899Y445910D01*
X258830Y445973D01*
X248877Y455926D01*
X249291Y456925D01*
X280772D01*
X307349Y430349D01*
D02*
G37*
G36*
X328559Y432130D02*
X328751Y431974D01*
X328952Y431832D01*
X329163Y431704D01*
X329383Y431590D01*
X329613Y431491D01*
X329852Y431406D01*
X330100Y431335D01*
X330358Y431278D01*
X330626Y431235D01*
X328665Y429274D01*
X328622Y429542D01*
X328565Y429800D01*
X328494Y430048D01*
X328409Y430287D01*
X328310Y430517D01*
X328196Y430737D01*
X328068Y430948D01*
X327926Y431149D01*
X327770Y431341D01*
X327599Y431523D01*
X328377Y432301D01*
X328559Y432130D01*
D02*
G37*
G36*
X321533Y428613D02*
X321313Y428772D01*
X321091Y428914D01*
X320865Y429040D01*
X320636Y429149D01*
X320403Y429241D01*
X320167Y429316D01*
X319928Y429375D01*
X319685Y429417D01*
X319438Y429442D01*
X319189Y429450D01*
Y430550D01*
X319438Y430558D01*
X319685Y430583D01*
X319928Y430625D01*
X320167Y430684D01*
X320403Y430759D01*
X320636Y430851D01*
X320865Y430960D01*
X321091Y431085D01*
X321313Y431228D01*
X321533Y431387D01*
Y428613D01*
D02*
G37*
G36*
X304659Y429630D02*
X304851Y429474D01*
X305052Y429332D01*
X305263Y429204D01*
X305483Y429090D01*
X305713Y428991D01*
X305952Y428906D01*
X306201Y428835D01*
X306458Y428778D01*
X306726Y428735D01*
X304765Y426774D01*
X304722Y427042D01*
X304665Y427299D01*
X304594Y427548D01*
X304509Y427787D01*
X304410Y428017D01*
X304296Y428237D01*
X304168Y428448D01*
X304026Y428649D01*
X303870Y428841D01*
X303699Y429023D01*
X304477Y429801D01*
X304659Y429630D01*
D02*
G37*
G36*
X146063Y424982D02*
X145959Y424875D01*
X145791Y424676D01*
X145727Y424586D01*
X145676Y424501D01*
X145639Y424421D01*
X145614Y424348D01*
X145603Y424280D01*
X145605Y424218D01*
X145620Y424161D01*
X144493Y425179D01*
X144551Y425170D01*
X144615Y425174D01*
X144685Y425191D01*
X144762Y425222D01*
X144845Y425267D01*
X144935Y425324D01*
X145031Y425395D01*
X145133Y425480D01*
X145356Y425689D01*
X146063Y424982D01*
D02*
G37*
G36*
X239505Y426019D02*
X239518Y425850D01*
X239541Y425695D01*
X239572Y425552D01*
X239613Y425423D01*
X239662Y425306D01*
X239721Y425203D01*
X239788Y425112D01*
X239864Y425034D01*
X239950Y424970D01*
X238050D01*
X238136Y425034D01*
X238212Y425112D01*
X238280Y425203D01*
X238338Y425306D01*
X238387Y425423D01*
X238428Y425552D01*
X238459Y425695D01*
X238482Y425850D01*
X238495Y426019D01*
X238500Y426200D01*
X239500D01*
X239505Y426019D01*
D02*
G37*
G36*
X254509Y426686D02*
X254536Y426446D01*
X254580Y426207D01*
X254642Y425970D01*
X254722Y425733D01*
X254819Y425498D01*
X254935Y425264D01*
X255067Y425031D01*
X255218Y424798D01*
X255387Y424568D01*
X252613D01*
X252782Y424798D01*
X252933Y425031D01*
X253065Y425264D01*
X253181Y425498D01*
X253278Y425733D01*
X253358Y425970D01*
X253420Y426207D01*
X253465Y426446D01*
X253491Y426686D01*
X253500Y426927D01*
X254500D01*
X254509Y426686D01*
D02*
G37*
G36*
X249509D02*
X249535Y426446D01*
X249580Y426207D01*
X249642Y425970D01*
X249722Y425733D01*
X249819Y425498D01*
X249935Y425264D01*
X250067Y425031D01*
X250218Y424798D01*
X250387Y424568D01*
X247613D01*
X247782Y424798D01*
X247933Y425031D01*
X248065Y425264D01*
X248181Y425498D01*
X248278Y425733D01*
X248358Y425970D01*
X248420Y426207D01*
X248464Y426446D01*
X248491Y426686D01*
X248500Y426927D01*
X249500D01*
X249509Y426686D01*
D02*
G37*
G36*
X244509D02*
X244535Y426446D01*
X244580Y426207D01*
X244642Y425970D01*
X244722Y425733D01*
X244819Y425498D01*
X244935Y425264D01*
X245068Y425031D01*
X245218Y424798D01*
X245387Y424568D01*
X242613D01*
X242782Y424798D01*
X242933Y425031D01*
X243066Y425264D01*
X243181Y425498D01*
X243278Y425733D01*
X243358Y425970D01*
X243420Y426207D01*
X243464Y426446D01*
X243491Y426686D01*
X243500Y426927D01*
X244500D01*
X244509Y426686D01*
D02*
G37*
G36*
X141490Y425959D02*
X141347Y425799D01*
X141219Y425621D01*
X141107Y425423D01*
X141010Y425207D01*
X140928Y424971D01*
X140862Y424717D01*
X140811Y424445D01*
X140775Y424153D01*
X140755Y423843D01*
X140750Y423514D01*
X138535Y425187D01*
X138746Y425252D01*
X138956Y425331D01*
X139164Y425424D01*
X139370Y425530D01*
X139575Y425650D01*
X139979Y425931D01*
X140178Y426092D01*
X140572Y426455D01*
X141490Y425959D01*
D02*
G37*
G36*
X232107Y426113D02*
X232295Y425962D01*
X232495Y425824D01*
X232707Y425700D01*
X232931Y425590D01*
X233167Y425492D01*
X233414Y425408D01*
X233673Y425337D01*
X233943Y425280D01*
X234226Y425235D01*
X232265Y423274D01*
X232220Y423557D01*
X232163Y423827D01*
X232092Y424086D01*
X232008Y424333D01*
X231910Y424569D01*
X231800Y424793D01*
X231676Y425004D01*
X231538Y425205D01*
X231387Y425393D01*
X231223Y425570D01*
X231930Y426277D01*
X232107Y426113D01*
D02*
G37*
G36*
X202007D02*
X202195Y425962D01*
X202396Y425824D01*
X202607Y425700D01*
X202831Y425590D01*
X203066Y425492D01*
X203314Y425408D01*
X203573Y425337D01*
X203843Y425280D01*
X204126Y425235D01*
X202165Y423274D01*
X202120Y423557D01*
X202063Y423827D01*
X201992Y424086D01*
X201908Y424333D01*
X201811Y424569D01*
X201700Y424793D01*
X201575Y425004D01*
X201438Y425205D01*
X201287Y425393D01*
X201123Y425570D01*
X201830Y426277D01*
X202007Y426113D01*
D02*
G37*
G36*
X192107D02*
X192295Y425962D01*
X192496Y425824D01*
X192707Y425700D01*
X192931Y425590D01*
X193166Y425492D01*
X193414Y425408D01*
X193673Y425337D01*
X193943Y425280D01*
X194226Y425235D01*
X192265Y423274D01*
X192220Y423557D01*
X192163Y423827D01*
X192092Y424086D01*
X192008Y424333D01*
X191911Y424569D01*
X191800Y424793D01*
X191675Y425004D01*
X191538Y425205D01*
X191387Y425393D01*
X191223Y425570D01*
X191930Y426277D01*
X192107Y426113D01*
D02*
G37*
G36*
X187107D02*
X187295Y425962D01*
X187496Y425824D01*
X187707Y425700D01*
X187931Y425590D01*
X188166Y425492D01*
X188414Y425408D01*
X188673Y425337D01*
X188943Y425280D01*
X189226Y425235D01*
X187265Y423274D01*
X187221Y423557D01*
X187163Y423827D01*
X187092Y424086D01*
X187008Y424333D01*
X186910Y424569D01*
X186800Y424793D01*
X186676Y425004D01*
X186538Y425205D01*
X186387Y425393D01*
X186223Y425570D01*
X186930Y426277D01*
X187107Y426113D01*
D02*
G37*
G36*
X182107D02*
X182295Y425962D01*
X182495Y425824D01*
X182707Y425700D01*
X182931Y425590D01*
X183167Y425492D01*
X183414Y425408D01*
X183673Y425337D01*
X183943Y425280D01*
X184226Y425235D01*
X182265Y423274D01*
X182220Y423557D01*
X182163Y423827D01*
X182092Y424086D01*
X182008Y424333D01*
X181911Y424569D01*
X181800Y424793D01*
X181676Y425004D01*
X181538Y425205D01*
X181387Y425393D01*
X181223Y425570D01*
X181930Y426277D01*
X182107Y426113D01*
D02*
G37*
G36*
X177007D02*
X177195Y425962D01*
X177395Y425824D01*
X177607Y425700D01*
X177831Y425590D01*
X178067Y425492D01*
X178314Y425408D01*
X178573Y425337D01*
X178843Y425280D01*
X179126Y425235D01*
X177165Y423274D01*
X177120Y423557D01*
X177063Y423827D01*
X176992Y424086D01*
X176908Y424333D01*
X176811Y424569D01*
X176700Y424793D01*
X176576Y425004D01*
X176438Y425205D01*
X176287Y425393D01*
X176123Y425570D01*
X176830Y426277D01*
X177007Y426113D01*
D02*
G37*
G36*
X136777Y425570D02*
X136613Y425393D01*
X136462Y425205D01*
X136325Y425004D01*
X136200Y424793D01*
X136090Y424569D01*
X135992Y424333D01*
X135908Y424086D01*
X135837Y423827D01*
X135780Y423557D01*
X135735Y423274D01*
X133774Y425235D01*
X134057Y425280D01*
X134327Y425337D01*
X134586Y425408D01*
X134834Y425492D01*
X135069Y425590D01*
X135293Y425700D01*
X135504Y425824D01*
X135705Y425962D01*
X135893Y426113D01*
X136070Y426277D01*
X136777Y425570D01*
D02*
G37*
G36*
X131677D02*
X131513Y425393D01*
X131362Y425205D01*
X131225Y425004D01*
X131100Y424793D01*
X130990Y424569D01*
X130892Y424333D01*
X130808Y424086D01*
X130737Y423827D01*
X130680Y423557D01*
X130635Y423274D01*
X128674Y425235D01*
X128957Y425280D01*
X129227Y425337D01*
X129486Y425408D01*
X129734Y425492D01*
X129969Y425590D01*
X130193Y425700D01*
X130404Y425824D01*
X130605Y425962D01*
X130793Y426113D01*
X130970Y426277D01*
X131677Y425570D01*
D02*
G37*
G36*
X126777D02*
X126613Y425393D01*
X126462Y425205D01*
X126324Y425004D01*
X126200Y424793D01*
X126090Y424569D01*
X125992Y424333D01*
X125908Y424086D01*
X125837Y423827D01*
X125779Y423557D01*
X125735Y423274D01*
X123774Y425235D01*
X124057Y425280D01*
X124327Y425337D01*
X124586Y425408D01*
X124834Y425492D01*
X125069Y425590D01*
X125293Y425700D01*
X125505Y425824D01*
X125705Y425962D01*
X125893Y426113D01*
X126070Y426277D01*
X126777Y425570D01*
D02*
G37*
G36*
X196797Y425926D02*
X196979Y425792D01*
X197177Y425673D01*
X197393Y425568D01*
X197626Y425479D01*
X197877Y425403D01*
X198144Y425343D01*
X198429Y425297D01*
X198731Y425266D01*
X199050Y425249D01*
X197297Y423098D01*
X197235Y423331D01*
X197159Y423559D01*
X197071Y423782D01*
X196969Y424001D01*
X196854Y424215D01*
X196725Y424424D01*
X196583Y424629D01*
X196429Y424828D01*
X196079Y425214D01*
X196633Y426074D01*
X196797Y425926D01*
D02*
G37*
G36*
X121777Y425070D02*
X121613Y424893D01*
X121462Y424705D01*
X121325Y424505D01*
X121200Y424293D01*
X121089Y424069D01*
X120992Y423834D01*
X120908Y423586D01*
X120837Y423327D01*
X120780Y423057D01*
X120735Y422774D01*
X118774Y424735D01*
X119057Y424780D01*
X119327Y424837D01*
X119586Y424908D01*
X119834Y424992D01*
X120069Y425090D01*
X120293Y425200D01*
X120504Y425324D01*
X120705Y425462D01*
X120893Y425613D01*
X121070Y425777D01*
X121777Y425070D01*
D02*
G37*
G36*
X228032Y422113D02*
X227802Y422282D01*
X227570Y422433D01*
X227336Y422566D01*
X227102Y422681D01*
X226867Y422778D01*
X226630Y422858D01*
X226393Y422920D01*
X226154Y422964D01*
X225914Y422991D01*
X225673Y423000D01*
Y424000D01*
X225914Y424009D01*
X226154Y424036D01*
X226393Y424080D01*
X226630Y424142D01*
X226867Y424222D01*
X227102Y424319D01*
X227336Y424435D01*
X227570Y424568D01*
X227802Y424718D01*
X228032Y424887D01*
Y422113D01*
D02*
G37*
G36*
X172933D02*
X172702Y422282D01*
X172469Y422433D01*
X172236Y422566D01*
X172002Y422681D01*
X171767Y422778D01*
X171530Y422858D01*
X171293Y422920D01*
X171054Y422964D01*
X170814Y422991D01*
X170573Y423000D01*
Y424000D01*
X170814Y424009D01*
X171054Y424036D01*
X171293Y424080D01*
X171530Y424142D01*
X171767Y424222D01*
X172002Y424319D01*
X172236Y424435D01*
X172469Y424568D01*
X172702Y424718D01*
X172933Y424887D01*
Y422113D01*
D02*
G37*
G36*
X260860Y424327D02*
X260907Y424243D01*
X260977Y424141D01*
X261070Y424021D01*
X261487Y423546D01*
X262112Y422902D01*
X261039Y421147D01*
X260826Y421351D01*
X260411Y421697D01*
X260209Y421839D01*
X260010Y421959D01*
X259815Y422059D01*
X259623Y422139D01*
X259435Y422197D01*
X259251Y422234D01*
X259070Y422251D01*
X260836Y424391D01*
X260860Y424327D01*
D02*
G37*
G36*
X283078Y401942D02*
X283686Y401415D01*
X283869Y401282D01*
X284040Y401171D01*
X284202Y401080D01*
X284354Y401011D01*
X284495Y400962D01*
X284626Y400935D01*
X282665Y398974D01*
X282638Y399105D01*
X282590Y399246D01*
X282520Y399398D01*
X282429Y399559D01*
X282318Y399731D01*
X282185Y399914D01*
X281855Y400309D01*
X281440Y400746D01*
X282854Y402160D01*
X283078Y401942D01*
D02*
G37*
G36*
X162147Y551500D02*
X162338Y551038D01*
X145200Y533900D01*
X145200Y513600D01*
X131100Y513600D01*
X131100Y529800D01*
X152800Y551500D01*
X162147Y551500D01*
D02*
G37*
G36*
X133624Y508283D02*
X133397Y508438D01*
X133169Y508576D01*
X132938Y508699D01*
X132705Y508805D01*
X132469Y508895D01*
X132231Y508968D01*
X131991Y509026D01*
X131749Y509066D01*
X131504Y509091D01*
X131257Y509099D01*
X131198Y510099D01*
X131433Y510109D01*
X131668Y510137D01*
X131903Y510185D01*
X132138Y510252D01*
X132372Y510338D01*
X132607Y510443D01*
X132842Y510568D01*
X133076Y510711D01*
X133310Y510873D01*
X133545Y511055D01*
X133624Y508283D01*
D02*
G37*
G36*
X105359Y508795D02*
X105186Y508611D01*
X105027Y508420D01*
X104880Y508219D01*
X104747Y508011D01*
X104626Y507794D01*
X104519Y507569D01*
X104425Y507335D01*
X104344Y507093D01*
X104276Y506843D01*
X104221Y506584D01*
X102365Y508645D01*
X102667Y508676D01*
X102955Y508721D01*
X103229Y508779D01*
X103487Y508852D01*
X103731Y508939D01*
X103960Y509039D01*
X104175Y509153D01*
X104374Y509281D01*
X104559Y509423D01*
X104729Y509579D01*
X105359Y508795D01*
D02*
G37*
G36*
X205000Y510100D02*
Y499900D01*
X204800Y499700D01*
X188500D01*
X188500Y505700D01*
X196900Y514100D01*
X201000Y514100D01*
X205000Y510100D01*
D02*
G37*
G36*
X365000Y539000D02*
X366000Y538000D01*
X366000Y467353D01*
X365646Y467000D01*
X363000Y467000D01*
X354000Y476000D01*
Y492000D01*
X343000Y503000D01*
Y539000D01*
X365000Y539000D01*
D02*
G37*
G36*
X344226Y402265D02*
X344019Y402229D01*
X343812Y402176D01*
X343606Y402105D01*
X343401Y402016D01*
X343196Y401910D01*
X342991Y401786D01*
X342786Y401644D01*
X342582Y401485D01*
X342378Y401308D01*
X342175Y401114D01*
X341114Y402175D01*
X341308Y402378D01*
X341644Y402786D01*
X341786Y402991D01*
X341910Y403195D01*
X342016Y403401D01*
X342105Y403606D01*
X342176Y403813D01*
X342229Y404019D01*
X342265Y404226D01*
X344226Y402265D01*
D02*
G37*
G36*
X294239Y395266D02*
X294423Y395158D01*
X294619Y395062D01*
X294827Y394979D01*
X295047Y394909D01*
X295279Y394852D01*
X295524Y394807D01*
X295781Y394776D01*
X296050Y394756D01*
X296331Y394750D01*
Y393250D01*
X296050Y393244D01*
X295524Y393193D01*
X295279Y393148D01*
X295047Y393091D01*
X294827Y393021D01*
X294619Y392938D01*
X294423Y392843D01*
X294239Y392734D01*
X294068Y392613D01*
Y395387D01*
X294239Y395266D01*
D02*
G37*
G36*
X129831Y368950D02*
X129814Y368910D01*
X129799Y368851D01*
X129786Y368772D01*
X129766Y368558D01*
X129751Y368093D01*
X129750Y367900D01*
X128250D01*
X128249Y368093D01*
X128201Y368851D01*
X128186Y368910D01*
X128169Y368950D01*
X128150Y368970D01*
X129850D01*
X129831Y368950D01*
D02*
G37*
G36*
X135571Y370619D02*
X135625Y370412D01*
X135696Y370206D01*
X135784Y370001D01*
X135890Y369795D01*
X136014Y369591D01*
X136156Y369386D01*
X136315Y369182D01*
X136492Y368978D01*
X136686Y368775D01*
X135625Y367714D01*
X135422Y367909D01*
X135014Y368244D01*
X134809Y368386D01*
X134605Y368510D01*
X134399Y368616D01*
X134194Y368705D01*
X133987Y368776D01*
X133781Y368829D01*
X133574Y368865D01*
X135535Y370826D01*
X135571Y370619D01*
D02*
G37*
G36*
X156440Y351146D02*
X156768Y350892D01*
X157124Y350659D01*
X157508Y350448D01*
X157921Y350257D01*
X158361Y350088D01*
X158830Y349940D01*
X159327Y349813D01*
X160406Y349623D01*
X156877Y346094D01*
X156792Y346647D01*
X156560Y347670D01*
X156412Y348139D01*
X156243Y348579D01*
X156052Y348992D01*
X155841Y349376D01*
X155608Y349732D01*
X155354Y350060D01*
X155079Y350360D01*
X156140Y351420D01*
X156440Y351146D01*
D02*
G37*
G36*
X146440D02*
X146768Y350892D01*
X147124Y350659D01*
X147508Y350448D01*
X147921Y350257D01*
X148361Y350088D01*
X148830Y349940D01*
X149327Y349813D01*
X150406Y349623D01*
X146877Y346094D01*
X146792Y346647D01*
X146560Y347670D01*
X146412Y348139D01*
X146243Y348579D01*
X146053Y348992D01*
X145841Y349376D01*
X145608Y349732D01*
X145354Y350060D01*
X145080Y350360D01*
X146140Y351420D01*
X146440Y351146D01*
D02*
G37*
G36*
X269085Y379011D02*
X268925Y379125D01*
X268758Y379227D01*
X268582Y379316D01*
X268398Y379394D01*
X268206Y379460D01*
X268005Y379514D01*
X267796Y379556D01*
X267580Y379586D01*
X267354Y379604D01*
X267121Y379609D01*
Y380790D01*
X267354Y380797D01*
X267580Y380815D01*
X267796Y380844D01*
X268005Y380886D01*
X268206Y380940D01*
X268398Y381006D01*
X268582Y381084D01*
X268758Y381173D01*
X268925Y381275D01*
X269085Y381389D01*
Y379011D01*
D02*
G37*
G36*
X285723Y376271D02*
X285882Y376140D01*
X286046Y376024D01*
X286213Y375924D01*
X286384Y375839D01*
X286558Y375770D01*
X286736Y375717D01*
X286917Y375679D01*
X287102Y375657D01*
X287291Y375650D01*
X285551Y373836D01*
X285537Y374027D01*
X285507Y374214D01*
X285463Y374397D01*
X285403Y374577D01*
X285329Y374753D01*
X285239Y374926D01*
X285135Y375096D01*
X285015Y375261D01*
X284881Y375424D01*
X284731Y375582D01*
X285566Y376418D01*
X285723Y376271D01*
D02*
G37*
G36*
X176831Y373460D02*
X176654Y373272D01*
X176492Y373078D01*
X176345Y372875D01*
X176213Y372666D01*
X176096Y372450D01*
X175994Y372226D01*
X175906Y371996D01*
X175834Y371758D01*
X175776Y371514D01*
X175734Y371262D01*
X173787Y373237D01*
X174045Y373277D01*
X174295Y373331D01*
X174538Y373401D01*
X174772Y373486D01*
X174998Y373585D01*
X175216Y373700D01*
X175426Y373830D01*
X175628Y373974D01*
X175823Y374134D01*
X176009Y374308D01*
X176831Y373460D01*
D02*
G37*
G36*
X201720Y367585D02*
X201544Y367398D01*
X201383Y367203D01*
X201238Y367001D01*
X201107Y366791D01*
X200991Y366574D01*
X200890Y366349D01*
X200804Y366117D01*
X200733Y365877D01*
X200676Y365629D01*
X200635Y365374D01*
X198674Y367335D01*
X198929Y367376D01*
X199177Y367433D01*
X199417Y367504D01*
X199649Y367590D01*
X199874Y367691D01*
X200091Y367807D01*
X200301Y367937D01*
X200503Y368083D01*
X200698Y368244D01*
X200885Y368420D01*
X201720Y367585D01*
D02*
G37*
G36*
X251877Y366835D02*
X252092Y366700D01*
X252312Y366581D01*
X252537Y366477D01*
X252767Y366390D01*
X253003Y366318D01*
X253243Y366262D01*
X253490Y366222D01*
X253741Y366198D01*
X253997Y366191D01*
Y365009D01*
X253741Y365002D01*
X253490Y364978D01*
X253243Y364938D01*
X253003Y364882D01*
X252767Y364810D01*
X252537Y364723D01*
X252312Y364619D01*
X252092Y364500D01*
X251877Y364365D01*
X251667Y364213D01*
Y366987D01*
X251877Y366835D01*
D02*
G37*
G36*
X295875Y362819D02*
X295516Y363083D01*
X294810Y363528D01*
X294463Y363709D01*
X294121Y363862D01*
X293782Y363987D01*
X293448Y364084D01*
X293118Y364154D01*
X292792Y364196D01*
X292471Y364210D01*
Y365390D01*
X292792Y365404D01*
X293118Y365446D01*
X293448Y365516D01*
X293782Y365613D01*
X294121Y365738D01*
X294463Y365891D01*
X294810Y366072D01*
X295161Y366280D01*
X295875Y366781D01*
Y362819D01*
D02*
G37*
G36*
X192920Y367185D02*
X192744Y366998D01*
X192583Y366803D01*
X192438Y366601D01*
X192307Y366391D01*
X192191Y366174D01*
X192090Y365949D01*
X192004Y365717D01*
X191933Y365477D01*
X191876Y365229D01*
X191872Y365200D01*
X191876Y365171D01*
X191933Y364923D01*
X192004Y364683D01*
X192090Y364451D01*
X192191Y364226D01*
X192307Y364009D01*
X192438Y363799D01*
X192583Y363597D01*
X192744Y363402D01*
X192920Y363215D01*
X192085Y362380D01*
X191898Y362556D01*
X191703Y362717D01*
X191501Y362862D01*
X191291Y362993D01*
X191074Y363109D01*
X190849Y363210D01*
X190617Y363296D01*
X190377Y363367D01*
X190129Y363423D01*
X189874Y363465D01*
X191610Y365200D01*
X189874Y366935D01*
X190129Y366976D01*
X190377Y367033D01*
X190617Y367104D01*
X190849Y367190D01*
X191074Y367291D01*
X191291Y367407D01*
X191501Y367537D01*
X191703Y367683D01*
X191898Y367844D01*
X192085Y368020D01*
X192920Y367185D01*
D02*
G37*
G36*
X246777Y363535D02*
X246992Y363400D01*
X247212Y363281D01*
X247437Y363177D01*
X247667Y363090D01*
X247903Y363018D01*
X248144Y362962D01*
X248390Y362922D01*
X248641Y362898D01*
X248897Y362891D01*
Y361709D01*
X248641Y361701D01*
X248390Y361678D01*
X248144Y361638D01*
X247903Y361582D01*
X247667Y361510D01*
X247437Y361423D01*
X247212Y361319D01*
X246992Y361200D01*
X246777Y361065D01*
X246568Y360913D01*
Y363687D01*
X246777Y363535D01*
D02*
G37*
G36*
X234635Y359023D02*
X234500Y358808D01*
X234381Y358588D01*
X234277Y358363D01*
X234190Y358133D01*
X234118Y357897D01*
X234062Y357657D01*
X234022Y357410D01*
X233998Y357159D01*
X233991Y356903D01*
X232809D01*
X232802Y357159D01*
X232778Y357410D01*
X232738Y357657D01*
X232682Y357897D01*
X232610Y358133D01*
X232523Y358363D01*
X232419Y358588D01*
X232300Y358808D01*
X232165Y359023D01*
X232013Y359232D01*
X234787D01*
X234635Y359023D01*
D02*
G37*
G36*
X307782Y351080D02*
X308097Y350846D01*
X308448Y350630D01*
X308834Y350432D01*
X309257Y350252D01*
X309715Y350090D01*
X310209Y349946D01*
X311305Y349713D01*
X311906Y349623D01*
X308377Y346094D01*
X308287Y346695D01*
X308054Y347791D01*
X307910Y348285D01*
X307748Y348743D01*
X307568Y349166D01*
X307370Y349552D01*
X307154Y349903D01*
X306920Y350218D01*
X306668Y350497D01*
X307503Y351332D01*
X307782Y351080D01*
D02*
G37*
G36*
X267782D02*
X268097Y350846D01*
X268448Y350630D01*
X268834Y350432D01*
X269257Y350252D01*
X269715Y350090D01*
X270209Y349946D01*
X271305Y349713D01*
X271906Y349623D01*
X268377Y346094D01*
X268287Y346695D01*
X268054Y347791D01*
X267910Y348285D01*
X267748Y348743D01*
X267568Y349166D01*
X267370Y349552D01*
X267154Y349903D01*
X266920Y350218D01*
X266668Y350497D01*
X267503Y351332D01*
X267782Y351080D01*
D02*
G37*
G36*
X257782D02*
X258097Y350846D01*
X258448Y350630D01*
X258834Y350432D01*
X259257Y350252D01*
X259715Y350090D01*
X260209Y349946D01*
X261305Y349713D01*
X261906Y349623D01*
X258377Y346094D01*
X258287Y346695D01*
X258054Y347791D01*
X257910Y348285D01*
X257748Y348743D01*
X257568Y349166D01*
X257370Y349552D01*
X257154Y349903D01*
X256920Y350218D01*
X256668Y350497D01*
X257503Y351332D01*
X257782Y351080D01*
D02*
G37*
G36*
X196282D02*
X196597Y350846D01*
X196948Y350630D01*
X197334Y350432D01*
X197757Y350252D01*
X198215Y350090D01*
X198709Y349946D01*
X199805Y349713D01*
X200406Y349623D01*
X196877Y346094D01*
X196787Y346695D01*
X196554Y347791D01*
X196410Y348285D01*
X196248Y348743D01*
X196068Y349166D01*
X195870Y349552D01*
X195654Y349903D01*
X195420Y350218D01*
X195168Y350497D01*
X196003Y351332D01*
X196282Y351080D01*
D02*
G37*
G36*
X247721Y351042D02*
X248034Y350811D01*
X248385Y350599D01*
X248772Y350405D01*
X249197Y350230D01*
X249658Y350073D01*
X250156Y349934D01*
X251262Y349711D01*
X251871Y349628D01*
X248381Y346059D01*
X248286Y346653D01*
X248042Y347737D01*
X247893Y348227D01*
X247727Y348682D01*
X247543Y349102D01*
X247340Y349488D01*
X247121Y349839D01*
X246883Y350155D01*
X246628Y350437D01*
X247444Y351291D01*
X247721Y351042D01*
D02*
G37*
G36*
X179226Y362265D02*
X179019Y362229D01*
X178813Y362175D01*
X178606Y362105D01*
X178401Y362016D01*
X178196Y361910D01*
X177991Y361786D01*
X177786Y361644D01*
X177582Y361485D01*
X177378Y361309D01*
X177175Y361114D01*
X176114Y362175D01*
X176309Y362378D01*
X176644Y362786D01*
X176786Y362991D01*
X176910Y363195D01*
X177016Y363401D01*
X177104Y363606D01*
X177175Y363812D01*
X177229Y364019D01*
X177265Y364226D01*
X179226Y362265D01*
D02*
G37*
G36*
X176926Y351355D02*
X177263Y351077D01*
X177619Y350819D01*
X177995Y350582D01*
X178390Y350364D01*
X178804Y350167D01*
X179237Y349990D01*
X179690Y349834D01*
X180652Y349581D01*
X176855Y346340D01*
X176811Y346943D01*
X176655Y348042D01*
X176542Y348538D01*
X176405Y348998D01*
X176245Y349423D01*
X176062Y349812D01*
X175856Y350166D01*
X175626Y350484D01*
X175373Y350767D01*
X176608Y351653D01*
X176926Y351355D01*
D02*
G37*
G36*
X281906Y343377D02*
X281305Y343287D01*
X280209Y343054D01*
X279715Y342910D01*
X279257Y342748D01*
X278834Y342568D01*
X278448Y342370D01*
X278097Y342154D01*
X277782Y341920D01*
X277503Y341668D01*
X276668Y342503D01*
X276920Y342782D01*
X277154Y343097D01*
X277370Y343448D01*
X277568Y343834D01*
X277748Y344257D01*
X277910Y344715D01*
X278054Y345209D01*
X278287Y346305D01*
X278377Y346906D01*
X281906Y343377D01*
D02*
G37*
G36*
X173213Y346305D02*
X173446Y345209D01*
X173590Y344715D01*
X173752Y344257D01*
X173932Y343834D01*
X174130Y343448D01*
X174346Y343097D01*
X174580Y342782D01*
X174832Y342503D01*
X173997Y341668D01*
X173718Y341920D01*
X173403Y342154D01*
X173052Y342370D01*
X172666Y342568D01*
X172243Y342748D01*
X171785Y342910D01*
X171291Y343054D01*
X170195Y343287D01*
X169594Y343377D01*
X173123Y346906D01*
X173213Y346305D01*
D02*
G37*
D14*
X299700Y370400D02*
X306385Y363715D01*
Y351615D02*
X311500Y346500D01*
X306385Y351615D02*
Y363715D01*
X281500Y370400D02*
X299700D01*
X280000Y364800D02*
X297400D01*
X170000Y346500D02*
X176500Y340000D01*
X275000D02*
X281500Y346500D01*
X176500Y340000D02*
X275000D01*
X198900Y365600D02*
X203300Y370000D01*
X274800D02*
X280000Y364800D01*
X203300Y370000D02*
X274800D01*
X186209Y369409D02*
X192800Y376000D01*
X285149D02*
X287249Y373900D01*
X192800Y376000D02*
X285149D01*
X174036Y371500D02*
X182736Y380200D01*
X270000D01*
X184409Y369409D02*
X186209D01*
X184000Y369000D02*
X184409Y369409D01*
X287249Y373900D02*
X287300D01*
X190100Y365200D02*
X197900Y373000D01*
X278900D01*
X190100Y365200D02*
X194860Y360440D01*
X278900Y373000D02*
X281500Y370400D01*
X174000Y371500D02*
X174036D01*
X250600Y365600D02*
X260100D01*
X252103Y362300D02*
X256300Y358103D01*
X245500Y362300D02*
X252103D01*
X260100Y365600D02*
X266600Y359100D01*
Y351400D02*
Y359100D01*
X256300Y351700D02*
Y358103D01*
X194860Y351640D02*
Y360440D01*
X233400Y355100D02*
Y360300D01*
Y355100D02*
X237100Y351400D01*
X246500D01*
X266600D02*
X271500Y346500D01*
X256300Y351700D02*
X261500Y346500D01*
X251400D02*
X251500D01*
X246500Y351400D02*
X251400Y346500D01*
X194860Y351640D02*
X200000Y346500D01*
D15*
X171852Y465100D02*
X176253Y460699D01*
X183301D02*
X211000Y433000D01*
X176253Y460699D02*
X183301D01*
X181701Y458299D02*
X210000Y430000D01*
X174351Y458299D02*
X181701D01*
X167852Y464798D02*
X174351Y458299D01*
X173403Y455479D02*
X180521D01*
X209000Y427000D01*
X163873Y465010D02*
X173403Y455479D01*
X178780Y453220D02*
X208500Y423500D01*
X159852Y464748D02*
X171380Y453220D01*
X178780D01*
X174600Y472000D02*
X195883D01*
X219783Y448100D01*
X173852Y448100D02*
X180640Y441312D01*
X108200Y492200D02*
X145100D01*
X161900Y509000D02*
X167000D01*
X145100Y492200D02*
X161900Y509000D01*
X163000Y423500D02*
X174000D01*
X147800Y438700D02*
Y451800D01*
Y438700D02*
X163000Y423500D01*
X151000Y439600D02*
Y447902D01*
X162900Y427700D02*
X174700D01*
X151000Y439600D02*
X162900Y427700D01*
X164471Y430129D02*
X177371D01*
X154000Y440600D02*
Y453612D01*
Y440600D02*
X164471Y430129D01*
X162852Y440348D02*
Y448100D01*
X167754Y435446D02*
X182054D01*
X162852Y440348D02*
X167754Y435446D01*
X168852Y448100D02*
Y448100D01*
Y448100D02*
X178693Y438259D01*
X183741D01*
X180640Y441312D02*
X186088D01*
X203900Y423500D01*
X183741Y438259D02*
X198500Y423500D01*
X182054Y435446D02*
X184000Y433500D01*
X179867Y432633D02*
X189000Y423500D01*
X156852Y441948D02*
X166167Y432633D01*
X179867D01*
X177371Y430129D02*
X184000Y423500D01*
X156852Y441948D02*
Y448100D01*
X167852Y464798D02*
Y465100D01*
X163873Y465010D02*
Y465078D01*
X159852Y464748D02*
Y465100D01*
X174700Y427700D02*
X178900Y423500D01*
X197000Y461000D02*
X202245D01*
X219783Y447957D02*
X219815Y447924D01*
X219783Y447957D02*
Y448100D01*
X185300Y467700D02*
X214000Y439000D01*
X179100Y467200D02*
X179483Y467583D01*
X180569D01*
X180686Y467700D01*
X185300D01*
X239000Y423500D02*
Y426200D01*
X210000Y430000D02*
X235200D01*
X239000Y426200D01*
X244000Y423500D02*
Y428839D01*
X211000Y433000D02*
X239839D01*
X244000Y428839D01*
X212065Y436000D02*
X242900D01*
X249000Y423500D02*
Y429900D01*
X242900Y436000D02*
X249000Y429900D01*
X214000Y439000D02*
X244800D01*
X254000Y423500D02*
Y429800D01*
X244800Y439000D02*
X254000Y429800D01*
X147800Y451800D02*
X150000Y454000D01*
X150902Y448000D02*
X151000Y447902D01*
X145710Y425336D02*
Y457610D01*
X156614Y468513D02*
X164514D01*
X145710Y457610D02*
X156614Y468513D01*
X142500Y427676D02*
Y457700D01*
X155761Y470961D02*
X161961D01*
X142500Y457700D02*
X155761Y470961D01*
X139300Y458200D02*
X154390Y473290D01*
X139300Y428800D02*
Y458200D01*
X154390Y473290D02*
X159290D01*
X136400Y431000D02*
Y458900D01*
X153200Y475700D02*
X156700D01*
X136400Y458900D02*
X153200Y475700D01*
X133500Y433000D02*
Y459812D01*
X152559Y478871D02*
X154761D01*
X133500Y459812D02*
X152559Y478871D01*
X154761D02*
X154880Y478991D01*
X180000Y346500D02*
Y347200D01*
X128300Y441539D02*
Y468200D01*
X126600Y439839D02*
X128300Y441539D01*
X94200Y495600D02*
X135000D01*
X74600Y515200D02*
Y539600D01*
Y515200D02*
X94200Y495600D01*
X130600Y465200D02*
X139700Y474300D01*
X137900Y482500D02*
X139700Y480700D01*
Y474300D02*
Y480700D01*
X139000Y424177D02*
X142500Y427676D01*
X134000Y423500D02*
X139300Y428800D01*
X128900Y423500D02*
X136400Y431000D01*
X124000Y423500D02*
X133500Y433000D01*
X159290Y473290D02*
X165000Y479000D01*
X161961Y470961D02*
X170000Y479000D01*
X164514Y468513D02*
X175000Y479000D01*
X102500Y506900D02*
X102757D01*
X105456Y509599D02*
X134799D01*
X102757Y506900D02*
X105456Y509599D01*
X119000Y423000D02*
X130600Y434600D01*
Y465200D01*
X128300Y468200D02*
X132600Y472500D01*
X144000Y423500D02*
Y423626D01*
X145710Y425336D01*
X156000Y455612D02*
Y463000D01*
X154000Y453612D02*
X156000Y455612D01*
X156700Y475700D02*
X160000Y479000D01*
X183833Y464232D02*
X212065Y436000D01*
X218345Y444900D02*
X235900D01*
X202245Y461000D02*
X218345Y444900D01*
X239349Y441951D02*
X239349Y441951D01*
X216424Y441951D02*
X239349D01*
X235900Y444900D02*
X238000Y447000D01*
X201394Y456980D02*
X216424Y441951D01*
X209000Y427000D02*
X230500D01*
X234000Y423500D01*
X208500D02*
X229100D01*
X114600Y487600D02*
X131400D01*
X84000Y457000D02*
X114600Y487600D01*
X131400D02*
X134199Y484801D01*
Y479342D02*
Y484801D01*
Y479342D02*
X136000Y477541D01*
Y477000D02*
Y477541D01*
X95000Y479000D02*
X108200Y492200D01*
X198500Y423500D02*
X199000D01*
X184000Y433500D02*
Y433500D01*
Y433500D02*
X194000Y423500D01*
X178900D02*
Y423500D01*
X139000Y423500D02*
Y424177D01*
X78500Y516600D02*
X94800Y500300D01*
X140500D01*
D44*
X311894Y472000D02*
D03*
X164600Y521000D02*
D03*
X108000Y554000D02*
D03*
X148000D02*
D03*
D45*
X331106Y472000D02*
D03*
X183812Y521000D02*
D03*
D55*
X259600Y424000D02*
X284400Y399200D01*
X259130Y424000D02*
X259600D01*
X358900Y569600D02*
Y569600D01*
D56*
X182000Y479500D02*
X192000D01*
X196300Y475200D02*
X201600D01*
X192000Y479500D02*
X196300Y475200D01*
X202100Y478700D02*
X225300Y455500D01*
X199300Y478700D02*
X202100D01*
X201600Y475200D02*
X223800Y453000D01*
X245599D01*
X222200Y450400D02*
X242906D01*
X201400Y471200D02*
X222200Y450400D01*
X225300Y455500D02*
X247500D01*
X250493Y438507D02*
Y448106D01*
X245599Y453000D02*
X250493Y448106D01*
X247500Y455500D02*
X262000Y441000D01*
X260000Y436000D02*
X297500D01*
X306500Y427000D02*
X306500D01*
X297500Y436000D02*
X306500Y427000D01*
X169500Y490600D02*
X204900D01*
X165100Y495000D02*
X169500Y490600D01*
X204900D02*
X229500Y466000D01*
X203815Y488000D02*
X228315Y463500D01*
X164079Y491000D02*
X167079Y488000D01*
X203815D01*
X162800Y487000D02*
X164300Y485500D01*
X202500D02*
X227200Y460800D01*
X164300Y485500D02*
X202500D01*
X157000Y495000D02*
X165100D01*
X159000Y491000D02*
X164079D01*
X157000Y487000D02*
X162800D01*
X159000Y483000D02*
X201500D01*
X226300Y458200D01*
X281300D02*
X309500Y430000D01*
X226300Y458200D02*
X281300D01*
X285400Y460800D02*
X312200Y434000D01*
X227200Y460800D02*
X285400D01*
X290280Y463500D02*
X318280Y435500D01*
X228315Y463500D02*
X290280D01*
X319800Y439800D02*
X327200D01*
X293620Y465980D02*
X319800Y439800D01*
X257994Y431006D02*
X261994D01*
X250493Y438507D02*
X257994Y431006D01*
X242906Y450400D02*
X244406Y448900D01*
X244500D01*
X255000Y441000D02*
X260000Y436000D01*
X261994Y431006D02*
X262000Y431000D01*
X293500Y466000D02*
X293520Y465980D01*
X229500Y466000D02*
X293500D01*
X327200Y439800D02*
X332200Y434800D01*
X309500Y430000D02*
X322600D01*
X324400Y435500D02*
X330400Y429500D01*
X318280Y435500D02*
X324400D01*
X293520Y465980D02*
X293620D01*
D58*
X97812Y555000D02*
Y565712D01*
X119100Y587000D02*
X190000D01*
X97812Y565712D02*
X119100Y587000D01*
X225900Y533900D02*
Y539500D01*
X199000Y566400D02*
Y578000D01*
Y566400D02*
X225900Y539500D01*
Y518000D02*
Y525000D01*
Y531700D01*
Y533900D02*
X228100Y531700D01*
X190000Y549000D02*
X198800Y540200D01*
Y504100D02*
Y540200D01*
X140100Y533100D02*
X156000Y549000D01*
X140100Y523100D02*
Y533100D01*
X364000Y468000D02*
Y535000D01*
X363000Y536000D02*
X364000Y535000D01*
X156000Y549000D02*
X190000D01*
X288036Y504600D02*
X288668D01*
X287928Y504708D02*
X288036Y504600D01*
X287928Y504708D02*
Y508170D01*
X287016Y510366D02*
X287642Y509740D01*
Y508457D02*
Y509740D01*
Y508457D02*
X287928Y508170D01*
X190000Y587000D02*
X199000Y578000D01*
D59*
X305600Y527874D02*
X307138Y526335D01*
X305600Y534200D02*
X310895Y539495D01*
X305600Y527874D02*
Y534200D01*
X350000Y474000D02*
Y486000D01*
Y474000D02*
X354000Y470000D01*
X328672Y507328D02*
X350000Y486000D01*
X348100Y468556D02*
Y485237D01*
X327892Y505445D02*
X348100Y485237D01*
Y468556D02*
X350000Y466656D01*
Y466000D02*
Y466656D01*
X328672Y507328D02*
X328672D01*
X309021Y526979D02*
X328672Y507328D01*
X309755Y530861D02*
X310602Y531709D01*
X309755Y528604D02*
Y530861D01*
X327892Y505445D02*
X327892D01*
X309021Y526979D02*
Y527870D01*
X307138Y526199D02*
X327892Y505445D01*
X310895Y539495D02*
X313388D01*
X307138Y526199D02*
Y526335D01*
X309021Y527870D02*
X309755Y528604D01*
X354257Y430600D02*
Y430641D01*
X313388Y539495D02*
X315602Y541709D01*
X295602Y529661D02*
Y534602D01*
X305038Y541144D02*
X305602Y541709D01*
X302144Y541144D02*
X305038D01*
X295602Y534602D02*
X302144Y541144D01*
X295602Y529661D02*
X326679Y498584D01*
X326600Y496000D02*
X326600D01*
X290602Y531709D02*
X290891D01*
X326600Y496000D01*
X326600D02*
X341600Y481000D01*
X358784Y430400D02*
X358800D01*
X357442Y431742D02*
Y439910D01*
Y431742D02*
X358784Y430400D01*
X355558Y431942D02*
Y439130D01*
X354257Y430641D02*
X355558Y431942D01*
X326679Y498584D02*
X326679D01*
X343483Y481780D01*
X341600Y453088D02*
Y481000D01*
X343483Y453868D02*
X357442Y439910D01*
X341600Y453088D02*
X355558Y439130D01*
X343483Y453868D02*
Y481780D01*
D61*
X293000Y394000D02*
X334000D01*
X344000Y404000D01*
X175100Y352100D02*
X180000Y347200D01*
X175100Y360100D02*
X179000Y364000D01*
X175100Y352100D02*
Y360100D01*
X267200Y526900D02*
Y542500D01*
X280200Y555500D02*
X316500D01*
X267200Y542500D02*
X280200Y555500D01*
X267200Y526900D02*
X273700Y520400D01*
X275764Y523936D02*
X290965D01*
X270700Y529000D02*
Y540200D01*
Y529000D02*
X275764Y523936D01*
X273700Y520400D02*
X289600D01*
X298400Y511600D01*
Y469498D02*
Y511600D01*
Y469498D02*
X304367Y463531D01*
X324900Y542100D02*
X337400D01*
X351000Y555700D02*
X359300D01*
X337400Y542100D02*
X351000Y555700D01*
X301300Y471264D02*
Y513600D01*
X308617Y460883D02*
Y463947D01*
X301300Y471264D02*
X308617Y463947D01*
Y460883D02*
X309000Y460500D01*
X281000Y550500D02*
X316500D01*
X324900Y542100D01*
X316500Y555500D02*
X325800Y546200D01*
X335500D02*
X358900Y569600D01*
X325800Y546200D02*
X335500D01*
X290965Y523936D02*
X301300Y513600D01*
X270700Y540200D02*
X281000Y550500D01*
X132900Y364000D02*
X141200D01*
X145291Y351209D02*
Y359909D01*
X141200Y364000D02*
X145291Y359909D01*
X133800Y370600D02*
X136700Y367700D01*
X146800D02*
X155313Y359187D01*
X136700Y367700D02*
X146800D01*
X129000Y367900D02*
Y370500D01*
Y367900D02*
X132900Y364000D01*
X155313Y351187D02*
Y359187D01*
Y351187D02*
X160000Y346500D01*
X145291Y351209D02*
X150000Y346500D01*
D63*
X86614Y586614D02*
D03*
Y354331D02*
D03*
X350394Y586614D02*
D03*
X354331Y354331D02*
D03*
D64*
X262000Y451000D02*
D03*
Y441000D02*
D03*
X253000Y471000D02*
D03*
X263000D02*
D03*
X243000D02*
D03*
D65*
X262000Y431000D02*
D03*
D66*
X233000Y471000D02*
D03*
D67*
X320583Y566709D02*
D03*
X275583D02*
D03*
D68*
X267590Y554701D02*
D03*
X328575D02*
D03*
D69*
X282000Y586000D02*
D03*
X272000D02*
D03*
X314165D02*
D03*
X324165D02*
D03*
D70*
X280602Y531709D02*
D03*
X285602Y541709D02*
D03*
X290602Y531709D02*
D03*
X295602Y541709D02*
D03*
X300602Y531709D02*
D03*
X305602Y541709D02*
D03*
X310602Y531709D02*
D03*
D71*
X315602Y541709D02*
D03*
D72*
X241500Y346500D02*
D03*
X251500D02*
D03*
X261500D02*
D03*
X271500D02*
D03*
X281500D02*
D03*
X291500D02*
D03*
X301500D02*
D03*
X311500D02*
D03*
X241500Y356500D02*
D03*
X251500D02*
D03*
X261500D02*
D03*
X271500D02*
D03*
X281500D02*
D03*
X291500D02*
D03*
X301500D02*
D03*
X311500D02*
D03*
X200000D02*
D03*
X190000D02*
D03*
X180000D02*
D03*
X170000D02*
D03*
X160000D02*
D03*
X150000D02*
D03*
X140000D02*
D03*
X130000D02*
D03*
X200000Y346500D02*
D03*
X190000D02*
D03*
X180000D02*
D03*
X170000D02*
D03*
X160000D02*
D03*
X150000D02*
D03*
X140000D02*
D03*
X130000D02*
D03*
D73*
X181905Y570253D02*
D03*
X245059Y570253D02*
D03*
D74*
X151906Y570253D02*
D03*
X121906D02*
D03*
X215059Y570253D02*
D03*
D75*
X260100Y521000D02*
D03*
X180000Y463500D02*
D03*
X169900Y469300D02*
D03*
X185000Y475300D02*
D03*
X179100Y475200D02*
D03*
X174600Y472000D02*
D03*
X173852Y448100D02*
D03*
X152000Y494600D02*
D03*
X145900Y497800D02*
D03*
X169100Y440900D02*
D03*
X167852Y465100D02*
D03*
X179000Y448200D02*
D03*
X199300Y478700D02*
D03*
X201400Y471200D02*
D03*
X196852Y461100D02*
D03*
X134700Y465300D02*
D03*
X219815Y447924D02*
D03*
X182000Y479500D02*
D03*
X258750Y502000D02*
D03*
X265475D02*
D03*
X272200D02*
D03*
X179100Y467200D02*
D03*
X150753Y448100D02*
D03*
X159852Y465100D02*
D03*
X163873Y465078D02*
D03*
X154880Y478991D02*
D03*
X172900Y495800D02*
D03*
X126600Y439839D02*
D03*
X132452Y472600D02*
D03*
X155852Y463100D02*
D03*
X182200Y495800D02*
D03*
X177600D02*
D03*
X158852Y483100D02*
D03*
X159852Y479100D02*
D03*
X158852Y491100D02*
D03*
X183685Y464332D02*
D03*
X244500Y448900D02*
D03*
X239349Y441951D02*
D03*
X238000Y447000D02*
D03*
X270000Y380200D02*
D03*
X201246Y457080D02*
D03*
X137752Y482600D02*
D03*
X168852Y448100D02*
D03*
X171852Y465100D02*
D03*
X149852Y454100D02*
D03*
X95000Y479000D02*
D03*
X166852Y509100D02*
D03*
X135852Y477100D02*
D03*
X169852Y479100D02*
D03*
X174852D02*
D03*
X164852D02*
D03*
X157000Y487000D02*
D03*
X156852Y495100D02*
D03*
X162852Y448100D02*
D03*
X156852D02*
D03*
D76*
X174000Y423500D02*
D03*
X307500Y567500D02*
D03*
Y575000D02*
D03*
X292500D02*
D03*
X365000Y572500D02*
D03*
X112500Y425000D02*
D03*
X255000Y407500D02*
D03*
X245000D02*
D03*
X235000D02*
D03*
X225000D02*
D03*
X260000Y600000D02*
D03*
X205000Y592500D02*
D03*
X167500Y580000D02*
D03*
X135000D02*
D03*
X322500Y405000D02*
D03*
X310000D02*
D03*
X335000Y525000D02*
D03*
Y535000D02*
D03*
X175000Y555000D02*
D03*
X137500Y547500D02*
D03*
Y540000D02*
D03*
X127500D02*
D03*
X117500D02*
D03*
X105000Y482500D02*
D03*
Y472500D02*
D03*
Y457500D02*
D03*
Y442500D02*
D03*
Y427500D02*
D03*
X250000Y477500D02*
D03*
X260000Y530000D02*
D03*
Y542500D02*
D03*
Y570000D02*
D03*
Y585000D02*
D03*
X242500D02*
D03*
X250000Y592500D02*
D03*
X235000D02*
D03*
X220000D02*
D03*
X227500Y585000D02*
D03*
X212500D02*
D03*
X292500Y567500D02*
D03*
X325000Y600000D02*
D03*
X310000D02*
D03*
X295000D02*
D03*
X277500D02*
D03*
X200000Y552500D02*
D03*
X185000Y557500D02*
D03*
X227500Y575000D02*
D03*
X242500Y600000D02*
D03*
X227500D02*
D03*
X212500D02*
D03*
X135000Y572500D02*
D03*
X167500Y570000D02*
D03*
X192500Y600000D02*
D03*
X180000D02*
D03*
X162500D02*
D03*
X145000D02*
D03*
X122500D02*
D03*
X75000Y572500D02*
D03*
Y560000D02*
D03*
Y547500D02*
D03*
Y507500D02*
D03*
Y490000D02*
D03*
Y472500D02*
D03*
Y457500D02*
D03*
Y397500D02*
D03*
Y412500D02*
D03*
Y427500D02*
D03*
Y442500D02*
D03*
X260000Y480000D02*
D03*
X300000Y427500D02*
D03*
X320000Y490000D02*
D03*
X337500Y480000D02*
D03*
X305000D02*
D03*
X315000Y460000D02*
D03*
X321500Y472000D02*
D03*
X332500Y460000D02*
D03*
X365000Y435000D02*
D03*
Y425000D02*
D03*
X347500D02*
D03*
X345000Y435000D02*
D03*
X362500Y377500D02*
D03*
X352500D02*
D03*
X330736Y377427D02*
D03*
X317500Y377500D02*
D03*
X305000D02*
D03*
X320000Y362500D02*
D03*
Y350000D02*
D03*
Y340000D02*
D03*
X297500D02*
D03*
X270000Y365000D02*
D03*
X222500Y345000D02*
D03*
X217500Y352500D02*
D03*
X222500Y360000D02*
D03*
X212500D02*
D03*
Y345000D02*
D03*
X160000Y340000D02*
D03*
X147500D02*
D03*
X135000D02*
D03*
X120000D02*
D03*
X157500Y370000D02*
D03*
X107500Y342500D02*
D03*
Y370000D02*
D03*
X92500Y375000D02*
D03*
X77500D02*
D03*
X265000Y395000D02*
D03*
X255000D02*
D03*
X245000D02*
D03*
X235000D02*
D03*
X225000D02*
D03*
X215000D02*
D03*
X205000D02*
D03*
X195000D02*
D03*
X185000D02*
D03*
X175000D02*
D03*
X165000D02*
D03*
X155000D02*
D03*
X145000D02*
D03*
X135000D02*
D03*
X125000D02*
D03*
X115000D02*
D03*
X105000D02*
D03*
X219500Y506800D02*
D03*
X210300D02*
D03*
X225700Y484100D02*
D03*
Y490900D02*
D03*
X153000Y423000D02*
D03*
X125000Y409000D02*
D03*
X132000D02*
D03*
X139000D02*
D03*
X146000D02*
D03*
X153000D02*
D03*
X208000D02*
D03*
X202000D02*
D03*
X196000D02*
D03*
X189000D02*
D03*
X182000D02*
D03*
X174000Y409200D02*
D03*
X179000Y364000D02*
D03*
X134651Y509699D02*
D03*
X125251Y452200D02*
D03*
X259130Y424000D02*
D03*
X249000Y423500D02*
D03*
X254000D02*
D03*
X244000D02*
D03*
X255000Y441000D02*
D03*
X354000Y470000D02*
D03*
X350000Y466000D02*
D03*
X198900Y365600D02*
D03*
X287300Y373900D02*
D03*
X184000Y369000D02*
D03*
X174000Y371500D02*
D03*
X250600Y365600D02*
D03*
X354257Y430600D02*
D03*
X332200Y434800D02*
D03*
X322600Y430000D02*
D03*
X330400Y429500D02*
D03*
X312200Y434000D02*
D03*
X306500Y427000D02*
D03*
X130400Y482000D02*
D03*
X125700Y481900D02*
D03*
X344000Y404000D02*
D03*
X304367Y463531D02*
D03*
X84000Y457000D02*
D03*
X124000Y423500D02*
D03*
X239000D02*
D03*
X140352Y500400D02*
D03*
X245500Y362300D02*
D03*
X288668Y504600D02*
D03*
X286000Y500600D02*
D03*
X291600D02*
D03*
X359300Y555700D02*
D03*
X358900Y569600D02*
D03*
X309000Y460500D02*
D03*
X358800Y430400D02*
D03*
X284400Y399200D02*
D03*
X190100Y365200D02*
D03*
X233400Y360300D02*
D03*
X102500Y506900D02*
D03*
X74600Y539600D02*
D03*
X78500Y516600D02*
D03*
X134852Y495700D02*
D03*
X293000Y394000D02*
D03*
X119000Y423000D02*
D03*
X234000Y423500D02*
D03*
X229100D02*
D03*
X144000D02*
D03*
X139000D02*
D03*
X134000D02*
D03*
X128900D02*
D03*
X203900D02*
D03*
X199000D02*
D03*
X194000D02*
D03*
X189000D02*
D03*
X184000D02*
D03*
X178900D02*
D03*
X133800Y370600D02*
D03*
X129000Y370500D02*
D03*
D77*
X78614Y594614D02*
D03*
X94614Y578614D02*
D03*
X86614Y575614D02*
D03*
X78614Y578614D02*
D03*
X75614Y586614D02*
D03*
X86614Y597614D02*
D03*
X94614Y594614D02*
D03*
X97614Y586614D02*
D03*
Y354331D02*
D03*
X94614Y362331D02*
D03*
X86614Y365331D02*
D03*
X75614Y354331D02*
D03*
X78614Y346331D02*
D03*
X86614Y343331D02*
D03*
X94614Y346331D02*
D03*
X78614Y362331D02*
D03*
X342394Y594614D02*
D03*
X358394Y578614D02*
D03*
X350394Y575614D02*
D03*
X342394Y578614D02*
D03*
X339394Y586614D02*
D03*
X350394Y597614D02*
D03*
X358394Y594614D02*
D03*
X361394Y586614D02*
D03*
X365331Y354331D02*
D03*
X362331Y362331D02*
D03*
X354331Y365331D02*
D03*
X343331Y354331D02*
D03*
X346331Y346331D02*
D03*
X354331Y343331D02*
D03*
X362331Y346331D02*
D03*
X346331Y362331D02*
D03*
D78*
X297400Y364800D02*
D03*
X172500Y535000D02*
D03*
X149100Y531500D02*
D03*
X149200Y525900D02*
D03*
X181000Y511500D02*
D03*
X198800Y504100D02*
D03*
X191700Y504000D02*
D03*
X146100Y505800D02*
D03*
X228100Y531700D02*
D03*
Y525000D02*
D03*
X134500Y523100D02*
D03*
Y516500D02*
D03*
X140300Y516600D02*
D03*
Y523100D02*
D03*
X364000Y468000D02*
D03*
X358000Y524000D02*
D03*
X277000Y477000D02*
D03*
X283000D02*
D03*
X289000D02*
D03*
X225900Y518000D02*
D03*
X97812Y555000D02*
D03*
D79*
X278000Y483634D02*
D03*
X240000D02*
D03*
D80*
X287016Y510366D02*
D03*
X278000D02*
D03*
X240000D02*
D03*
X249016D02*
D03*
D81*
X268984D02*
D03*
X230984D02*
D03*
M02*
