G04*
G04 #@! TF.GenerationSoftware,Altium Limited,Altium Designer,20.2.6 (244)*
G04*
G04 Layer_Color=8421504*
%FSLAX25Y25*%
%MOIN*%
G70*
G04*
G04 #@! TF.SameCoordinates,DA10D54E-F5E1-4E40-92F4-FD95AF22BDD1*
G04*
G04*
G04 #@! TF.FilePolarity,Positive*
G04*
G01*
G75*
%ADD18R,0.07480X0.04626*%
%ADD19R,0.07480X0.09350*%
%ADD20R,0.08268X0.05807*%
%ADD21R,0.05433X0.01772*%
%ADD22O,0.02756X0.09843*%
%ADD23R,0.05927X0.07316*%
%ADD24R,0.03749X0.06316*%
G04:AMPARAMS|DCode=25|XSize=63.16mil|YSize=37.49mil|CornerRadius=18.74mil|HoleSize=0mil|Usage=FLASHONLY|Rotation=90.000|XOffset=0mil|YOffset=0mil|HoleType=Round|Shape=RoundedRectangle|*
%AMROUNDEDRECTD25*
21,1,0.06316,0.00000,0,0,90.0*
21,1,0.02568,0.03749,0,0,90.0*
1,1,0.03749,0.00000,0.01284*
1,1,0.03749,0.00000,-0.01284*
1,1,0.03749,0.00000,-0.01284*
1,1,0.03749,0.00000,0.01284*
%
%ADD25ROUNDEDRECTD25*%
G04:AMPARAMS|DCode=26|XSize=63.16mil|YSize=128.43mil|CornerRadius=18.63mil|HoleSize=0mil|Usage=FLASHONLY|Rotation=90.000|XOffset=0mil|YOffset=0mil|HoleType=Round|Shape=RoundedRectangle|*
%AMROUNDEDRECTD26*
21,1,0.06316,0.09117,0,0,90.0*
21,1,0.02590,0.12843,0,0,90.0*
1,1,0.03727,0.04558,0.01295*
1,1,0.03727,0.04558,-0.01295*
1,1,0.03727,-0.04558,-0.01295*
1,1,0.03727,-0.04558,0.01295*
%
%ADD26ROUNDEDRECTD26*%
%ADD27R,0.04953X0.07134*%
%ADD28R,0.07134X0.04953*%
%ADD29R,0.05236X0.05236*%
%ADD30R,0.03543X0.07874*%
%ADD31R,0.07874X0.03543*%
%ADD32R,0.07316X0.05927*%
%ADD33R,0.03937X0.02756*%
%ADD34R,0.02756X0.02362*%
%ADD35R,0.07677X0.02559*%
%ADD36R,0.07087X0.01181*%
%ADD37R,0.01181X0.07087*%
D18*
X447047Y357628D02*
D03*
Y351033D02*
D03*
D19*
Y365797D02*
D03*
Y342864D02*
D03*
D20*
X437992Y364026D02*
D03*
Y344636D02*
D03*
D21*
X436575Y359449D02*
D03*
Y356890D02*
D03*
Y354331D02*
D03*
Y351772D02*
D03*
Y349213D02*
D03*
D22*
X374429Y332878D02*
D03*
X369429D02*
D03*
X364429D02*
D03*
X359429D02*
D03*
X374429Y313587D02*
D03*
X369429D02*
D03*
X364429D02*
D03*
X359429D02*
D03*
X250374Y398622D02*
D03*
X255374D02*
D03*
X260374D02*
D03*
X265374D02*
D03*
X250374Y417913D02*
D03*
X255374D02*
D03*
X260374D02*
D03*
X265374D02*
D03*
D23*
X349513Y325197D02*
D03*
X337888D02*
D03*
X349513Y312598D02*
D03*
X337888D02*
D03*
X360723Y300000D02*
D03*
X372348D02*
D03*
X360723Y287402D02*
D03*
X372348D02*
D03*
X308962Y193307D02*
D03*
X297337D02*
D03*
X308962Y244488D02*
D03*
X297337D02*
D03*
X308962Y257087D02*
D03*
X297337D02*
D03*
X431195Y290945D02*
D03*
X442820D02*
D03*
X431195Y303543D02*
D03*
X442820D02*
D03*
X300881Y383465D02*
D03*
X312505D02*
D03*
X300881Y396063D02*
D03*
X312505D02*
D03*
X195183Y124409D02*
D03*
X183558D02*
D03*
X195183Y111811D02*
D03*
X183558D02*
D03*
X195183Y203150D02*
D03*
X183558D02*
D03*
X195183Y190551D02*
D03*
X183558D02*
D03*
X195183Y281890D02*
D03*
X183558D02*
D03*
X195183Y269291D02*
D03*
X183558D02*
D03*
X195183Y505512D02*
D03*
X183558D02*
D03*
X381797Y231890D02*
D03*
X370172D02*
D03*
X381797Y244488D02*
D03*
X370172D02*
D03*
X442820Y392520D02*
D03*
X431195D02*
D03*
X289671Y325197D02*
D03*
X278046D02*
D03*
X195183Y360630D02*
D03*
X183558D02*
D03*
X195183Y348031D02*
D03*
X183558D02*
D03*
X195183Y439370D02*
D03*
X183558D02*
D03*
X195183Y426772D02*
D03*
X183558D02*
D03*
X195183Y518110D02*
D03*
X183558D02*
D03*
D24*
X294134Y205532D02*
D03*
D25*
X303150D02*
D03*
X312165D02*
D03*
D26*
X303150Y232264D02*
D03*
D27*
X338870Y244488D02*
D03*
X350894D02*
D03*
X260524Y113386D02*
D03*
X272547D02*
D03*
X260524Y100787D02*
D03*
X272547D02*
D03*
X443020Y379921D02*
D03*
X430996D02*
D03*
Y328740D02*
D03*
X443020D02*
D03*
X430996Y316142D02*
D03*
X443020D02*
D03*
X372547Y274803D02*
D03*
X360524D02*
D03*
D28*
X338976Y233177D02*
D03*
Y221154D02*
D03*
Y210343D02*
D03*
Y198319D02*
D03*
X377559Y103256D02*
D03*
Y91232D02*
D03*
X301575Y430815D02*
D03*
Y418791D02*
D03*
X341732Y418791D02*
D03*
Y430815D02*
D03*
X341732Y392807D02*
D03*
Y404831D02*
D03*
X329134Y392807D02*
D03*
Y404831D02*
D03*
X325590Y494776D02*
D03*
Y506799D02*
D03*
Y471941D02*
D03*
Y483964D02*
D03*
X380315Y471941D02*
D03*
Y483964D02*
D03*
X277559Y550500D02*
D03*
Y538476D02*
D03*
X314173Y430815D02*
D03*
Y418791D02*
D03*
X288976Y396350D02*
D03*
Y408374D02*
D03*
X276378Y396350D02*
D03*
Y408374D02*
D03*
D29*
X325453Y126279D02*
D03*
X332677D02*
D03*
X339902D02*
D03*
X325453Y119055D02*
D03*
X332677D02*
D03*
X339902D02*
D03*
X325453Y111831D02*
D03*
X332677D02*
D03*
X339902D02*
D03*
D30*
X306240Y158465D02*
D03*
X311240D02*
D03*
X316240D02*
D03*
X321240D02*
D03*
X326240D02*
D03*
X331240D02*
D03*
X336240D02*
D03*
X341240D02*
D03*
X346240D02*
D03*
X351240D02*
D03*
D31*
X295276Y89527D02*
D03*
Y94528D02*
D03*
Y99528D02*
D03*
Y104527D02*
D03*
Y109528D02*
D03*
Y114527D02*
D03*
Y119527D02*
D03*
Y124528D02*
D03*
Y129527D02*
D03*
Y134528D02*
D03*
Y139527D02*
D03*
Y144527D02*
D03*
Y149528D02*
D03*
Y154527D02*
D03*
X362205D02*
D03*
Y149528D02*
D03*
Y144527D02*
D03*
Y139527D02*
D03*
Y134528D02*
D03*
Y129527D02*
D03*
Y124528D02*
D03*
Y119527D02*
D03*
Y114527D02*
D03*
Y109528D02*
D03*
Y104527D02*
D03*
Y99528D02*
D03*
Y94528D02*
D03*
Y89527D02*
D03*
D32*
X415354Y80616D02*
D03*
Y68991D02*
D03*
X402756Y80616D02*
D03*
Y68991D02*
D03*
X390158Y80616D02*
D03*
Y68991D02*
D03*
X377559Y80616D02*
D03*
Y68991D02*
D03*
X260630Y359936D02*
D03*
Y371560D02*
D03*
Y348726D02*
D03*
Y337101D02*
D03*
X293701Y371560D02*
D03*
Y359936D02*
D03*
X276378Y430616D02*
D03*
Y418991D02*
D03*
X288976Y430616D02*
D03*
Y418991D02*
D03*
X354331Y430616D02*
D03*
Y418991D02*
D03*
X354331Y404631D02*
D03*
Y393006D02*
D03*
X312992Y472140D02*
D03*
Y483765D02*
D03*
X300394Y472140D02*
D03*
Y483765D02*
D03*
X354331Y378647D02*
D03*
Y367022D02*
D03*
X366929Y378647D02*
D03*
Y367022D02*
D03*
X290158Y527559D02*
D03*
Y515934D02*
D03*
X277559Y527559D02*
D03*
Y515934D02*
D03*
X293701Y337101D02*
D03*
Y348726D02*
D03*
D33*
X364173Y406102D02*
D03*
Y391535D02*
D03*
X387795Y406102D02*
D03*
Y391535D02*
D03*
X364173Y432087D02*
D03*
Y417520D02*
D03*
X387795Y432087D02*
D03*
Y417520D02*
D03*
D34*
X375984Y388976D02*
D03*
Y408661D02*
D03*
X375984Y414961D02*
D03*
Y434646D02*
D03*
D35*
X202658Y134980D02*
D03*
Y139980D02*
D03*
Y144980D02*
D03*
Y149980D02*
D03*
Y154980D02*
D03*
Y159980D02*
D03*
Y164980D02*
D03*
Y169980D02*
D03*
Y174980D02*
D03*
Y179980D02*
D03*
X239862D02*
D03*
Y174980D02*
D03*
Y169980D02*
D03*
Y164980D02*
D03*
Y159980D02*
D03*
Y154980D02*
D03*
Y149980D02*
D03*
Y144980D02*
D03*
Y139980D02*
D03*
Y134980D02*
D03*
X202658Y213720D02*
D03*
Y218720D02*
D03*
Y223720D02*
D03*
Y228720D02*
D03*
Y233720D02*
D03*
Y238720D02*
D03*
Y243720D02*
D03*
Y248720D02*
D03*
Y253720D02*
D03*
Y258720D02*
D03*
X239862D02*
D03*
Y253720D02*
D03*
Y248720D02*
D03*
Y243720D02*
D03*
Y238720D02*
D03*
Y233720D02*
D03*
Y228720D02*
D03*
Y223720D02*
D03*
Y218720D02*
D03*
Y213720D02*
D03*
X202658Y292461D02*
D03*
Y297461D02*
D03*
Y302461D02*
D03*
Y307461D02*
D03*
Y312461D02*
D03*
Y317461D02*
D03*
Y322461D02*
D03*
Y327461D02*
D03*
Y332461D02*
D03*
Y337461D02*
D03*
X239862D02*
D03*
Y332461D02*
D03*
Y327461D02*
D03*
Y322461D02*
D03*
Y317461D02*
D03*
Y312461D02*
D03*
Y307461D02*
D03*
Y302461D02*
D03*
Y297461D02*
D03*
Y292461D02*
D03*
X202658Y371201D02*
D03*
Y376201D02*
D03*
Y381201D02*
D03*
Y386201D02*
D03*
Y391201D02*
D03*
Y396201D02*
D03*
Y401201D02*
D03*
Y406201D02*
D03*
Y411201D02*
D03*
Y416201D02*
D03*
X239862D02*
D03*
Y411201D02*
D03*
Y406201D02*
D03*
Y401201D02*
D03*
Y396201D02*
D03*
Y391201D02*
D03*
Y386201D02*
D03*
Y381201D02*
D03*
Y376201D02*
D03*
Y371201D02*
D03*
X202658Y449941D02*
D03*
Y454941D02*
D03*
Y459941D02*
D03*
Y464941D02*
D03*
Y469941D02*
D03*
Y474941D02*
D03*
Y479941D02*
D03*
Y484941D02*
D03*
Y489941D02*
D03*
Y494941D02*
D03*
X239862D02*
D03*
Y489941D02*
D03*
Y484941D02*
D03*
Y479941D02*
D03*
Y474941D02*
D03*
Y469941D02*
D03*
Y464941D02*
D03*
Y459941D02*
D03*
Y454941D02*
D03*
Y449941D02*
D03*
X202658Y528681D02*
D03*
Y533681D02*
D03*
Y538681D02*
D03*
Y543681D02*
D03*
Y548681D02*
D03*
Y553681D02*
D03*
Y558681D02*
D03*
Y563681D02*
D03*
Y568681D02*
D03*
Y573681D02*
D03*
X239862D02*
D03*
Y568681D02*
D03*
Y563681D02*
D03*
Y558681D02*
D03*
Y553681D02*
D03*
Y548681D02*
D03*
Y543681D02*
D03*
Y538681D02*
D03*
Y533681D02*
D03*
Y528681D02*
D03*
D36*
X309252Y365158D02*
D03*
Y363189D02*
D03*
Y361220D02*
D03*
Y359252D02*
D03*
Y357283D02*
D03*
Y355315D02*
D03*
Y353346D02*
D03*
Y351378D02*
D03*
Y349409D02*
D03*
Y347441D02*
D03*
Y345472D02*
D03*
Y343504D02*
D03*
X341142D02*
D03*
Y345472D02*
D03*
Y347441D02*
D03*
Y349409D02*
D03*
Y351378D02*
D03*
Y353346D02*
D03*
Y355315D02*
D03*
Y357283D02*
D03*
Y359252D02*
D03*
Y361220D02*
D03*
Y363189D02*
D03*
Y365158D02*
D03*
D37*
X314370Y338386D02*
D03*
X316339D02*
D03*
X318307D02*
D03*
X320276D02*
D03*
X322244D02*
D03*
X324213D02*
D03*
X326181D02*
D03*
X328150D02*
D03*
X330118D02*
D03*
X332087D02*
D03*
X334055D02*
D03*
X336024D02*
D03*
Y370276D02*
D03*
X334055D02*
D03*
X332087D02*
D03*
X330118D02*
D03*
X328150D02*
D03*
X326181D02*
D03*
X324213D02*
D03*
X322244D02*
D03*
X320276D02*
D03*
X318307D02*
D03*
X316339D02*
D03*
X314370D02*
D03*
M02*
