G04*
G04 #@! TF.GenerationSoftware,Altium Limited,Altium Designer,20.2.6 (244)*
G04*
G04 Layer_Color=32896*
%FSLAX25Y25*%
%MOIN*%
G70*
G04*
G04 #@! TF.SameCoordinates,E97EBE13-EBD0-4CAC-9F2B-1EA0C24CC531*
G04*
G04*
G04 #@! TF.FilePolarity,Positive*
G04*
G01*
G75*
%ADD11C,0.00787*%
%ADD13C,0.00984*%
G36*
X269000Y519587D02*
Y519476D01*
X268994Y519370D01*
X268989Y519270D01*
X268978Y519176D01*
X268967Y519093D01*
X268956Y519015D01*
X268939Y518943D01*
X268928Y518876D01*
X268917Y518815D01*
X268900Y518765D01*
X268889Y518721D01*
X268878Y518688D01*
X268867Y518660D01*
X268861Y518638D01*
X268856Y518627D01*
Y518621D01*
X268795Y518499D01*
X268717Y518388D01*
X268639Y518299D01*
X268556Y518221D01*
X268484Y518160D01*
X268423Y518116D01*
X268401Y518105D01*
X268384Y518094D01*
X268373Y518083D01*
X268367D01*
X268229Y518022D01*
X268084Y517977D01*
X267934Y517944D01*
X267796Y517922D01*
X267735Y517916D01*
X267673Y517911D01*
X267618Y517905D01*
X267574D01*
X267535Y517900D01*
X267485D01*
X267285Y517911D01*
X267196Y517922D01*
X267113Y517933D01*
X267030Y517949D01*
X266958Y517966D01*
X266891Y517983D01*
X266830Y518005D01*
X266774Y518027D01*
X266730Y518044D01*
X266686Y518060D01*
X266652Y518077D01*
X266625Y518094D01*
X266608Y518099D01*
X266597Y518110D01*
X266591D01*
X266469Y518194D01*
X266369Y518288D01*
X266292Y518377D01*
X266225Y518466D01*
X266175Y518543D01*
X266142Y518604D01*
X266131Y518627D01*
X266120Y518643D01*
X266114Y518654D01*
Y518660D01*
X266092Y518726D01*
X266070Y518799D01*
X266036Y518949D01*
X266014Y519104D01*
X265997Y519254D01*
X265992Y519320D01*
X265986Y519387D01*
Y519442D01*
X265981Y519492D01*
Y519531D01*
Y519559D01*
Y519581D01*
Y519587D01*
Y521807D01*
X266491D01*
Y519587D01*
Y519459D01*
X266502Y519337D01*
X266514Y519232D01*
X266530Y519132D01*
X266547Y519043D01*
X266569Y518960D01*
X266586Y518887D01*
X266608Y518826D01*
X266630Y518776D01*
X266652Y518726D01*
X266674Y518693D01*
X266691Y518660D01*
X266708Y518638D01*
X266719Y518621D01*
X266724Y518615D01*
X266730Y518610D01*
X266780Y518566D01*
X266835Y518527D01*
X266958Y518466D01*
X267085Y518421D01*
X267218Y518394D01*
X267340Y518371D01*
X267390Y518366D01*
X267441D01*
X267474Y518360D01*
X267529D01*
X267646Y518366D01*
X267751Y518382D01*
X267851Y518399D01*
X267929Y518427D01*
X267995Y518449D01*
X268045Y518466D01*
X268073Y518482D01*
X268084Y518488D01*
X268162Y518538D01*
X268229Y518599D01*
X268284Y518660D01*
X268323Y518715D01*
X268356Y518771D01*
X268384Y518810D01*
X268395Y518837D01*
X268401Y518849D01*
X268417Y518898D01*
X268428Y518949D01*
X268451Y519065D01*
X268467Y519187D01*
X268478Y519309D01*
X268484Y519415D01*
Y519465D01*
X268489Y519503D01*
Y519537D01*
Y519564D01*
Y519581D01*
Y519587D01*
Y521807D01*
X269000D01*
Y519587D01*
D02*
G37*
G36*
X264166Y521818D02*
X264255Y521812D01*
X264410Y521779D01*
X264482Y521757D01*
X264549Y521735D01*
X264610Y521707D01*
X264666Y521679D01*
X264710Y521651D01*
X264754Y521624D01*
X264793Y521601D01*
X264821Y521579D01*
X264843Y521562D01*
X264860Y521546D01*
X264871Y521540D01*
X264876Y521535D01*
X264926Y521479D01*
X264976Y521424D01*
X265015Y521363D01*
X265048Y521302D01*
X265104Y521185D01*
X265137Y521074D01*
X265159Y520980D01*
X265165Y520935D01*
X265171Y520902D01*
X265176Y520869D01*
Y520847D01*
Y520835D01*
Y520830D01*
X265171Y520730D01*
X265154Y520636D01*
X265132Y520552D01*
X265104Y520480D01*
X265082Y520425D01*
X265059Y520380D01*
X265043Y520358D01*
X265037Y520347D01*
X264976Y520281D01*
X264910Y520219D01*
X264838Y520164D01*
X264765Y520119D01*
X264699Y520086D01*
X264649Y520064D01*
X264627Y520053D01*
X264610Y520047D01*
X264604Y520042D01*
X264599D01*
X264726Y520003D01*
X264832Y519953D01*
X264926Y519892D01*
X265004Y519837D01*
X265065Y519781D01*
X265109Y519737D01*
X265132Y519709D01*
X265143Y519703D01*
Y519698D01*
X265204Y519598D01*
X265254Y519492D01*
X265287Y519392D01*
X265309Y519293D01*
X265320Y519204D01*
X265326Y519165D01*
Y519132D01*
X265331Y519109D01*
Y519087D01*
Y519076D01*
Y519071D01*
X265326Y518982D01*
X265315Y518893D01*
X265298Y518810D01*
X265276Y518726D01*
X265220Y518588D01*
X265193Y518521D01*
X265159Y518466D01*
X265126Y518410D01*
X265098Y518366D01*
X265065Y518327D01*
X265043Y518294D01*
X265021Y518266D01*
X265004Y518249D01*
X264993Y518238D01*
X264987Y518232D01*
X264921Y518172D01*
X264849Y518121D01*
X264771Y518077D01*
X264693Y518038D01*
X264621Y518011D01*
X264543Y517983D01*
X264393Y517944D01*
X264327Y517927D01*
X264266Y517916D01*
X264210Y517911D01*
X264160Y517905D01*
X264122Y517900D01*
X264066D01*
X263961Y517905D01*
X263866Y517916D01*
X263772Y517933D01*
X263683Y517949D01*
X263605Y517977D01*
X263528Y518005D01*
X263456Y518033D01*
X263394Y518066D01*
X263339Y518099D01*
X263289Y518127D01*
X263250Y518155D01*
X263211Y518183D01*
X263184Y518199D01*
X263167Y518216D01*
X263156Y518227D01*
X263150Y518232D01*
X263089Y518299D01*
X263034Y518366D01*
X262989Y518432D01*
X262950Y518504D01*
X262912Y518571D01*
X262884Y518643D01*
X262845Y518771D01*
X262828Y518832D01*
X262817Y518887D01*
X262812Y518937D01*
X262806Y518976D01*
X262801Y519009D01*
Y519037D01*
Y519054D01*
Y519060D01*
X262806Y519187D01*
X262828Y519304D01*
X262862Y519409D01*
X262895Y519498D01*
X262928Y519570D01*
X262962Y519626D01*
X262984Y519659D01*
X262989Y519664D01*
Y519670D01*
X263067Y519759D01*
X263150Y519837D01*
X263239Y519898D01*
X263322Y519953D01*
X263400Y519992D01*
X263467Y520020D01*
X263489Y520031D01*
X263506Y520036D01*
X263517Y520042D01*
X263522D01*
X263422Y520086D01*
X263339Y520136D01*
X263267Y520186D01*
X263206Y520236D01*
X263161Y520281D01*
X263128Y520314D01*
X263106Y520336D01*
X263100Y520347D01*
X263050Y520425D01*
X263017Y520503D01*
X262989Y520580D01*
X262973Y520658D01*
X262962Y520719D01*
X262956Y520769D01*
Y520802D01*
Y520808D01*
Y520813D01*
X262962Y520891D01*
X262967Y520963D01*
X263006Y521102D01*
X263056Y521224D01*
X263111Y521329D01*
X263167Y521413D01*
X263195Y521446D01*
X263217Y521479D01*
X263239Y521501D01*
X263256Y521518D01*
X263261Y521524D01*
X263267Y521529D01*
X263328Y521579D01*
X263389Y521629D01*
X263456Y521668D01*
X263522Y521701D01*
X263655Y521751D01*
X263789Y521784D01*
X263844Y521801D01*
X263899Y521807D01*
X263949Y521812D01*
X263994Y521818D01*
X264027Y521823D01*
X264077D01*
X264166Y521818D01*
D02*
G37*
G36*
X239448Y500091D02*
X239542Y500080D01*
X239636Y500064D01*
X239720Y500047D01*
X239797Y500019D01*
X239875Y499991D01*
X239942Y499964D01*
X240003Y499930D01*
X240058Y499897D01*
X240108Y499869D01*
X240147Y499842D01*
X240186Y499814D01*
X240214Y499797D01*
X240230Y499781D01*
X240241Y499769D01*
X240247Y499764D01*
X240308Y499703D01*
X240364Y499636D01*
X240408Y499564D01*
X240447Y499498D01*
X240486Y499431D01*
X240513Y499364D01*
X240552Y499237D01*
X240569Y499181D01*
X240580Y499126D01*
X240585Y499081D01*
X240591Y499037D01*
X240597Y499004D01*
Y498959D01*
X240591Y498859D01*
X240574Y498765D01*
X240558Y498676D01*
X240536Y498598D01*
X240508Y498532D01*
X240491Y498482D01*
X240475Y498449D01*
X240469Y498443D01*
Y498437D01*
X240413Y498349D01*
X240352Y498271D01*
X240291Y498199D01*
X240225Y498143D01*
X240169Y498093D01*
X240125Y498055D01*
X240092Y498032D01*
X240086Y498027D01*
X240186D01*
X240286Y498032D01*
X240375Y498038D01*
X240463Y498049D01*
X240541Y498055D01*
X240613Y498066D01*
X240680Y498077D01*
X240741Y498093D01*
X240796Y498104D01*
X240841Y498115D01*
X240880Y498127D01*
X240913Y498132D01*
X240935Y498143D01*
X240952Y498149D01*
X240963Y498154D01*
X240968D01*
X241079Y498210D01*
X241179Y498265D01*
X241257Y498326D01*
X241324Y498382D01*
X241379Y498432D01*
X241418Y498471D01*
X241440Y498498D01*
X241446Y498510D01*
X241490Y498576D01*
X241518Y498643D01*
X241540Y498709D01*
X241557Y498776D01*
X241568Y498826D01*
X241573Y498870D01*
Y498909D01*
X241562Y499009D01*
X241540Y499103D01*
X241507Y499181D01*
X241474Y499253D01*
X241435Y499309D01*
X241401Y499348D01*
X241379Y499370D01*
X241368Y499381D01*
X241318Y499420D01*
X241257Y499459D01*
X241191Y499492D01*
X241124Y499514D01*
X241063Y499536D01*
X241013Y499553D01*
X240980Y499559D01*
X240974Y499564D01*
X240968D01*
X241007Y500036D01*
X241163Y500002D01*
X241301Y499953D01*
X241424Y499897D01*
X241524Y499836D01*
X241601Y499775D01*
X241634Y499753D01*
X241662Y499725D01*
X241679Y499708D01*
X241695Y499692D01*
X241701Y499686D01*
X241707Y499681D01*
X241751Y499625D01*
X241790Y499564D01*
X241857Y499442D01*
X241901Y499320D01*
X241929Y499203D01*
X241951Y499098D01*
X241956Y499053D01*
Y499015D01*
X241962Y498981D01*
Y498937D01*
X241956Y498826D01*
X241945Y498721D01*
X241923Y498621D01*
X241895Y498526D01*
X241857Y498443D01*
X241823Y498360D01*
X241779Y498288D01*
X241740Y498221D01*
X241701Y498166D01*
X241657Y498110D01*
X241623Y498066D01*
X241590Y498032D01*
X241557Y498005D01*
X241535Y497982D01*
X241524Y497971D01*
X241518Y497966D01*
X241418Y497893D01*
X241301Y497832D01*
X241179Y497777D01*
X241052Y497727D01*
X240918Y497688D01*
X240785Y497655D01*
X240647Y497627D01*
X240519Y497605D01*
X240391Y497588D01*
X240275Y497577D01*
X240169Y497566D01*
X240080Y497561D01*
X240003D01*
X239947Y497555D01*
X239925D01*
X239908D01*
X239903D01*
X239897D01*
X239720Y497561D01*
X239553Y497572D01*
X239398Y497588D01*
X239253Y497616D01*
X239126Y497644D01*
X239009Y497672D01*
X238904Y497705D01*
X238809Y497744D01*
X238732Y497777D01*
X238660Y497810D01*
X238604Y497838D01*
X238554Y497871D01*
X238515Y497893D01*
X238493Y497910D01*
X238476Y497921D01*
X238471Y497927D01*
X238393Y497999D01*
X238327Y498077D01*
X238271Y498154D01*
X238221Y498232D01*
X238177Y498315D01*
X238143Y498393D01*
X238116Y498471D01*
X238094Y498548D01*
X238077Y498615D01*
X238060Y498682D01*
X238049Y498737D01*
X238044Y498787D01*
Y498832D01*
X238038Y498859D01*
Y498887D01*
X238044Y499015D01*
X238066Y499131D01*
X238088Y499237D01*
X238121Y499331D01*
X238149Y499403D01*
X238177Y499459D01*
X238182Y499481D01*
X238193Y499498D01*
X238199Y499503D01*
Y499509D01*
X238266Y499603D01*
X238343Y499692D01*
X238421Y499764D01*
X238499Y499825D01*
X238571Y499875D01*
X238626Y499908D01*
X238649Y499919D01*
X238665Y499930D01*
X238671Y499936D01*
X238676D01*
X238793Y499991D01*
X238915Y500030D01*
X239026Y500058D01*
X239131Y500075D01*
X239220Y500091D01*
X239253D01*
X239287Y500097D01*
X239315D01*
X239331D01*
X239342D01*
X239348D01*
X239448Y500091D01*
D02*
G37*
G36*
X241945Y496412D02*
X239725D01*
X239598D01*
X239475Y496401D01*
X239370Y496389D01*
X239270Y496373D01*
X239181Y496356D01*
X239098Y496334D01*
X239026Y496317D01*
X238965Y496295D01*
X238915Y496273D01*
X238865Y496251D01*
X238832Y496229D01*
X238798Y496212D01*
X238776Y496195D01*
X238760Y496184D01*
X238754Y496179D01*
X238749Y496173D01*
X238704Y496123D01*
X238665Y496068D01*
X238604Y495946D01*
X238560Y495818D01*
X238532Y495685D01*
X238510Y495563D01*
X238504Y495513D01*
Y495463D01*
X238499Y495429D01*
Y495374D01*
X238504Y495257D01*
X238521Y495152D01*
X238538Y495052D01*
X238565Y494974D01*
X238587Y494908D01*
X238604Y494858D01*
X238621Y494830D01*
X238626Y494819D01*
X238676Y494741D01*
X238737Y494674D01*
X238798Y494619D01*
X238854Y494580D01*
X238909Y494547D01*
X238948Y494519D01*
X238976Y494508D01*
X238987Y494502D01*
X239037Y494486D01*
X239087Y494475D01*
X239204Y494452D01*
X239326Y494436D01*
X239448Y494425D01*
X239553Y494419D01*
X239603D01*
X239642Y494414D01*
X239675D01*
X239703D01*
X239720D01*
X239725D01*
X241945D01*
Y493903D01*
X239725D01*
X239614D01*
X239509Y493909D01*
X239409Y493914D01*
X239315Y493925D01*
X239231Y493936D01*
X239154Y493948D01*
X239082Y493964D01*
X239015Y493975D01*
X238954Y493986D01*
X238904Y494003D01*
X238860Y494014D01*
X238826Y494025D01*
X238798Y494036D01*
X238776Y494042D01*
X238765Y494047D01*
X238760D01*
X238637Y494108D01*
X238527Y494186D01*
X238438Y494264D01*
X238360Y494347D01*
X238299Y494419D01*
X238254Y494480D01*
X238243Y494502D01*
X238232Y494519D01*
X238221Y494530D01*
Y494536D01*
X238160Y494674D01*
X238116Y494819D01*
X238083Y494969D01*
X238060Y495107D01*
X238055Y495168D01*
X238049Y495230D01*
X238044Y495285D01*
Y495329D01*
X238038Y495368D01*
Y495418D01*
X238049Y495618D01*
X238060Y495707D01*
X238071Y495790D01*
X238088Y495873D01*
X238105Y495946D01*
X238121Y496012D01*
X238143Y496073D01*
X238166Y496129D01*
X238182Y496173D01*
X238199Y496217D01*
X238216Y496251D01*
X238232Y496278D01*
X238238Y496295D01*
X238249Y496306D01*
Y496312D01*
X238332Y496434D01*
X238427Y496534D01*
X238515Y496611D01*
X238604Y496678D01*
X238682Y496728D01*
X238743Y496761D01*
X238765Y496772D01*
X238782Y496784D01*
X238793Y496789D01*
X238798D01*
X238865Y496811D01*
X238937Y496834D01*
X239087Y496867D01*
X239242Y496889D01*
X239392Y496906D01*
X239459Y496911D01*
X239526Y496917D01*
X239581D01*
X239631Y496922D01*
X239670D01*
X239698D01*
X239720D01*
X239725D01*
X241945D01*
Y496412D01*
D02*
G37*
%LPC*%
G36*
X264110Y521435D02*
X264066D01*
X263972Y521429D01*
X263883Y521407D01*
X263811Y521379D01*
X263744Y521346D01*
X263694Y521313D01*
X263655Y521285D01*
X263628Y521263D01*
X263622Y521257D01*
X263561Y521185D01*
X263517Y521113D01*
X263483Y521041D01*
X263461Y520974D01*
X263450Y520913D01*
X263439Y520863D01*
Y520830D01*
Y520824D01*
Y520819D01*
X263444Y520730D01*
X263467Y520647D01*
X263494Y520575D01*
X263528Y520514D01*
X263561Y520464D01*
X263589Y520430D01*
X263611Y520403D01*
X263616Y520397D01*
X263683Y520341D01*
X263761Y520297D01*
X263833Y520269D01*
X263905Y520247D01*
X263972Y520236D01*
X264022Y520230D01*
X264055Y520225D01*
X264066D01*
X264166Y520230D01*
X264255Y520253D01*
X264333Y520281D01*
X264399Y520314D01*
X264449Y520341D01*
X264488Y520369D01*
X264516Y520392D01*
X264521Y520397D01*
X264577Y520464D01*
X264621Y520541D01*
X264649Y520613D01*
X264671Y520686D01*
X264682Y520747D01*
X264688Y520797D01*
X264693Y520830D01*
Y520835D01*
Y520841D01*
X264688Y520930D01*
X264666Y521007D01*
X264638Y521080D01*
X264604Y521141D01*
X264577Y521191D01*
X264549Y521230D01*
X264527Y521252D01*
X264521Y521257D01*
X264449Y521318D01*
X264377Y521363D01*
X264299Y521390D01*
X264227Y521413D01*
X264160Y521424D01*
X264110Y521435D01*
D02*
G37*
G36*
X264116Y519842D02*
X264083D01*
X263961Y519831D01*
X263850Y519809D01*
X263750Y519770D01*
X263666Y519731D01*
X263600Y519687D01*
X263550Y519648D01*
X263522Y519626D01*
X263511Y519615D01*
X263433Y519526D01*
X263378Y519431D01*
X263339Y519337D01*
X263311Y519254D01*
X263295Y519171D01*
X263289Y519109D01*
X263283Y519087D01*
Y519071D01*
Y519060D01*
Y519054D01*
X263295Y518937D01*
X263317Y518826D01*
X263356Y518732D01*
X263394Y518654D01*
X263433Y518593D01*
X263472Y518543D01*
X263494Y518516D01*
X263506Y518504D01*
X263594Y518432D01*
X263683Y518377D01*
X263777Y518343D01*
X263866Y518316D01*
X263944Y518299D01*
X264011Y518294D01*
X264033Y518288D01*
X264066D01*
X264144Y518294D01*
X264222Y518305D01*
X264294Y518321D01*
X264355Y518338D01*
X264405Y518355D01*
X264443Y518371D01*
X264466Y518382D01*
X264477Y518388D01*
X264543Y518432D01*
X264599Y518477D01*
X264649Y518527D01*
X264688Y518577D01*
X264721Y518615D01*
X264743Y518649D01*
X264754Y518677D01*
X264760Y518682D01*
X264788Y518754D01*
X264810Y518821D01*
X264826Y518887D01*
X264838Y518949D01*
X264843Y518998D01*
X264849Y519037D01*
Y519060D01*
Y519071D01*
X264838Y519187D01*
X264815Y519293D01*
X264782Y519387D01*
X264738Y519470D01*
X264699Y519531D01*
X264666Y519581D01*
X264643Y519609D01*
X264632Y519620D01*
X264549Y519692D01*
X264455Y519748D01*
X264366Y519787D01*
X264277Y519814D01*
X264199Y519831D01*
X264138Y519837D01*
X264116Y519842D01*
D02*
G37*
G36*
X239359Y499614D02*
X239337D01*
X239326D01*
X239320D01*
X239170Y499603D01*
X239043Y499581D01*
X238932Y499547D01*
X238837Y499509D01*
X238765Y499464D01*
X238710Y499431D01*
X238676Y499409D01*
X238671Y499398D01*
X238665D01*
X238621Y499359D01*
X238587Y499314D01*
X238527Y499226D01*
X238488Y499137D01*
X238454Y499059D01*
X238438Y498987D01*
X238432Y498931D01*
X238427Y498909D01*
Y498881D01*
X238432Y498804D01*
X238443Y498732D01*
X238465Y498665D01*
X238488Y498609D01*
X238504Y498560D01*
X238527Y498521D01*
X238538Y498498D01*
X238543Y498487D01*
X238593Y498421D01*
X238643Y498365D01*
X238704Y498315D01*
X238754Y498277D01*
X238804Y498243D01*
X238843Y498221D01*
X238871Y498204D01*
X238882Y498199D01*
X238965Y498166D01*
X239048Y498143D01*
X239126Y498121D01*
X239198Y498110D01*
X239259Y498104D01*
X239309Y498099D01*
X239337D01*
X239348D01*
X239481Y498110D01*
X239598Y498132D01*
X239703Y498171D01*
X239786Y498210D01*
X239859Y498249D01*
X239908Y498288D01*
X239936Y498310D01*
X239947Y498321D01*
X240025Y498410D01*
X240080Y498498D01*
X240125Y498593D01*
X240153Y498676D01*
X240169Y498754D01*
X240175Y498809D01*
X240180Y498832D01*
Y498865D01*
X240169Y498981D01*
X240142Y499087D01*
X240108Y499176D01*
X240064Y499253D01*
X240019Y499314D01*
X239986Y499359D01*
X239958Y499387D01*
X239947Y499398D01*
X239853Y499470D01*
X239753Y499525D01*
X239648Y499564D01*
X239548Y499586D01*
X239459Y499603D01*
X239420Y499609D01*
X239387D01*
X239359Y499614D01*
D02*
G37*
%LPD*%
D11*
X265195Y503900D02*
X290805D01*
Y490100D02*
Y503900D01*
X265195Y490100D02*
X290805D01*
X265195D02*
Y503900D01*
X227195Y490100D02*
Y503900D01*
Y490100D02*
X252805D01*
Y503900D01*
X227195D02*
X252805D01*
D13*
X264713Y510366D02*
G03*
X264713Y510366I-492J0D01*
G01*
X226713D02*
G03*
X226713Y510366I-492J0D01*
G01*
M02*
