G04*
G04 #@! TF.GenerationSoftware,Altium Limited,Altium Designer,20.2.6 (244)*
G04*
G04 Layer_Color=32896*
%FSLAX25Y25*%
%MOIN*%
G70*
G04*
G04 #@! TF.SameCoordinates,67F572C8-D8A7-448A-AE13-BF973E4C7752*
G04*
G04*
G04 #@! TF.FilePolarity,Positive*
G04*
G01*
G75*
%ADD10C,0.01000*%
D10*
X386000Y506998D02*
Y501000D01*
X388999D01*
X389999Y502000D01*
Y502999D01*
X388999Y503999D01*
X386000D01*
X388999D01*
X389999Y504999D01*
Y505998D01*
X388999Y506998D01*
X386000D01*
Y461000D02*
Y464999D01*
X387999Y466998D01*
X389999Y464999D01*
Y461000D01*
Y463999D01*
X386000D01*
X389999Y545998D02*
X388999Y546998D01*
X387000D01*
X386000Y545998D01*
Y542000D01*
X387000Y541000D01*
X388999D01*
X389999Y542000D01*
Y543999D01*
X387999D01*
X391998Y541000D02*
Y546998D01*
X395997Y541000D01*
Y546998D01*
X397996D02*
Y541000D01*
X400995D01*
X401995Y542000D01*
Y545998D01*
X400995Y546998D01*
X397996D01*
X389999Y596998D02*
X386000D01*
Y593999D01*
X387999Y594999D01*
X388999D01*
X389999Y593999D01*
Y592000D01*
X388999Y591000D01*
X387000D01*
X386000Y592000D01*
X391998Y596998D02*
Y592999D01*
X393997Y591000D01*
X395997Y592999D01*
Y596998D01*
M02*
