G04*
G04 #@! TF.GenerationSoftware,Altium Limited,Altium Designer,20.2.6 (244)*
G04*
G04 Layer_Physical_Order=4*
G04 Layer_Color=16711680*
%FSLAX25Y25*%
%MOIN*%
G70*
G04*
G04 #@! TF.SameCoordinates,67F572C8-D8A7-448A-AE13-BF973E4C7752*
G04*
G04*
G04 #@! TF.FilePolarity,Positive*
G04*
G01*
G75*
%ADD10C,0.01000*%
%ADD12C,0.01181*%
%ADD14C,0.00600*%
%ADD56R,0.06500X0.06500*%
%ADD57C,0.06500*%
%ADD61C,0.02000*%
%ADD62C,0.01100*%
%ADD64C,0.00800*%
%ADD66C,0.01076*%
%ADD69C,0.07087*%
%ADD70C,0.12795*%
%ADD71C,0.09626*%
%ADD72C,0.06024*%
%ADD73C,0.05504*%
%ADD74R,0.05504X0.05504*%
%ADD75C,0.27559*%
%ADD76R,0.27559X0.27559*%
%ADD77R,0.06000X0.06000*%
%ADD78C,0.06000*%
%ADD79C,0.02000*%
%ADD80C,0.03500*%
%ADD81C,0.02500*%
%ADD82C,0.05000*%
%ADD83C,0.03937*%
%ADD84C,0.01076*%
%ADD85C,0.01200*%
G36*
X214786Y592883D02*
X214916Y592261D01*
X214995Y591983D01*
X215084Y591725D01*
X215182Y591489D01*
X215289Y591273D01*
X215406Y591080D01*
X215533Y590907D01*
X215669Y590756D01*
X215244Y590331D01*
X215093Y590467D01*
X214920Y590594D01*
X214727Y590711D01*
X214511Y590818D01*
X214275Y590916D01*
X214018Y591005D01*
X213739Y591084D01*
X213117Y591214D01*
X212774Y591265D01*
X214735Y593226D01*
X214786Y592883D01*
D02*
G37*
G36*
X456980Y608644D02*
X456981Y331728D01*
X317322Y331728D01*
X317259Y331809D01*
X316956Y332728D01*
X320843Y336614D01*
X320997Y336846D01*
X321052Y337119D01*
X321052Y348930D01*
X320997Y349203D01*
X320843Y349435D01*
X316772Y353505D01*
X316541Y353659D01*
X316268Y353714D01*
X310401D01*
X310295Y353728D01*
X310190Y353714D01*
X200422Y353714D01*
X197036Y357100D01*
Y384157D01*
X197168Y384268D01*
X198036Y384600D01*
X198337Y384399D01*
X199000Y384267D01*
X199663Y384399D01*
X200226Y384774D01*
X200601Y385337D01*
X200733Y386000D01*
X200601Y386663D01*
X200399Y386966D01*
X200370Y387030D01*
X200288Y387142D01*
X200227Y387237D01*
X200174Y387330D01*
X200130Y387422D01*
X200094Y387511D01*
X200065Y387600D01*
X200043Y387688D01*
X200027Y387776D01*
X200020Y387842D01*
Y414705D01*
X201020Y414803D01*
X201058Y414610D01*
X201279Y414279D01*
X210976Y404582D01*
X211018Y404529D01*
X211069Y404456D01*
X211116Y404379D01*
X211158Y404295D01*
X211196Y404206D01*
X211229Y404110D01*
X211258Y404007D01*
X211282Y403897D01*
X211303Y403760D01*
X211328Y403694D01*
X211399Y403337D01*
X211774Y402774D01*
X212337Y402399D01*
X213000Y402267D01*
X213512Y402369D01*
X213861Y402013D01*
X214102Y401544D01*
X213582Y401024D01*
X213529Y400982D01*
X213456Y400931D01*
X213379Y400884D01*
X213295Y400842D01*
X213206Y400804D01*
X213110Y400771D01*
X213007Y400742D01*
X212897Y400718D01*
X212760Y400697D01*
X212694Y400672D01*
X212337Y400601D01*
X211774Y400226D01*
X211399Y399663D01*
X211267Y399000D01*
X211399Y398337D01*
X211774Y397774D01*
X212337Y397399D01*
X213000Y397267D01*
X213663Y397399D01*
X214226Y397774D01*
X214601Y398337D01*
X214672Y398694D01*
X214697Y398760D01*
X214718Y398897D01*
X214742Y399008D01*
X214771Y399110D01*
X214804Y399206D01*
X214842Y399295D01*
X214884Y399378D01*
X214930Y399456D01*
X214982Y399529D01*
X215024Y399582D01*
X216721Y401279D01*
X216942Y401610D01*
X217020Y402000D01*
Y405063D01*
X216942Y405453D01*
X216721Y405784D01*
X205744Y416761D01*
Y458892D01*
X206456Y459594D01*
X213000Y459502D01*
X213956Y459692D01*
X214438Y460014D01*
X214493Y460040D01*
X214637Y460148D01*
X214766Y460234D01*
X214776Y460249D01*
X215247Y460557D01*
X215461Y460676D01*
X215668Y460777D01*
X215861Y460857D01*
X216038Y460916D01*
X216200Y460956D01*
X216345Y460978D01*
X216383Y460980D01*
X222827D01*
X223217Y461058D01*
X223548Y461279D01*
X233690Y471421D01*
X241033D01*
X241900Y471100D01*
Y463774D01*
X241462D01*
X240974Y463678D01*
X240561Y463401D01*
X217434Y440274D01*
X216624D01*
X216428Y440297D01*
X216212Y440337D01*
X215994Y440395D01*
X215775Y440470D01*
X215552Y440563D01*
X215327Y440675D01*
X215100Y440805D01*
X214869Y440955D01*
X214622Y441136D01*
X214566Y441162D01*
X214346Y441331D01*
X213697Y441600D01*
X213000Y441691D01*
X212303Y441600D01*
X211654Y441331D01*
X211097Y440903D01*
X210669Y440346D01*
X210400Y439697D01*
X210309Y439000D01*
X210400Y438303D01*
X210669Y437654D01*
X211097Y437097D01*
X211654Y436669D01*
X212303Y436400D01*
X213000Y436308D01*
X213697Y436400D01*
X214346Y436669D01*
X214566Y436838D01*
X214622Y436864D01*
X214869Y437044D01*
X215100Y437195D01*
X215327Y437325D01*
X215552Y437437D01*
X215775Y437530D01*
X215994Y437605D01*
X216212Y437663D01*
X216428Y437703D01*
X216624Y437725D01*
X217962D01*
X218450Y437822D01*
X218863Y438099D01*
X241935Y461171D01*
X242799Y461073D01*
X243109Y460152D01*
X242961Y460039D01*
X242368Y459266D01*
X241995Y458366D01*
X241868Y457400D01*
X241995Y456434D01*
X242368Y455534D01*
X242961Y454761D01*
X243734Y454168D01*
X244634Y453795D01*
X245600Y453668D01*
X246566Y453795D01*
X247466Y454168D01*
X248239Y454761D01*
X248832Y455534D01*
X249205Y456434D01*
X249332Y457400D01*
X249205Y458366D01*
X248832Y459266D01*
X248239Y460039D01*
X247996Y460225D01*
X248335Y461226D01*
X258760D01*
X259248Y461322D01*
X259661Y461599D01*
X288174Y490111D01*
X293332D01*
X293599Y489612D01*
X293729Y489111D01*
X293430Y488663D01*
X293313Y488072D01*
X293298Y488000D01*
X292795Y487233D01*
X292132Y487101D01*
X291570Y486726D01*
X291194Y486163D01*
X291062Y485500D01*
X290295Y484733D01*
X289632Y484601D01*
X289070Y484226D01*
X288694Y483663D01*
X288562Y483000D01*
X288694Y482337D01*
X289070Y481774D01*
X289632Y481399D01*
X290295Y481267D01*
X290959Y481399D01*
X291262Y481601D01*
X291325Y481631D01*
X291438Y481712D01*
X291532Y481773D01*
X291626Y481826D01*
X291717Y481870D01*
X291807Y481906D01*
X291895Y481935D01*
X291983Y481957D01*
X292071Y481973D01*
X292138Y481980D01*
X305256D01*
X305646Y482058D01*
X305977Y482279D01*
X308899Y485201D01*
X348743D01*
X369799Y464145D01*
Y445866D01*
X369877Y445476D01*
X370098Y445145D01*
X423776Y391467D01*
Y379626D01*
X422776Y379577D01*
X422704Y380309D01*
X422298Y381647D01*
X421639Y382880D01*
X420752Y383960D01*
X419671Y384847D01*
X418438Y385506D01*
X417100Y385912D01*
X415709Y386049D01*
X414317Y385912D01*
X412979Y385506D01*
X411746Y384847D01*
X410666Y383960D01*
X409779Y382880D01*
X409120Y381647D01*
X408714Y380309D01*
X408577Y378917D01*
X408714Y377526D01*
X409120Y376188D01*
X409779Y374955D01*
X410666Y373874D01*
X411746Y372987D01*
X412979Y372328D01*
X414317Y371922D01*
X415709Y371785D01*
X417100Y371922D01*
X418438Y372328D01*
X419671Y372987D01*
X420752Y373874D01*
X421639Y374955D01*
X422298Y376188D01*
X422704Y377526D01*
X422776Y378258D01*
X423776Y378209D01*
Y356457D01*
X423853Y356066D01*
X424074Y355736D01*
X426866Y352944D01*
X426908Y352892D01*
X426959Y352818D01*
X427006Y352741D01*
X427048Y352658D01*
X427085Y352568D01*
X427119Y352473D01*
X427148Y352370D01*
X427172Y352259D01*
X427193Y352122D01*
X427217Y352056D01*
X427288Y351699D01*
X427664Y351137D01*
X427944Y350949D01*
X427987Y350810D01*
Y349977D01*
X427944Y349838D01*
X427664Y349651D01*
X427288Y349089D01*
X427156Y348425D01*
X427288Y347762D01*
X427664Y347200D01*
X428227Y346824D01*
X428890Y346692D01*
X429553Y346824D01*
X430115Y347200D01*
X430491Y347762D01*
X430556Y348091D01*
X430971Y348288D01*
X431769Y347826D01*
X431807Y347769D01*
Y346879D01*
X426499Y341571D01*
X402138D01*
X402071Y341578D01*
X401983Y341594D01*
X401895Y341616D01*
X401807Y341645D01*
X401717Y341681D01*
X401626Y341725D01*
X401533Y341778D01*
X401438Y341839D01*
X401326Y341921D01*
X401262Y341950D01*
X400959Y342153D01*
X400295Y342284D01*
X399632Y342153D01*
X399070Y341777D01*
X398694Y341214D01*
X398562Y340551D01*
X398694Y339888D01*
X399070Y339326D01*
X399632Y338950D01*
X400295Y338818D01*
X400959Y338950D01*
X401262Y339152D01*
X401326Y339182D01*
X401438Y339263D01*
X401533Y339325D01*
X401626Y339377D01*
X401717Y339421D01*
X401807Y339458D01*
X401895Y339487D01*
X401983Y339509D01*
X402071Y339525D01*
X402138Y339532D01*
X426921D01*
X427311Y339609D01*
X427642Y339830D01*
X433548Y345736D01*
X433769Y346066D01*
X433846Y346457D01*
Y357283D01*
X433769Y357674D01*
X433548Y358004D01*
X431315Y360237D01*
Y372397D01*
X432315Y372737D01*
X432353Y372687D01*
X433128Y372092D01*
X434031Y371718D01*
X435000Y371591D01*
X435969Y371718D01*
X436872Y372092D01*
X437647Y372687D01*
X438242Y373463D01*
X438616Y374366D01*
X438744Y375335D01*
X438616Y376304D01*
X438242Y377207D01*
X437647Y377982D01*
X436872Y378577D01*
X435969Y378951D01*
X435000Y379079D01*
X434031Y378951D01*
X433128Y378577D01*
X432353Y377982D01*
X432315Y377933D01*
X431315Y378272D01*
Y395248D01*
X431237Y395638D01*
X431016Y395969D01*
X401011Y425974D01*
X401578Y426822D01*
X402262Y426538D01*
X403701Y426349D01*
X405140Y426538D01*
X406481Y427094D01*
X407633Y427978D01*
X408516Y429129D01*
X409072Y430470D01*
X409261Y431910D01*
X409072Y433349D01*
X408516Y434690D01*
X407633Y435841D01*
X406481Y436725D01*
X405140Y437281D01*
X403701Y437470D01*
X402262Y437281D01*
X400920Y436725D01*
X399769Y435841D01*
X398885Y434690D01*
X398330Y433349D01*
X398140Y431910D01*
X398330Y430470D01*
X398613Y429786D01*
X397765Y429220D01*
X377744Y449241D01*
Y466535D01*
X377666Y466926D01*
X377445Y467256D01*
X351855Y492847D01*
X351524Y493068D01*
X351134Y493146D01*
X306842D01*
X306452Y493068D01*
X306122Y492847D01*
X302294Y489020D01*
X296874D01*
X296807Y489027D01*
X296719Y489043D01*
X296649Y489060D01*
X296156Y489929D01*
X296297Y490402D01*
X296421Y490485D01*
X299869Y493933D01*
X300145Y494346D01*
X300242Y494834D01*
Y505166D01*
X300145Y505654D01*
X299869Y506067D01*
X298235Y507701D01*
X298094Y507873D01*
X298045Y507943D01*
X298005Y508007D01*
X297978Y508056D01*
X297964Y508089D01*
X297959Y508102D01*
X297952Y508142D01*
X297929Y508197D01*
X297861Y508537D01*
X297485Y509100D01*
X296923Y509475D01*
X296260Y509607D01*
X295597Y509475D01*
X295034Y509100D01*
X294658Y508537D01*
X294527Y507874D01*
X294658Y507211D01*
X295034Y506648D01*
X295597Y506273D01*
X295937Y506205D01*
X295992Y506182D01*
X296032Y506174D01*
X296045Y506170D01*
X296077Y506156D01*
X296127Y506129D01*
X296191Y506089D01*
X296255Y506044D01*
X296478Y505854D01*
X297693Y504638D01*
Y500458D01*
X296693Y500360D01*
X296633Y500663D01*
X296257Y501226D01*
X295695Y501601D01*
X295031Y501733D01*
X294368Y501601D01*
X294065Y501399D01*
X294002Y501369D01*
X293889Y501288D01*
X293794Y501227D01*
X293701Y501174D01*
X293610Y501130D01*
X293520Y501094D01*
X293432Y501065D01*
X293344Y501043D01*
X293256Y501027D01*
X293189Y501020D01*
X257000D01*
Y504886D01*
X277559D01*
X277949Y504963D01*
X278280Y505185D01*
X280973Y507877D01*
X281194Y508208D01*
X281272Y508598D01*
Y509984D01*
X281279Y510051D01*
X281294Y510139D01*
X281317Y510227D01*
X281346Y510316D01*
X281382Y510405D01*
X281426Y510497D01*
X281479Y510590D01*
X281540Y510685D01*
X281622Y510797D01*
X281651Y510860D01*
X281853Y511164D01*
X281985Y511827D01*
X281853Y512490D01*
X281478Y513052D01*
X280915Y513428D01*
X280252Y513560D01*
X279589Y513428D01*
X279026Y513052D01*
X278651Y512490D01*
X278602Y512247D01*
X278442Y512263D01*
X274193Y511739D01*
X274111Y511827D01*
X273979Y512490D01*
X273604Y513052D01*
X273041Y513428D01*
X272378Y513560D01*
X271715Y513428D01*
X271412Y513226D01*
X271348Y513196D01*
X271236Y513115D01*
X271141Y513053D01*
X271048Y513001D01*
X270956Y512957D01*
X270867Y512921D01*
X270778Y512891D01*
X270690Y512869D01*
X270602Y512853D01*
X270535Y512846D01*
X246446D01*
X243077Y516215D01*
X243280Y517427D01*
X243352Y517475D01*
X243534Y517748D01*
X243601Y517772D01*
X244527Y517786D01*
X244645Y517748D01*
X244809Y517504D01*
X245371Y517128D01*
X246034Y516996D01*
X246698Y517128D01*
X247260Y517504D01*
X247452Y517791D01*
X247679Y517850D01*
X248400Y517840D01*
X248563Y517791D01*
X248774Y517475D01*
X249337Y517099D01*
X250000Y516967D01*
X250663Y517099D01*
X251226Y517475D01*
X251601Y518038D01*
X251733Y518701D01*
X251601Y519364D01*
X251399Y519667D01*
X251370Y519731D01*
X251288Y519843D01*
X251227Y519938D01*
X251174Y520031D01*
X251130Y520122D01*
X251094Y520212D01*
X251065Y520301D01*
X251043Y520388D01*
X251027Y520476D01*
X251020Y520543D01*
Y556000D01*
X250942Y556390D01*
X250721Y556721D01*
X216113Y591329D01*
X216087Y591358D01*
X216001Y591476D01*
X215915Y591618D01*
X215831Y591785D01*
X215751Y591978D01*
X215676Y592196D01*
X215609Y592432D01*
X215494Y592982D01*
X215498Y593000D01*
X215468Y593152D01*
X215441Y593330D01*
X215421Y593388D01*
X215308Y593956D01*
X214766Y594766D01*
X213956Y595308D01*
X213000Y595498D01*
X212044Y595308D01*
X211234Y594766D01*
X210692Y593956D01*
X210502Y593000D01*
X210692Y592044D01*
X211234Y591234D01*
X211432Y591101D01*
Y589899D01*
X211234Y589766D01*
X210692Y588956D01*
X210502Y588000D01*
X210692Y587044D01*
X211234Y586234D01*
X211432Y586101D01*
Y584899D01*
X211234Y584766D01*
X210692Y583956D01*
X210502Y583000D01*
X210692Y582044D01*
X211234Y581234D01*
X211432Y581101D01*
Y579899D01*
X211234Y579766D01*
X210692Y578956D01*
X210502Y578000D01*
X210692Y577044D01*
X211234Y576234D01*
X211432Y576101D01*
Y574899D01*
X211234Y574766D01*
X210692Y573956D01*
X210502Y573000D01*
X210692Y572044D01*
X211234Y571234D01*
X212044Y570692D01*
X212612Y570579D01*
X212670Y570559D01*
X212848Y570532D01*
X213000Y570502D01*
X213018Y570506D01*
X213568Y570391D01*
X213804Y570324D01*
X214022Y570249D01*
X214215Y570169D01*
X214382Y570085D01*
X214524Y569999D01*
X214643Y569913D01*
X214671Y569887D01*
X240396Y544162D01*
X240152Y543689D01*
X239806Y543338D01*
X239000Y543498D01*
X238044Y543308D01*
X237234Y542766D01*
X236692Y541956D01*
X236502Y541000D01*
X236692Y540044D01*
X237234Y539234D01*
X238044Y538692D01*
X239000Y538502D01*
X239956Y538692D01*
X240106Y538793D01*
X241106Y538258D01*
Y535212D01*
X240106Y534678D01*
X240013Y534740D01*
X239057Y534930D01*
X238101Y534740D01*
X237291Y534198D01*
X236749Y533388D01*
X236559Y532432D01*
X236749Y531476D01*
X237291Y530666D01*
X238101Y530124D01*
X239057Y529934D01*
X240013Y530124D01*
X240106Y530187D01*
X241106Y529652D01*
Y520543D01*
X241099Y520476D01*
X241084Y520388D01*
X241061Y520301D01*
X241032Y520212D01*
X240996Y520122D01*
X240952Y520031D01*
X240899Y519938D01*
X240838Y519843D01*
X240393Y519663D01*
X239640Y519652D01*
X216057Y543235D01*
X216032Y543263D01*
X215953Y543374D01*
X215874Y543512D01*
X215796Y543677D01*
X215723Y543870D01*
X215654Y544091D01*
X215594Y544332D01*
X215489Y544924D01*
X215487Y544944D01*
X215498Y545000D01*
X215455Y545217D01*
X215450Y545256D01*
X215442Y545282D01*
X215308Y545956D01*
X214766Y546766D01*
X213956Y547308D01*
X213000Y547498D01*
X212614Y547421D01*
X211614Y548132D01*
Y548228D01*
X198819D01*
Y546697D01*
X198337Y546601D01*
X197774Y546226D01*
X197399Y545663D01*
X197267Y545000D01*
X197399Y544337D01*
X197601Y544034D01*
X197631Y543970D01*
X197712Y543858D01*
X197773Y543763D01*
X197826Y543670D01*
X197870Y543578D01*
X197906Y543489D01*
X197935Y543400D01*
X197958Y543312D01*
X197973Y543224D01*
X197980Y543157D01*
Y542501D01*
X197000Y541733D01*
X196337Y541601D01*
X195774Y541226D01*
X195399Y540663D01*
X195267Y540000D01*
X195399Y539337D01*
X195601Y539034D01*
X195631Y538970D01*
X195712Y538858D01*
X195773Y538763D01*
X195826Y538670D01*
X195870Y538578D01*
X195906Y538489D01*
X195935Y538400D01*
X195958Y538312D01*
X195973Y538224D01*
X195980Y538158D01*
Y537501D01*
X195000Y536733D01*
X194337Y536601D01*
X193774Y536226D01*
X193399Y535663D01*
X193267Y535000D01*
X193399Y534337D01*
X193601Y534034D01*
X193631Y533970D01*
X193712Y533858D01*
X193773Y533763D01*
X193826Y533670D01*
X193870Y533578D01*
X193906Y533489D01*
X193935Y533400D01*
X193957Y533312D01*
X193973Y533224D01*
X193980Y533157D01*
Y532501D01*
X193000Y531733D01*
X192337Y531601D01*
X191774Y531226D01*
X191399Y530663D01*
X191267Y530000D01*
X191399Y529337D01*
X191601Y529034D01*
X191630Y528970D01*
X191712Y528858D01*
X191773Y528763D01*
X191826Y528670D01*
X191870Y528578D01*
X191906Y528489D01*
X191935Y528400D01*
X191957Y528312D01*
X191973Y528224D01*
X191980Y528158D01*
Y527501D01*
X191000Y526733D01*
X190337Y526601D01*
X189774Y526226D01*
X189399Y525663D01*
X189267Y525000D01*
X189399Y524337D01*
X189601Y524034D01*
X189630Y523970D01*
X189712Y523858D01*
X189773Y523763D01*
X189826Y523670D01*
X189870Y523578D01*
X189906Y523489D01*
X189935Y523400D01*
X189957Y523312D01*
X189973Y523224D01*
X189980Y523158D01*
Y522501D01*
X189000Y521733D01*
X188337Y521601D01*
X187774Y521226D01*
X187399Y520663D01*
X187267Y520000D01*
X187399Y519337D01*
X187601Y519034D01*
X187630Y518970D01*
X187712Y518858D01*
X187773Y518763D01*
X187826Y518670D01*
X187870Y518578D01*
X187906Y518489D01*
X187935Y518400D01*
X187958Y518312D01*
X187973Y518224D01*
X187980Y518157D01*
Y517501D01*
X187000Y516733D01*
X186337Y516601D01*
X185774Y516226D01*
X185399Y515663D01*
X185267Y515000D01*
X185399Y514337D01*
X185601Y514034D01*
X185631Y513970D01*
X185712Y513858D01*
X185773Y513763D01*
X185826Y513670D01*
X185870Y513578D01*
X185906Y513489D01*
X185935Y513400D01*
X185958Y513312D01*
X185973Y513224D01*
X185980Y513158D01*
Y489501D01*
X185000Y488733D01*
X184337Y488601D01*
X183774Y488226D01*
X183399Y487663D01*
X183267Y487000D01*
X183399Y486337D01*
X183601Y486034D01*
X183631Y485970D01*
X183712Y485858D01*
X183773Y485763D01*
X183826Y485670D01*
X183870Y485578D01*
X183906Y485489D01*
X183935Y485400D01*
X183958Y485312D01*
X183973Y485224D01*
X183980Y485157D01*
Y484501D01*
X183000Y483733D01*
X182337Y483601D01*
X181774Y483226D01*
X181399Y482663D01*
X181267Y482000D01*
X181399Y481337D01*
X181601Y481034D01*
X181631Y480970D01*
X181712Y480858D01*
X181773Y480763D01*
X181826Y480670D01*
X181870Y480578D01*
X181906Y480489D01*
X181935Y480400D01*
X181957Y480312D01*
X181973Y480224D01*
X181980Y480158D01*
Y479501D01*
X181000Y478733D01*
X180337Y478601D01*
X179774Y478226D01*
X179399Y477663D01*
X179267Y477000D01*
X179399Y476337D01*
X179601Y476034D01*
X179630Y475970D01*
X179712Y475858D01*
X179773Y475763D01*
X179826Y475670D01*
X179870Y475578D01*
X179906Y475489D01*
X179935Y475400D01*
X179957Y475312D01*
X179973Y475224D01*
X179980Y475157D01*
Y474501D01*
X179000Y473733D01*
X178337Y473601D01*
X177774Y473226D01*
X177399Y472663D01*
X177267Y472000D01*
X177399Y471337D01*
X177601Y471034D01*
X177630Y470970D01*
X177712Y470858D01*
X177773Y470763D01*
X177826Y470670D01*
X177870Y470578D01*
X177906Y470489D01*
X177935Y470400D01*
X177957Y470312D01*
X177973Y470224D01*
X177980Y470157D01*
Y469501D01*
X177000Y468733D01*
X176337Y468601D01*
X175774Y468226D01*
X175399Y467663D01*
X175267Y467000D01*
X175399Y466337D01*
X175601Y466034D01*
X175630Y465970D01*
X175712Y465858D01*
X175773Y465763D01*
X175826Y465670D01*
X175870Y465578D01*
X175906Y465489D01*
X175935Y465400D01*
X175958Y465312D01*
X175973Y465224D01*
X175980Y465158D01*
Y464501D01*
X175000Y463733D01*
X174337Y463601D01*
X173774Y463226D01*
X173399Y462663D01*
X173267Y462000D01*
X173399Y461337D01*
X173601Y461034D01*
X173630Y460970D01*
X173712Y460858D01*
X173773Y460763D01*
X173826Y460670D01*
X173870Y460578D01*
X173906Y460489D01*
X173935Y460400D01*
X173958Y460312D01*
X173973Y460224D01*
X173980Y460157D01*
Y357843D01*
X173973Y357776D01*
X173958Y357688D01*
X173935Y357600D01*
X173906Y357511D01*
X173870Y357422D01*
X173826Y357330D01*
X173774Y357237D01*
X173712Y357142D01*
X173630Y357030D01*
X173601Y356966D01*
X173399Y356663D01*
X173267Y356000D01*
X173399Y355337D01*
X173774Y354774D01*
X173865Y354714D01*
X173562Y353714D01*
X125295Y353714D01*
X125022Y353659D01*
X124791Y353505D01*
X122291Y351005D01*
X122136Y350773D01*
X122082Y350500D01*
Y338000D01*
X122136Y337727D01*
X122291Y337495D01*
X127058Y332728D01*
X126755Y331809D01*
X126692Y331728D01*
X64012D01*
X64012Y609128D01*
X173874Y609190D01*
X174582Y608483D01*
X174582Y599350D01*
X174636Y599077D01*
X174791Y598846D01*
X175022Y598691D01*
X175295Y598637D01*
X268649Y598637D01*
X279419Y587867D01*
X278781Y587091D01*
X278456Y587308D01*
X277500Y587498D01*
X276544Y587308D01*
X275734Y586766D01*
X275601Y586568D01*
X274399D01*
X274266Y586766D01*
X273456Y587308D01*
X272500Y587498D01*
X271544Y587308D01*
X270734Y586766D01*
X270192Y585956D01*
X270002Y585000D01*
X270192Y584044D01*
X270734Y583234D01*
X270932Y583101D01*
Y581899D01*
X270734Y581766D01*
X270192Y580956D01*
X270002Y580000D01*
X270192Y579044D01*
X270734Y578234D01*
X271544Y577692D01*
X272500Y577502D01*
X273456Y577692D01*
X274266Y578234D01*
X274399Y578432D01*
X275601D01*
X275734Y578234D01*
X276544Y577692D01*
X277500Y577502D01*
X278456Y577692D01*
X279266Y578234D01*
X279399Y578432D01*
X280601D01*
X280734Y578234D01*
X281544Y577692D01*
X282500Y577502D01*
X283456Y577692D01*
X284266Y578234D01*
X284399Y578432D01*
X285601D01*
X285734Y578234D01*
X286544Y577692D01*
X287500Y577502D01*
X288456Y577692D01*
X289138Y578148D01*
X307291Y559995D01*
X307522Y559841D01*
X307795Y559786D01*
X327690Y559786D01*
X327795Y559772D01*
X327901Y559786D01*
X335190D01*
X335295Y559772D01*
X335401Y559786D01*
X337701D01*
X337974Y559841D01*
X338205Y559995D01*
X338559Y560349D01*
X338714Y560580D01*
X338768Y560854D01*
X338768Y565465D01*
X338714Y565738D01*
X338559Y565970D01*
X296193Y608336D01*
X296576Y609260D01*
X456273Y609351D01*
X456980Y608644D01*
D02*
G37*
G36*
X214786Y587883D02*
X214916Y587261D01*
X214995Y586982D01*
X215084Y586725D01*
X215182Y586488D01*
X215289Y586273D01*
X215406Y586080D01*
X215533Y585907D01*
X215669Y585756D01*
X215244Y585331D01*
X215093Y585467D01*
X214920Y585594D01*
X214727Y585711D01*
X214511Y585818D01*
X214275Y585916D01*
X214018Y586005D01*
X213739Y586084D01*
X213117Y586214D01*
X212774Y586265D01*
X214735Y588226D01*
X214786Y587883D01*
D02*
G37*
G36*
Y582883D02*
X214916Y582261D01*
X214995Y581983D01*
X215084Y581725D01*
X215182Y581489D01*
X215289Y581273D01*
X215406Y581079D01*
X215533Y580907D01*
X215669Y580756D01*
X215244Y580331D01*
X215093Y580467D01*
X214920Y580594D01*
X214727Y580711D01*
X214511Y580818D01*
X214275Y580916D01*
X214018Y581005D01*
X213739Y581084D01*
X213117Y581214D01*
X212774Y581265D01*
X214735Y583226D01*
X214786Y582883D01*
D02*
G37*
G36*
Y577883D02*
X214916Y577261D01*
X214995Y576982D01*
X215084Y576725D01*
X215182Y576488D01*
X215289Y576273D01*
X215406Y576080D01*
X215533Y575907D01*
X215669Y575756D01*
X215244Y575331D01*
X215093Y575467D01*
X214920Y575594D01*
X214727Y575711D01*
X214511Y575818D01*
X214275Y575916D01*
X214018Y576005D01*
X213739Y576084D01*
X213117Y576214D01*
X212774Y576265D01*
X214735Y578226D01*
X214786Y577883D01*
D02*
G37*
G36*
Y572883D02*
X214916Y572261D01*
X214995Y571982D01*
X215084Y571725D01*
X215182Y571489D01*
X215289Y571273D01*
X215406Y571079D01*
X215533Y570907D01*
X215669Y570756D01*
X215244Y570331D01*
X215093Y570467D01*
X214920Y570594D01*
X214727Y570711D01*
X214511Y570818D01*
X214275Y570916D01*
X214018Y571005D01*
X213739Y571084D01*
X213117Y571214D01*
X212774Y571265D01*
X214735Y573226D01*
X214786Y572883D01*
D02*
G37*
G36*
X338054Y565465D02*
X338054Y560854D01*
X337701Y560500D01*
X307795Y560500D01*
X289585Y578710D01*
X289808Y579044D01*
X289998Y580000D01*
X289808Y580956D01*
X289266Y581766D01*
X288584Y582222D01*
X288556Y582326D01*
Y582674D01*
X288584Y582778D01*
X289266Y583234D01*
X289808Y584044D01*
X289998Y585000D01*
X289808Y585956D01*
X289266Y586766D01*
X288456Y587308D01*
X287500Y587498D01*
X286544Y587308D01*
X285734Y586766D01*
X285278Y586084D01*
X285174Y586056D01*
X284826D01*
X284722Y586084D01*
X284266Y586766D01*
X283456Y587308D01*
X282500Y587498D01*
X281544Y587308D01*
X281210Y587085D01*
X268945Y599350D01*
X175295Y599350D01*
X175295Y609191D01*
X282575Y609252D01*
X294268D01*
X338054Y565465D01*
D02*
G37*
G36*
X199699Y544261D02*
X199615Y544132D01*
X199541Y544000D01*
X199477Y543868D01*
X199423Y543734D01*
X199379Y543599D01*
X199344Y543463D01*
X199320Y543325D01*
X199305Y543186D01*
X199300Y543046D01*
X198700D01*
X198695Y543186D01*
X198680Y543325D01*
X198656Y543463D01*
X198621Y543599D01*
X198577Y543734D01*
X198523Y543868D01*
X198459Y544000D01*
X198385Y544132D01*
X198301Y544261D01*
X198208Y544390D01*
X199792D01*
X199699Y544261D01*
D02*
G37*
G36*
X214783Y544820D02*
X214895Y544183D01*
X214967Y543899D01*
X215048Y543637D01*
X215139Y543398D01*
X215241Y543182D01*
X215352Y542988D01*
X215473Y542818D01*
X215605Y542670D01*
X215154Y542272D01*
X214999Y542413D01*
X214825Y542544D01*
X214631Y542667D01*
X214417Y542780D01*
X214183Y542885D01*
X213930Y542980D01*
X213658Y543067D01*
X213053Y543213D01*
X212722Y543272D01*
X214741Y545173D01*
X214783Y544820D01*
D02*
G37*
G36*
X197699Y539261D02*
X197615Y539132D01*
X197541Y539000D01*
X197477Y538868D01*
X197423Y538734D01*
X197379Y538599D01*
X197344Y538463D01*
X197320Y538325D01*
X197305Y538186D01*
X197300Y538046D01*
X196700D01*
X196695Y538186D01*
X196680Y538325D01*
X196656Y538463D01*
X196621Y538599D01*
X196577Y538734D01*
X196523Y538868D01*
X196459Y539000D01*
X196385Y539132D01*
X196301Y539261D01*
X196208Y539390D01*
X197792D01*
X197699Y539261D01*
D02*
G37*
G36*
X214787Y539947D02*
X214933Y539342D01*
X215020Y539070D01*
X215115Y538817D01*
X215220Y538583D01*
X215333Y538369D01*
X215456Y538175D01*
X215587Y538001D01*
X215728Y537846D01*
X215330Y537395D01*
X215182Y537527D01*
X215012Y537648D01*
X214818Y537760D01*
X214602Y537861D01*
X214363Y537952D01*
X214101Y538033D01*
X213817Y538105D01*
X213180Y538217D01*
X212827Y538259D01*
X214728Y540278D01*
X214787Y539947D01*
D02*
G37*
G36*
X195699Y534261D02*
X195615Y534132D01*
X195541Y534000D01*
X195477Y533868D01*
X195423Y533734D01*
X195379Y533599D01*
X195344Y533463D01*
X195320Y533325D01*
X195305Y533186D01*
X195300Y533046D01*
X194700D01*
X194695Y533186D01*
X194680Y533325D01*
X194656Y533463D01*
X194621Y533599D01*
X194577Y533734D01*
X194523Y533868D01*
X194459Y534000D01*
X194385Y534132D01*
X194301Y534261D01*
X194208Y534390D01*
X195792D01*
X195699Y534261D01*
D02*
G37*
G36*
X214786Y534883D02*
X214916Y534261D01*
X214995Y533983D01*
X215084Y533725D01*
X215182Y533489D01*
X215289Y533273D01*
X215406Y533079D01*
X215533Y532907D01*
X215669Y532756D01*
X215244Y532331D01*
X215093Y532467D01*
X214920Y532594D01*
X214727Y532711D01*
X214511Y532818D01*
X214275Y532916D01*
X214018Y533005D01*
X213739Y533084D01*
X213117Y533214D01*
X212774Y533265D01*
X214735Y535226D01*
X214786Y534883D01*
D02*
G37*
G36*
X193699Y529261D02*
X193615Y529132D01*
X193541Y529000D01*
X193477Y528868D01*
X193423Y528734D01*
X193379Y528599D01*
X193344Y528463D01*
X193320Y528325D01*
X193305Y528186D01*
X193300Y528046D01*
X192700D01*
X192695Y528186D01*
X192680Y528325D01*
X192656Y528463D01*
X192621Y528599D01*
X192577Y528734D01*
X192523Y528868D01*
X192459Y529000D01*
X192385Y529132D01*
X192301Y529261D01*
X192208Y529390D01*
X193792D01*
X193699Y529261D01*
D02*
G37*
G36*
X214786Y529883D02*
X214916Y529261D01*
X214995Y528982D01*
X215084Y528725D01*
X215182Y528488D01*
X215289Y528273D01*
X215406Y528080D01*
X215533Y527907D01*
X215669Y527756D01*
X215244Y527331D01*
X215093Y527467D01*
X214920Y527594D01*
X214727Y527711D01*
X214511Y527818D01*
X214275Y527916D01*
X214018Y528005D01*
X213739Y528084D01*
X213117Y528214D01*
X212774Y528265D01*
X214735Y530226D01*
X214786Y529883D01*
D02*
G37*
G36*
X248336Y524451D02*
X248351Y524313D01*
X248376Y524175D01*
X248410Y524039D01*
X248455Y523904D01*
X248509Y523770D01*
X248573Y523637D01*
X248647Y523506D01*
X248730Y523376D01*
X248824Y523248D01*
X247239D01*
X247333Y523376D01*
X247416Y523506D01*
X247490Y523637D01*
X247554Y523770D01*
X247608Y523904D01*
X247653Y524039D01*
X247687Y524175D01*
X247712Y524313D01*
X247727Y524451D01*
X247731Y524592D01*
X248331D01*
X248336Y524451D01*
D02*
G37*
G36*
X244399D02*
X244414Y524313D01*
X244439Y524175D01*
X244473Y524039D01*
X244518Y523904D01*
X244572Y523770D01*
X244636Y523637D01*
X244710Y523506D01*
X244793Y523376D01*
X244887Y523248D01*
X243302D01*
X243396Y523376D01*
X243479Y523506D01*
X243553Y523637D01*
X243617Y523770D01*
X243671Y523904D01*
X243716Y524039D01*
X243750Y524175D01*
X243775Y524313D01*
X243790Y524451D01*
X243794Y524592D01*
X244394D01*
X244399Y524451D01*
D02*
G37*
G36*
X191699Y524261D02*
X191615Y524132D01*
X191541Y524000D01*
X191477Y523868D01*
X191423Y523734D01*
X191379Y523599D01*
X191344Y523463D01*
X191320Y523325D01*
X191305Y523186D01*
X191300Y523046D01*
X190700D01*
X190695Y523186D01*
X190680Y523325D01*
X190656Y523463D01*
X190621Y523599D01*
X190577Y523734D01*
X190523Y523868D01*
X190459Y524000D01*
X190385Y524132D01*
X190301Y524261D01*
X190208Y524390D01*
X191792D01*
X191699Y524261D01*
D02*
G37*
G36*
X214786Y524883D02*
X214916Y524261D01*
X214995Y523982D01*
X215084Y523725D01*
X215182Y523489D01*
X215289Y523273D01*
X215406Y523079D01*
X215533Y522907D01*
X215669Y522756D01*
X215244Y522331D01*
X215093Y522467D01*
X214920Y522594D01*
X214727Y522711D01*
X214511Y522818D01*
X214275Y522916D01*
X214018Y523005D01*
X213739Y523084D01*
X213117Y523214D01*
X212774Y523265D01*
X214735Y525226D01*
X214786Y524883D01*
D02*
G37*
G36*
X246311Y520553D02*
X246326Y520416D01*
X246352Y520279D01*
X246388Y520144D01*
X246434Y520009D01*
X246490Y519876D01*
X246556Y519743D01*
X246633Y519611D01*
X246721Y519481D01*
X246818Y519351D01*
X245233Y519328D01*
X245323Y519455D01*
X245403Y519584D01*
X245474Y519715D01*
X245535Y519847D01*
X245587Y519981D01*
X245630Y520116D01*
X245663Y520253D01*
X245687Y520392D01*
X245701Y520532D01*
X245706Y520674D01*
X246305Y520692D01*
X246311Y520553D01*
D02*
G37*
G36*
X250305Y520514D02*
X250320Y520376D01*
X250344Y520238D01*
X250379Y520102D01*
X250423Y519967D01*
X250477Y519833D01*
X250541Y519700D01*
X250615Y519569D01*
X250699Y519439D01*
X250792Y519311D01*
X249208D01*
X249301Y519439D01*
X249385Y519569D01*
X249459Y519700D01*
X249523Y519833D01*
X249577Y519967D01*
X249621Y520102D01*
X249656Y520238D01*
X249680Y520376D01*
X249695Y520514D01*
X249700Y520655D01*
X250300D01*
X250305Y520514D01*
D02*
G37*
G36*
X242431D02*
X242446Y520376D01*
X242470Y520238D01*
X242505Y520102D01*
X242549Y519967D01*
X242603Y519833D01*
X242667Y519700D01*
X242741Y519569D01*
X242825Y519439D01*
X242918Y519311D01*
X241334D01*
X241427Y519439D01*
X241511Y519569D01*
X241585Y519700D01*
X241649Y519833D01*
X241703Y519967D01*
X241747Y520102D01*
X241782Y520238D01*
X241806Y520376D01*
X241821Y520514D01*
X241826Y520655D01*
X242426D01*
X242431Y520514D01*
D02*
G37*
G36*
X189699Y519261D02*
X189615Y519132D01*
X189541Y519000D01*
X189477Y518868D01*
X189423Y518734D01*
X189379Y518599D01*
X189344Y518463D01*
X189320Y518325D01*
X189305Y518186D01*
X189300Y518046D01*
X188700D01*
X188695Y518186D01*
X188680Y518325D01*
X188656Y518463D01*
X188621Y518599D01*
X188577Y518734D01*
X188523Y518868D01*
X188459Y519000D01*
X188385Y519132D01*
X188301Y519261D01*
X188208Y519390D01*
X189792D01*
X189699Y519261D01*
D02*
G37*
G36*
X214786Y519883D02*
X214916Y519261D01*
X214995Y518983D01*
X215084Y518725D01*
X215182Y518489D01*
X215289Y518273D01*
X215406Y518080D01*
X215533Y517907D01*
X215669Y517756D01*
X215244Y517331D01*
X215093Y517467D01*
X214920Y517594D01*
X214727Y517711D01*
X214511Y517818D01*
X214275Y517916D01*
X214018Y518005D01*
X213739Y518084D01*
X213117Y518214D01*
X212774Y518265D01*
X214735Y520226D01*
X214786Y519883D01*
D02*
G37*
G36*
X187699Y514261D02*
X187615Y514132D01*
X187541Y514000D01*
X187477Y513868D01*
X187423Y513734D01*
X187379Y513599D01*
X187344Y513463D01*
X187320Y513325D01*
X187305Y513186D01*
X187300Y513046D01*
X186700D01*
X186695Y513186D01*
X186680Y513325D01*
X186656Y513463D01*
X186621Y513599D01*
X186577Y513734D01*
X186523Y513868D01*
X186459Y514000D01*
X186385Y514132D01*
X186301Y514261D01*
X186208Y514390D01*
X187792D01*
X187699Y514261D01*
D02*
G37*
G36*
X214786Y514883D02*
X214916Y514261D01*
X214995Y513982D01*
X215084Y513725D01*
X215182Y513488D01*
X215289Y513273D01*
X215406Y513080D01*
X215533Y512907D01*
X215669Y512756D01*
X215244Y512331D01*
X215093Y512467D01*
X214920Y512594D01*
X214727Y512711D01*
X214511Y512818D01*
X214275Y512916D01*
X214018Y513005D01*
X213739Y513084D01*
X213117Y513214D01*
X212774Y513265D01*
X214735Y515226D01*
X214786Y514883D01*
D02*
G37*
G36*
X271768Y511034D02*
X271639Y511128D01*
X271510Y511212D01*
X271378Y511285D01*
X271246Y511349D01*
X271112Y511404D01*
X270977Y511448D01*
X270841Y511482D01*
X270703Y511507D01*
X270564Y511522D01*
X270424Y511527D01*
Y512127D01*
X270564Y512132D01*
X270703Y512147D01*
X270841Y512171D01*
X270977Y512206D01*
X271112Y512250D01*
X271246Y512304D01*
X271378Y512368D01*
X271510Y512442D01*
X271639Y512526D01*
X271768Y512619D01*
Y511034D01*
D02*
G37*
G36*
X280951Y511088D02*
X280867Y510958D01*
X280793Y510827D01*
X280729Y510695D01*
X280675Y510561D01*
X280631Y510426D01*
X280596Y510290D01*
X280572Y510152D01*
X280557Y510013D01*
X280552Y509873D01*
X279952D01*
X279947Y510013D01*
X279932Y510152D01*
X279908Y510290D01*
X279873Y510426D01*
X279829Y510561D01*
X279775Y510695D01*
X279711Y510827D01*
X279637Y510958D01*
X279553Y511088D01*
X279460Y511217D01*
X281044D01*
X280951Y511088D01*
D02*
G37*
G36*
X214786Y509883D02*
X214916Y509261D01*
X214995Y508983D01*
X215084Y508725D01*
X215182Y508489D01*
X215289Y508273D01*
X215406Y508079D01*
X215533Y507907D01*
X215669Y507756D01*
X215244Y507331D01*
X215093Y507467D01*
X214920Y507594D01*
X214727Y507711D01*
X214511Y507818D01*
X214275Y507916D01*
X214018Y508005D01*
X213739Y508084D01*
X213117Y508214D01*
X213000Y508231D01*
X212883Y508214D01*
X212261Y508084D01*
X211982Y508005D01*
X211725Y507916D01*
X211489Y507818D01*
X211273Y507711D01*
X211080Y507594D01*
X210907Y507467D01*
X210756Y507331D01*
X210331Y507756D01*
X210467Y507907D01*
X210594Y508079D01*
X210711Y508273D01*
X210818Y508489D01*
X210916Y508725D01*
X211005Y508983D01*
X211084Y509261D01*
X211214Y509883D01*
X211265Y510226D01*
X213000Y508490D01*
X214735Y510226D01*
X214786Y509883D01*
D02*
G37*
G36*
X274980Y507082D02*
X274852Y507175D01*
X274722Y507259D01*
X274591Y507333D01*
X274459Y507397D01*
X274325Y507451D01*
X274190Y507495D01*
X274053Y507530D01*
X273916Y507554D01*
X273777Y507569D01*
X273637Y507574D01*
Y508174D01*
X273777Y508179D01*
X273916Y508194D01*
X274053Y508218D01*
X274190Y508253D01*
X274325Y508297D01*
X274459Y508351D01*
X274591Y508415D01*
X274722Y508489D01*
X274852Y508573D01*
X274980Y508666D01*
Y507082D01*
D02*
G37*
G36*
X297268Y507922D02*
X297296Y507835D01*
X297336Y507744D01*
X297387Y507648D01*
X297451Y507547D01*
X297526Y507440D01*
X297713Y507213D01*
X297824Y507092D01*
X297946Y506965D01*
X297169Y506187D01*
X297042Y506310D01*
X296694Y506608D01*
X296587Y506683D01*
X296486Y506747D01*
X296390Y506798D01*
X296299Y506838D01*
X296212Y506866D01*
X296131Y506882D01*
X297252Y508003D01*
X297268Y507922D01*
D02*
G37*
G36*
X214786Y504883D02*
X214916Y504261D01*
X214995Y503982D01*
X215084Y503725D01*
X215182Y503488D01*
X215289Y503273D01*
X215406Y503080D01*
X215533Y502907D01*
X215669Y502756D01*
X215244Y502331D01*
X215093Y502467D01*
X214920Y502594D01*
X214727Y502711D01*
X214511Y502818D01*
X214275Y502916D01*
X214018Y503005D01*
X213739Y503084D01*
X213117Y503214D01*
X213000Y503231D01*
X212883Y503214D01*
X212261Y503084D01*
X211982Y503005D01*
X211725Y502916D01*
X211489Y502818D01*
X211273Y502711D01*
X211080Y502594D01*
X210907Y502467D01*
X210756Y502331D01*
X210331Y502756D01*
X210467Y502907D01*
X210594Y503080D01*
X210711Y503273D01*
X210818Y503488D01*
X210916Y503725D01*
X211005Y503982D01*
X211084Y504261D01*
X211214Y504883D01*
X211265Y505226D01*
X213000Y503490D01*
X214735Y505226D01*
X214786Y504883D01*
D02*
G37*
G36*
X245453Y501176D02*
X245324Y501270D01*
X245195Y501353D01*
X245063Y501427D01*
X244931Y501491D01*
X244797Y501545D01*
X244662Y501590D01*
X244526Y501624D01*
X244388Y501649D01*
X244249Y501664D01*
X244109Y501669D01*
Y502269D01*
X244249Y502273D01*
X244388Y502288D01*
X244526Y502313D01*
X244662Y502347D01*
X244797Y502392D01*
X244931Y502446D01*
X245063Y502510D01*
X245195Y502584D01*
X245324Y502667D01*
X245453Y502761D01*
Y501176D01*
D02*
G37*
G36*
X294422Y499208D02*
X294293Y499301D01*
X294163Y499385D01*
X294032Y499459D01*
X293899Y499523D01*
X293766Y499577D01*
X293631Y499621D01*
X293494Y499656D01*
X293357Y499680D01*
X293218Y499695D01*
X293078Y499700D01*
Y500300D01*
X293218Y500305D01*
X293357Y500320D01*
X293494Y500344D01*
X293631Y500379D01*
X293766Y500423D01*
X293899Y500477D01*
X294032Y500541D01*
X294163Y500615D01*
X294293Y500699D01*
X294422Y500792D01*
Y499208D01*
D02*
G37*
G36*
X241516D02*
X241387Y499301D01*
X241258Y499385D01*
X241126Y499459D01*
X240994Y499523D01*
X240860Y499577D01*
X240725Y499621D01*
X240589Y499656D01*
X240451Y499680D01*
X240312Y499695D01*
X240172Y499700D01*
Y500300D01*
X240312Y500305D01*
X240451Y500320D01*
X240589Y500344D01*
X240725Y500379D01*
X240860Y500423D01*
X240994Y500477D01*
X241126Y500541D01*
X241258Y500615D01*
X241387Y500699D01*
X241516Y500792D01*
Y499208D01*
D02*
G37*
G36*
X290484Y497239D02*
X290356Y497333D01*
X290226Y497416D01*
X290095Y497490D01*
X289962Y497554D01*
X289829Y497608D01*
X289694Y497653D01*
X289557Y497687D01*
X289420Y497712D01*
X289281Y497727D01*
X289141Y497731D01*
Y498331D01*
X289281Y498336D01*
X289420Y498351D01*
X289557Y498376D01*
X289694Y498410D01*
X289829Y498455D01*
X289962Y498509D01*
X290095Y498573D01*
X290226Y498647D01*
X290356Y498730D01*
X290484Y498824D01*
Y497239D01*
D02*
G37*
G36*
X245453D02*
X245324Y497333D01*
X245195Y497416D01*
X245063Y497490D01*
X244931Y497554D01*
X244797Y497608D01*
X244662Y497653D01*
X244526Y497687D01*
X244388Y497712D01*
X244249Y497727D01*
X244109Y497731D01*
Y498331D01*
X244249Y498336D01*
X244388Y498351D01*
X244526Y498376D01*
X244662Y498410D01*
X244797Y498455D01*
X244931Y498509D01*
X245063Y498573D01*
X245195Y498647D01*
X245324Y498730D01*
X245453Y498824D01*
Y497239D01*
D02*
G37*
G36*
X294422Y495271D02*
X294293Y495364D01*
X294163Y495448D01*
X294032Y495522D01*
X293899Y495586D01*
X293766Y495640D01*
X293631Y495684D01*
X293494Y495719D01*
X293357Y495743D01*
X293218Y495758D01*
X293078Y495763D01*
Y496363D01*
X293218Y496368D01*
X293357Y496383D01*
X293494Y496407D01*
X293631Y496442D01*
X293766Y496486D01*
X293899Y496540D01*
X294032Y496604D01*
X294163Y496678D01*
X294293Y496762D01*
X294422Y496855D01*
Y495271D01*
D02*
G37*
G36*
X241516Y495271D02*
X241387Y495364D01*
X241258Y495448D01*
X241126Y495522D01*
X240994Y495586D01*
X240860Y495640D01*
X240725Y495684D01*
X240589Y495719D01*
X240451Y495743D01*
X240312Y495758D01*
X240172Y495763D01*
Y496363D01*
X240312Y496368D01*
X240451Y496383D01*
X240589Y496407D01*
X240725Y496442D01*
X240860Y496486D01*
X240994Y496540D01*
X241126Y496604D01*
X241258Y496678D01*
X241387Y496762D01*
X241516Y496855D01*
Y495271D01*
D02*
G37*
G36*
X290484Y493302D02*
X290356Y493396D01*
X290226Y493479D01*
X290095Y493553D01*
X289962Y493617D01*
X289829Y493671D01*
X289694Y493716D01*
X289557Y493750D01*
X289420Y493775D01*
X289281Y493790D01*
X289141Y493794D01*
Y494394D01*
X289281Y494399D01*
X289420Y494414D01*
X289557Y494439D01*
X289694Y494473D01*
X289829Y494518D01*
X289962Y494572D01*
X290095Y494636D01*
X290226Y494710D01*
X290356Y494793D01*
X290484Y494887D01*
Y493302D01*
D02*
G37*
G36*
X245453D02*
X245324Y493396D01*
X245195Y493479D01*
X245063Y493553D01*
X244931Y493617D01*
X244797Y493671D01*
X244662Y493716D01*
X244526Y493750D01*
X244388Y493775D01*
X244249Y493790D01*
X244109Y493794D01*
Y494394D01*
X244249Y494399D01*
X244388Y494414D01*
X244526Y494439D01*
X244662Y494473D01*
X244797Y494518D01*
X244931Y494572D01*
X245063Y494636D01*
X245195Y494710D01*
X245324Y494793D01*
X245453Y494887D01*
Y493302D01*
D02*
G37*
G36*
X199305Y493814D02*
X199320Y493675D01*
X199344Y493537D01*
X199379Y493401D01*
X199423Y493266D01*
X199477Y493132D01*
X199541Y493000D01*
X199615Y492868D01*
X199699Y492739D01*
X199792Y492610D01*
X198208D01*
X198301Y492739D01*
X198385Y492868D01*
X198459Y493000D01*
X198523Y493132D01*
X198577Y493266D01*
X198621Y493401D01*
X198656Y493537D01*
X198680Y493675D01*
X198695Y493814D01*
X198700Y493954D01*
X199300D01*
X199305Y493814D01*
D02*
G37*
G36*
X241516Y489365D02*
X241387Y489459D01*
X241258Y489542D01*
X241126Y489616D01*
X240994Y489680D01*
X240860Y489734D01*
X240725Y489779D01*
X240589Y489813D01*
X240451Y489838D01*
X240312Y489853D01*
X240172Y489857D01*
Y490457D01*
X240312Y490462D01*
X240451Y490477D01*
X240589Y490502D01*
X240725Y490536D01*
X240860Y490581D01*
X240994Y490635D01*
X241126Y490699D01*
X241258Y490773D01*
X241387Y490856D01*
X241516Y490950D01*
Y489365D01*
D02*
G37*
G36*
X295770Y488699D02*
X295900Y488615D01*
X296031Y488541D01*
X296164Y488477D01*
X296297Y488423D01*
X296432Y488379D01*
X296569Y488344D01*
X296706Y488320D01*
X296845Y488305D01*
X296985Y488300D01*
Y487700D01*
X296845Y487695D01*
X296706Y487680D01*
X296569Y487656D01*
X296432Y487621D01*
X296297Y487577D01*
X296164Y487523D01*
X296031Y487459D01*
X295900Y487385D01*
X295770Y487301D01*
X295641Y487208D01*
Y488792D01*
X295770Y488699D01*
D02*
G37*
G36*
X214346Y488180D02*
X214877Y487832D01*
X215130Y487691D01*
X215375Y487572D01*
X215612Y487474D01*
X215840Y487398D01*
X216059Y487344D01*
X216271Y487311D01*
X216474Y487300D01*
Y486700D01*
X216271Y486689D01*
X216059Y486657D01*
X215840Y486602D01*
X215612Y486526D01*
X215375Y486428D01*
X215130Y486309D01*
X214877Y486167D01*
X214346Y485820D01*
X214068Y485613D01*
Y488387D01*
X214346Y488180D01*
D02*
G37*
G36*
X185699Y486261D02*
X185615Y486132D01*
X185541Y486000D01*
X185477Y485868D01*
X185423Y485734D01*
X185379Y485599D01*
X185344Y485463D01*
X185320Y485325D01*
X185305Y485186D01*
X185300Y485046D01*
X184700D01*
X184695Y485186D01*
X184680Y485325D01*
X184656Y485463D01*
X184621Y485599D01*
X184577Y485734D01*
X184523Y485868D01*
X184459Y486000D01*
X184385Y486132D01*
X184301Y486261D01*
X184208Y486390D01*
X185792D01*
X185699Y486261D01*
D02*
G37*
G36*
X293534Y486199D02*
X293664Y486115D01*
X293795Y486041D01*
X293927Y485977D01*
X294061Y485923D01*
X294196Y485879D01*
X294333Y485844D01*
X294470Y485820D01*
X294609Y485805D01*
X294749Y485800D01*
Y485200D01*
X294609Y485195D01*
X294470Y485180D01*
X294333Y485156D01*
X294196Y485121D01*
X294061Y485077D01*
X293927Y485023D01*
X293795Y484959D01*
X293664Y484885D01*
X293534Y484801D01*
X293405Y484708D01*
Y486292D01*
X293534Y486199D01*
D02*
G37*
G36*
X269343Y485026D02*
X269451Y484938D01*
X269566Y484858D01*
X269687Y484786D01*
X269814Y484722D01*
X269946Y484665D01*
X270085Y484617D01*
X270230Y484577D01*
X270381Y484544D01*
X270538Y484519D01*
X269418Y483399D01*
X269393Y483556D01*
X269360Y483707D01*
X269320Y483852D01*
X269271Y483991D01*
X269215Y484123D01*
X269151Y484250D01*
X269079Y484371D01*
X268999Y484486D01*
X268911Y484594D01*
X268816Y484697D01*
X269240Y485121D01*
X269343Y485026D01*
D02*
G37*
G36*
X291034Y483699D02*
X291164Y483615D01*
X291295Y483541D01*
X291427Y483477D01*
X291561Y483423D01*
X291696Y483379D01*
X291832Y483344D01*
X291970Y483320D01*
X292109Y483305D01*
X292249Y483300D01*
Y482700D01*
X292109Y482695D01*
X291970Y482680D01*
X291832Y482656D01*
X291696Y482621D01*
X291561Y482577D01*
X291427Y482523D01*
X291295Y482459D01*
X291164Y482385D01*
X291034Y482301D01*
X290905Y482208D01*
Y483792D01*
X291034Y483699D01*
D02*
G37*
G36*
X214346Y483180D02*
X214877Y482832D01*
X215130Y482691D01*
X215375Y482572D01*
X215612Y482474D01*
X215840Y482398D01*
X216059Y482343D01*
X216271Y482311D01*
X216474Y482300D01*
Y481700D01*
X216271Y481689D01*
X216059Y481657D01*
X215840Y481602D01*
X215612Y481526D01*
X215375Y481428D01*
X215130Y481309D01*
X214877Y481168D01*
X214346Y480820D01*
X214068Y480613D01*
Y483387D01*
X214346Y483180D01*
D02*
G37*
G36*
X268746Y481404D02*
X268761Y481265D01*
X268785Y481128D01*
X268820Y480991D01*
X268864Y480856D01*
X268918Y480723D01*
X268982Y480590D01*
X269056Y480459D01*
X269140Y480329D01*
X269233Y480201D01*
X267649D01*
X267742Y480329D01*
X267826Y480459D01*
X267900Y480590D01*
X267964Y480723D01*
X268018Y480856D01*
X268062Y480991D01*
X268097Y481128D01*
X268121Y481265D01*
X268136Y481404D01*
X268141Y481544D01*
X268741D01*
X268746Y481404D01*
D02*
G37*
G36*
X183699Y481261D02*
X183615Y481132D01*
X183541Y481000D01*
X183477Y480868D01*
X183423Y480734D01*
X183379Y480599D01*
X183344Y480463D01*
X183320Y480325D01*
X183305Y480186D01*
X183300Y480046D01*
X182700D01*
X182695Y480186D01*
X182680Y480325D01*
X182656Y480463D01*
X182621Y480599D01*
X182577Y480734D01*
X182523Y480868D01*
X182459Y481000D01*
X182385Y481132D01*
X182301Y481261D01*
X182208Y481390D01*
X183792D01*
X183699Y481261D01*
D02*
G37*
G36*
X286282Y492911D02*
X286532Y492075D01*
X258232Y463774D01*
X249300D01*
Y471100D01*
X248562D01*
X248148Y472100D01*
X260258Y484209D01*
X264994D01*
X267421Y481782D01*
Y481433D01*
X267414Y481366D01*
X267399Y481278D01*
X267376Y481190D01*
X267347Y481102D01*
X267311Y481012D01*
X267267Y480921D01*
X267214Y480828D01*
X267153Y480733D01*
X267071Y480620D01*
X267042Y480557D01*
X266840Y480254D01*
X266708Y479591D01*
X266840Y478927D01*
X267215Y478365D01*
X267778Y477989D01*
X268441Y477857D01*
X269104Y477989D01*
X269667Y478365D01*
X270042Y478927D01*
X270174Y479591D01*
X270042Y480254D01*
X269840Y480557D01*
X269811Y480620D01*
X269748Y480706D01*
X269840Y481030D01*
X269979Y481404D01*
X270099Y481627D01*
X270145Y481694D01*
X270409Y481794D01*
X271073Y481926D01*
X271635Y482302D01*
X272011Y482864D01*
X272143Y483528D01*
X272011Y484191D01*
X271635Y484753D01*
X271073Y485129D01*
X270715Y485200D01*
X270650Y485224D01*
X270512Y485246D01*
X270402Y485270D01*
X270299Y485298D01*
X270203Y485332D01*
X270114Y485370D01*
X270031Y485412D01*
X269953Y485458D01*
X269880Y485509D01*
X269828Y485551D01*
X267460Y487919D01*
X267129Y488140D01*
X266739Y488217D01*
X258138D01*
X257748Y488140D01*
X257689Y488100D01*
X257051Y488877D01*
X261249Y493075D01*
X286160D01*
X286282Y492911D01*
D02*
G37*
G36*
X214346Y478180D02*
X214877Y477833D01*
X215130Y477691D01*
X215375Y477572D01*
X215612Y477474D01*
X215840Y477398D01*
X216059Y477344D01*
X216271Y477311D01*
X216474Y477300D01*
Y476700D01*
X216271Y476689D01*
X216059Y476656D01*
X215840Y476602D01*
X215612Y476526D01*
X215375Y476428D01*
X215130Y476309D01*
X214877Y476167D01*
X214346Y475820D01*
X214068Y475613D01*
Y478387D01*
X214346Y478180D01*
D02*
G37*
G36*
X181699Y476261D02*
X181615Y476132D01*
X181541Y476000D01*
X181477Y475868D01*
X181423Y475734D01*
X181379Y475599D01*
X181344Y475463D01*
X181320Y475325D01*
X181305Y475186D01*
X181300Y475046D01*
X180700D01*
X180695Y475186D01*
X180680Y475325D01*
X180656Y475463D01*
X180621Y475599D01*
X180577Y475734D01*
X180523Y475868D01*
X180459Y476000D01*
X180385Y476132D01*
X180301Y476261D01*
X180208Y476390D01*
X181792D01*
X181699Y476261D01*
D02*
G37*
G36*
X214346Y473180D02*
X214877Y472832D01*
X215130Y472691D01*
X215375Y472572D01*
X215612Y472474D01*
X215840Y472398D01*
X216059Y472343D01*
X216271Y472311D01*
X216474Y472300D01*
Y471700D01*
X216271Y471689D01*
X216059Y471657D01*
X215840Y471602D01*
X215612Y471526D01*
X215375Y471428D01*
X215130Y471309D01*
X214877Y471168D01*
X214346Y470820D01*
X214068Y470613D01*
Y473387D01*
X214346Y473180D01*
D02*
G37*
G36*
X179699Y471261D02*
X179615Y471132D01*
X179541Y471000D01*
X179477Y470868D01*
X179423Y470734D01*
X179379Y470599D01*
X179344Y470463D01*
X179320Y470325D01*
X179305Y470186D01*
X179300Y470046D01*
X178700D01*
X178695Y470186D01*
X178680Y470325D01*
X178656Y470463D01*
X178621Y470599D01*
X178577Y470734D01*
X178523Y470868D01*
X178459Y471000D01*
X178385Y471132D01*
X178301Y471261D01*
X178208Y471390D01*
X179792D01*
X179699Y471261D01*
D02*
G37*
G36*
X214346Y468180D02*
X214877Y467833D01*
X215130Y467691D01*
X215375Y467572D01*
X215612Y467474D01*
X215840Y467398D01*
X216059Y467344D01*
X216271Y467311D01*
X216474Y467300D01*
Y466700D01*
X216271Y466689D01*
X216059Y466656D01*
X215840Y466602D01*
X215612Y466526D01*
X215375Y466428D01*
X215130Y466309D01*
X214877Y466167D01*
X214346Y465820D01*
X214068Y465613D01*
Y468387D01*
X214346Y468180D01*
D02*
G37*
G36*
X177699Y466261D02*
X177615Y466132D01*
X177541Y466000D01*
X177477Y465868D01*
X177423Y465734D01*
X177379Y465599D01*
X177344Y465463D01*
X177320Y465325D01*
X177305Y465186D01*
X177300Y465046D01*
X176700D01*
X176695Y465186D01*
X176680Y465325D01*
X176656Y465463D01*
X176621Y465599D01*
X176577Y465734D01*
X176523Y465868D01*
X176459Y466000D01*
X176385Y466132D01*
X176301Y466261D01*
X176208Y466390D01*
X177792D01*
X177699Y466261D01*
D02*
G37*
G36*
X214346Y463180D02*
X214877Y462832D01*
X215130Y462691D01*
X215375Y462572D01*
X215612Y462474D01*
X215840Y462398D01*
X216059Y462344D01*
X216271Y462311D01*
X216474Y462300D01*
Y461700D01*
X216271Y461689D01*
X216059Y461657D01*
X215840Y461602D01*
X215612Y461526D01*
X215375Y461428D01*
X215130Y461309D01*
X214877Y461167D01*
X214346Y460820D01*
X214068Y460613D01*
Y463387D01*
X214346Y463180D01*
D02*
G37*
G36*
X175699Y461261D02*
X175615Y461132D01*
X175541Y461000D01*
X175477Y460868D01*
X175423Y460734D01*
X175379Y460599D01*
X175344Y460463D01*
X175320Y460325D01*
X175305Y460186D01*
X175300Y460046D01*
X174700D01*
X174695Y460186D01*
X174680Y460325D01*
X174656Y460463D01*
X174621Y460599D01*
X174577Y460734D01*
X174523Y460868D01*
X174459Y461000D01*
X174385Y461132D01*
X174301Y461261D01*
X174208Y461390D01*
X175792D01*
X175699Y461261D01*
D02*
G37*
G36*
X214463Y440368D02*
X214727Y440196D01*
X214991Y440045D01*
X215256Y439914D01*
X215521Y439803D01*
X215787Y439712D01*
X216054Y439641D01*
X216322Y439590D01*
X216590Y439560D01*
X216859Y439550D01*
Y438450D01*
X216590Y438440D01*
X216322Y438410D01*
X216054Y438359D01*
X215787Y438288D01*
X215521Y438198D01*
X215256Y438087D01*
X214991Y437955D01*
X214727Y437804D01*
X214463Y437632D01*
X214201Y437440D01*
Y440560D01*
X214463Y440368D01*
D02*
G37*
G36*
X199699Y438261D02*
X199615Y438132D01*
X199541Y438000D01*
X199477Y437868D01*
X199423Y437734D01*
X199379Y437599D01*
X199344Y437463D01*
X199320Y437325D01*
X199305Y437186D01*
X199300Y437046D01*
X198700D01*
X198695Y437186D01*
X198680Y437325D01*
X198656Y437463D01*
X198621Y437599D01*
X198577Y437734D01*
X198523Y437868D01*
X198459Y438000D01*
X198385Y438132D01*
X198301Y438261D01*
X198208Y438390D01*
X199792D01*
X199699Y438261D01*
D02*
G37*
G36*
X197305Y435814D02*
X197320Y435675D01*
X197344Y435537D01*
X197379Y435401D01*
X197423Y435266D01*
X197477Y435132D01*
X197541Y435000D01*
X197615Y434868D01*
X197699Y434739D01*
X197792Y434610D01*
X196208D01*
X196301Y434739D01*
X196385Y434868D01*
X196459Y435000D01*
X196523Y435132D01*
X196577Y435266D01*
X196621Y435401D01*
X196656Y435537D01*
X196680Y435675D01*
X196695Y435814D01*
X196700Y435954D01*
X197300D01*
X197305Y435814D01*
D02*
G37*
G36*
X195305Y430814D02*
X195320Y430675D01*
X195344Y430537D01*
X195379Y430401D01*
X195423Y430266D01*
X195477Y430132D01*
X195541Y430000D01*
X195615Y429868D01*
X195699Y429739D01*
X195792Y429610D01*
X194208D01*
X194301Y429739D01*
X194385Y429868D01*
X194459Y430000D01*
X194523Y430132D01*
X194577Y430266D01*
X194621Y430401D01*
X194656Y430537D01*
X194680Y430675D01*
X194695Y430814D01*
X194700Y430954D01*
X195300D01*
X195305Y430814D01*
D02*
G37*
G36*
X193305Y425814D02*
X193320Y425675D01*
X193344Y425537D01*
X193379Y425401D01*
X193423Y425266D01*
X193477Y425132D01*
X193541Y425000D01*
X193615Y424868D01*
X193699Y424739D01*
X193792Y424610D01*
X192208D01*
X192301Y424739D01*
X192385Y424868D01*
X192459Y425000D01*
X192523Y425132D01*
X192577Y425266D01*
X192621Y425401D01*
X192656Y425537D01*
X192680Y425675D01*
X192695Y425814D01*
X192700Y425954D01*
X193300D01*
X193305Y425814D01*
D02*
G37*
G36*
X191305Y420814D02*
X191320Y420675D01*
X191344Y420537D01*
X191379Y420401D01*
X191423Y420266D01*
X191477Y420132D01*
X191541Y420000D01*
X191615Y419868D01*
X191699Y419739D01*
X191792Y419610D01*
X190208D01*
X190301Y419739D01*
X190385Y419868D01*
X190459Y420000D01*
X190523Y420132D01*
X190577Y420266D01*
X190621Y420401D01*
X190656Y420537D01*
X190680Y420675D01*
X190695Y420814D01*
X190700Y420954D01*
X191300D01*
X191305Y420814D01*
D02*
G37*
G36*
X189305Y415814D02*
X189320Y415675D01*
X189344Y415537D01*
X189379Y415401D01*
X189423Y415266D01*
X189477Y415132D01*
X189541Y415000D01*
X189615Y414868D01*
X189699Y414739D01*
X189792Y414610D01*
X188208D01*
X188301Y414739D01*
X188385Y414868D01*
X188459Y415000D01*
X188523Y415132D01*
X188577Y415266D01*
X188621Y415401D01*
X188656Y415537D01*
X188680Y415675D01*
X188695Y415814D01*
X188700Y415954D01*
X189300D01*
X189305Y415814D01*
D02*
G37*
G36*
X187305Y410814D02*
X187320Y410675D01*
X187344Y410537D01*
X187379Y410401D01*
X187423Y410266D01*
X187477Y410132D01*
X187541Y410000D01*
X187615Y409868D01*
X187699Y409739D01*
X187792Y409610D01*
X186208D01*
X186301Y409739D01*
X186385Y409868D01*
X186459Y410000D01*
X186523Y410132D01*
X186577Y410266D01*
X186621Y410401D01*
X186656Y410537D01*
X186680Y410675D01*
X186695Y410814D01*
X186700Y410954D01*
X187300D01*
X187305Y410814D01*
D02*
G37*
G36*
X211933Y405498D02*
X212042Y405410D01*
X212157Y405330D01*
X212277Y405258D01*
X212404Y405194D01*
X212537Y405138D01*
X212676Y405090D01*
X212821Y405049D01*
X212972Y405016D01*
X213129Y404992D01*
X212008Y403871D01*
X211984Y404028D01*
X211951Y404179D01*
X211910Y404324D01*
X211862Y404463D01*
X211806Y404596D01*
X211742Y404723D01*
X211670Y404844D01*
X211590Y404958D01*
X211502Y405067D01*
X211406Y405169D01*
X211830Y405594D01*
X211933Y405498D01*
D02*
G37*
G36*
X214594Y400170D02*
X214498Y400067D01*
X214410Y399958D01*
X214330Y399844D01*
X214258Y399723D01*
X214194Y399596D01*
X214138Y399463D01*
X214090Y399324D01*
X214049Y399179D01*
X214016Y399028D01*
X213992Y398871D01*
X212871Y399992D01*
X213028Y400016D01*
X213179Y400049D01*
X213324Y400090D01*
X213463Y400138D01*
X213596Y400194D01*
X213723Y400258D01*
X213843Y400330D01*
X213958Y400410D01*
X214067Y400498D01*
X214170Y400594D01*
X214594Y400170D01*
D02*
G37*
G36*
X199305Y387814D02*
X199320Y387675D01*
X199344Y387537D01*
X199379Y387401D01*
X199423Y387266D01*
X199477Y387132D01*
X199541Y387000D01*
X199615Y386868D01*
X199699Y386739D01*
X199792Y386610D01*
X198208D01*
X198301Y386739D01*
X198385Y386868D01*
X198459Y387000D01*
X198523Y387132D01*
X198577Y387266D01*
X198621Y387401D01*
X198656Y387537D01*
X198680Y387675D01*
X198695Y387814D01*
X198700Y387954D01*
X199300D01*
X199305Y387814D01*
D02*
G37*
G36*
X185305Y382814D02*
X185320Y382675D01*
X185344Y382537D01*
X185379Y382401D01*
X185423Y382266D01*
X185477Y382132D01*
X185541Y382000D01*
X185615Y381868D01*
X185699Y381739D01*
X185792Y381610D01*
X184208D01*
X184301Y381739D01*
X184385Y381868D01*
X184459Y382000D01*
X184523Y382132D01*
X184577Y382266D01*
X184621Y382401D01*
X184656Y382537D01*
X184680Y382675D01*
X184695Y382814D01*
X184700Y382954D01*
X185300D01*
X185305Y382814D01*
D02*
G37*
G36*
X183305Y377814D02*
X183320Y377675D01*
X183344Y377537D01*
X183379Y377401D01*
X183423Y377266D01*
X183477Y377132D01*
X183541Y377000D01*
X183615Y376868D01*
X183699Y376739D01*
X183792Y376610D01*
X182208D01*
X182301Y376739D01*
X182385Y376868D01*
X182459Y377000D01*
X182523Y377132D01*
X182577Y377266D01*
X182621Y377401D01*
X182656Y377537D01*
X182680Y377675D01*
X182695Y377814D01*
X182700Y377954D01*
X183300D01*
X183305Y377814D01*
D02*
G37*
G36*
X181305Y372814D02*
X181320Y372675D01*
X181344Y372537D01*
X181379Y372401D01*
X181423Y372266D01*
X181477Y372132D01*
X181541Y372000D01*
X181615Y371868D01*
X181699Y371739D01*
X181792Y371610D01*
X180208D01*
X180301Y371739D01*
X180385Y371868D01*
X180459Y372000D01*
X180523Y372132D01*
X180577Y372266D01*
X180621Y372401D01*
X180656Y372537D01*
X180680Y372675D01*
X180695Y372814D01*
X180700Y372954D01*
X181300D01*
X181305Y372814D01*
D02*
G37*
G36*
X179305Y367814D02*
X179320Y367675D01*
X179344Y367537D01*
X179379Y367401D01*
X179423Y367266D01*
X179477Y367132D01*
X179541Y367000D01*
X179615Y366868D01*
X179699Y366739D01*
X179792Y366610D01*
X178208D01*
X178301Y366739D01*
X178385Y366868D01*
X178459Y367000D01*
X178523Y367132D01*
X178577Y367266D01*
X178621Y367401D01*
X178656Y367537D01*
X178680Y367675D01*
X178695Y367814D01*
X178700Y367954D01*
X179300D01*
X179305Y367814D01*
D02*
G37*
G36*
X177305Y362814D02*
X177320Y362675D01*
X177344Y362537D01*
X177379Y362401D01*
X177423Y362266D01*
X177477Y362132D01*
X177541Y362000D01*
X177615Y361868D01*
X177699Y361739D01*
X177792Y361610D01*
X176208D01*
X176301Y361739D01*
X176385Y361868D01*
X176459Y362000D01*
X176523Y362132D01*
X176577Y362266D01*
X176621Y362401D01*
X176656Y362537D01*
X176680Y362675D01*
X176695Y362814D01*
X176700Y362954D01*
X177300D01*
X177305Y362814D01*
D02*
G37*
G36*
X175305Y357814D02*
X175320Y357675D01*
X175344Y357537D01*
X175379Y357401D01*
X175423Y357266D01*
X175477Y357132D01*
X175541Y357000D01*
X175615Y356868D01*
X175699Y356739D01*
X175792Y356610D01*
X174208D01*
X174301Y356739D01*
X174385Y356868D01*
X174459Y357000D01*
X174523Y357132D01*
X174577Y357266D01*
X174621Y357401D01*
X174656Y357537D01*
X174680Y357675D01*
X174695Y357814D01*
X174700Y357954D01*
X175300D01*
X175305Y357814D01*
D02*
G37*
G36*
X196322Y356804D02*
X200126Y353000D01*
X316268Y353000D01*
X320338Y348930D01*
X320338Y337119D01*
X316219Y333000D01*
X127795Y333000D01*
X122795Y338000D01*
Y350500D01*
X125295Y353000D01*
X183660Y353000D01*
X187464Y356804D01*
Y405500D01*
X196322D01*
Y356804D01*
D02*
G37*
G36*
X427823Y353860D02*
X427931Y353772D01*
X428046Y353693D01*
X428167Y353621D01*
X428294Y353556D01*
X428427Y353500D01*
X428566Y353452D01*
X428711Y353411D01*
X428862Y353379D01*
X429019Y353354D01*
X427898Y352233D01*
X427873Y352390D01*
X427841Y352541D01*
X427800Y352686D01*
X427752Y352825D01*
X427696Y352958D01*
X427631Y353085D01*
X427559Y353206D01*
X427479Y353320D01*
X427392Y353429D01*
X427296Y353532D01*
X427720Y353956D01*
X427823Y353860D01*
D02*
G37*
G36*
X430483Y349595D02*
X430388Y349492D01*
X430300Y349383D01*
X430220Y349269D01*
X430148Y349148D01*
X430084Y349021D01*
X430028Y348888D01*
X429979Y348749D01*
X429939Y348604D01*
X429906Y348453D01*
X429881Y348296D01*
X428761Y349417D01*
X428918Y349442D01*
X429069Y349474D01*
X429214Y349515D01*
X429353Y349563D01*
X429486Y349619D01*
X429612Y349684D01*
X429733Y349756D01*
X429848Y349835D01*
X429957Y349923D01*
X430059Y350019D01*
X430483Y349595D01*
D02*
G37*
G36*
X401034Y341250D02*
X401164Y341166D01*
X401295Y341092D01*
X401428Y341028D01*
X401561Y340974D01*
X401696Y340930D01*
X401833Y340896D01*
X401970Y340871D01*
X402109Y340856D01*
X402249Y340851D01*
Y340251D01*
X402109Y340246D01*
X401970Y340231D01*
X401833Y340207D01*
X401696Y340172D01*
X401561Y340128D01*
X401428Y340074D01*
X401295Y340010D01*
X401164Y339936D01*
X401034Y339852D01*
X400906Y339759D01*
Y341344D01*
X401034Y341250D01*
D02*
G37*
%LPC*%
G36*
X439479Y604480D02*
X410521D01*
Y575521D01*
X439479D01*
Y604480D01*
D02*
G37*
G36*
X137795Y600498D02*
X137271Y600394D01*
X136811D01*
Y600289D01*
X136029Y599766D01*
X135487Y598956D01*
X135297Y598000D01*
X135487Y597044D01*
X135806Y596568D01*
X135830Y596515D01*
X135968Y596323D01*
X136079Y596147D01*
X136176Y595969D01*
X136259Y595787D01*
X136330Y595602D01*
X136388Y595413D01*
X136432Y595219D01*
X136465Y595020D01*
X136479Y594863D01*
Y590840D01*
X119912Y574273D01*
X119135Y574910D01*
X119376Y575271D01*
X119566Y576227D01*
X119376Y577183D01*
X118835Y577993D01*
X118024Y578535D01*
X117068Y578725D01*
X116112Y578535D01*
X115653Y578228D01*
X115608Y578210D01*
X115534Y578161D01*
X115473Y578131D01*
X115378Y578095D01*
X115250Y578059D01*
X115091Y578026D01*
X114916Y577998D01*
X114386Y577960D01*
X101947D01*
X101947Y577960D01*
X101284Y577828D01*
X100721Y577453D01*
X78843Y555575D01*
X78527Y555336D01*
X78176Y555118D01*
X77793Y554922D01*
X77375Y554749D01*
X76922Y554600D01*
X76444Y554477D01*
X75340Y554298D01*
X75046Y554274D01*
X75000Y554280D01*
X74805Y554254D01*
X74738Y554249D01*
X74716Y554243D01*
X73892Y554134D01*
X72860Y553707D01*
X71974Y553026D01*
X71293Y552140D01*
X70866Y551108D01*
X70720Y550000D01*
X70866Y548892D01*
X71293Y547860D01*
X71974Y546974D01*
X72860Y546293D01*
X73892Y545866D01*
X75000Y545720D01*
X76108Y545866D01*
X77140Y546293D01*
X78026Y546974D01*
X78707Y547860D01*
X79000Y548568D01*
X80000Y548370D01*
Y547377D01*
X79934Y547216D01*
X79741Y546828D01*
X79537Y546488D01*
X79324Y546195D01*
X79230Y546091D01*
X79070Y545930D01*
X78784Y545504D01*
X78684Y545000D01*
Y505000D01*
X78784Y504496D01*
X79070Y504070D01*
X79230Y503909D01*
X79324Y503805D01*
X79537Y503512D01*
X79741Y503172D01*
X79934Y502784D01*
X80113Y502348D01*
X80278Y501864D01*
X80426Y501339D01*
X80680Y500116D01*
X80780Y499438D01*
X80802Y499377D01*
X80866Y498892D01*
X81064Y498414D01*
X81060Y497414D01*
X81060D01*
X81211Y491941D01*
X80866Y491108D01*
X80720Y490000D01*
X80866Y488892D01*
X81293Y487860D01*
X81324Y487820D01*
X81381Y485775D01*
X84585D01*
X85000Y485720D01*
X85415Y485775D01*
X94585D01*
X95000Y485720D01*
X95415Y485775D01*
X104585D01*
X105000Y485720D01*
X105415Y485775D01*
X108940D01*
Y488423D01*
X109134Y488892D01*
X109198Y489377D01*
X109220Y489437D01*
X109320Y490116D01*
X109574Y491339D01*
X109722Y491864D01*
X109887Y492348D01*
X110066Y492784D01*
X110259Y493172D01*
X110463Y493512D01*
X110676Y493805D01*
X110770Y493909D01*
X110930Y494070D01*
X111216Y494496D01*
X111316Y495000D01*
Y496265D01*
X112316Y496711D01*
X112860Y496293D01*
X113892Y495866D01*
X115000Y495720D01*
X116108Y495866D01*
X117140Y496293D01*
X118026Y496974D01*
X118707Y497860D01*
X119134Y498892D01*
X119280Y500000D01*
X119134Y501108D01*
X118707Y502140D01*
X118026Y503026D01*
X117140Y503707D01*
X116108Y504134D01*
X115000Y504280D01*
X113892Y504134D01*
X112860Y503707D01*
X112316Y503289D01*
X111316Y503735D01*
Y525000D01*
X111216Y525503D01*
X110930Y525930D01*
X106316Y530545D01*
Y533156D01*
X106323Y533296D01*
X106379Y533655D01*
X106476Y534039D01*
X106614Y534449D01*
X106795Y534885D01*
X107021Y535344D01*
X107287Y535819D01*
X107972Y536863D01*
X108381Y537413D01*
X108408Y537471D01*
X108706Y537860D01*
X109134Y538892D01*
X109198Y539377D01*
X109220Y539437D01*
X109320Y540116D01*
X109574Y541339D01*
X109722Y541864D01*
X109887Y542348D01*
X110066Y542784D01*
X110259Y543172D01*
X110463Y543512D01*
X110676Y543805D01*
X110770Y543909D01*
X110930Y544070D01*
X111216Y544496D01*
X111316Y545000D01*
Y546265D01*
X112316Y546711D01*
X112860Y546293D01*
X113892Y545866D01*
X115000Y545720D01*
X116108Y545866D01*
X117140Y546293D01*
X118026Y546974D01*
X118707Y547860D01*
X119134Y548892D01*
X119280Y550000D01*
X119134Y551108D01*
X118707Y552140D01*
X118026Y553026D01*
X117140Y553707D01*
X116108Y554134D01*
X115000Y554280D01*
X113892Y554134D01*
X112860Y553707D01*
X112316Y553289D01*
X111316Y553735D01*
Y556955D01*
X142944Y588583D01*
X145669D01*
Y590562D01*
X145737Y590577D01*
X145797Y590602D01*
X146251Y590692D01*
X147062Y591234D01*
X147603Y592044D01*
X147793Y593000D01*
X147603Y593956D01*
X147062Y594766D01*
X146251Y595308D01*
X145669Y595424D01*
Y600394D01*
X138320D01*
X137795Y600498D01*
D02*
G37*
G36*
X350394Y601138D02*
X348122Y600960D01*
X345905Y600428D01*
X343800Y599555D01*
X341857Y598365D01*
X340124Y596884D01*
X338643Y595151D01*
X337452Y593208D01*
X336580Y591102D01*
X336048Y588886D01*
X335869Y586614D01*
X336048Y584342D01*
X336580Y582126D01*
X337452Y580020D01*
X338643Y578077D01*
X340124Y576344D01*
X341857Y574864D01*
X343800Y573673D01*
X345905Y572801D01*
X348122Y572269D01*
X350394Y572090D01*
X352666Y572269D01*
X354882Y572801D01*
X356988Y573673D01*
X358931Y574864D01*
X360664Y576344D01*
X362144Y578077D01*
X363335Y580020D01*
X364207Y582126D01*
X364739Y584342D01*
X364918Y586614D01*
X364739Y588886D01*
X364207Y591102D01*
X363335Y593208D01*
X362144Y595151D01*
X360664Y596884D01*
X358931Y598365D01*
X356988Y599555D01*
X354882Y600428D01*
X352666Y600960D01*
X350394Y601138D01*
D02*
G37*
G36*
X86614D02*
X84342Y600960D01*
X82126Y600428D01*
X80020Y599555D01*
X78077Y598365D01*
X76344Y596884D01*
X74864Y595151D01*
X73673Y593208D01*
X72801Y591102D01*
X72269Y588886D01*
X72090Y586614D01*
X72269Y584342D01*
X72801Y582126D01*
X73673Y580020D01*
X74864Y578077D01*
X76344Y576344D01*
X78077Y574864D01*
X80020Y573673D01*
X82126Y572801D01*
X84342Y572269D01*
X86614Y572090D01*
X88886Y572269D01*
X91102Y572801D01*
X93208Y573673D01*
X95151Y574864D01*
X96884Y576344D01*
X98365Y578077D01*
X99555Y580020D01*
X100428Y582126D01*
X100960Y584342D01*
X101138Y586614D01*
X100960Y588886D01*
X100428Y591102D01*
X99555Y593208D01*
X98365Y595151D01*
X96884Y596884D01*
X95151Y598365D01*
X93208Y599555D01*
X91102Y600428D01*
X88886Y600960D01*
X86614Y601138D01*
D02*
G37*
G36*
X255354Y576733D02*
X254691Y576601D01*
X254129Y576226D01*
X253753Y575663D01*
X253621Y575000D01*
X253753Y574337D01*
X254129Y573774D01*
X254691Y573399D01*
X255354Y573267D01*
X256018Y573399D01*
X256321Y573601D01*
X256384Y573631D01*
X256497Y573712D01*
X256592Y573773D01*
X256685Y573826D01*
X256776Y573870D01*
X256866Y573906D01*
X256954Y573935D01*
X257042Y573957D01*
X257130Y573973D01*
X257197Y573980D01*
X271432D01*
X278420Y566992D01*
X277979Y566020D01*
X275697D01*
X275630Y566027D01*
X275542Y566043D01*
X275454Y566065D01*
X275366Y566094D01*
X275276Y566130D01*
X275185Y566174D01*
X275092Y566226D01*
X274996Y566288D01*
X274884Y566369D01*
X274821Y566399D01*
X274518Y566601D01*
X273854Y566733D01*
X273191Y566601D01*
X272629Y566226D01*
X272253Y565663D01*
X272121Y565000D01*
X272227Y564468D01*
X271636Y563597D01*
X270796Y563519D01*
X263595Y570721D01*
X263264Y570942D01*
X262874Y571020D01*
X257197D01*
X257130Y571027D01*
X257042Y571042D01*
X256954Y571065D01*
X256866Y571094D01*
X256776Y571130D01*
X256685Y571174D01*
X256592Y571227D01*
X256497Y571288D01*
X256384Y571370D01*
X256321Y571399D01*
X256018Y571601D01*
X255354Y571733D01*
X254691Y571601D01*
X254129Y571226D01*
X253753Y570663D01*
X253621Y570000D01*
X253753Y569337D01*
X254129Y568774D01*
X254691Y568399D01*
X255354Y568267D01*
X256018Y568399D01*
X256321Y568601D01*
X256384Y568631D01*
X256497Y568712D01*
X256592Y568773D01*
X256685Y568826D01*
X256776Y568870D01*
X256866Y568906D01*
X256954Y568935D01*
X257042Y568958D01*
X257130Y568973D01*
X257197Y568980D01*
X262452D01*
X264451Y566981D01*
X264450Y566971D01*
X263998Y566020D01*
X257197D01*
X257130Y566027D01*
X257042Y566043D01*
X256954Y566065D01*
X256866Y566094D01*
X256776Y566130D01*
X256685Y566174D01*
X256592Y566226D01*
X256497Y566288D01*
X256384Y566369D01*
X256321Y566399D01*
X256018Y566601D01*
X255354Y566733D01*
X254691Y566601D01*
X254129Y566226D01*
X253753Y565663D01*
X253621Y565000D01*
X253753Y564337D01*
X254129Y563774D01*
X254691Y563399D01*
X255354Y563267D01*
X256018Y563399D01*
X256321Y563601D01*
X256384Y563630D01*
X256497Y563712D01*
X256592Y563773D01*
X256685Y563826D01*
X256776Y563870D01*
X256866Y563906D01*
X256954Y563935D01*
X257042Y563958D01*
X257130Y563973D01*
X257197Y563980D01*
X257354D01*
X258121Y563000D01*
X258253Y562337D01*
X258629Y561774D01*
X259191Y561399D01*
X259854Y561267D01*
X260518Y561399D01*
X261080Y561774D01*
X261133Y561780D01*
X273327Y549585D01*
Y531386D01*
X273320Y531319D01*
X273304Y531231D01*
X273282Y531143D01*
X273253Y531054D01*
X273217Y530965D01*
X273172Y530873D01*
X273120Y530781D01*
X273059Y530686D01*
X272977Y530573D01*
X272948Y530510D01*
X272745Y530207D01*
X272613Y529543D01*
X272745Y528880D01*
X273121Y528318D01*
X273683Y527942D01*
X273937Y527891D01*
X274447Y527473D01*
X274633Y526847D01*
X274582Y526590D01*
X274714Y525927D01*
X275089Y525365D01*
X275652Y524989D01*
X276315Y524857D01*
X276978Y524989D01*
X281557D01*
X282221Y524857D01*
X282884Y524989D01*
X285494Y524989D01*
X286157Y524857D01*
X286821Y524989D01*
X293726D01*
X293726Y527985D01*
X294101Y528547D01*
X294233Y529210D01*
X294101Y529874D01*
X293726Y530436D01*
X293163Y530812D01*
X292500Y530943D01*
X291837Y530812D01*
X291274Y530436D01*
X291258Y530411D01*
X289590Y530411D01*
X289525Y530510D01*
X289495Y530573D01*
X289414Y530686D01*
X289353Y530781D01*
X289300Y530874D01*
X289256Y530965D01*
X289220Y531054D01*
X289191Y531143D01*
X289168Y531231D01*
X289153Y531319D01*
X289146Y531386D01*
Y558728D01*
X289068Y559119D01*
X288847Y559449D01*
X272575Y575721D01*
X272245Y575942D01*
X271854Y576020D01*
X257197D01*
X257130Y576027D01*
X257042Y576043D01*
X256954Y576065D01*
X256866Y576094D01*
X256776Y576130D01*
X256685Y576174D01*
X256592Y576227D01*
X256497Y576288D01*
X256384Y576369D01*
X256321Y576399D01*
X256018Y576601D01*
X255354Y576733D01*
D02*
G37*
G36*
X214795Y555728D02*
X213960Y555618D01*
X213181Y555295D01*
X212513Y554782D01*
X212000Y554114D01*
X211678Y553335D01*
X211568Y552500D01*
X211678Y551665D01*
X212000Y550886D01*
X212513Y550218D01*
X213181Y549705D01*
X213960Y549382D01*
X214795Y549272D01*
X215631Y549382D01*
X216409Y549705D01*
X217077Y550218D01*
X217590Y550886D01*
X217913Y551665D01*
X218023Y552500D01*
X217913Y553335D01*
X217590Y554114D01*
X217077Y554782D01*
X216409Y555295D01*
X215631Y555618D01*
X214795Y555728D01*
D02*
G37*
G36*
X145000Y554280D02*
X143892Y554134D01*
X142860Y553707D01*
X141974Y553026D01*
X141294Y552140D01*
X140866Y551108D01*
X140720Y550000D01*
X140866Y548892D01*
X141294Y547860D01*
X141974Y546974D01*
X142860Y546293D01*
X143892Y545866D01*
X145000Y545720D01*
X146108Y545866D01*
X147140Y546293D01*
X148026Y546974D01*
X148706Y547860D01*
X149134Y548892D01*
X149280Y550000D01*
X149134Y551108D01*
X148706Y552140D01*
X148026Y553026D01*
X147140Y553707D01*
X146108Y554134D01*
X145000Y554280D01*
D02*
G37*
G36*
X135000D02*
X133892Y554134D01*
X132860Y553707D01*
X131974Y553026D01*
X131293Y552140D01*
X130866Y551108D01*
X130720Y550000D01*
X130866Y548892D01*
X131293Y547860D01*
X131974Y546974D01*
X132860Y546293D01*
X133892Y545866D01*
X135000Y545720D01*
X136108Y545866D01*
X137140Y546293D01*
X138026Y546974D01*
X138707Y547860D01*
X139134Y548892D01*
X139280Y550000D01*
X139134Y551108D01*
X138707Y552140D01*
X138026Y553026D01*
X137140Y553707D01*
X136108Y554134D01*
X135000Y554280D01*
D02*
G37*
G36*
X125000D02*
X123892Y554134D01*
X122860Y553707D01*
X121974Y553026D01*
X121293Y552140D01*
X120866Y551108D01*
X120720Y550000D01*
X120866Y548892D01*
X121293Y547860D01*
X121974Y546974D01*
X122860Y546293D01*
X123892Y545866D01*
X125000Y545720D01*
X126108Y545866D01*
X127140Y546293D01*
X128026Y546974D01*
X128707Y547860D01*
X129134Y548892D01*
X129280Y550000D01*
X129134Y551108D01*
X128707Y552140D01*
X128026Y553026D01*
X127140Y553707D01*
X126108Y554134D01*
X125000Y554280D01*
D02*
G37*
G36*
X145000Y544280D02*
X143892Y544134D01*
X142860Y543707D01*
X141974Y543026D01*
X141294Y542140D01*
X140866Y541108D01*
X140720Y540000D01*
X140866Y538892D01*
X141294Y537860D01*
X141974Y536974D01*
X142860Y536294D01*
X143892Y535866D01*
X145000Y535720D01*
X146108Y535866D01*
X147140Y536294D01*
X148026Y536974D01*
X148706Y537860D01*
X149134Y538892D01*
X149280Y540000D01*
X149134Y541108D01*
X148706Y542140D01*
X148026Y543026D01*
X147140Y543707D01*
X146108Y544134D01*
X145000Y544280D01*
D02*
G37*
G36*
X125000D02*
X123892Y544134D01*
X122860Y543707D01*
X121974Y543026D01*
X121293Y542140D01*
X120866Y541108D01*
X120720Y540000D01*
X120866Y538892D01*
X121293Y537860D01*
X121974Y536974D01*
X122860Y536294D01*
X123892Y535866D01*
X125000Y535720D01*
X126108Y535866D01*
X127140Y536294D01*
X128026Y536974D01*
X128707Y537860D01*
X129134Y538892D01*
X129280Y540000D01*
X129134Y541108D01*
X128707Y542140D01*
X128026Y543026D01*
X127140Y543707D01*
X126108Y544134D01*
X125000Y544280D01*
D02*
G37*
G36*
X255090Y531798D02*
X254134Y531608D01*
X253323Y531066D01*
X252782Y530256D01*
X252592Y529300D01*
X252782Y528344D01*
X253323Y527534D01*
X254134Y526992D01*
X255090Y526802D01*
X256046Y526992D01*
X256856Y527534D01*
X257398Y528344D01*
X257588Y529300D01*
X257398Y530256D01*
X256856Y531066D01*
X256046Y531608D01*
X255090Y531798D01*
D02*
G37*
G36*
X334854Y522691D02*
X334158Y522600D01*
X333509Y522331D01*
X332951Y521903D01*
X332523Y521346D01*
X332255Y520697D01*
X332163Y520000D01*
X332255Y519303D01*
X332523Y518654D01*
X332951Y518097D01*
X333509Y517669D01*
X334158Y517400D01*
X334854Y517309D01*
X335551Y517400D01*
X336200Y517669D01*
X336757Y518097D01*
X337185Y518654D01*
X337454Y519303D01*
X337546Y520000D01*
X337454Y520697D01*
X337185Y521346D01*
X336757Y521903D01*
X336200Y522331D01*
X335551Y522600D01*
X334854Y522691D01*
D02*
G37*
G36*
X306558Y525131D02*
X305797Y524979D01*
X305152Y524548D01*
X304721Y523903D01*
X304570Y523142D01*
X304721Y522382D01*
X305152Y521737D01*
Y520611D01*
X304721Y519966D01*
X304570Y519206D01*
X304721Y518445D01*
X305152Y517800D01*
X305797Y517369D01*
X306558Y517217D01*
X307319Y517369D01*
X307964Y517800D01*
X308395Y518445D01*
X308546Y519206D01*
X308395Y519966D01*
X307964Y520611D01*
Y521737D01*
X308395Y522382D01*
X308546Y523142D01*
X308395Y523903D01*
X307964Y524548D01*
X307319Y524979D01*
X306558Y525131D01*
D02*
G37*
G36*
X318369Y516272D02*
X317608Y516121D01*
X316963Y515690D01*
X315838D01*
X315193Y516121D01*
X314432Y516272D01*
X313671Y516121D01*
X313026Y515690D01*
X311901D01*
X311256Y516121D01*
X310495Y516272D01*
X309734Y516121D01*
X309089Y515690D01*
X308658Y515045D01*
X308507Y514284D01*
X308658Y513523D01*
X309089Y512878D01*
X309524Y512588D01*
X309756Y512235D01*
X309842Y511406D01*
X309643Y511108D01*
X309491Y510347D01*
X309643Y509586D01*
X310074Y508941D01*
X310719Y508510D01*
X311479Y508359D01*
X312240Y508510D01*
X312885Y508941D01*
X313316Y509586D01*
X313468Y510347D01*
X313316Y511108D01*
X312885Y511753D01*
X312874Y511761D01*
X312934Y512025D01*
X313671Y512447D01*
X314432Y512296D01*
X315193Y512447D01*
X315838Y512878D01*
X316963D01*
X317608Y512447D01*
X318369Y512296D01*
X319130Y512447D01*
X319775Y512878D01*
X320206Y513523D01*
X320357Y514284D01*
X320206Y515045D01*
X319775Y515690D01*
X319130Y516121D01*
X318369Y516272D01*
D02*
G37*
G36*
X145000Y504280D02*
X143892Y504134D01*
X142860Y503707D01*
X141974Y503026D01*
X141294Y502140D01*
X140866Y501108D01*
X140720Y500000D01*
X140866Y498892D01*
X141294Y497860D01*
X141974Y496974D01*
X142860Y496293D01*
X143892Y495866D01*
X145000Y495720D01*
X146108Y495866D01*
X147140Y496293D01*
X148026Y496974D01*
X148706Y497860D01*
X149134Y498892D01*
X149280Y500000D01*
X149134Y501108D01*
X148706Y502140D01*
X148026Y503026D01*
X147140Y503707D01*
X146108Y504134D01*
X145000Y504280D01*
D02*
G37*
G36*
X135000D02*
X133892Y504134D01*
X132860Y503707D01*
X131974Y503026D01*
X131293Y502140D01*
X130866Y501108D01*
X130720Y500000D01*
X130866Y498892D01*
X131293Y497860D01*
X131974Y496974D01*
X132860Y496293D01*
X133892Y495866D01*
X135000Y495720D01*
X136108Y495866D01*
X137140Y496293D01*
X138026Y496974D01*
X138707Y497860D01*
X139134Y498892D01*
X139280Y500000D01*
X139134Y501108D01*
X138707Y502140D01*
X138026Y503026D01*
X137140Y503707D01*
X136108Y504134D01*
X135000Y504280D01*
D02*
G37*
G36*
X125000D02*
X123892Y504134D01*
X122860Y503707D01*
X121974Y503026D01*
X121293Y502140D01*
X120866Y501108D01*
X120720Y500000D01*
X120866Y498892D01*
X121293Y497860D01*
X121974Y496974D01*
X122860Y496293D01*
X123892Y495866D01*
X125000Y495720D01*
X126108Y495866D01*
X127140Y496293D01*
X128026Y496974D01*
X128707Y497860D01*
X129134Y498892D01*
X129280Y500000D01*
X129134Y501108D01*
X128707Y502140D01*
X128026Y503026D01*
X127140Y503707D01*
X126108Y504134D01*
X125000Y504280D01*
D02*
G37*
G36*
X75000D02*
X73892Y504134D01*
X72860Y503707D01*
X71974Y503026D01*
X71293Y502140D01*
X70866Y501108D01*
X70720Y500000D01*
X70866Y498892D01*
X71293Y497860D01*
X71974Y496974D01*
X72860Y496293D01*
X73892Y495866D01*
X75000Y495720D01*
X76108Y495866D01*
X77140Y496293D01*
X78026Y496974D01*
X78707Y497860D01*
X79134Y498892D01*
X79280Y500000D01*
X79134Y501108D01*
X78707Y502140D01*
X78026Y503026D01*
X77140Y503707D01*
X76108Y504134D01*
X75000Y504280D01*
D02*
G37*
G36*
X319600Y502290D02*
X318569Y502155D01*
X317608Y501757D01*
X316783Y501124D01*
X316150Y500298D01*
X315752Y499337D01*
X315616Y498306D01*
X315752Y497275D01*
X316150Y496314D01*
X316783Y495489D01*
X317608Y494856D01*
X318569Y494458D01*
X319600Y494322D01*
X320631Y494458D01*
X321592Y494856D01*
X322417Y495489D01*
X323050Y496314D01*
X323448Y497275D01*
X323584Y498306D01*
X323448Y499337D01*
X323050Y500298D01*
X322417Y501124D01*
X321592Y501757D01*
X320631Y502155D01*
X319600Y502290D01*
D02*
G37*
G36*
X383900Y497184D02*
X382869Y497048D01*
X381908Y496650D01*
X381083Y496017D01*
X380450Y495192D01*
X380052Y494231D01*
X379916Y493200D01*
X380052Y492169D01*
X380450Y491208D01*
X381083Y490383D01*
X381908Y489750D01*
X382869Y489352D01*
X383900Y489216D01*
X384931Y489352D01*
X385892Y489750D01*
X386717Y490383D01*
X387350Y491208D01*
X387748Y492169D01*
X387884Y493200D01*
X387748Y494231D01*
X387350Y495192D01*
X386717Y496017D01*
X385892Y496650D01*
X384931Y497048D01*
X383900Y497184D01*
D02*
G37*
G36*
X425000Y517910D02*
X422728Y517731D01*
X420512Y517199D01*
X418406Y516327D01*
X416463Y515136D01*
X414730Y513656D01*
X413250Y511923D01*
X412059Y509980D01*
X411187Y507874D01*
X410654Y505658D01*
X410476Y503386D01*
X410654Y501114D01*
X411187Y498898D01*
X412059Y496792D01*
X413250Y494849D01*
X414730Y493116D01*
X416463Y491635D01*
X418406Y490445D01*
X420512Y489572D01*
X422728Y489040D01*
X425000Y488862D01*
X427272Y489040D01*
X429488Y489572D01*
X431594Y490445D01*
X433537Y491635D01*
X435270Y493116D01*
X436750Y494849D01*
X437941Y496792D01*
X438813Y498898D01*
X439346Y501114D01*
X439524Y503386D01*
X439346Y505658D01*
X438813Y507874D01*
X437941Y509980D01*
X436750Y511923D01*
X435270Y513656D01*
X433537Y515136D01*
X431594Y516327D01*
X429488Y517199D01*
X427272Y517731D01*
X425000Y517910D01*
D02*
G37*
G36*
X366874Y493228D02*
X366038Y493118D01*
X365260Y492795D01*
X364591Y492282D01*
X364078Y491614D01*
X363756Y490835D01*
X363646Y490000D01*
X363756Y489165D01*
X364078Y488386D01*
X364591Y487718D01*
X365260Y487205D01*
X366038Y486882D01*
X366874Y486772D01*
X367709Y486882D01*
X368487Y487205D01*
X369156Y487718D01*
X369669Y488386D01*
X369991Y489165D01*
X370101Y490000D01*
X369991Y490835D01*
X369669Y491614D01*
X369156Y492282D01*
X368487Y492795D01*
X367709Y493118D01*
X366874Y493228D01*
D02*
G37*
G36*
X145000Y494280D02*
X143892Y494134D01*
X142860Y493707D01*
X141974Y493026D01*
X141294Y492140D01*
X140866Y491108D01*
X140720Y490000D01*
X140866Y488892D01*
X141294Y487860D01*
X141974Y486974D01*
X142860Y486294D01*
X143892Y485866D01*
X145000Y485720D01*
X146108Y485866D01*
X147140Y486294D01*
X148026Y486974D01*
X148706Y487860D01*
X149134Y488892D01*
X149280Y490000D01*
X149134Y491108D01*
X148706Y492140D01*
X148026Y493026D01*
X147140Y493707D01*
X146108Y494134D01*
X145000Y494280D01*
D02*
G37*
G36*
X125000D02*
X123892Y494134D01*
X122860Y493707D01*
X121974Y493026D01*
X121293Y492140D01*
X120866Y491108D01*
X120720Y490000D01*
X120866Y488892D01*
X121293Y487860D01*
X121974Y486974D01*
X122860Y486294D01*
X123892Y485866D01*
X125000Y485720D01*
X126108Y485866D01*
X127140Y486294D01*
X128026Y486974D01*
X128707Y487860D01*
X129134Y488892D01*
X129280Y490000D01*
X129134Y491108D01*
X128707Y492140D01*
X128026Y493026D01*
X127140Y493707D01*
X126108Y494134D01*
X125000Y494280D01*
D02*
G37*
G36*
X323550Y483044D02*
X315650D01*
Y475144D01*
X323550D01*
Y483044D01*
D02*
G37*
G36*
X344854Y481733D02*
X344191Y481601D01*
X343629Y481226D01*
X343253Y480663D01*
X343121Y480000D01*
X343253Y479337D01*
X343629Y478774D01*
X344191Y478399D01*
X344549Y478328D01*
X344614Y478303D01*
X344752Y478282D01*
X344862Y478258D01*
X344965Y478229D01*
X345061Y478196D01*
X345150Y478158D01*
X345233Y478116D01*
X345310Y478070D01*
X345384Y478019D01*
X345436Y477976D01*
X346070Y477342D01*
Y472343D01*
X345070Y471690D01*
X344854Y471733D01*
X344191Y471601D01*
X343888Y471399D01*
X343824Y471370D01*
X343712Y471288D01*
X343617Y471227D01*
X343524Y471174D01*
X343433Y471130D01*
X343343Y471094D01*
X343254Y471065D01*
X343167Y471042D01*
X343079Y471027D01*
X343012Y471020D01*
X342290D01*
X341900Y470942D01*
X341569Y470721D01*
X332367Y461520D01*
X294442D01*
X294251Y461685D01*
X293748Y462520D01*
X293812Y462843D01*
X293680Y463506D01*
X293304Y464068D01*
X292742Y464444D01*
X292389Y464514D01*
X292326Y464538D01*
X292226Y464555D01*
X292153Y464573D01*
X292079Y464597D01*
X292003Y464628D01*
X291926Y464666D01*
X291847Y464712D01*
X291767Y464767D01*
X291683Y464830D01*
X291643Y464864D01*
X286966Y469541D01*
X286602Y469784D01*
X286173Y469870D01*
X286173Y469870D01*
X273378D01*
X273378Y469870D01*
X272949Y469784D01*
X272585Y469541D01*
X271207Y468163D01*
X270964Y467799D01*
X270878Y467370D01*
X270879Y467370D01*
Y465183D01*
X270149Y464896D01*
X269879Y464840D01*
X269364Y465184D01*
X268701Y465316D01*
X268038Y465184D01*
X267475Y464808D01*
X267099Y464246D01*
X266968Y463583D01*
X267099Y462919D01*
X267475Y462357D01*
X268038Y461981D01*
X268261Y461937D01*
X268307Y461915D01*
X268418Y461887D01*
X268506Y461859D01*
X268593Y461825D01*
X268678Y461785D01*
X268763Y461740D01*
X268848Y461688D01*
X268925Y461635D01*
X268980Y461590D01*
Y437530D01*
X268517Y437314D01*
X267980Y437257D01*
X267578Y437782D01*
X266909Y438295D01*
X266131Y438618D01*
X265295Y438728D01*
X264460Y438618D01*
X263682Y438295D01*
X263013Y437782D01*
X262500Y437114D01*
X262178Y436335D01*
X262068Y435500D01*
X262178Y434665D01*
X262500Y433886D01*
X263013Y433218D01*
X263682Y432705D01*
X264460Y432382D01*
X265295Y432272D01*
X266131Y432382D01*
X266909Y432705D01*
X267578Y433218D01*
X267980Y433743D01*
X268517Y433686D01*
X268980Y433470D01*
Y423127D01*
X258869Y413015D01*
X258648Y412685D01*
X258570Y412294D01*
Y388722D01*
X236484Y366636D01*
X236263Y366305D01*
X236185Y365915D01*
Y360667D01*
X236183Y360628D01*
X236161Y360483D01*
X236121Y360322D01*
X236062Y360144D01*
X235982Y359952D01*
X235881Y359744D01*
X235761Y359530D01*
X235453Y359060D01*
X235438Y359050D01*
X235352Y358921D01*
X235245Y358776D01*
X235219Y358721D01*
X234897Y358239D01*
X234707Y357283D01*
X234897Y356328D01*
X235438Y355517D01*
X236249Y354976D01*
X237205Y354785D01*
X238161Y354976D01*
X238971Y355517D01*
X239513Y356328D01*
X239703Y357283D01*
X239513Y358239D01*
X239191Y358721D01*
X239164Y358776D01*
X239057Y358921D01*
X238971Y359050D01*
X238956Y359060D01*
X238648Y359530D01*
X238529Y359744D01*
X238427Y359952D01*
X238348Y360144D01*
X238289Y360322D01*
X238249Y360483D01*
X238226Y360628D01*
X238224Y360667D01*
Y365493D01*
X260311Y387579D01*
X260532Y387910D01*
X260609Y388300D01*
Y411872D01*
X261884Y413147D01*
X262955Y412804D01*
X262988Y412637D01*
X263364Y412074D01*
X263927Y411699D01*
X264590Y411567D01*
X265102Y411669D01*
X265451Y411313D01*
X265692Y410844D01*
X263869Y409021D01*
X263648Y408690D01*
X263570Y408300D01*
Y390143D01*
X263563Y390076D01*
X263547Y389988D01*
X263525Y389900D01*
X263496Y389811D01*
X263460Y389722D01*
X263416Y389630D01*
X263363Y389537D01*
X263302Y389442D01*
X263220Y389330D01*
X263191Y389266D01*
X262988Y388963D01*
X262857Y388300D01*
X262988Y387637D01*
X263364Y387074D01*
X263927Y386699D01*
X264590Y386567D01*
X265253Y386699D01*
X265815Y387074D01*
X266191Y387637D01*
X266323Y388300D01*
X266191Y388963D01*
X265989Y389266D01*
X265959Y389330D01*
X265878Y389442D01*
X265816Y389537D01*
X265764Y389630D01*
X265720Y389722D01*
X265684Y389811D01*
X265654Y389900D01*
X265632Y389988D01*
X265616Y390076D01*
X265609Y390142D01*
Y391042D01*
X265942Y391309D01*
X266609Y391662D01*
X267090Y391567D01*
X267753Y391699D01*
X268315Y392074D01*
X268691Y392637D01*
X268823Y393300D01*
X268691Y393963D01*
X268489Y394266D01*
X268459Y394330D01*
X268378Y394442D01*
X268316Y394537D01*
X268264Y394630D01*
X268220Y394722D01*
X268183Y394811D01*
X268154Y394900D01*
X268132Y394988D01*
X268116Y395076D01*
X268109Y395143D01*
Y396042D01*
X268442Y396309D01*
X269109Y396662D01*
X269590Y396567D01*
X270253Y396699D01*
X270815Y397074D01*
X271191Y397637D01*
X271262Y397994D01*
X271286Y398060D01*
X271308Y398197D01*
X271332Y398307D01*
X271361Y398410D01*
X271394Y398506D01*
X271432Y398595D01*
X271474Y398678D01*
X271520Y398756D01*
X271571Y398829D01*
X271614Y398882D01*
X280973Y408241D01*
X281194Y408572D01*
X281272Y408962D01*
Y456030D01*
X282272Y456444D01*
X283636Y455079D01*
X283967Y454858D01*
X284358Y454780D01*
X335654D01*
X336045Y454858D01*
X336375Y455079D01*
X344272Y462976D01*
X344325Y463019D01*
X344398Y463069D01*
X344476Y463116D01*
X344559Y463158D01*
X344648Y463196D01*
X344744Y463229D01*
X344847Y463258D01*
X344957Y463282D01*
X345094Y463303D01*
X345160Y463328D01*
X345518Y463399D01*
X346080Y463774D01*
X346456Y464337D01*
X346588Y465000D01*
X346456Y465663D01*
X346341Y465836D01*
X346344Y466098D01*
X346554Y466922D01*
X346641Y467049D01*
X346686Y467079D01*
X347811Y468204D01*
X348032Y468535D01*
X348109Y468925D01*
Y477765D01*
X348032Y478155D01*
X347811Y478485D01*
X346878Y479418D01*
X346836Y479470D01*
X346785Y479544D01*
X346738Y479622D01*
X346696Y479705D01*
X346659Y479794D01*
X346625Y479890D01*
X346597Y479992D01*
X346573Y480103D01*
X346551Y480240D01*
X346527Y480306D01*
X346456Y480663D01*
X346080Y481226D01*
X345518Y481601D01*
X344854Y481733D01*
D02*
G37*
G36*
X307542Y473950D02*
X306782Y473798D01*
X306137Y473367D01*
X305706Y472722D01*
X305554Y471961D01*
X305706Y471201D01*
X306137Y470556D01*
X306782Y470125D01*
X307542Y469973D01*
X308303Y470125D01*
X308948Y470556D01*
X309379Y471201D01*
X309531Y471961D01*
X309379Y472722D01*
X308948Y473367D01*
X308303Y473798D01*
X307542Y473950D01*
D02*
G37*
G36*
Y468044D02*
X306782Y467893D01*
X306137Y467462D01*
X305706Y466817D01*
X305554Y466056D01*
X305706Y465295D01*
X306137Y464650D01*
X306782Y464219D01*
X307542Y464068D01*
X308303Y464219D01*
X308948Y464650D01*
X309379Y465295D01*
X309531Y466056D01*
X309379Y466817D01*
X308948Y467462D01*
X308303Y467893D01*
X307542Y468044D01*
D02*
G37*
G36*
X302621D02*
X301860Y467893D01*
X301215Y467462D01*
X300784Y466817D01*
X300633Y466056D01*
X300784Y465295D01*
X301215Y464650D01*
X301860Y464219D01*
X302621Y464068D01*
X303382Y464219D01*
X304027Y464650D01*
X304458Y465295D01*
X304609Y466056D01*
X304458Y466817D01*
X304027Y467462D01*
X303382Y467893D01*
X302621Y468044D01*
D02*
G37*
G36*
X105000Y454280D02*
X103892Y454134D01*
X103086Y453800D01*
X96595Y453932D01*
X96108Y454134D01*
X95000Y454280D01*
X93892Y454134D01*
X93554Y453994D01*
X86006Y454147D01*
X85000Y454280D01*
X83892Y454134D01*
X82860Y453707D01*
X81974Y453026D01*
X81293Y452140D01*
X80866Y451108D01*
X80802Y450623D01*
X80780Y450562D01*
X80678Y449866D01*
X80423Y448618D01*
X80276Y448084D01*
X80113Y447593D01*
X79937Y447153D01*
X79749Y446765D01*
X79551Y446428D01*
X79345Y446142D01*
X79241Y446026D01*
X79107Y445893D01*
X78834Y445483D01*
X78738Y445000D01*
Y415000D01*
X78834Y414517D01*
X79107Y414108D01*
X81304Y411911D01*
X80921Y410987D01*
X80488D01*
Y384413D01*
X111000D01*
Y394174D01*
X111216Y394496D01*
X111316Y395000D01*
Y396265D01*
X112316Y396711D01*
X112860Y396293D01*
X113892Y395866D01*
X115000Y395720D01*
X116108Y395866D01*
X117140Y396293D01*
X118026Y396974D01*
X118707Y397860D01*
X119134Y398892D01*
X119280Y400000D01*
X119134Y401108D01*
X118707Y402140D01*
X118026Y403026D01*
X117140Y403707D01*
X116108Y404134D01*
X115000Y404280D01*
X113892Y404134D01*
X112860Y403707D01*
X112316Y403289D01*
X111316Y403735D01*
Y425000D01*
X111216Y425503D01*
X110930Y425930D01*
X106316Y430545D01*
Y433156D01*
X106323Y433296D01*
X106379Y433655D01*
X106476Y434039D01*
X106614Y434449D01*
X106795Y434885D01*
X107021Y435344D01*
X107287Y435819D01*
X107972Y436863D01*
X108381Y437413D01*
X108408Y437471D01*
X108706Y437860D01*
X109134Y438892D01*
X109280Y440000D01*
X109134Y441108D01*
X108706Y442140D01*
X108026Y443026D01*
X107140Y443707D01*
X106108Y444134D01*
X105807Y444174D01*
X105799Y445825D01*
X106108Y445866D01*
X107140Y446293D01*
X108026Y446974D01*
X108706Y447860D01*
X109134Y448892D01*
X109280Y450000D01*
X109134Y451108D01*
X108706Y452140D01*
X108026Y453026D01*
X107140Y453707D01*
X106108Y454134D01*
X105000Y454280D01*
D02*
G37*
G36*
X383900Y457184D02*
X382869Y457048D01*
X381908Y456650D01*
X381083Y456017D01*
X380450Y455192D01*
X380052Y454231D01*
X379916Y453200D01*
X380052Y452169D01*
X380450Y451208D01*
X381083Y450383D01*
X381908Y449750D01*
X382869Y449352D01*
X383900Y449216D01*
X384931Y449352D01*
X385892Y449750D01*
X386717Y450383D01*
X387350Y451208D01*
X387748Y452169D01*
X387884Y453200D01*
X387748Y454231D01*
X387350Y455192D01*
X386717Y456017D01*
X385892Y456650D01*
X384931Y457048D01*
X383900Y457184D01*
D02*
G37*
G36*
X145000Y454280D02*
X143892Y454134D01*
X142860Y453707D01*
X141974Y453026D01*
X141294Y452140D01*
X140866Y451108D01*
X140720Y450000D01*
X140866Y448892D01*
X141294Y447860D01*
X141974Y446974D01*
X142860Y446293D01*
X143892Y445866D01*
X145000Y445720D01*
X146108Y445866D01*
X147140Y446293D01*
X148026Y446974D01*
X148706Y447860D01*
X149134Y448892D01*
X149280Y450000D01*
X149134Y451108D01*
X148706Y452140D01*
X148026Y453026D01*
X147140Y453707D01*
X146108Y454134D01*
X145000Y454280D01*
D02*
G37*
G36*
X135000D02*
X133892Y454134D01*
X132860Y453707D01*
X131974Y453026D01*
X131293Y452140D01*
X130866Y451108D01*
X130720Y450000D01*
X130866Y448892D01*
X131293Y447860D01*
X131974Y446974D01*
X132860Y446293D01*
X133892Y445866D01*
X135000Y445720D01*
X136108Y445866D01*
X137140Y446293D01*
X138026Y446974D01*
X138707Y447860D01*
X139134Y448892D01*
X139280Y450000D01*
X139134Y451108D01*
X138707Y452140D01*
X138026Y453026D01*
X137140Y453707D01*
X136108Y454134D01*
X135000Y454280D01*
D02*
G37*
G36*
X125000D02*
X123892Y454134D01*
X122860Y453707D01*
X121974Y453026D01*
X121293Y452140D01*
X120866Y451108D01*
X120720Y450000D01*
X120866Y448892D01*
X121293Y447860D01*
X121974Y446974D01*
X122860Y446293D01*
X123892Y445866D01*
X125000Y445720D01*
X126108Y445866D01*
X127140Y446293D01*
X128026Y446974D01*
X128707Y447860D01*
X129134Y448892D01*
X129280Y450000D01*
X129134Y451108D01*
X128707Y452140D01*
X128026Y453026D01*
X127140Y453707D01*
X126108Y454134D01*
X125000Y454280D01*
D02*
G37*
G36*
X115000D02*
X113892Y454134D01*
X112860Y453707D01*
X111974Y453026D01*
X111293Y452140D01*
X110866Y451108D01*
X110720Y450000D01*
X110866Y448892D01*
X111293Y447860D01*
X111974Y446974D01*
X112860Y446293D01*
X113892Y445866D01*
X115000Y445720D01*
X116108Y445866D01*
X117140Y446293D01*
X118026Y446974D01*
X118707Y447860D01*
X119134Y448892D01*
X119280Y450000D01*
X119134Y451108D01*
X118707Y452140D01*
X118026Y453026D01*
X117140Y453707D01*
X116108Y454134D01*
X115000Y454280D01*
D02*
G37*
G36*
X75000D02*
X73892Y454134D01*
X72860Y453707D01*
X71974Y453026D01*
X71293Y452140D01*
X70866Y451108D01*
X70720Y450000D01*
X70866Y448892D01*
X71293Y447860D01*
X71974Y446974D01*
X72860Y446293D01*
X73892Y445866D01*
X75000Y445720D01*
X76108Y445866D01*
X77140Y446293D01*
X78026Y446974D01*
X78707Y447860D01*
X79134Y448892D01*
X79280Y450000D01*
X79134Y451108D01*
X78707Y452140D01*
X78026Y453026D01*
X77140Y453707D01*
X76108Y454134D01*
X75000Y454280D01*
D02*
G37*
G36*
X425000Y474603D02*
X422728Y474424D01*
X420512Y473892D01*
X418406Y473020D01*
X416463Y471829D01*
X414730Y470349D01*
X413250Y468616D01*
X412059Y466673D01*
X411187Y464567D01*
X410654Y462351D01*
X410476Y460079D01*
X410654Y457807D01*
X411187Y455590D01*
X412059Y453485D01*
X413250Y451542D01*
X414730Y449809D01*
X416463Y448328D01*
X418406Y447137D01*
X420512Y446265D01*
X422728Y445733D01*
X425000Y445554D01*
X427272Y445733D01*
X429488Y446265D01*
X431594Y447137D01*
X433537Y448328D01*
X435270Y449809D01*
X436750Y451542D01*
X437941Y453485D01*
X438813Y455590D01*
X439346Y457807D01*
X439524Y460079D01*
X439346Y462351D01*
X438813Y464567D01*
X437941Y466673D01*
X436750Y468616D01*
X435270Y470349D01*
X433537Y471829D01*
X431594Y473020D01*
X429488Y473892D01*
X427272Y474424D01*
X425000Y474603D01*
D02*
G37*
G36*
X245600Y451132D02*
X244634Y451005D01*
X243734Y450632D01*
X242961Y450039D01*
X242368Y449266D01*
X241995Y448366D01*
X241868Y447400D01*
X241995Y446434D01*
X242368Y445534D01*
X242961Y444761D01*
X243734Y444168D01*
X244634Y443795D01*
X245600Y443668D01*
X246566Y443795D01*
X247466Y444168D01*
X248239Y444761D01*
X248832Y445534D01*
X249205Y446434D01*
X249332Y447400D01*
X249205Y448366D01*
X248832Y449266D01*
X248239Y450039D01*
X247466Y450632D01*
X246566Y451005D01*
X245600Y451132D01*
D02*
G37*
G36*
X213795Y449728D02*
X212960Y449618D01*
X212181Y449295D01*
X211513Y448782D01*
X211000Y448114D01*
X210678Y447335D01*
X210568Y446500D01*
X210678Y445665D01*
X211000Y444886D01*
X211513Y444218D01*
X212181Y443705D01*
X212960Y443382D01*
X213795Y443272D01*
X214631Y443382D01*
X215409Y443705D01*
X216077Y444218D01*
X216590Y444886D01*
X216913Y445665D01*
X217023Y446500D01*
X216913Y447335D01*
X216590Y448114D01*
X216077Y448782D01*
X215409Y449295D01*
X214631Y449618D01*
X213795Y449728D01*
D02*
G37*
G36*
X257795Y446228D02*
X256960Y446118D01*
X256182Y445795D01*
X255513Y445282D01*
X255000Y444614D01*
X254678Y443835D01*
X254568Y443000D01*
X254678Y442165D01*
X255000Y441386D01*
X255513Y440718D01*
X256182Y440205D01*
X256960Y439882D01*
X257795Y439772D01*
X258631Y439882D01*
X259409Y440205D01*
X260078Y440718D01*
X260591Y441386D01*
X260913Y442165D01*
X261023Y443000D01*
X260913Y443835D01*
X260591Y444614D01*
X260078Y445282D01*
X259409Y445795D01*
X258631Y446118D01*
X257795Y446228D01*
D02*
G37*
G36*
X145000Y444280D02*
X143892Y444134D01*
X142860Y443707D01*
X141974Y443026D01*
X141294Y442140D01*
X140866Y441108D01*
X140720Y440000D01*
X140866Y438892D01*
X141294Y437860D01*
X141974Y436974D01*
X142860Y436294D01*
X143892Y435866D01*
X145000Y435720D01*
X146108Y435866D01*
X147140Y436294D01*
X148026Y436974D01*
X148706Y437860D01*
X149134Y438892D01*
X149280Y440000D01*
X149134Y441108D01*
X148706Y442140D01*
X148026Y443026D01*
X147140Y443707D01*
X146108Y444134D01*
X145000Y444280D01*
D02*
G37*
G36*
X125000D02*
X123892Y444134D01*
X122860Y443707D01*
X121974Y443026D01*
X121293Y442140D01*
X120866Y441108D01*
X120720Y440000D01*
X120866Y438892D01*
X121293Y437860D01*
X121974Y436974D01*
X122860Y436294D01*
X123892Y435866D01*
X125000Y435720D01*
X126108Y435866D01*
X127140Y436294D01*
X128026Y436974D01*
X128707Y437860D01*
X129134Y438892D01*
X129280Y440000D01*
X129134Y441108D01*
X128707Y442140D01*
X128026Y443026D01*
X127140Y443707D01*
X126108Y444134D01*
X125000Y444280D01*
D02*
G37*
G36*
X257795Y438728D02*
X256960Y438618D01*
X256182Y438295D01*
X255513Y437782D01*
X255000Y437114D01*
X254678Y436335D01*
X254568Y435500D01*
X254678Y434665D01*
X255000Y433886D01*
X255513Y433218D01*
X256182Y432705D01*
X256960Y432382D01*
X257795Y432272D01*
X258631Y432382D01*
X259409Y432705D01*
X260078Y433218D01*
X260591Y433886D01*
X260913Y434665D01*
X261023Y435500D01*
X260913Y436335D01*
X260591Y437114D01*
X260078Y437782D01*
X259409Y438295D01*
X258631Y438618D01*
X257795Y438728D01*
D02*
G37*
G36*
X342795Y431228D02*
X341960Y431118D01*
X341181Y430795D01*
X340513Y430282D01*
X340000Y429614D01*
X339678Y428835D01*
X339568Y428000D01*
X339678Y427165D01*
X340000Y426386D01*
X340513Y425718D01*
X341181Y425205D01*
X341960Y424882D01*
X342795Y424772D01*
X343631Y424882D01*
X344409Y425205D01*
X345077Y425718D01*
X345590Y426386D01*
X345913Y427165D01*
X346023Y428000D01*
X345913Y428835D01*
X345590Y429614D01*
X345077Y430282D01*
X344409Y430795D01*
X343631Y431118D01*
X342795Y431228D01*
D02*
G37*
G36*
X435000Y431244D02*
X434031Y431116D01*
X433128Y430742D01*
X432353Y430147D01*
X431758Y429372D01*
X431384Y428469D01*
X431256Y427500D01*
X431384Y426531D01*
X431758Y425628D01*
X432353Y424853D01*
X433128Y424258D01*
X434031Y423884D01*
X435000Y423756D01*
X435969Y423884D01*
X436872Y424258D01*
X437647Y424853D01*
X438242Y425628D01*
X438616Y426531D01*
X438744Y427500D01*
X438616Y428469D01*
X438242Y429372D01*
X437647Y430147D01*
X436872Y430742D01*
X435969Y431116D01*
X435000Y431244D01*
D02*
G37*
G36*
X415709Y431049D02*
X414317Y430912D01*
X412979Y430506D01*
X411746Y429847D01*
X410666Y428960D01*
X409779Y427880D01*
X409120Y426647D01*
X408714Y425309D01*
X408577Y423917D01*
X408714Y422526D01*
X409120Y421188D01*
X409779Y419955D01*
X410666Y418874D01*
X411746Y417987D01*
X412979Y417328D01*
X414317Y416922D01*
X415709Y416785D01*
X417100Y416922D01*
X418438Y417328D01*
X419671Y417987D01*
X420752Y418874D01*
X421639Y419955D01*
X422298Y421188D01*
X422704Y422526D01*
X422841Y423917D01*
X422704Y425309D01*
X422298Y426647D01*
X421639Y427880D01*
X420752Y428960D01*
X419671Y429847D01*
X418438Y430506D01*
X417100Y430912D01*
X415709Y431049D01*
D02*
G37*
G36*
X315200Y419390D02*
X314169Y419255D01*
X313208Y418857D01*
X312383Y418223D01*
X311750Y417398D01*
X311352Y416437D01*
X311216Y415406D01*
X311352Y414375D01*
X311750Y413414D01*
X312383Y412589D01*
X313208Y411956D01*
X314169Y411558D01*
X315200Y411422D01*
X316231Y411558D01*
X317192Y411956D01*
X318017Y412589D01*
X318650Y413414D01*
X319048Y414375D01*
X319184Y415406D01*
X319048Y416437D01*
X318650Y417398D01*
X318017Y418223D01*
X317192Y418857D01*
X316231Y419255D01*
X315200Y419390D01*
D02*
G37*
G36*
X300295Y416228D02*
X299460Y416118D01*
X298681Y415795D01*
X298013Y415282D01*
X297500Y414614D01*
X297178Y413835D01*
X297068Y413000D01*
X297178Y412165D01*
X297500Y411386D01*
X298013Y410718D01*
X298681Y410205D01*
X299460Y409882D01*
X300295Y409772D01*
X301131Y409882D01*
X301909Y410205D01*
X302577Y410718D01*
X303091Y411386D01*
X303413Y412165D01*
X303523Y413000D01*
X303413Y413835D01*
X303091Y414614D01*
X302577Y415282D01*
X301909Y415795D01*
X301131Y416118D01*
X300295Y416228D01*
D02*
G37*
G36*
X145000Y404280D02*
X143892Y404134D01*
X142860Y403707D01*
X141974Y403026D01*
X141294Y402140D01*
X140866Y401108D01*
X140720Y400000D01*
X140866Y398892D01*
X141294Y397860D01*
X141974Y396974D01*
X142860Y396293D01*
X143892Y395866D01*
X145000Y395720D01*
X146108Y395866D01*
X147140Y396293D01*
X148026Y396974D01*
X148706Y397860D01*
X149134Y398892D01*
X149280Y400000D01*
X149134Y401108D01*
X148706Y402140D01*
X148026Y403026D01*
X147140Y403707D01*
X146108Y404134D01*
X145000Y404280D01*
D02*
G37*
G36*
X135000D02*
X133892Y404134D01*
X132860Y403707D01*
X131974Y403026D01*
X131293Y402140D01*
X130866Y401108D01*
X130720Y400000D01*
X130866Y398892D01*
X131293Y397860D01*
X131974Y396974D01*
X132860Y396293D01*
X133892Y395866D01*
X135000Y395720D01*
X136108Y395866D01*
X137140Y396293D01*
X138026Y396974D01*
X138707Y397860D01*
X139134Y398892D01*
X139280Y400000D01*
X139134Y401108D01*
X138707Y402140D01*
X138026Y403026D01*
X137140Y403707D01*
X136108Y404134D01*
X135000Y404280D01*
D02*
G37*
G36*
X125000D02*
X123892Y404134D01*
X122860Y403707D01*
X121974Y403026D01*
X121293Y402140D01*
X120866Y401108D01*
X120720Y400000D01*
X120866Y398892D01*
X121293Y397860D01*
X121974Y396974D01*
X122860Y396293D01*
X123892Y395866D01*
X125000Y395720D01*
X126108Y395866D01*
X127140Y396293D01*
X128026Y396974D01*
X128707Y397860D01*
X129134Y398892D01*
X129280Y400000D01*
X129134Y401108D01*
X128707Y402140D01*
X128026Y403026D01*
X127140Y403707D01*
X126108Y404134D01*
X125000Y404280D01*
D02*
G37*
G36*
X75000D02*
X73892Y404134D01*
X72860Y403707D01*
X71974Y403026D01*
X71293Y402140D01*
X70866Y401108D01*
X70720Y400000D01*
X70866Y398892D01*
X71293Y397860D01*
X71974Y396974D01*
X72860Y396293D01*
X73892Y395866D01*
X75000Y395720D01*
X76108Y395866D01*
X77140Y396293D01*
X78026Y396974D01*
X78707Y397860D01*
X79134Y398892D01*
X79280Y400000D01*
X79134Y401108D01*
X78707Y402140D01*
X78026Y403026D01*
X77140Y403707D01*
X76108Y404134D01*
X75000Y404280D01*
D02*
G37*
G36*
X319150Y400144D02*
X311250D01*
Y392244D01*
X319150D01*
Y400144D01*
D02*
G37*
G36*
X213795Y395528D02*
X212960Y395418D01*
X212181Y395096D01*
X211513Y394583D01*
X211000Y393914D01*
X210678Y393136D01*
X210568Y392301D01*
X210678Y391465D01*
X211000Y390687D01*
X211513Y390018D01*
X212181Y389505D01*
X212960Y389183D01*
X213795Y389073D01*
X214631Y389183D01*
X215409Y389505D01*
X216077Y390018D01*
X216590Y390687D01*
X216913Y391465D01*
X217023Y392301D01*
X216913Y393136D01*
X216590Y393914D01*
X216077Y394583D01*
X215409Y395096D01*
X214631Y395418D01*
X213795Y395528D01*
D02*
G37*
G36*
X145000Y394280D02*
X143892Y394134D01*
X142860Y393706D01*
X141974Y393026D01*
X141294Y392140D01*
X140866Y391108D01*
X140720Y390000D01*
X140866Y388892D01*
X141294Y387860D01*
X141974Y386974D01*
X142860Y386294D01*
X143892Y385866D01*
X145000Y385720D01*
X146108Y385866D01*
X147140Y386294D01*
X148026Y386974D01*
X148706Y387860D01*
X149134Y388892D01*
X149280Y390000D01*
X149134Y391108D01*
X148706Y392140D01*
X148026Y393026D01*
X147140Y393706D01*
X146108Y394134D01*
X145000Y394280D01*
D02*
G37*
G36*
X125000D02*
X123892Y394134D01*
X122860Y393706D01*
X121974Y393026D01*
X121293Y392140D01*
X120866Y391108D01*
X120720Y390000D01*
X120866Y388892D01*
X121293Y387860D01*
X121974Y386974D01*
X122860Y386294D01*
X123892Y385866D01*
X125000Y385720D01*
X126108Y385866D01*
X127140Y386294D01*
X128026Y386974D01*
X128707Y387860D01*
X129134Y388892D01*
X129280Y390000D01*
X129134Y391108D01*
X128707Y392140D01*
X128026Y393026D01*
X127140Y393706D01*
X126108Y394134D01*
X125000Y394280D01*
D02*
G37*
G36*
X300000Y389488D02*
X299239Y389337D01*
X298594Y388906D01*
X298163Y388261D01*
X298012Y387500D01*
X298163Y386739D01*
X298594Y386094D01*
X299239Y385663D01*
X300000Y385512D01*
X300761Y385663D01*
X301406Y386094D01*
X301837Y386739D01*
X301988Y387500D01*
X301837Y388261D01*
X301406Y388906D01*
X300761Y389337D01*
X300000Y389488D01*
D02*
G37*
G36*
X366891Y420318D02*
X366055Y420208D01*
X365277Y419886D01*
X364609Y419373D01*
X364096Y418705D01*
X363773Y417926D01*
X363663Y417091D01*
X363773Y416255D01*
X364096Y415477D01*
X364609Y414809D01*
X365277Y414296D01*
X366055Y413973D01*
X366891Y413863D01*
X367292Y413916D01*
X367309Y413912D01*
X367351Y413921D01*
X367392Y413917D01*
X367558Y413937D01*
X367682Y413938D01*
X367804Y413925D01*
X367927Y413899D01*
X368052Y413858D01*
X368181Y413801D01*
X368316Y413725D01*
X368457Y413629D01*
X368569Y413538D01*
X368744Y413363D01*
X369174Y413075D01*
X369682Y412975D01*
X378918D01*
X379117Y411974D01*
X378968Y411913D01*
X378663Y411679D01*
X378606Y411652D01*
X378202Y411353D01*
X377429Y410855D01*
X377079Y410664D01*
X376735Y410501D01*
X376408Y410371D01*
X376096Y410272D01*
X375801Y410203D01*
X375522Y410163D01*
X375454Y410160D01*
X347193D01*
X346710Y410064D01*
X346300Y409790D01*
X320167Y383657D01*
X283028D01*
X282535Y384657D01*
X282582Y384718D01*
X282904Y385496D01*
X283014Y386332D01*
X282904Y387167D01*
X282582Y387945D01*
X282069Y388614D01*
X281400Y389127D01*
X280622Y389449D01*
X279787Y389559D01*
X278951Y389449D01*
X278173Y389127D01*
X277504Y388614D01*
X276991Y387945D01*
X276669Y387167D01*
X276559Y386332D01*
X276669Y385496D01*
X276991Y384718D01*
X277038Y384657D01*
X276545Y383657D01*
X276184D01*
X275701Y383561D01*
X275292Y383287D01*
X267285Y375280D01*
X267108Y375137D01*
X267039Y375089D01*
X266974Y375049D01*
X266923Y375022D01*
X266887Y375007D01*
X266869Y375001D01*
X266824Y374992D01*
X266769Y374969D01*
X266426Y374901D01*
X265864Y374526D01*
X265488Y373963D01*
X265356Y373300D01*
X265488Y372637D01*
X265864Y372074D01*
X266426Y371699D01*
X267090Y371567D01*
X267174Y371583D01*
X267654Y370685D01*
X266964Y370043D01*
X266923Y370022D01*
X266887Y370007D01*
X266869Y370001D01*
X266824Y369992D01*
X266769Y369969D01*
X266426Y369901D01*
X265864Y369526D01*
X265488Y368963D01*
X265356Y368300D01*
X265488Y367637D01*
X265864Y367074D01*
X266426Y366699D01*
X267090Y366567D01*
X267753Y366699D01*
X268315Y367074D01*
X268691Y367637D01*
X268759Y367979D01*
X268782Y368034D01*
X268791Y368079D01*
X268796Y368098D01*
X268812Y368133D01*
X268839Y368184D01*
X268878Y368249D01*
X268923Y368313D01*
X269115Y368541D01*
X278754Y378180D01*
X285433D01*
Y373428D01*
X282285Y370280D01*
X282108Y370137D01*
X282039Y370088D01*
X281974Y370049D01*
X281923Y370022D01*
X281887Y370007D01*
X281869Y370001D01*
X281824Y369992D01*
X281769Y369969D01*
X281427Y369901D01*
X280864Y369526D01*
X280488Y368963D01*
X280357Y368300D01*
X280488Y367637D01*
X280864Y367074D01*
X281427Y366699D01*
X282090Y366567D01*
X282753Y366699D01*
X283315Y367074D01*
X283691Y367637D01*
X283759Y367979D01*
X283782Y368034D01*
X283791Y368079D01*
X283797Y368097D01*
X283812Y368133D01*
X283839Y368184D01*
X283878Y368249D01*
X283923Y368313D01*
X284116Y368541D01*
X290113Y374538D01*
X297169D01*
X297336Y374421D01*
X297904Y373538D01*
X297856Y373300D01*
X297988Y372637D01*
X298364Y372074D01*
X298926Y371699D01*
X299590Y371567D01*
X300253Y371699D01*
X300543Y371892D01*
X300598Y371916D01*
X300637Y371941D01*
X300653Y371950D01*
X300690Y371965D01*
X300745Y371982D01*
X300818Y371999D01*
X300895Y372013D01*
X301192Y372038D01*
X330095D01*
X330095Y372038D01*
X330578Y372134D01*
X330988Y372407D01*
X341216Y382635D01*
X386194D01*
X386506Y382608D01*
X386769Y382564D01*
X386811Y382553D01*
Y378937D01*
X393500D01*
Y380446D01*
X394161D01*
Y387350D01*
X393500D01*
Y391865D01*
X393724Y392157D01*
X394072Y392997D01*
X394190Y393898D01*
X394072Y394799D01*
X393724Y395638D01*
X393500Y395930D01*
Y401865D01*
X393724Y402157D01*
X394072Y402996D01*
X394190Y403898D01*
X394072Y404799D01*
X393724Y405639D01*
X393500Y405930D01*
Y411865D01*
X393724Y412157D01*
X394072Y412996D01*
X394190Y413898D01*
X394072Y414799D01*
X393724Y415638D01*
X393500Y415930D01*
Y416000D01*
X393270Y416230D01*
X393171Y416360D01*
X393041Y416459D01*
X391193Y418307D01*
X386811Y418307D01*
Y413590D01*
X385887Y413208D01*
X383858Y415237D01*
X383428Y415525D01*
X382921Y415625D01*
X370761D01*
X370299Y416141D01*
X370058Y416532D01*
X370064Y416589D01*
X370061Y416631D01*
X370069Y416672D01*
X370066Y416690D01*
X370118Y417091D01*
X370008Y417926D01*
X369686Y418705D01*
X369173Y419373D01*
X368505Y419886D01*
X367726Y420208D01*
X366891Y420318D01*
D02*
G37*
G36*
X215295Y381228D02*
X214460Y381118D01*
X213682Y380795D01*
X213013Y380282D01*
X212500Y379614D01*
X212178Y378835D01*
X212068Y378000D01*
X212178Y377165D01*
X212500Y376386D01*
X213013Y375718D01*
X213682Y375205D01*
X214460Y374882D01*
X215295Y374772D01*
X216131Y374882D01*
X216909Y375205D01*
X217578Y375718D01*
X218091Y376386D01*
X218413Y377165D01*
X218523Y378000D01*
X218413Y378835D01*
X218091Y379614D01*
X217578Y380282D01*
X216909Y380795D01*
X216131Y381118D01*
X215295Y381228D01*
D02*
G37*
G36*
X403701Y376486D02*
X402262Y376296D01*
X400920Y375741D01*
X399769Y374857D01*
X398885Y373706D01*
X398330Y372364D01*
X398140Y370925D01*
X398330Y369486D01*
X398885Y368145D01*
X399769Y366993D01*
X400920Y366110D01*
X402262Y365554D01*
X403701Y365365D01*
X405140Y365554D01*
X406481Y366110D01*
X407633Y366993D01*
X408516Y368145D01*
X409072Y369486D01*
X409261Y370925D01*
X409072Y372364D01*
X408516Y373706D01*
X407633Y374857D01*
X406481Y375741D01*
X405140Y376296D01*
X403701Y376486D01*
D02*
G37*
G36*
X132795Y368728D02*
X131960Y368618D01*
X131182Y368295D01*
X130513Y367782D01*
X130000Y367114D01*
X129678Y366335D01*
X129568Y365500D01*
X129678Y364665D01*
X130000Y363886D01*
X130513Y363218D01*
X131182Y362705D01*
X131960Y362382D01*
X132795Y362272D01*
X133631Y362382D01*
X134409Y362705D01*
X135078Y363218D01*
X135591Y363886D01*
X135913Y364665D01*
X136023Y365500D01*
X135913Y366335D01*
X135591Y367114D01*
X135078Y367782D01*
X134409Y368295D01*
X133631Y368618D01*
X132795Y368728D01*
D02*
G37*
G36*
X107795D02*
X106960Y368618D01*
X106182Y368295D01*
X105513Y367782D01*
X105000Y367114D01*
X104678Y366335D01*
X104568Y365500D01*
X104678Y364665D01*
X105000Y363886D01*
X105513Y363218D01*
X106182Y362705D01*
X106960Y362382D01*
X107795Y362272D01*
X108631Y362382D01*
X109409Y362705D01*
X110078Y363218D01*
X110591Y363886D01*
X110913Y364665D01*
X111023Y365500D01*
X110913Y366335D01*
X110591Y367114D01*
X110078Y367782D01*
X109409Y368295D01*
X108631Y368618D01*
X107795Y368728D01*
D02*
G37*
G36*
X389295Y364228D02*
X388460Y364118D01*
X387682Y363795D01*
X387013Y363282D01*
X386500Y362614D01*
X386178Y361835D01*
X386068Y361000D01*
X386178Y360165D01*
X386500Y359386D01*
X387013Y358718D01*
X387682Y358205D01*
X388460Y357882D01*
X389295Y357772D01*
X390131Y357882D01*
X390909Y358205D01*
X391578Y358718D01*
X392091Y359386D01*
X392413Y360165D01*
X392523Y361000D01*
X392413Y361835D01*
X392091Y362614D01*
X391578Y363282D01*
X390909Y363795D01*
X390131Y364118D01*
X389295Y364228D01*
D02*
G37*
G36*
X381795D02*
X380960Y364118D01*
X380182Y363795D01*
X379513Y363282D01*
X379000Y362614D01*
X378678Y361835D01*
X378568Y361000D01*
X378678Y360165D01*
X379000Y359386D01*
X379513Y358718D01*
X380182Y358205D01*
X380960Y357882D01*
X381795Y357772D01*
X382631Y357882D01*
X383409Y358205D01*
X384078Y358718D01*
X384591Y359386D01*
X384913Y360165D01*
X385023Y361000D01*
X384913Y361835D01*
X384591Y362614D01*
X384078Y363282D01*
X383409Y363795D01*
X382631Y364118D01*
X381795Y364228D01*
D02*
G37*
G36*
X297795Y361228D02*
X296960Y361118D01*
X296182Y360795D01*
X295513Y360282D01*
X295000Y359614D01*
X294678Y358835D01*
X294568Y358000D01*
X294678Y357165D01*
X295000Y356386D01*
X295513Y355718D01*
X296182Y355205D01*
X296960Y354882D01*
X297795Y354772D01*
X298631Y354882D01*
X299409Y355205D01*
X300078Y355718D01*
X300590Y356386D01*
X300913Y357165D01*
X301023Y358000D01*
X300913Y358835D01*
X300590Y359614D01*
X300078Y360282D01*
X299409Y360795D01*
X298631Y361118D01*
X297795Y361228D01*
D02*
G37*
G36*
X290295D02*
X289460Y361118D01*
X288682Y360795D01*
X288013Y360282D01*
X287500Y359614D01*
X287178Y358835D01*
X287068Y358000D01*
X287178Y357165D01*
X287500Y356386D01*
X288013Y355718D01*
X288682Y355205D01*
X289460Y354882D01*
X290295Y354772D01*
X291131Y354882D01*
X291909Y355205D01*
X292578Y355718D01*
X293091Y356386D01*
X293413Y357165D01*
X293523Y358000D01*
X293413Y358835D01*
X293091Y359614D01*
X292578Y360282D01*
X291909Y360795D01*
X291131Y361118D01*
X290295Y361228D01*
D02*
G37*
G36*
X132795D02*
X131960Y361118D01*
X131182Y360795D01*
X130513Y360282D01*
X130000Y359614D01*
X129678Y358835D01*
X129568Y358000D01*
X129678Y357165D01*
X130000Y356386D01*
X130513Y355718D01*
X131182Y355205D01*
X131960Y354882D01*
X132795Y354772D01*
X133631Y354882D01*
X134409Y355205D01*
X135078Y355718D01*
X135591Y356386D01*
X135913Y357165D01*
X136023Y358000D01*
X135913Y358835D01*
X135591Y359614D01*
X135078Y360282D01*
X134409Y360795D01*
X133631Y361118D01*
X132795Y361228D01*
D02*
G37*
G36*
X107795D02*
X106960Y361118D01*
X106182Y360795D01*
X105513Y360282D01*
X105000Y359614D01*
X104678Y358835D01*
X104568Y358000D01*
X104678Y357165D01*
X105000Y356386D01*
X105513Y355718D01*
X106182Y355205D01*
X106960Y354882D01*
X107795Y354772D01*
X108631Y354882D01*
X109409Y355205D01*
X110078Y355718D01*
X110591Y356386D01*
X110913Y357165D01*
X111023Y358000D01*
X110913Y358835D01*
X110591Y359614D01*
X110078Y360282D01*
X109409Y360795D01*
X108631Y361118D01*
X107795Y361228D01*
D02*
G37*
G36*
X389295Y356728D02*
X388460Y356618D01*
X387682Y356295D01*
X387013Y355782D01*
X386500Y355114D01*
X386178Y354335D01*
X386068Y353500D01*
X386178Y352665D01*
X386500Y351886D01*
X387013Y351218D01*
X387682Y350705D01*
X388460Y350382D01*
X389295Y350272D01*
X390131Y350382D01*
X390909Y350705D01*
X391578Y351218D01*
X392091Y351886D01*
X392413Y352665D01*
X392523Y353500D01*
X392413Y354335D01*
X392091Y355114D01*
X391578Y355782D01*
X390909Y356295D01*
X390131Y356618D01*
X389295Y356728D01*
D02*
G37*
G36*
X381795D02*
X380960Y356618D01*
X380182Y356295D01*
X379513Y355782D01*
X379000Y355114D01*
X378678Y354335D01*
X378568Y353500D01*
X378678Y352665D01*
X379000Y351886D01*
X379513Y351218D01*
X380182Y350705D01*
X380960Y350382D01*
X381795Y350272D01*
X382631Y350382D01*
X383409Y350705D01*
X384078Y351218D01*
X384591Y351886D01*
X384913Y352665D01*
X385023Y353500D01*
X384913Y354335D01*
X384591Y355114D01*
X384078Y355782D01*
X383409Y356295D01*
X382631Y356618D01*
X381795Y356728D01*
D02*
G37*
G36*
X354331Y368855D02*
X352059Y368676D01*
X349843Y368144D01*
X347737Y367272D01*
X345794Y366081D01*
X344060Y364601D01*
X342580Y362868D01*
X341389Y360925D01*
X340517Y358819D01*
X339985Y356603D01*
X339806Y354331D01*
X339985Y352059D01*
X340517Y349843D01*
X341389Y347737D01*
X342580Y345794D01*
X344060Y344060D01*
X345794Y342580D01*
X347737Y341389D01*
X349843Y340517D01*
X352059Y339985D01*
X354331Y339806D01*
X356603Y339985D01*
X358819Y340517D01*
X360925Y341389D01*
X362868Y342580D01*
X364601Y344060D01*
X366081Y345794D01*
X367272Y347737D01*
X368144Y349843D01*
X368676Y352059D01*
X368855Y354331D01*
X368676Y356603D01*
X368144Y358819D01*
X367272Y360925D01*
X366081Y362868D01*
X364601Y364601D01*
X362868Y366081D01*
X360925Y367272D01*
X358819Y368144D01*
X356603Y368676D01*
X354331Y368855D01*
D02*
G37*
G36*
X86614D02*
X84342Y368676D01*
X82126Y368144D01*
X80020Y367272D01*
X78077Y366081D01*
X76344Y364601D01*
X74864Y362868D01*
X73673Y360925D01*
X72801Y358819D01*
X72269Y356603D01*
X72090Y354331D01*
X72269Y352059D01*
X72801Y349843D01*
X73673Y347737D01*
X74864Y345794D01*
X76344Y344060D01*
X78077Y342580D01*
X80020Y341389D01*
X82126Y340517D01*
X84342Y339985D01*
X86614Y339806D01*
X88886Y339985D01*
X91102Y340517D01*
X93208Y341389D01*
X95151Y342580D01*
X96884Y344060D01*
X98365Y345794D01*
X99555Y347737D01*
X100428Y349843D01*
X100960Y352059D01*
X101138Y354331D01*
X100960Y356603D01*
X100428Y358819D01*
X99555Y360925D01*
X98365Y362868D01*
X96884Y364601D01*
X95151Y366081D01*
X93208Y367272D01*
X91102Y368144D01*
X88886Y368676D01*
X86614Y368855D01*
D02*
G37*
%LPD*%
G36*
X139031Y596723D02*
X138895Y596508D01*
X138776Y596288D01*
X138672Y596063D01*
X138585Y595833D01*
X138513Y595597D01*
X138458Y595357D01*
X138418Y595111D01*
X138394Y594859D01*
X138386Y594603D01*
X137205D01*
X137197Y594859D01*
X137173Y595111D01*
X137133Y595357D01*
X137077Y595597D01*
X137006Y595833D01*
X136918Y596063D01*
X136815Y596288D01*
X136695Y596508D01*
X136560Y596723D01*
X136409Y596933D01*
X139182D01*
X139031Y596723D01*
D02*
G37*
G36*
X145593Y591276D02*
X145358Y591227D01*
X145127Y591164D01*
X144902Y591085D01*
X144681Y590992D01*
X144465Y590884D01*
X144253Y590761D01*
X144047Y590623D01*
X143845Y590470D01*
X143647Y590303D01*
X143455Y590120D01*
X142546Y590881D01*
X142715Y591063D01*
X142869Y591255D01*
X143008Y591457D01*
X143131Y591669D01*
X143239Y591891D01*
X143332Y592123D01*
X143410Y592366D01*
X143473Y592618D01*
X143520Y592881D01*
X143552Y593154D01*
X145593Y591276D01*
D02*
G37*
G36*
X116001Y574840D02*
X115889Y574914D01*
X115755Y574979D01*
X115599Y575037D01*
X115421Y575088D01*
X115220Y575130D01*
X114997Y575165D01*
X114484Y575211D01*
X113882Y575227D01*
Y577227D01*
X114194Y577231D01*
X114997Y577289D01*
X115220Y577324D01*
X115421Y577366D01*
X115599Y577416D01*
X115755Y577474D01*
X115889Y577540D01*
X116001Y577614D01*
Y574840D01*
D02*
G37*
G36*
X114910Y574456D02*
X115091Y574428D01*
X115250Y574394D01*
X115378Y574358D01*
X115473Y574323D01*
X115534Y574293D01*
X115608Y574244D01*
X115653Y574226D01*
X116112Y573919D01*
X117068Y573729D01*
X118024Y573919D01*
X118385Y574160D01*
X119023Y573383D01*
X104070Y558430D01*
X103784Y558004D01*
X103684Y557500D01*
Y556844D01*
X103677Y556704D01*
X103621Y556345D01*
X103524Y555961D01*
X103386Y555550D01*
X103303Y555351D01*
X85503Y556036D01*
X85138Y556967D01*
X102665Y574494D01*
X114497D01*
X114910Y574456D01*
D02*
G37*
G36*
X105613Y556629D02*
X105679Y556204D01*
X105790Y555760D01*
X105945Y555299D01*
X106145Y554820D01*
X106389Y554324D01*
X106677Y553810D01*
X107387Y552729D01*
X107808Y552161D01*
X102192D01*
X102613Y552729D01*
X103323Y553810D01*
X103611Y554324D01*
X103855Y554820D01*
X104055Y555299D01*
X104210Y555760D01*
X104321Y556204D01*
X104387Y556629D01*
X104409Y557037D01*
X105591D01*
X105613Y556629D01*
D02*
G37*
G36*
X80840Y553705D02*
X80484Y553330D01*
X80155Y552939D01*
X79853Y552534D01*
X79577Y552115D01*
X79327Y551681D01*
X79103Y551232D01*
X78906Y550768D01*
X78735Y550290D01*
X78590Y549797D01*
X78471Y549290D01*
X74796Y553537D01*
X75427Y553589D01*
X76590Y553777D01*
X77123Y553914D01*
X77624Y554080D01*
X78092Y554274D01*
X78528Y554496D01*
X78931Y554747D01*
X79302Y555026D01*
X79640Y555334D01*
X80840Y553705D01*
D02*
G37*
G36*
X95458Y546486D02*
X94731Y546380D01*
X93423Y546116D01*
X92842Y545959D01*
X91824Y545594D01*
X91387Y545386D01*
X90999Y545161D01*
X90659Y544919D01*
X90368Y544661D01*
X89661Y545368D01*
X89919Y545659D01*
X90161Y545999D01*
X90386Y546387D01*
X90594Y546824D01*
X90785Y547308D01*
X90959Y547842D01*
X91257Y549053D01*
X91380Y549731D01*
X91486Y550458D01*
X95458Y546486D01*
D02*
G37*
G36*
X105458D02*
X104759Y546383D01*
X103492Y546120D01*
X102924Y545960D01*
X102401Y545781D01*
X101921Y545584D01*
X101485Y545368D01*
X101093Y545133D01*
X100746Y544879D01*
X100442Y544606D01*
X99607Y545442D01*
X99879Y545746D01*
X100133Y546093D01*
X100368Y546485D01*
X100584Y546921D01*
X100781Y547401D01*
X100960Y547924D01*
X101120Y548492D01*
X101383Y549759D01*
X101486Y550458D01*
X105458Y546486D01*
D02*
G37*
G36*
X85458D02*
X84759Y546383D01*
X83492Y546120D01*
X82924Y545960D01*
X82401Y545781D01*
X81921Y545584D01*
X81485Y545368D01*
X81093Y545133D01*
X80746Y544879D01*
X80442Y544606D01*
X79606Y545442D01*
X79879Y545746D01*
X80133Y546093D01*
X80368Y546485D01*
X80584Y546921D01*
X80781Y547401D01*
X80960Y547924D01*
X81120Y548492D01*
X81383Y549759D01*
X81486Y550458D01*
X85458Y546486D01*
D02*
G37*
G36*
X110394Y544558D02*
X110121Y544254D01*
X109867Y543907D01*
X109632Y543515D01*
X109416Y543079D01*
X109219Y542599D01*
X109040Y542076D01*
X108880Y541508D01*
X108617Y540241D01*
X108514Y539542D01*
X104542Y543514D01*
X105241Y543617D01*
X106508Y543880D01*
X107076Y544040D01*
X107599Y544219D01*
X108079Y544416D01*
X108515Y544632D01*
X108907Y544867D01*
X109254Y545121D01*
X109558Y545394D01*
X110394Y544558D01*
D02*
G37*
G36*
X107387Y537271D02*
X106677Y536190D01*
X106389Y535676D01*
X106145Y535180D01*
X105945Y534701D01*
X105790Y534240D01*
X105679Y533797D01*
X105613Y533371D01*
X105591Y532963D01*
X104409D01*
X104387Y533371D01*
X104321Y533797D01*
X104210Y534240D01*
X104055Y534701D01*
X103855Y535180D01*
X103611Y535676D01*
X103323Y536190D01*
X102613Y537271D01*
X102192Y537839D01*
X107808D01*
X107387Y537271D01*
D02*
G37*
G36*
X97386D02*
X96677Y536190D01*
X96389Y535676D01*
X96145Y535180D01*
X95945Y534701D01*
X95790Y534240D01*
X95679Y533797D01*
X95613Y533371D01*
X95591Y532963D01*
X94410D01*
X94387Y533371D01*
X94321Y533797D01*
X94210Y534240D01*
X94055Y534701D01*
X93855Y535180D01*
X93611Y535676D01*
X93323Y536190D01*
X92614Y537271D01*
X92192Y537839D01*
X97808D01*
X97386Y537271D01*
D02*
G37*
G36*
X87387D02*
X86677Y536190D01*
X86389Y535676D01*
X86145Y535180D01*
X85945Y534701D01*
X85790Y534240D01*
X85679Y533797D01*
X85613Y533371D01*
X85590Y532963D01*
X84409D01*
X84387Y533371D01*
X84321Y533797D01*
X84210Y534240D01*
X84055Y534701D01*
X83855Y535180D01*
X83611Y535676D01*
X83323Y536190D01*
X82613Y537271D01*
X82192Y537839D01*
X87808D01*
X87387Y537271D01*
D02*
G37*
G36*
X105613Y506629D02*
X105679Y506204D01*
X105790Y505760D01*
X105945Y505299D01*
X106145Y504820D01*
X106389Y504324D01*
X106677Y503810D01*
X107387Y502729D01*
X107808Y502161D01*
X102192D01*
X102613Y502729D01*
X103323Y503810D01*
X103611Y504324D01*
X103855Y504820D01*
X104055Y505299D01*
X104210Y505760D01*
X104321Y506204D01*
X104387Y506629D01*
X104409Y507037D01*
X105591D01*
X105613Y506629D01*
D02*
G37*
G36*
X95523Y506662D02*
X95592Y506250D01*
X95708Y505816D01*
X95869Y505361D01*
X96077Y504883D01*
X96331Y504383D01*
X96977Y503316D01*
X97369Y502750D01*
X97808Y502161D01*
X92192D01*
X92631Y502750D01*
X93369Y503861D01*
X93669Y504383D01*
X94131Y505361D01*
X94292Y505816D01*
X94408Y506250D01*
X94477Y506662D01*
X94500Y507051D01*
X95500D01*
X95523Y506662D01*
D02*
G37*
G36*
X80746Y505121D02*
X81093Y504867D01*
X81485Y504632D01*
X81921Y504416D01*
X82401Y504219D01*
X82924Y504040D01*
X83492Y503880D01*
X84759Y503617D01*
X85458Y503514D01*
X81486Y499542D01*
X81383Y500241D01*
X81120Y501508D01*
X80960Y502076D01*
X80781Y502599D01*
X80584Y503079D01*
X80368Y503515D01*
X80133Y503907D01*
X79879Y504254D01*
X79606Y504558D01*
X80442Y505394D01*
X80746Y505121D01*
D02*
G37*
G36*
X110394Y494558D02*
X110121Y494254D01*
X109867Y493907D01*
X109632Y493515D01*
X109416Y493079D01*
X109219Y492599D01*
X109040Y492076D01*
X108880Y491508D01*
X108617Y490241D01*
X108514Y489542D01*
X104542Y493514D01*
X105241Y493617D01*
X106508Y493880D01*
X107076Y494040D01*
X107599Y494219D01*
X108079Y494416D01*
X108515Y494632D01*
X108907Y494867D01*
X109254Y495121D01*
X109558Y495394D01*
X110394Y494558D01*
D02*
G37*
G36*
X100393D02*
X100121Y494254D01*
X99867Y493907D01*
X99632Y493515D01*
X99416Y493079D01*
X99219Y492599D01*
X99040Y492076D01*
X98880Y491508D01*
X98617Y490241D01*
X98514Y489542D01*
X94542Y493514D01*
X95241Y493617D01*
X96508Y493880D01*
X97076Y494040D01*
X97599Y494219D01*
X98079Y494416D01*
X98515Y494632D01*
X98907Y494867D01*
X99254Y495121D01*
X99558Y495394D01*
X100393Y494558D01*
D02*
G37*
G36*
X90394D02*
X90121Y494254D01*
X89867Y493907D01*
X89632Y493515D01*
X89416Y493079D01*
X89219Y492599D01*
X89040Y492076D01*
X88880Y491508D01*
X88617Y490241D01*
X88514Y489542D01*
X84542Y493514D01*
X85241Y493617D01*
X86508Y493880D01*
X87076Y494040D01*
X87599Y494219D01*
X88079Y494416D01*
X88515Y494632D01*
X88907Y494867D01*
X89254Y495121D01*
X89558Y495394D01*
X90394Y494558D01*
D02*
G37*
G36*
X256093Y575699D02*
X256223Y575615D01*
X256354Y575541D01*
X256486Y575477D01*
X256620Y575423D01*
X256755Y575379D01*
X256891Y575344D01*
X257029Y575320D01*
X257168Y575305D01*
X257308Y575300D01*
Y574700D01*
X257168Y574695D01*
X257029Y574680D01*
X256891Y574656D01*
X256755Y574621D01*
X256620Y574577D01*
X256486Y574523D01*
X256354Y574459D01*
X256223Y574385D01*
X256093Y574301D01*
X255964Y574208D01*
Y575792D01*
X256093Y575699D01*
D02*
G37*
G36*
Y570699D02*
X256223Y570615D01*
X256354Y570541D01*
X256486Y570477D01*
X256620Y570423D01*
X256755Y570379D01*
X256891Y570344D01*
X257029Y570320D01*
X257168Y570305D01*
X257308Y570300D01*
Y569700D01*
X257168Y569695D01*
X257029Y569680D01*
X256891Y569656D01*
X256755Y569621D01*
X256620Y569577D01*
X256486Y569523D01*
X256354Y569459D01*
X256223Y569385D01*
X256093Y569301D01*
X255964Y569208D01*
Y570792D01*
X256093Y570699D01*
D02*
G37*
G36*
X274593Y565699D02*
X274723Y565615D01*
X274854Y565541D01*
X274986Y565477D01*
X275120Y565423D01*
X275255Y565379D01*
X275392Y565344D01*
X275529Y565320D01*
X275668Y565305D01*
X275808Y565300D01*
Y564700D01*
X275668Y564695D01*
X275529Y564680D01*
X275392Y564656D01*
X275255Y564621D01*
X275120Y564577D01*
X274986Y564523D01*
X274854Y564459D01*
X274723Y564385D01*
X274593Y564301D01*
X274464Y564208D01*
Y565792D01*
X274593Y565699D01*
D02*
G37*
G36*
X256093D02*
X256223Y565615D01*
X256354Y565541D01*
X256486Y565477D01*
X256620Y565423D01*
X256755Y565379D01*
X256891Y565344D01*
X257029Y565320D01*
X257168Y565305D01*
X257308Y565300D01*
Y564700D01*
X257168Y564695D01*
X257029Y564680D01*
X256891Y564656D01*
X256755Y564621D01*
X256620Y564577D01*
X256486Y564523D01*
X256354Y564459D01*
X256223Y564385D01*
X256093Y564301D01*
X255964Y564208D01*
Y565792D01*
X256093Y565699D01*
D02*
G37*
G36*
X260748Y563462D02*
X260783Y563428D01*
X260826Y563398D01*
X260877Y563372D01*
X260937Y563350D01*
X261004Y563332D01*
X261080Y563318D01*
X261163Y563308D01*
X261255Y563302D01*
X261354Y563300D01*
Y562700D01*
X261255Y562698D01*
X261080Y562682D01*
X261004Y562668D01*
X260937Y562650D01*
X260877Y562628D01*
X260826Y562602D01*
X260783Y562572D01*
X260748Y562538D01*
X260720Y562500D01*
Y563500D01*
X260748Y563462D01*
D02*
G37*
G36*
X274871Y559972D02*
X274903Y559821D01*
X274944Y559676D01*
X274992Y559537D01*
X275049Y559404D01*
X275113Y559277D01*
X275185Y559157D01*
X275265Y559042D01*
X275352Y558933D01*
X275448Y558830D01*
X275024Y558406D01*
X274921Y558502D01*
X274813Y558590D01*
X274698Y558670D01*
X274577Y558742D01*
X274450Y558806D01*
X274317Y558862D01*
X274178Y558910D01*
X274033Y558951D01*
X273882Y558984D01*
X273725Y559008D01*
X274846Y560129D01*
X274871Y559972D01*
D02*
G37*
G36*
X288431Y531357D02*
X288446Y531218D01*
X288470Y531080D01*
X288505Y530944D01*
X288549Y530809D01*
X288603Y530675D01*
X288667Y530543D01*
X288741Y530412D01*
X288825Y530282D01*
X288918Y530153D01*
X287334D01*
X287427Y530282D01*
X287511Y530412D01*
X287585Y530543D01*
X287649Y530675D01*
X287703Y530809D01*
X287747Y530944D01*
X287782Y531080D01*
X287806Y531218D01*
X287821Y531357D01*
X287826Y531497D01*
X288426D01*
X288431Y531357D01*
D02*
G37*
G36*
X284494D02*
X284509Y531218D01*
X284533Y531080D01*
X284568Y530944D01*
X284612Y530809D01*
X284666Y530675D01*
X284730Y530543D01*
X284804Y530412D01*
X284888Y530282D01*
X284981Y530153D01*
X283397D01*
X283490Y530282D01*
X283574Y530412D01*
X283648Y530543D01*
X283712Y530675D01*
X283766Y530809D01*
X283810Y530944D01*
X283845Y531080D01*
X283869Y531218D01*
X283884Y531357D01*
X283889Y531497D01*
X284489D01*
X284494Y531357D01*
D02*
G37*
G36*
X274651D02*
X274666Y531218D01*
X274691Y531080D01*
X274725Y530944D01*
X274770Y530809D01*
X274824Y530675D01*
X274888Y530543D01*
X274962Y530412D01*
X275045Y530282D01*
X275139Y530153D01*
X273554D01*
X273648Y530282D01*
X273731Y530412D01*
X273805Y530543D01*
X273869Y530675D01*
X273923Y530809D01*
X273968Y530944D01*
X274002Y531080D01*
X274027Y531218D01*
X274042Y531357D01*
X274046Y531497D01*
X274646D01*
X274651Y531357D01*
D02*
G37*
G36*
X286462Y528404D02*
X286477Y528265D01*
X286502Y528128D01*
X286536Y527991D01*
X286581Y527856D01*
X286635Y527723D01*
X286699Y527590D01*
X286773Y527459D01*
X286856Y527329D01*
X286950Y527201D01*
X285365D01*
X285459Y527329D01*
X285542Y527459D01*
X285616Y527590D01*
X285680Y527723D01*
X285734Y527856D01*
X285779Y527991D01*
X285813Y528128D01*
X285838Y528265D01*
X285853Y528404D01*
X285858Y528545D01*
X286457D01*
X286462Y528404D01*
D02*
G37*
G36*
X282525D02*
X282540Y528265D01*
X282565Y528128D01*
X282599Y527991D01*
X282644Y527856D01*
X282698Y527723D01*
X282762Y527590D01*
X282836Y527459D01*
X282919Y527329D01*
X283013Y527201D01*
X281428D01*
X281522Y527329D01*
X281605Y527459D01*
X281679Y527590D01*
X281743Y527723D01*
X281797Y527856D01*
X281842Y527991D01*
X281876Y528128D01*
X281901Y528265D01*
X281916Y528404D01*
X281921Y528545D01*
X282521D01*
X282525Y528404D01*
D02*
G37*
G36*
X276620D02*
X276635Y528265D01*
X276659Y528128D01*
X276694Y527991D01*
X276738Y527856D01*
X276792Y527723D01*
X276856Y527590D01*
X276930Y527459D01*
X277014Y527329D01*
X277107Y527201D01*
X275523D01*
X275616Y527329D01*
X275700Y527459D01*
X275774Y527590D01*
X275838Y527723D01*
X275892Y527856D01*
X275936Y527991D01*
X275971Y528128D01*
X275995Y528265D01*
X276010Y528404D01*
X276015Y528545D01*
X276615D01*
X276620Y528404D01*
D02*
G37*
G36*
X345871Y479972D02*
X345903Y479821D01*
X345944Y479676D01*
X345992Y479537D01*
X346049Y479404D01*
X346113Y479277D01*
X346185Y479156D01*
X346265Y479042D01*
X346352Y478933D01*
X346448Y478830D01*
X346024Y478406D01*
X345921Y478502D01*
X345813Y478590D01*
X345698Y478670D01*
X345577Y478742D01*
X345450Y478806D01*
X345317Y478862D01*
X345178Y478910D01*
X345033Y478951D01*
X344882Y478984D01*
X344725Y479008D01*
X345846Y480129D01*
X345871Y479972D01*
D02*
G37*
G36*
X344244Y469208D02*
X344116Y469301D01*
X343986Y469385D01*
X343855Y469459D01*
X343722Y469523D01*
X343588Y469577D01*
X343454Y469621D01*
X343317Y469656D01*
X343179Y469680D01*
X343041Y469695D01*
X342900Y469700D01*
Y470300D01*
X343041Y470305D01*
X343179Y470320D01*
X343317Y470344D01*
X343454Y470379D01*
X343588Y470423D01*
X343722Y470477D01*
X343855Y470541D01*
X343986Y470615D01*
X344116Y470699D01*
X344244Y470792D01*
Y469208D01*
D02*
G37*
G36*
X344983Y464008D02*
X344826Y463984D01*
X344675Y463951D01*
X344530Y463910D01*
X344391Y463862D01*
X344258Y463806D01*
X344132Y463742D01*
X344011Y463670D01*
X343896Y463590D01*
X343787Y463502D01*
X343685Y463406D01*
X343261Y463831D01*
X343356Y463933D01*
X343444Y464042D01*
X343524Y464156D01*
X343596Y464277D01*
X343660Y464404D01*
X343716Y464537D01*
X343765Y464676D01*
X343805Y464821D01*
X343838Y464972D01*
X343863Y465129D01*
X344983Y464008D01*
D02*
G37*
G36*
X282935Y464073D02*
X282851Y463943D01*
X282778Y463811D01*
X282714Y463679D01*
X282659Y463545D01*
X282615Y463410D01*
X282580Y463274D01*
X282556Y463136D01*
X282541Y462997D01*
X282536Y462857D01*
X281936D01*
X281931Y462997D01*
X281916Y463136D01*
X281892Y463274D01*
X281857Y463410D01*
X281813Y463545D01*
X281759Y463679D01*
X281695Y463811D01*
X281621Y463943D01*
X281537Y464073D01*
X281444Y464201D01*
X283029D01*
X282935Y464073D01*
D02*
G37*
G36*
X278998D02*
X278914Y463943D01*
X278840Y463811D01*
X278777Y463679D01*
X278722Y463545D01*
X278678Y463410D01*
X278643Y463274D01*
X278619Y463136D01*
X278604Y462997D01*
X278599Y462857D01*
X277999D01*
X277994Y462997D01*
X277979Y463136D01*
X277955Y463274D01*
X277920Y463410D01*
X277876Y463545D01*
X277822Y463679D01*
X277758Y463811D01*
X277684Y463943D01*
X277600Y464073D01*
X277507Y464201D01*
X279092D01*
X278998Y464073D01*
D02*
G37*
G36*
X275061D02*
X274977Y463943D01*
X274903Y463811D01*
X274839Y463679D01*
X274785Y463545D01*
X274741Y463410D01*
X274707Y463274D01*
X274682Y463136D01*
X274667Y462997D01*
X274662Y462857D01*
X274062D01*
X274057Y462997D01*
X274043Y463136D01*
X274018Y463274D01*
X273983Y463410D01*
X273939Y463545D01*
X273885Y463679D01*
X273821Y463811D01*
X273747Y463943D01*
X273663Y464073D01*
X273570Y464201D01*
X275155D01*
X275061Y464073D01*
D02*
G37*
G36*
X291120Y464373D02*
X291235Y464274D01*
X291351Y464186D01*
X291469Y464107D01*
X291588Y464037D01*
X291709Y463977D01*
X291832Y463927D01*
X291955Y463887D01*
X292081Y463856D01*
X292208Y463834D01*
X291087Y462713D01*
X291066Y462840D01*
X291035Y462966D01*
X290994Y463090D01*
X290944Y463212D01*
X290884Y463333D01*
X290815Y463452D01*
X290736Y463570D01*
X290647Y463687D01*
X290549Y463801D01*
X290441Y463915D01*
X291006Y464480D01*
X291120Y464373D01*
D02*
G37*
G36*
X269711Y463447D02*
X269731Y463279D01*
X269760Y463121D01*
X269797Y462971D01*
X269842Y462830D01*
X269896Y462698D01*
X269958Y462575D01*
X270029Y462461D01*
X270108Y462356D01*
X270196Y462260D01*
X269691Y461916D01*
X269581Y462021D01*
X269354Y462206D01*
X269237Y462287D01*
X269118Y462360D01*
X268996Y462425D01*
X268871Y462482D01*
X268744Y462532D01*
X268615Y462573D01*
X268483Y462607D01*
X269700Y463623D01*
X269711Y463447D01*
D02*
G37*
G36*
X288865Y462518D02*
X288994Y462434D01*
X289126Y462360D01*
X289258Y462296D01*
X289392Y462242D01*
X289527Y462198D01*
X289663Y462163D01*
X289801Y462139D01*
X289940Y462124D01*
X290080Y462119D01*
Y461519D01*
X289940Y461514D01*
X289801Y461500D01*
X289663Y461475D01*
X289527Y461440D01*
X289392Y461396D01*
X289258Y461342D01*
X289126Y461278D01*
X288994Y461204D01*
X288865Y461120D01*
X288736Y461027D01*
Y462612D01*
X288865Y462518D01*
D02*
G37*
G36*
X285205Y461846D02*
X285238Y461695D01*
X285279Y461550D01*
X285327Y461411D01*
X285383Y461278D01*
X285447Y461151D01*
X285519Y461030D01*
X285599Y460916D01*
X285687Y460807D01*
X285783Y460705D01*
X285359Y460280D01*
X285256Y460376D01*
X285147Y460464D01*
X285033Y460544D01*
X284912Y460616D01*
X284785Y460680D01*
X284652Y460736D01*
X284513Y460784D01*
X284368Y460825D01*
X284217Y460858D01*
X284060Y460882D01*
X285181Y462003D01*
X285205Y461846D01*
D02*
G37*
G36*
X280951Y460006D02*
X280867Y459876D01*
X280793Y459745D01*
X280729Y459613D01*
X280675Y459479D01*
X280631Y459344D01*
X280596Y459207D01*
X280572Y459070D01*
X280557Y458931D01*
X280552Y458791D01*
X279952D01*
X279947Y458931D01*
X279932Y459070D01*
X279908Y459207D01*
X279873Y459344D01*
X279829Y459479D01*
X279775Y459613D01*
X279711Y459745D01*
X279637Y459876D01*
X279553Y460006D01*
X279460Y460135D01*
X281044D01*
X280951Y460006D01*
D02*
G37*
G36*
X277014D02*
X276930Y459876D01*
X276856Y459745D01*
X276792Y459613D01*
X276738Y459479D01*
X276694Y459344D01*
X276659Y459207D01*
X276635Y459070D01*
X276620Y458931D01*
X276615Y458791D01*
X276015D01*
X276010Y458931D01*
X275995Y459070D01*
X275971Y459207D01*
X275936Y459344D01*
X275892Y459479D01*
X275838Y459613D01*
X275774Y459745D01*
X275700Y459876D01*
X275616Y460006D01*
X275523Y460135D01*
X277107D01*
X277014Y460006D01*
D02*
G37*
G36*
X266228Y414372D02*
X266120Y414259D01*
X266022Y414144D01*
X265933Y414028D01*
X265854Y413910D01*
X265785Y413790D01*
X265725Y413669D01*
X265674Y413547D01*
X265634Y413423D01*
X265603Y413298D01*
X265581Y413171D01*
X264461Y414292D01*
X264588Y414313D01*
X264713Y414344D01*
X264837Y414385D01*
X264959Y414435D01*
X265080Y414495D01*
X265199Y414564D01*
X265317Y414643D01*
X265434Y414732D01*
X265549Y414830D01*
X265662Y414938D01*
X266228Y414372D01*
D02*
G37*
G36*
X271184Y404469D02*
X271088Y404367D01*
X271000Y404258D01*
X270920Y404143D01*
X270848Y404023D01*
X270784Y403896D01*
X270728Y403763D01*
X270679Y403624D01*
X270639Y403479D01*
X270606Y403328D01*
X270581Y403171D01*
X269461Y404292D01*
X269618Y404316D01*
X269769Y404349D01*
X269914Y404390D01*
X270053Y404438D01*
X270186Y404494D01*
X270312Y404558D01*
X270433Y404630D01*
X270548Y404710D01*
X270657Y404798D01*
X270759Y404894D01*
X271184Y404469D01*
D02*
G37*
G36*
Y399469D02*
X271088Y399367D01*
X271000Y399258D01*
X270920Y399144D01*
X270848Y399023D01*
X270784Y398896D01*
X270728Y398763D01*
X270679Y398624D01*
X270639Y398479D01*
X270606Y398328D01*
X270581Y398171D01*
X269461Y399292D01*
X269618Y399316D01*
X269769Y399349D01*
X269914Y399390D01*
X270053Y399438D01*
X270186Y399494D01*
X270312Y399558D01*
X270433Y399630D01*
X270548Y399710D01*
X270657Y399798D01*
X270759Y399894D01*
X271184Y399469D01*
D02*
G37*
G36*
X267395Y395114D02*
X267409Y394975D01*
X267434Y394837D01*
X267469Y394701D01*
X267513Y394566D01*
X267567Y394432D01*
X267631Y394300D01*
X267705Y394168D01*
X267789Y394039D01*
X267882Y393910D01*
X266297D01*
X266391Y394039D01*
X266475Y394168D01*
X266548Y394300D01*
X266613Y394432D01*
X266667Y394566D01*
X266711Y394701D01*
X266745Y394837D01*
X266770Y394975D01*
X266785Y395114D01*
X266790Y395254D01*
X267390D01*
X267395Y395114D01*
D02*
G37*
G36*
X264895Y390114D02*
X264910Y389975D01*
X264934Y389837D01*
X264969Y389701D01*
X265013Y389566D01*
X265067Y389432D01*
X265131Y389300D01*
X265205Y389168D01*
X265289Y389039D01*
X265382Y388910D01*
X263797D01*
X263891Y389039D01*
X263975Y389168D01*
X264049Y389300D01*
X264112Y389432D01*
X264167Y389566D01*
X264211Y389701D01*
X264245Y389837D01*
X264270Y389975D01*
X264285Y390114D01*
X264290Y390254D01*
X264890D01*
X264895Y390114D01*
D02*
G37*
G36*
X237516Y360554D02*
X237548Y360343D01*
X237602Y360123D01*
X237679Y359895D01*
X237776Y359658D01*
X237896Y359414D01*
X238037Y359160D01*
X238385Y358629D01*
X238591Y358351D01*
X235818D01*
X236024Y358629D01*
X236372Y359160D01*
X236513Y359414D01*
X236633Y359658D01*
X236731Y359895D01*
X236807Y360123D01*
X236861Y360343D01*
X236894Y360554D01*
X236905Y360757D01*
X237505D01*
X237516Y360554D01*
D02*
G37*
G36*
X95458Y446486D02*
X94731Y446380D01*
X93423Y446116D01*
X92842Y445959D01*
X91824Y445594D01*
X91387Y445386D01*
X90999Y445161D01*
X90659Y444919D01*
X90368Y444661D01*
X89661Y445368D01*
X89919Y445659D01*
X90161Y445999D01*
X90386Y446387D01*
X90594Y446824D01*
X90785Y447308D01*
X90959Y447842D01*
X91257Y449053D01*
X91380Y449731D01*
X91486Y450458D01*
X95458Y446486D01*
D02*
G37*
G36*
X85458D02*
X84743Y446381D01*
X83452Y446118D01*
X82876Y445960D01*
X82347Y445784D01*
X81864Y445590D01*
X81428Y445378D01*
X81038Y445149D01*
X80695Y444902D01*
X80398Y444638D01*
X79638Y445399D01*
X79902Y445695D01*
X80149Y446038D01*
X80378Y446428D01*
X80590Y446864D01*
X80784Y447347D01*
X80960Y447876D01*
X81118Y448452D01*
X81381Y449743D01*
X81486Y450458D01*
X85458Y446486D01*
D02*
G37*
G36*
X105458D02*
X104759Y446383D01*
X103492Y446120D01*
X102924Y445960D01*
X102401Y445781D01*
X101921Y445584D01*
X101485Y445368D01*
X101093Y445133D01*
X100746Y444879D01*
X100442Y444606D01*
X99607Y445442D01*
X99879Y445746D01*
X100133Y446093D01*
X100368Y446485D01*
X100584Y446921D01*
X100781Y447401D01*
X100960Y447924D01*
X101120Y448492D01*
X101383Y449759D01*
X101486Y450458D01*
X105458Y446486D01*
D02*
G37*
G36*
X107387Y437271D02*
X106677Y436190D01*
X106389Y435676D01*
X106145Y435180D01*
X105945Y434701D01*
X105790Y434240D01*
X105679Y433797D01*
X105613Y433371D01*
X105591Y432963D01*
X104409D01*
X104387Y433371D01*
X104321Y433797D01*
X104210Y434240D01*
X104055Y434701D01*
X103855Y435180D01*
X103611Y435676D01*
X103323Y436190D01*
X102613Y437271D01*
X102192Y437839D01*
X107808D01*
X107387Y437271D01*
D02*
G37*
G36*
X97386D02*
X96677Y436190D01*
X96389Y435676D01*
X96145Y435180D01*
X95945Y434701D01*
X95790Y434240D01*
X95679Y433797D01*
X95613Y433371D01*
X95591Y432963D01*
X94410D01*
X94387Y433371D01*
X94321Y433797D01*
X94210Y434240D01*
X94055Y434701D01*
X93855Y435180D01*
X93611Y435676D01*
X93323Y436190D01*
X92614Y437271D01*
X92192Y437839D01*
X97808D01*
X97386Y437271D01*
D02*
G37*
G36*
X87376Y437259D02*
X86650Y436161D01*
X86355Y435642D01*
X86105Y435143D01*
X85901Y434665D01*
X85742Y434207D01*
X85629Y433769D01*
X85561Y433352D01*
X85538Y432955D01*
X84462D01*
X84439Y433352D01*
X84371Y433769D01*
X84258Y434207D01*
X84099Y434665D01*
X83895Y435143D01*
X83645Y435642D01*
X83350Y436161D01*
X82623Y437259D01*
X82192Y437839D01*
X87808D01*
X87376Y437259D01*
D02*
G37*
G36*
X105613Y406629D02*
X105679Y406204D01*
X105790Y405760D01*
X105945Y405299D01*
X106145Y404820D01*
X106389Y404324D01*
X106677Y403810D01*
X107387Y402729D01*
X107808Y402161D01*
X102192D01*
X102613Y402729D01*
X103323Y403810D01*
X103611Y404324D01*
X103855Y404820D01*
X104055Y405299D01*
X104210Y405760D01*
X104321Y406204D01*
X104387Y406629D01*
X104409Y407037D01*
X105591D01*
X105613Y406629D01*
D02*
G37*
G36*
X95523Y406662D02*
X95592Y406250D01*
X95708Y405816D01*
X95869Y405361D01*
X96077Y404883D01*
X96331Y404383D01*
X96977Y403316D01*
X97369Y402750D01*
X97808Y402161D01*
X92192D01*
X92631Y402750D01*
X93369Y403861D01*
X93669Y404383D01*
X94131Y405361D01*
X94292Y405816D01*
X94408Y406250D01*
X94477Y406662D01*
X94500Y407051D01*
X95500D01*
X95523Y406662D01*
D02*
G37*
G36*
X85561Y406648D02*
X85629Y406231D01*
X85742Y405793D01*
X85901Y405335D01*
X86105Y404857D01*
X86355Y404358D01*
X86650Y403839D01*
X87376Y402741D01*
X87808Y402161D01*
X82192D01*
X82623Y402741D01*
X83350Y403839D01*
X83645Y404358D01*
X83895Y404857D01*
X84099Y405335D01*
X84258Y405793D01*
X84371Y406231D01*
X84439Y406648D01*
X84462Y407046D01*
X85538D01*
X85561Y406648D01*
D02*
G37*
G36*
X110394Y394558D02*
X110121Y394254D01*
X109867Y393907D01*
X109632Y393515D01*
X109416Y393079D01*
X109219Y392599D01*
X109040Y392076D01*
X108880Y391508D01*
X108617Y390241D01*
X108514Y389542D01*
X104542Y393514D01*
X105241Y393617D01*
X106508Y393880D01*
X107076Y394040D01*
X107599Y394219D01*
X108079Y394416D01*
X108515Y394632D01*
X108907Y394867D01*
X109254Y395121D01*
X109558Y395393D01*
X110394Y394558D01*
D02*
G37*
G36*
X100393D02*
X100121Y394254D01*
X99867Y393907D01*
X99632Y393515D01*
X99416Y393079D01*
X99219Y392599D01*
X99040Y392076D01*
X98880Y391508D01*
X98617Y390241D01*
X98514Y389542D01*
X94542Y393514D01*
X95241Y393617D01*
X96508Y393880D01*
X97076Y394040D01*
X97599Y394219D01*
X98079Y394416D01*
X98515Y394632D01*
X98907Y394867D01*
X99254Y395121D01*
X99558Y395393D01*
X100393Y394558D01*
D02*
G37*
G36*
X90362Y394601D02*
X90098Y394305D01*
X89851Y393962D01*
X89622Y393572D01*
X89410Y393136D01*
X89217Y392653D01*
X89040Y392124D01*
X88882Y391548D01*
X88619Y390257D01*
X88514Y389542D01*
X84542Y393514D01*
X85257Y393619D01*
X86548Y393882D01*
X87124Y394040D01*
X87653Y394216D01*
X88136Y394410D01*
X88572Y394622D01*
X88961Y394851D01*
X89305Y395098D01*
X89601Y395362D01*
X90362Y394601D01*
D02*
G37*
G36*
X369332Y416468D02*
X369330Y416267D01*
X369350Y416067D01*
X369392Y415869D01*
X369456Y415673D01*
X369542Y415480D01*
X369650Y415288D01*
X369780Y415098D01*
X369932Y414910D01*
X370106Y414724D01*
X369257Y413876D01*
X369072Y414050D01*
X368884Y414201D01*
X368694Y414331D01*
X368502Y414439D01*
X368308Y414525D01*
X368112Y414590D01*
X367915Y414632D01*
X367715Y414652D01*
X367513Y414650D01*
X367309Y414626D01*
X369356Y416672D01*
X369332Y416468D01*
D02*
G37*
G36*
X379030Y406717D02*
X378608Y407029D01*
X377794Y407555D01*
X377402Y407768D01*
X377020Y407949D01*
X376648Y408097D01*
X376285Y408212D01*
X375933Y408294D01*
X375590Y408343D01*
X375258Y408360D01*
Y409436D01*
X375590Y409452D01*
X375933Y409501D01*
X376285Y409584D01*
X376648Y409698D01*
X377020Y409846D01*
X377402Y410027D01*
X377794Y410241D01*
X378608Y410766D01*
X379030Y411078D01*
Y406717D01*
D02*
G37*
G36*
X387543Y397935D02*
X387825Y397719D01*
X388134Y397522D01*
X388471Y397342D01*
X388835Y397179D01*
X389226Y397034D01*
X389645Y396906D01*
X390090Y396795D01*
X391064Y396627D01*
X389020Y394583D01*
X389061Y391693D01*
X388650Y391988D01*
X387849Y392482D01*
X387460Y392682D01*
X387078Y392850D01*
X386704Y392987D01*
X386337Y393093D01*
X385977Y393167D01*
X385625Y393209D01*
X385280Y393220D01*
X385263Y394420D01*
X385607Y394440D01*
X385958Y394493D01*
X386315Y394577D01*
X386679Y394693D01*
X387050Y394841D01*
X387426Y395020D01*
X387646Y395141D01*
X387573Y395380D01*
X387427Y395771D01*
X387265Y396135D01*
X387085Y396472D01*
X386887Y396781D01*
X386672Y397064D01*
X386439Y397318D01*
X387288Y398167D01*
X387543Y397935D01*
D02*
G37*
G36*
X387981Y382284D02*
X387959Y382488D01*
X387894Y382671D01*
X387786Y382832D01*
X387634Y382972D01*
X387440Y383091D01*
X387202Y383188D01*
X386920Y383263D01*
X386596Y383317D01*
X386228Y383349D01*
X385817Y383360D01*
Y384436D01*
X386228Y384446D01*
X386596Y384479D01*
X386920Y384532D01*
X387202Y384608D01*
X387440Y384705D01*
X387634Y384823D01*
X387786Y384963D01*
X387894Y385124D01*
X387959Y385307D01*
X387981Y385512D01*
Y382284D01*
D02*
G37*
G36*
X268773Y374223D02*
X268652Y374097D01*
X268356Y373748D01*
X268281Y373641D01*
X268218Y373538D01*
X268166Y373439D01*
X268126Y373345D01*
X268098Y373256D01*
X268081Y373171D01*
X266961Y374292D01*
X267046Y374308D01*
X267135Y374337D01*
X267229Y374377D01*
X267328Y374428D01*
X267430Y374492D01*
X267538Y374567D01*
X267766Y374752D01*
X267887Y374862D01*
X268012Y374984D01*
X268773Y374223D01*
D02*
G37*
G36*
X300272Y374044D02*
X300355Y374001D01*
X300449Y373963D01*
X300556Y373930D01*
X300673Y373902D01*
X300802Y373879D01*
X301095Y373848D01*
X301258Y373840D01*
X301433Y373838D01*
Y372762D01*
X301258Y372760D01*
X300802Y372721D01*
X300673Y372698D01*
X300556Y372670D01*
X300449Y372637D01*
X300355Y372599D01*
X300272Y372556D01*
X300200Y372508D01*
Y374092D01*
X300272Y374044D01*
D02*
G37*
G36*
X283773Y369223D02*
X283652Y369097D01*
X283356Y368748D01*
X283281Y368641D01*
X283218Y368538D01*
X283166Y368439D01*
X283126Y368345D01*
X283098Y368256D01*
X283081Y368171D01*
X281961Y369292D01*
X282046Y369308D01*
X282135Y369337D01*
X282229Y369376D01*
X282328Y369428D01*
X282431Y369492D01*
X282538Y369567D01*
X282766Y369752D01*
X282887Y369862D01*
X283013Y369984D01*
X283773Y369223D01*
D02*
G37*
G36*
X268773Y369223D02*
X268652Y369097D01*
X268356Y368748D01*
X268281Y368641D01*
X268218Y368538D01*
X268166Y368439D01*
X268126Y368345D01*
X268098Y368256D01*
X268081Y368171D01*
X266961Y369292D01*
X267046Y369308D01*
X267135Y369337D01*
X267229Y369376D01*
X267328Y369428D01*
X267430Y369492D01*
X267538Y369567D01*
X267766Y369752D01*
X267887Y369862D01*
X268012Y369984D01*
X268773Y369223D01*
D02*
G37*
%LPC*%
G36*
X255700Y605504D02*
X254744Y605314D01*
X253934Y604772D01*
X253392Y603962D01*
X253202Y603006D01*
X253392Y602050D01*
X253934Y601239D01*
X254744Y600698D01*
X255700Y600508D01*
X256656Y600698D01*
X257466Y601239D01*
X258008Y602050D01*
X258198Y603006D01*
X258008Y603962D01*
X257466Y604772D01*
X256656Y605314D01*
X255700Y605504D01*
D02*
G37*
G36*
X190810Y350288D02*
X190049Y350137D01*
X189404Y349706D01*
X188973Y349061D01*
X188822Y348300D01*
X188973Y347539D01*
X189404Y346894D01*
X190049Y346463D01*
X190810Y346312D01*
X191571Y346463D01*
X192216Y346894D01*
X192647Y347539D01*
X192798Y348300D01*
X192647Y349061D01*
X192216Y349706D01*
X191571Y350137D01*
X190810Y350288D01*
D02*
G37*
G36*
X180810D02*
X180049Y350137D01*
X179404Y349706D01*
X178973Y349061D01*
X178822Y348300D01*
X178973Y347539D01*
X179404Y346894D01*
X180049Y346463D01*
X180810Y346312D01*
X181571Y346463D01*
X182216Y346894D01*
X182647Y347539D01*
X182798Y348300D01*
X182647Y349061D01*
X182216Y349706D01*
X181571Y350137D01*
X180810Y350288D01*
D02*
G37*
G36*
X160810D02*
X160049Y350137D01*
X159404Y349706D01*
X158973Y349061D01*
X158822Y348300D01*
X158973Y347539D01*
X159404Y346894D01*
X160049Y346463D01*
X160810Y346312D01*
X161571Y346463D01*
X162216Y346894D01*
X162647Y347539D01*
X162798Y348300D01*
X162647Y349061D01*
X162216Y349706D01*
X161571Y350137D01*
X160810Y350288D01*
D02*
G37*
G36*
X230295Y349988D02*
X229534Y349837D01*
X228889Y349406D01*
X228458Y348761D01*
X228307Y348000D01*
X228458Y347239D01*
X228889Y346594D01*
X229534Y346163D01*
X230295Y346012D01*
X231056Y346163D01*
X231701Y346594D01*
X232132Y347239D01*
X232283Y348000D01*
X232132Y348761D01*
X231701Y349406D01*
X231056Y349837D01*
X230295Y349988D01*
D02*
G37*
G36*
X210810Y340288D02*
X210049Y340137D01*
X209404Y339706D01*
X208973Y339061D01*
X208822Y338300D01*
X208973Y337539D01*
X209404Y336894D01*
X210049Y336463D01*
X210810Y336312D01*
X211571Y336463D01*
X212216Y336894D01*
X212647Y337539D01*
X212798Y338300D01*
X212647Y339061D01*
X212216Y339706D01*
X211571Y340137D01*
X210810Y340288D01*
D02*
G37*
G36*
X200810D02*
X200049Y340137D01*
X199404Y339706D01*
X198973Y339061D01*
X198822Y338300D01*
X198973Y337539D01*
X199404Y336894D01*
X200049Y336463D01*
X200810Y336312D01*
X201571Y336463D01*
X202216Y336894D01*
X202647Y337539D01*
X202798Y338300D01*
X202647Y339061D01*
X202216Y339706D01*
X201571Y340137D01*
X200810Y340288D01*
D02*
G37*
G36*
X190810D02*
X190049Y340137D01*
X189404Y339706D01*
X188973Y339061D01*
X188822Y338300D01*
X188973Y337539D01*
X189404Y336894D01*
X190049Y336463D01*
X190810Y336312D01*
X191571Y336463D01*
X192216Y336894D01*
X192647Y337539D01*
X192798Y338300D01*
X192647Y339061D01*
X192216Y339706D01*
X191571Y340137D01*
X190810Y340288D01*
D02*
G37*
G36*
X180810D02*
X180049Y340137D01*
X179404Y339706D01*
X178973Y339061D01*
X178822Y338300D01*
X178973Y337539D01*
X179404Y336894D01*
X180049Y336463D01*
X180810Y336312D01*
X181571Y336463D01*
X182216Y336894D01*
X182647Y337539D01*
X182798Y338300D01*
X182647Y339061D01*
X182216Y339706D01*
X181571Y340137D01*
X180810Y340288D01*
D02*
G37*
G36*
X170810D02*
X170049Y340137D01*
X169404Y339706D01*
X168973Y339061D01*
X168822Y338300D01*
X168973Y337539D01*
X169404Y336894D01*
X170049Y336463D01*
X170810Y336312D01*
X171571Y336463D01*
X172216Y336894D01*
X172647Y337539D01*
X172798Y338300D01*
X172647Y339061D01*
X172216Y339706D01*
X171571Y340137D01*
X170810Y340288D01*
D02*
G37*
%LPD*%
D10*
X95000Y500006D02*
Y515000D01*
X90000Y520000D02*
Y545000D01*
Y520000D02*
X95000Y515000D01*
X90000Y545000D02*
X95000Y550000D01*
Y400000D02*
Y415000D01*
X90000Y420000D02*
Y445000D01*
Y420000D02*
X95000Y415000D01*
X90000Y445000D02*
X95000Y450000D01*
D12*
X137795Y590295D02*
Y598000D01*
X105000Y557500D02*
X137795Y590295D01*
X110000Y545000D02*
Y557500D01*
X145295Y592795D02*
Y593000D01*
X110000Y557500D02*
X145295Y592795D01*
X105000Y540000D02*
X110000Y545000D01*
X105000Y550000D02*
Y557500D01*
X100000Y545000D02*
X105000Y550000D01*
X110000Y495000D02*
Y525000D01*
X105000Y530000D02*
Y540000D01*
Y530000D02*
X110000Y525000D01*
X105000Y500000D02*
Y522500D01*
X100000Y527500D02*
Y545000D01*
Y527500D02*
X105000Y522500D01*
X100000Y495000D02*
Y517500D01*
X95000Y522500D02*
Y540000D01*
Y522500D02*
X100000Y517500D01*
X90000Y495000D02*
Y512500D01*
X85000Y517500D02*
Y540000D01*
Y517500D02*
X90000Y512500D01*
X80000Y545000D02*
X85000Y550000D01*
X80000Y505000D02*
Y545000D01*
Y505000D02*
X85000Y500000D01*
X105000Y490000D02*
X110000Y495000D01*
X95000Y490000D02*
X100000Y495000D01*
X85000Y490000D02*
X90000Y495000D01*
X100000Y395000D02*
Y420000D01*
X95000Y425000D02*
Y440000D01*
Y425000D02*
X100000Y420000D01*
X105000Y430000D02*
Y440000D01*
Y430000D02*
X110000Y425000D01*
X100000Y445000D02*
X105000Y450000D01*
X100000Y430000D02*
Y445000D01*
Y430000D02*
X105000Y425000D01*
Y390000D02*
X110000Y395000D01*
Y425000D01*
X105000Y400000D02*
Y425000D01*
X95000Y390000D02*
X100000Y395000D01*
D14*
X259590Y412294D02*
X270000Y422705D01*
Y462031D01*
X268701Y463330D02*
X270000Y462031D01*
X268701Y463330D02*
Y463583D01*
X213000Y544850D02*
X246024Y511827D01*
X272378D01*
X213000Y544850D02*
Y545000D01*
X250000Y518701D02*
Y556000D01*
X213000Y593000D02*
X250000Y556000D01*
X246006Y518758D02*
X246034Y518729D01*
X246006Y518758D02*
Y549995D01*
X242126Y518701D02*
Y543874D01*
X213000Y573000D02*
X242126Y543874D01*
X244094Y522638D02*
Y546906D01*
X213000Y578000D02*
X244094Y546906D01*
X213000Y588000D02*
X248031Y552969D01*
Y522638D02*
Y552969D01*
X213000Y583000D02*
X246006Y549995D01*
X228312Y519688D02*
X242094Y505905D01*
X277559D02*
X280252Y508598D01*
X242094Y505905D02*
X277559D01*
X213075Y540075D02*
X245276Y507874D01*
X275590D01*
X290149Y461819D02*
X291469Y460500D01*
X288126Y461819D02*
X290149D01*
X276315Y415025D02*
Y460744D01*
X280252Y408962D02*
Y460744D01*
X284358Y455800D02*
X335654D01*
X282236Y457921D02*
Y464811D01*
Y457921D02*
X284358Y455800D01*
X278299Y412009D02*
Y464811D01*
X274362Y418072D02*
Y464811D01*
X269590Y403300D02*
X278299Y412009D01*
X264590Y408300D02*
X274362Y418072D01*
X269590Y398300D02*
X280252Y408962D01*
X267090Y405800D02*
X276315Y415025D01*
X288126Y529543D02*
Y558728D01*
X284189Y529543D02*
Y556165D01*
X274346Y529543D02*
Y550008D01*
X255354Y570000D02*
X262874D01*
X270540Y562334D02*
X278021D01*
X262874Y570000D02*
X270540Y562334D01*
X268441Y479591D02*
Y482205D01*
X255581Y500000D02*
X295031D01*
X258858Y496063D02*
X295031D01*
X290295Y483000D02*
X305256D01*
X292795Y485500D02*
X304153D01*
X305256Y483000D02*
X308477Y486221D01*
X304153Y485500D02*
X306842Y488189D01*
X295031Y488000D02*
X302716D01*
X306842Y492126D01*
X259590Y388300D02*
Y412294D01*
X370819Y445866D02*
X424795Y391890D01*
Y356457D02*
X428890Y352362D01*
X424795Y356457D02*
Y391890D01*
X372787Y446850D02*
X426795Y392843D01*
Y358394D02*
X430790Y354399D01*
X426795Y358394D02*
Y392843D01*
X376724Y448819D02*
X430295Y395248D01*
Y359815D02*
Y395248D01*
Y359815D02*
X432827Y357283D01*
X213000Y477000D02*
X223063D01*
X227362Y481299D01*
X351134Y492126D02*
X376724Y466535D01*
X306842Y492126D02*
X351134D01*
X308477Y486221D02*
X349165D01*
X370819Y445866D02*
Y464567D01*
X349165Y486221D02*
X370819Y464567D01*
X350150Y488189D02*
X372787Y465551D01*
X306842Y488189D02*
X350150D01*
X376724Y448819D02*
Y466535D01*
X372787Y446850D02*
Y465551D01*
X432827Y346457D02*
Y357283D01*
X400295Y340551D02*
X426921D01*
X432827Y346457D01*
X430790Y350325D02*
Y354399D01*
X428890Y348425D02*
X430790Y350325D01*
X237205Y357283D02*
Y365915D01*
X259590Y388300D01*
X204724Y416339D02*
X216000Y405063D01*
Y402000D02*
Y405063D01*
X204724Y416339D02*
Y496724D01*
X213000Y505000D01*
X225394Y484252D02*
X243110D01*
X256890Y498032D02*
X291094D01*
X243110Y484252D02*
X256890Y498032D01*
X227362Y481299D02*
X244094D01*
X258858Y496063D01*
X229159Y478346D02*
X245079D01*
X260827Y494095D02*
X291094D01*
X245079Y478346D02*
X260827Y494095D01*
X231299Y475394D02*
X246334D01*
X258138Y487198D02*
X266739D01*
X246334Y475394D02*
X258138Y487198D01*
X233268Y472441D02*
X247047D01*
X259835Y485229D02*
X265417D01*
X247047Y472441D02*
X259835Y485229D01*
X213000Y462000D02*
X222827D01*
X233268Y472441D01*
X213000Y467000D02*
X222905D01*
X231299Y475394D01*
X213000Y472000D02*
X222812D01*
X229159Y478346D01*
X213000Y482000D02*
X223142D01*
X225394Y484252D01*
X280252Y508598D02*
Y511827D01*
X226378Y516622D02*
Y516622D01*
Y516622D02*
X241032Y501968D01*
X246063D01*
X228312Y519688D02*
Y519688D01*
X213000Y535000D02*
X228312Y519688D01*
X213000Y520000D02*
X234968Y498032D01*
X246063D01*
X224410Y513590D02*
Y513590D01*
X238000Y500000D02*
X242126D01*
X224410Y513590D02*
X238000Y500000D01*
X213000Y525000D02*
X224410Y513590D01*
X231937Y496063D02*
X242126D01*
X213000Y515000D02*
X231937Y496063D01*
X213000Y515000D02*
Y515000D01*
Y530000D02*
X226378Y516622D01*
X213000Y505000D02*
Y505000D01*
X227842Y490158D02*
X242126D01*
X213000Y505000D02*
X227842Y490158D01*
X228906Y494095D02*
X246063D01*
X213000Y510000D02*
X228906Y494095D01*
X278021Y562334D02*
X284189Y556165D01*
X273854Y560000D02*
X282221Y551634D01*
X213000Y399000D02*
X216000Y402000D01*
X266739Y487198D02*
X270409Y483528D01*
X265417Y485229D02*
X268441Y482205D01*
X213000Y487000D02*
X242581D01*
X255581Y500000D01*
X343090Y467800D02*
X345965D01*
X347090Y468925D02*
Y477765D01*
X345965Y467800D02*
X347090Y468925D01*
X287763Y458300D02*
X333590D01*
X343090Y467800D01*
X291469Y460500D02*
X332790D01*
X342290Y470000D02*
X344854D01*
X332790Y460500D02*
X342290Y470000D01*
X344854Y480000D02*
X347090Y477765D01*
X335654Y455800D02*
X344854Y465000D01*
X284189Y461874D02*
X287763Y458300D01*
X267090Y393300D02*
Y405800D01*
X264590Y388300D02*
Y408300D01*
X259854Y563000D02*
X261354D01*
X274346Y550008D01*
X255354Y565000D02*
X264354D01*
X276315Y553039D01*
Y526590D02*
Y553039D01*
X282221Y526590D02*
Y551634D01*
X278354Y565000D02*
X286157Y557197D01*
X273854Y565000D02*
X278354D01*
X286157Y526590D02*
Y557197D01*
X255354Y575000D02*
X271854D01*
X288126Y558728D01*
X202000Y499000D02*
X213000Y510000D01*
X202000Y415000D02*
Y499000D01*
Y415000D02*
X213000Y404000D01*
Y520000D02*
Y520000D01*
X199000Y386000D02*
Y439000D01*
X195000Y429000D02*
Y535000D01*
X197000Y434000D02*
Y540000D01*
X199000Y492000D02*
Y545000D01*
X175000Y356000D02*
Y462000D01*
X177000Y361000D02*
Y467000D01*
X179000Y366000D02*
Y472000D01*
X181000Y371000D02*
Y477000D01*
X183000Y376000D02*
Y482000D01*
X185000Y381000D02*
Y487000D01*
X187000Y409000D02*
Y515000D01*
X189000Y414000D02*
Y520000D01*
X191000Y419000D02*
Y525000D01*
X193000Y424000D02*
Y530000D01*
D56*
X319600Y479094D02*
D03*
X315200Y396194D02*
D03*
D57*
X319600Y498306D02*
D03*
X383900Y493200D02*
D03*
Y453200D02*
D03*
X315200Y415406D02*
D03*
D61*
X101947Y576227D02*
X117068D01*
X75720Y550000D02*
X101947Y576227D01*
D62*
X258760Y462500D02*
X287646Y491386D01*
X295520D02*
X298968Y494834D01*
X287646Y491386D02*
X295520D01*
X217962Y439000D02*
X241462Y462500D01*
X258760D01*
X213000Y439000D02*
X217962D01*
X298968Y494834D02*
Y505166D01*
X296260Y507874D02*
X298968Y505166D01*
D64*
X264590Y413300D02*
X272000Y420710D01*
Y467370D02*
X273378Y468748D01*
X272000Y420710D02*
Y467370D01*
X286173Y468748D02*
X292079Y462843D01*
X273378Y468748D02*
X286173D01*
D66*
X90000Y400631D02*
Y412500D01*
X85000Y417500D02*
Y440000D01*
Y417500D02*
X90000Y412500D01*
X80000Y415000D02*
X85000Y410000D01*
Y400000D02*
Y410000D01*
X80000Y415000D02*
Y445000D01*
X85000Y450000D01*
X90000Y395000D02*
Y400631D01*
X85000Y390000D02*
X90000Y395000D01*
X278232Y379442D02*
X323339D01*
X344305Y400408D01*
X276184Y382395D02*
X320690D01*
X267090Y373300D02*
X276184Y382395D01*
X320690D02*
X347193Y408898D01*
X267090Y368300D02*
X278232Y379442D01*
X347193Y408898D02*
X380709D01*
X267090Y373300D02*
X267090D01*
D69*
X145000Y400000D02*
D03*
X135000D02*
D03*
X125000D02*
D03*
X115000D02*
D03*
X105000D02*
D03*
X95000D02*
D03*
X85000D02*
D03*
X75000D02*
D03*
X145000Y390000D02*
D03*
X135000D02*
D03*
X125000D02*
D03*
X115000D02*
D03*
X105000D02*
D03*
X95000D02*
D03*
X85000D02*
D03*
X75000D02*
D03*
Y490000D02*
D03*
X85000D02*
D03*
X95000D02*
D03*
X105000D02*
D03*
X115000D02*
D03*
X125000D02*
D03*
X135000D02*
D03*
X145000D02*
D03*
X75000Y500000D02*
D03*
X85000D02*
D03*
X95000D02*
D03*
X105000D02*
D03*
X115000D02*
D03*
X125000D02*
D03*
X135000D02*
D03*
X145000D02*
D03*
Y550000D02*
D03*
X135000D02*
D03*
X125000D02*
D03*
X115000D02*
D03*
X105000D02*
D03*
X95000D02*
D03*
X85000D02*
D03*
X75000D02*
D03*
X145000Y540000D02*
D03*
X135000D02*
D03*
X125000D02*
D03*
X115000D02*
D03*
X105000D02*
D03*
X95000D02*
D03*
X85000D02*
D03*
X75000D02*
D03*
X145000Y450000D02*
D03*
X135000D02*
D03*
X125000D02*
D03*
X115000D02*
D03*
X105000D02*
D03*
X95000D02*
D03*
X85000D02*
D03*
X75000D02*
D03*
X145000Y440000D02*
D03*
X135000D02*
D03*
X125000D02*
D03*
X115000D02*
D03*
X105000D02*
D03*
X95000D02*
D03*
X85000D02*
D03*
X75000D02*
D03*
D70*
X415709Y378917D02*
D03*
Y423917D02*
D03*
D71*
X403701Y431910D02*
D03*
Y370925D02*
D03*
D72*
X435000Y417500D02*
D03*
Y427500D02*
D03*
Y385335D02*
D03*
Y375335D02*
D03*
D73*
X380709Y418898D02*
D03*
X390709Y413898D02*
D03*
X380709Y408898D02*
D03*
X390709Y403898D02*
D03*
X380709Y398898D02*
D03*
X390709Y393898D02*
D03*
X380709Y388898D02*
D03*
D74*
X390709Y383898D02*
D03*
D75*
X425000Y460079D02*
D03*
Y503386D02*
D03*
Y546693D02*
D03*
X86614Y586614D02*
D03*
Y354331D02*
D03*
X350394Y586614D02*
D03*
X354331Y354331D02*
D03*
D76*
X425000Y590000D02*
D03*
D77*
X245600Y467400D02*
D03*
D78*
Y457400D02*
D03*
Y437400D02*
D03*
Y447400D02*
D03*
D79*
X297100Y471900D02*
D03*
X305900Y476900D02*
D03*
X309000Y500300D02*
D03*
X250000Y518701D02*
D03*
X246034Y518729D02*
D03*
X242126Y518701D02*
D03*
X244094Y522638D02*
D03*
X248031D02*
D03*
X290354Y512795D02*
D03*
X292079Y462843D02*
D03*
X276315Y460744D02*
D03*
X280252D02*
D03*
X282236Y464811D02*
D03*
X278299D02*
D03*
X274362D02*
D03*
X288126Y529543D02*
D03*
X284189D02*
D03*
X274346D02*
D03*
X265905Y581968D02*
D03*
X255906D02*
D03*
X285433Y512795D02*
D03*
Y507874D02*
D03*
X290354D02*
D03*
Y502953D02*
D03*
X285433D02*
D03*
X280512D02*
D03*
X275590D02*
D03*
X270669D02*
D03*
X265748D02*
D03*
X260827D02*
D03*
X293500Y480000D02*
D03*
X285000D02*
D03*
X290000D02*
D03*
X280000D02*
D03*
X265000Y460744D02*
D03*
X255000Y470000D02*
D03*
Y475000D02*
D03*
X268441Y479591D02*
D03*
X264504Y526835D02*
D03*
X295031Y496063D02*
D03*
Y500000D02*
D03*
X296000Y503213D02*
D03*
X290295Y483000D02*
D03*
X292795Y485500D02*
D03*
X295031Y488000D02*
D03*
X268701Y463583D02*
D03*
X282090Y368300D02*
D03*
X299590Y373300D02*
D03*
X267090Y368300D02*
D03*
Y373300D02*
D03*
X400295Y340551D02*
D03*
X428890Y348425D02*
D03*
Y352362D02*
D03*
X275590Y507874D02*
D03*
X273854Y560000D02*
D03*
X213000Y399000D02*
D03*
X292500Y529210D02*
D03*
X269590Y398300D02*
D03*
Y403300D02*
D03*
X264590Y413300D02*
D03*
X288126Y461819D02*
D03*
X344854Y465000D02*
D03*
X267090Y393300D02*
D03*
X264590Y388300D02*
D03*
X344854Y480000D02*
D03*
Y470000D02*
D03*
X284189Y461874D02*
D03*
X259854Y563000D02*
D03*
X255354Y570000D02*
D03*
X273854Y565000D02*
D03*
X255354Y575000D02*
D03*
Y565000D02*
D03*
X213000Y404000D02*
D03*
X282221Y526590D02*
D03*
X280252Y511827D02*
D03*
X296260Y507874D02*
D03*
X291094Y494095D02*
D03*
Y498032D02*
D03*
X270409Y483528D02*
D03*
X286157Y526590D02*
D03*
X276315D02*
D03*
X272378Y511827D02*
D03*
X242126Y490158D02*
D03*
X246063Y494095D02*
D03*
X242126Y496063D02*
D03*
X246063Y498032D02*
D03*
X242126Y500000D02*
D03*
X246063Y501968D02*
D03*
X199000Y386000D02*
D03*
X197000Y434000D02*
D03*
X199000Y439000D02*
D03*
Y492000D02*
D03*
X197000Y540000D02*
D03*
X199000Y545000D02*
D03*
X175000Y356000D02*
D03*
X177000Y361000D02*
D03*
X179000Y366000D02*
D03*
X181000Y371000D02*
D03*
X183000Y376000D02*
D03*
X185000Y381000D02*
D03*
X187000Y409000D02*
D03*
X189000Y414000D02*
D03*
X191000Y419000D02*
D03*
X193000Y424000D02*
D03*
X195000Y429000D02*
D03*
Y535000D02*
D03*
X193000Y530000D02*
D03*
X191000Y525000D02*
D03*
X189000Y520000D02*
D03*
X187000Y515000D02*
D03*
X185000Y487000D02*
D03*
X183000Y482000D02*
D03*
X181000Y477000D02*
D03*
X179000Y472000D02*
D03*
X177000Y467000D02*
D03*
X175000Y462000D02*
D03*
D80*
X239000Y541000D02*
D03*
X239057Y532432D02*
D03*
X255090Y529300D02*
D03*
X272500Y580000D02*
D03*
X277500D02*
D03*
X282500D02*
D03*
X287500D02*
D03*
Y585000D02*
D03*
X282500D02*
D03*
X277500D02*
D03*
X272500D02*
D03*
X117068Y576227D02*
D03*
X255700Y603006D02*
D03*
X137795Y598000D02*
D03*
X145295Y593000D02*
D03*
X213000Y477000D02*
D03*
X237205Y357283D02*
D03*
X213000Y545000D02*
D03*
Y505000D02*
D03*
Y487000D02*
D03*
Y510000D02*
D03*
Y515000D02*
D03*
Y573000D02*
D03*
Y578000D02*
D03*
Y583000D02*
D03*
Y588000D02*
D03*
Y593000D02*
D03*
Y462000D02*
D03*
Y467000D02*
D03*
Y472000D02*
D03*
Y482000D02*
D03*
Y520000D02*
D03*
Y525000D02*
D03*
Y530000D02*
D03*
Y535000D02*
D03*
Y540000D02*
D03*
D81*
X110329Y568781D02*
D03*
X130779Y468269D02*
D03*
X120810Y378300D02*
D03*
X217568Y484500D02*
D03*
Y464652D02*
D03*
Y469500D02*
D03*
Y474500D02*
D03*
Y479500D02*
D03*
Y490000D02*
D03*
X300000Y387500D02*
D03*
X435000Y440000D02*
D03*
X400000Y450000D02*
D03*
X395000Y435000D02*
D03*
X425000Y420000D02*
D03*
X440000D02*
D03*
Y390000D02*
D03*
Y400000D02*
D03*
Y410000D02*
D03*
X425000D02*
D03*
X415000Y390000D02*
D03*
X395000D02*
D03*
Y410000D02*
D03*
X405000Y405000D02*
D03*
Y395000D02*
D03*
Y385000D02*
D03*
X161417Y390748D02*
D03*
X92520Y335630D02*
D03*
X98425D02*
D03*
X105315D02*
D03*
Y340551D02*
D03*
Y345472D02*
D03*
X392717Y497047D02*
D03*
X260298Y523142D02*
D03*
X254393D02*
D03*
Y518221D02*
D03*
X274078Y483772D02*
D03*
X213054Y414875D02*
D03*
Y455229D02*
D03*
X228679Y458126D02*
D03*
X220810Y358300D02*
D03*
X310810Y388300D02*
D03*
X320810D02*
D03*
X340810Y438300D02*
D03*
X330810Y508300D02*
D03*
X320810Y408300D02*
D03*
X300810Y398300D02*
D03*
Y438300D02*
D03*
X290810D02*
D03*
X310810Y448300D02*
D03*
X300810D02*
D03*
X290810D02*
D03*
X320810D02*
D03*
X330810D02*
D03*
X320810Y468300D02*
D03*
X330810D02*
D03*
X260810Y518300D02*
D03*
X330810Y578300D02*
D03*
X360810Y568300D02*
D03*
X330810Y538300D02*
D03*
X370810Y528300D02*
D03*
X380810D02*
D03*
Y538300D02*
D03*
Y548300D02*
D03*
X390810D02*
D03*
Y538300D02*
D03*
Y518300D02*
D03*
Y508300D02*
D03*
Y458300D02*
D03*
Y468300D02*
D03*
Y478300D02*
D03*
Y488300D02*
D03*
X410810D02*
D03*
X440810D02*
D03*
X410810Y538300D02*
D03*
X440810D02*
D03*
X410810Y558300D02*
D03*
X440810D02*
D03*
Y568300D02*
D03*
X430810D02*
D03*
X420810D02*
D03*
X410810D02*
D03*
Y518300D02*
D03*
X440810D02*
D03*
Y528300D02*
D03*
X430810D02*
D03*
X420810D02*
D03*
X410810D02*
D03*
X390810Y368300D02*
D03*
X410810D02*
D03*
X420810D02*
D03*
X440810D02*
D03*
X430810Y338300D02*
D03*
X370810D02*
D03*
X400810Y348300D02*
D03*
X390810D02*
D03*
X380810D02*
D03*
X340810Y368300D02*
D03*
Y338300D02*
D03*
X330810D02*
D03*
Y348300D02*
D03*
Y358300D02*
D03*
X242500Y358500D02*
D03*
X250810Y358300D02*
D03*
X280810D02*
D03*
X270810D02*
D03*
Y368300D02*
D03*
X280968Y375505D02*
D03*
X270810Y388300D02*
D03*
X280810Y398300D02*
D03*
X160810Y348300D02*
D03*
X161417Y398622D02*
D03*
X160810Y498300D02*
D03*
Y548300D02*
D03*
X120810Y518300D02*
D03*
X80810Y458300D02*
D03*
Y468300D02*
D03*
Y478300D02*
D03*
X90810Y468300D02*
D03*
Y458300D02*
D03*
X120810D02*
D03*
Y468300D02*
D03*
X160810Y448300D02*
D03*
Y458300D02*
D03*
X150810D02*
D03*
X140810D02*
D03*
X130810D02*
D03*
X120810Y418300D02*
D03*
X70810Y388300D02*
D03*
Y338300D02*
D03*
X100394Y339567D02*
D03*
X100810Y368300D02*
D03*
X70810D02*
D03*
Y378300D02*
D03*
X80810D02*
D03*
X90810D02*
D03*
X100810D02*
D03*
X110810D02*
D03*
X170810Y338300D02*
D03*
X180810D02*
D03*
X190810D02*
D03*
X200810D02*
D03*
X210810D02*
D03*
X190810Y348300D02*
D03*
X180810D02*
D03*
Y488300D02*
D03*
Y498300D02*
D03*
Y508300D02*
D03*
Y518300D02*
D03*
Y528300D02*
D03*
Y538300D02*
D03*
X190810D02*
D03*
Y548300D02*
D03*
X180810D02*
D03*
Y558300D02*
D03*
X190810D02*
D03*
Y568300D02*
D03*
X180810D02*
D03*
Y578300D02*
D03*
Y588300D02*
D03*
X190810D02*
D03*
Y578300D02*
D03*
X110810Y588300D02*
D03*
X100810Y598300D02*
D03*
X110810D02*
D03*
X120810D02*
D03*
X130810D02*
D03*
X70810Y558300D02*
D03*
Y568300D02*
D03*
X80810D02*
D03*
X160810D02*
D03*
Y558300D02*
D03*
X140810D02*
D03*
X150810D02*
D03*
X130810D02*
D03*
X140810Y568300D02*
D03*
X150810D02*
D03*
X410810Y478300D02*
D03*
X420810D02*
D03*
X430810D02*
D03*
X440810D02*
D03*
X400810Y518300D02*
D03*
Y508300D02*
D03*
Y488300D02*
D03*
Y478300D02*
D03*
Y468300D02*
D03*
Y568300D02*
D03*
Y558300D02*
D03*
Y548300D02*
D03*
Y538300D02*
D03*
Y528300D02*
D03*
X450810Y558300D02*
D03*
Y568300D02*
D03*
Y578300D02*
D03*
Y588300D02*
D03*
Y598300D02*
D03*
Y468300D02*
D03*
Y478300D02*
D03*
Y488300D02*
D03*
Y498300D02*
D03*
Y508300D02*
D03*
Y518300D02*
D03*
Y528300D02*
D03*
Y538300D02*
D03*
Y548300D02*
D03*
Y458300D02*
D03*
Y448300D02*
D03*
Y438300D02*
D03*
Y428300D02*
D03*
Y418300D02*
D03*
Y408300D02*
D03*
Y398300D02*
D03*
Y388300D02*
D03*
Y378300D02*
D03*
Y368300D02*
D03*
X302385Y549717D02*
D03*
X307385D02*
D03*
X312385D02*
D03*
X317385D02*
D03*
X322385D02*
D03*
X327385D02*
D03*
X311479Y510347D02*
D03*
X310495Y514284D02*
D03*
X314432D02*
D03*
X318369D02*
D03*
X306558Y519206D02*
D03*
Y523142D02*
D03*
X302621Y466056D02*
D03*
X307542D02*
D03*
Y471961D02*
D03*
X257346Y558576D02*
D03*
X258330Y572355D02*
D03*
X355906Y531968D02*
D03*
Y526968D02*
D03*
X350905D02*
D03*
X345905D02*
D03*
X340905D02*
D03*
X335906D02*
D03*
X330906D02*
D03*
X300905Y531968D02*
D03*
X305906D02*
D03*
X320905Y526968D02*
D03*
X315905D02*
D03*
X310906D02*
D03*
X305906D02*
D03*
X300905D02*
D03*
X295905D02*
D03*
X262090Y480800D02*
D03*
X362929Y465811D02*
D03*
X230295Y348000D02*
D03*
D82*
X132795Y365500D02*
D03*
X279787Y386332D02*
D03*
X317385Y346961D02*
D03*
X349150Y501244D02*
D03*
X322795Y443000D02*
D03*
X255295Y450500D02*
D03*
X215295Y428000D02*
D03*
X240295Y395500D02*
D03*
Y408000D02*
D03*
Y418000D02*
D03*
X297795Y358000D02*
D03*
X290295D02*
D03*
X265295Y435500D02*
D03*
X257795D02*
D03*
Y443000D02*
D03*
X342795Y393000D02*
D03*
Y428000D02*
D03*
X300295Y413000D02*
D03*
X215295Y378000D02*
D03*
X366874Y490000D02*
D03*
X327795Y563000D02*
D03*
X335295D02*
D03*
X180295Y603000D02*
D03*
X187795D02*
D03*
X195295D02*
D03*
X302795Y573000D02*
D03*
X310295D02*
D03*
X317795D02*
D03*
X214795Y552500D02*
D03*
X213295Y498500D02*
D03*
X213795Y392301D02*
D03*
Y446500D02*
D03*
X191295Y402000D02*
D03*
Y395000D02*
D03*
Y388000D02*
D03*
X107795Y358000D02*
D03*
Y365500D02*
D03*
X132795Y358000D02*
D03*
X310295Y350500D02*
D03*
Y343000D02*
D03*
X381795Y361000D02*
D03*
X389295Y353500D02*
D03*
Y361000D02*
D03*
X381795Y353500D02*
D03*
X366891Y417091D02*
D03*
D83*
X196863Y562816D02*
D03*
X241063Y596417D02*
D03*
X260863Y554716D02*
D03*
X135295Y336500D02*
D03*
Y341500D02*
D03*
Y346500D02*
D03*
X334854Y520000D02*
D03*
X213000Y603000D02*
D03*
Y439000D02*
D03*
X97614Y586614D02*
D03*
X94614Y594614D02*
D03*
X86614Y597614D02*
D03*
X75614Y586614D02*
D03*
X78614Y578614D02*
D03*
X86614Y575614D02*
D03*
X94614Y578614D02*
D03*
X78614Y594614D02*
D03*
X97614Y354331D02*
D03*
X94614Y362331D02*
D03*
X86614Y365331D02*
D03*
X75614Y354331D02*
D03*
X78614Y346331D02*
D03*
X86614Y343331D02*
D03*
X94614Y346331D02*
D03*
X78614Y362331D02*
D03*
X361394Y586614D02*
D03*
X358394Y594614D02*
D03*
X350394Y597614D02*
D03*
X339394Y586614D02*
D03*
X342394Y578614D02*
D03*
X350394Y575614D02*
D03*
X358394Y578614D02*
D03*
X342394Y594614D02*
D03*
X365331Y354331D02*
D03*
X362331Y362331D02*
D03*
X354331Y365331D02*
D03*
X343331Y354331D02*
D03*
X346331Y346331D02*
D03*
X354331Y343331D02*
D03*
X362331Y346331D02*
D03*
X346331Y362331D02*
D03*
D84*
X344305Y400408D02*
X366325D01*
X328595Y375800D02*
X340795Y388000D01*
X379861Y388050D02*
X380709Y388898D01*
X377915Y388050D02*
X379861D01*
X377864Y388000D02*
X377915Y388050D01*
X340795Y388000D02*
X377864D01*
X330095Y373300D02*
X340693Y383898D01*
X390709D01*
X299590Y373300D02*
X330095D01*
X289590Y375800D02*
X328595D01*
X282090Y368300D02*
Y368300D01*
X289590Y375800D01*
D85*
X386257Y404000D02*
Y405742D01*
Y402054D02*
Y404000D01*
X373031Y393701D02*
X376969D01*
X366325Y400408D02*
X373031Y393701D01*
X376969D02*
X390709Y393898D01*
X369682Y414300D02*
X382921D01*
X386295Y405780D02*
Y410925D01*
X382921Y414300D02*
X386295Y410925D01*
X366891Y417091D02*
X369682Y414300D01*
X386257Y404000D02*
X386257Y404000D01*
X386295Y398311D02*
X390709Y393898D01*
X386295Y398311D02*
Y402015D01*
X386257Y405742D02*
X386295Y405780D01*
X386257Y402054D02*
X386295Y402015D01*
M02*
