G04*
G04 #@! TF.GenerationSoftware,Altium Limited,Altium Designer,20.2.6 (244)*
G04*
G04 Layer_Color=32896*
%FSLAX25Y25*%
%MOIN*%
G70*
G04*
G04 #@! TF.SameCoordinates,DA10D54E-F5E1-4E40-92F4-FD95AF22BDD1*
G04*
G04*
G04 #@! TF.FilePolarity,Positive*
G04*
G01*
G75*
%ADD83C,0.00197*%
D83*
X373819Y544488D02*
G03*
X373819Y544488I-24606J0D01*
G01*
X322245Y522638D02*
G03*
X322245Y522638I-12402J0D01*
G01*
X323622Y555118D02*
G03*
X323622Y555118I-13780J0D01*
G01*
X337205Y424803D02*
G03*
X337205Y424803I-8071J0D01*
G01*
X285630Y565748D02*
G03*
X285630Y565748I-8071J0D01*
G01*
X452756Y337795D02*
Y370866D01*
X435236Y338484D02*
X456102D01*
Y370177D01*
X435236D02*
X456102D01*
X435236Y338484D02*
Y370177D01*
X357283Y335044D02*
X376575D01*
X357283Y311422D02*
Y335044D01*
Y311422D02*
X376575D01*
Y335044D01*
X337402Y322047D02*
X350000D01*
X337402D02*
Y328346D01*
X350000D01*
Y322047D02*
Y328346D01*
X337402Y309449D02*
X350000D01*
X337402D02*
Y315748D01*
X350000D01*
Y309449D02*
Y315748D01*
X360236Y303150D02*
X372835D01*
Y296850D02*
Y303150D01*
X360236Y296850D02*
X372835D01*
X360236D02*
Y303150D01*
Y290551D02*
X372835D01*
Y284252D02*
Y290551D01*
X360236Y284252D02*
X372835D01*
X360236D02*
Y290551D01*
X296850Y190157D02*
X309449D01*
X296850D02*
Y196457D01*
X309449D01*
Y190157D02*
Y196457D01*
X296850Y241339D02*
X309449D01*
X296850D02*
Y247638D01*
X309449D01*
Y241339D02*
Y247638D01*
X296850Y253937D02*
X309449D01*
X296850D02*
Y260236D01*
X309449D01*
Y253937D02*
Y260236D01*
X290345Y211998D02*
Y225797D01*
X315955D01*
Y211998D02*
Y225797D01*
X290345Y211998D02*
X315955D01*
X338779Y247638D02*
X350984D01*
Y241339D02*
Y247638D01*
X338779Y241339D02*
X350984D01*
X338779D02*
Y247638D01*
X342126Y221063D02*
Y233268D01*
X335827Y221063D02*
X342126D01*
X335827D02*
Y233268D01*
X342126D01*
Y198228D02*
Y210433D01*
X335827Y198228D02*
X342126D01*
X335827D02*
Y210433D01*
X342126D01*
X311024Y178150D02*
X354331D01*
Y168307D02*
Y178150D01*
X311024Y168307D02*
X354331D01*
X311024D02*
Y178150D01*
X352392Y223179D02*
X379892D01*
Y186270D02*
Y223179D01*
X352392Y186270D02*
X379892D01*
X352392D02*
Y223179D01*
X358268Y180118D02*
X393701D01*
Y166339D02*
Y180118D01*
X358268Y166339D02*
Y180118D01*
Y166339D02*
X393701D01*
X260433Y116535D02*
X272638D01*
Y110236D02*
Y116535D01*
X260433Y110236D02*
X272638D01*
X260433D02*
Y116535D01*
Y103937D02*
X272638D01*
Y97638D02*
Y103937D01*
X260433Y97638D02*
X272638D01*
X260433D02*
Y103937D01*
X364370Y59842D02*
Y160630D01*
X293110D02*
X364370D01*
X293110Y59842D02*
Y160630D01*
Y59842D02*
X364370D01*
X380709Y91142D02*
Y103346D01*
X374409Y91142D02*
X380709D01*
X374409D02*
Y103346D01*
X380709D01*
X418504Y68504D02*
Y81102D01*
X412205Y68504D02*
X418504D01*
X412205D02*
Y81102D01*
X418504D01*
X405905Y68504D02*
Y81102D01*
X399606Y68504D02*
X405905D01*
X399606D02*
Y81102D01*
X405905D01*
X393307Y68504D02*
Y81102D01*
X387008Y68504D02*
X393307D01*
X387008D02*
Y81102D01*
X393307D01*
X380709Y68504D02*
Y81102D01*
X374410Y68504D02*
X380709D01*
X374410D02*
Y81102D01*
X380709D01*
X396161Y90886D02*
X405965D01*
Y180387D01*
X396161D02*
X405965D01*
X396161Y90886D02*
Y180387D01*
X450551Y91201D02*
Y180374D01*
X411575D02*
X450551D01*
X411575Y91201D02*
Y180374D01*
Y91201D02*
X450551D01*
X405509Y273252D02*
X405512Y183252D01*
X452756D02*
Y273441D01*
X405513D02*
X452756D01*
X405512Y183252D02*
X452756D01*
X430709Y294094D02*
X443307D01*
Y287795D02*
Y294094D01*
X430709Y287795D02*
X443307D01*
X430709D02*
Y294094D01*
Y306693D02*
X443307D01*
Y300394D02*
Y306693D01*
X430709Y300394D02*
X443307D01*
X430709D02*
Y306693D01*
X414370Y285433D02*
X424213D01*
X414370D02*
Y328740D01*
X424213D01*
Y285433D02*
Y328740D01*
X375787Y570472D02*
X385630D01*
Y527165D02*
Y570472D01*
X375787Y527165D02*
X385630D01*
X375787D02*
Y570472D01*
X405511Y459035D02*
X452756D01*
X405513Y518917D02*
X452756D01*
Y459035D02*
Y518917D01*
X405509Y518728D02*
X405511Y459035D01*
Y518878D02*
X452756D01*
X405513Y578760D02*
X452756D01*
Y518878D02*
Y578760D01*
X405509Y578571D02*
X405511Y518878D01*
X267665Y331890D02*
Y376772D01*
Y331890D02*
X286665D01*
Y376772D01*
X267665D02*
X286665D01*
X257480Y359449D02*
Y372047D01*
X263779D01*
Y359449D02*
Y372047D01*
X257480Y359449D02*
X263779D01*
Y336614D02*
Y349213D01*
X257480Y336614D02*
X263779D01*
X257480D02*
Y349213D01*
X263779D01*
X296850Y359449D02*
Y372047D01*
X290551Y359449D02*
X296850D01*
X290551D02*
Y372047D01*
X296850D01*
X300394Y386614D02*
X312992D01*
Y380315D02*
Y386614D01*
X300394Y380315D02*
X312992D01*
X300394D02*
Y386614D01*
Y399213D02*
X312992D01*
Y392913D02*
Y399213D01*
X300394Y392913D02*
X312992D01*
X300394D02*
Y399213D01*
X279527Y418504D02*
Y431102D01*
X273228Y418504D02*
X279527D01*
X273228D02*
Y431102D01*
X279527D01*
X292126Y418504D02*
Y431102D01*
X285827Y418504D02*
X292126D01*
X285827D02*
Y431102D01*
X292126D01*
X304724Y418701D02*
Y430905D01*
X298425Y418701D02*
X304724D01*
X298425D02*
Y430905D01*
X304724D01*
X357480Y418504D02*
Y431102D01*
X351181Y418504D02*
X357480D01*
X351181D02*
Y431102D01*
X357480D01*
X338583Y418701D02*
Y430905D01*
X344882D01*
Y418701D02*
Y430905D01*
X338583Y418701D02*
X344882D01*
X363386Y409055D02*
X388583D01*
Y388583D02*
Y409055D01*
X363386Y388583D02*
X388583D01*
X363386D02*
Y409055D01*
X357480Y392520D02*
Y405118D01*
X351181Y392520D02*
X357480D01*
X351181D02*
Y405118D01*
X357480D01*
X338583Y392717D02*
Y404921D01*
X344882D01*
Y392717D02*
Y404921D01*
X338583Y392717D02*
X344882D01*
X325984Y392717D02*
Y404921D01*
X332283D01*
Y392717D02*
Y404921D01*
X325984Y392717D02*
X332283D01*
X339006Y470915D02*
X366506D01*
X339006D02*
Y507825D01*
X366506D01*
Y470915D02*
Y507825D01*
X322441Y494685D02*
Y506890D01*
X328740D01*
Y494685D02*
Y506890D01*
X322441Y494685D02*
X328740D01*
X322441Y471850D02*
Y484055D01*
X328740D01*
Y471850D02*
Y484055D01*
X322441Y471850D02*
X328740D01*
X309842Y471654D02*
Y484252D01*
X316142D01*
Y471654D02*
Y484252D01*
X309842Y471654D02*
X316142D01*
X297244D02*
Y484252D01*
X303543D01*
Y471654D02*
Y484252D01*
X297244Y471654D02*
X303543D01*
X65512Y532260D02*
Y568760D01*
X175512D01*
Y532260D02*
Y568760D01*
X65512Y532260D02*
X175512D01*
X65512Y483047D02*
Y519547D01*
X175512D01*
Y483047D02*
Y519547D01*
X65512Y483047D02*
X175512D01*
X65512Y433835D02*
Y470335D01*
X175512D01*
Y433835D02*
Y470335D01*
X65512Y433835D02*
X175512D01*
X65512Y138559D02*
Y175059D01*
X175512D01*
Y138559D02*
Y175059D01*
X65512Y138559D02*
X175512D01*
X65512Y187772D02*
Y224272D01*
X175512D01*
Y187772D02*
Y224272D01*
X65512Y187772D02*
X175512D01*
X65512Y236984D02*
Y273484D01*
X175512D01*
Y236984D02*
Y273484D01*
X65512Y236984D02*
X175512D01*
X65512Y286197D02*
Y322697D01*
X175512D01*
Y286197D02*
Y322697D01*
X65512Y286197D02*
X175512D01*
X65512Y335409D02*
Y371909D01*
X175512D01*
Y335409D02*
Y371909D01*
X65512Y335409D02*
X175512D01*
X65512Y384622D02*
Y421122D01*
X175512D01*
Y384622D02*
Y421122D01*
X65512Y384622D02*
X175512D01*
X271654Y450591D02*
X307087D01*
Y436811D02*
Y450591D01*
X271654Y436811D02*
Y450591D01*
Y436811D02*
X307087D01*
X308661D02*
X344094D01*
X308661D02*
Y450591D01*
X344094Y436811D02*
Y450591D01*
X308661D02*
X344094D01*
X377165Y471850D02*
Y484055D01*
X383465D01*
Y471850D02*
Y484055D01*
X377165Y471850D02*
X383465D01*
X280709Y538386D02*
Y550591D01*
X274410Y538386D02*
X280709D01*
X274410D02*
Y550591D01*
X280709D01*
X430905Y376772D02*
X443110D01*
X430905D02*
Y383071D01*
X443110D01*
Y376772D02*
Y383071D01*
X430905Y331890D02*
X443110D01*
Y325590D02*
Y331890D01*
X430905Y325590D02*
X443110D01*
X430905D02*
Y331890D01*
Y319291D02*
X443110D01*
Y312992D02*
Y319291D01*
X430905Y312992D02*
X443110D01*
X430905D02*
Y319291D01*
X317323Y418701D02*
Y430905D01*
X311024Y418701D02*
X317323D01*
X311024D02*
Y430905D01*
X317323D01*
X285827Y396260D02*
Y408464D01*
X292126D01*
Y396260D02*
Y408464D01*
X285827Y396260D02*
X292126D01*
X273228D02*
Y408464D01*
X279527D01*
Y396260D02*
Y408464D01*
X273228Y396260D02*
X279527D01*
X360433Y271654D02*
X372638D01*
X360433D02*
Y277953D01*
X372638D01*
Y271654D02*
Y277953D01*
X357480Y366535D02*
Y379134D01*
X351181Y366535D02*
X357480D01*
X351181D02*
Y379134D01*
X357480D01*
X370079Y366535D02*
Y379134D01*
X363779Y366535D02*
X370079D01*
X363779D02*
Y379134D01*
X370079D01*
X183071Y121260D02*
X195669D01*
X183071D02*
Y127559D01*
X195669D01*
Y121260D02*
Y127559D01*
X183071Y108661D02*
X195669D01*
X183071D02*
Y114961D01*
X195669D01*
Y108661D02*
Y114961D01*
X183071Y200000D02*
X195669D01*
X183071D02*
Y206299D01*
X195669D01*
Y200000D02*
Y206299D01*
X183071Y187401D02*
X195669D01*
X183071D02*
Y193701D01*
X195669D01*
Y187401D02*
Y193701D01*
X183071Y278740D02*
X195669D01*
X183071D02*
Y285039D01*
X195669D01*
Y278740D02*
Y285039D01*
X183071Y266142D02*
X195669D01*
X183071D02*
Y272441D01*
X195669D01*
Y266142D02*
Y272441D01*
X183071Y502362D02*
X195669D01*
X183071D02*
Y508661D01*
X195669D01*
Y502362D02*
Y508661D01*
X369685Y228740D02*
X382283D01*
X369685D02*
Y235039D01*
X382283D01*
Y228740D02*
Y235039D01*
X369685Y241339D02*
X382283D01*
X369685D02*
Y247638D01*
X382283D01*
Y241339D02*
Y247638D01*
X293307Y515447D02*
Y528046D01*
X287008Y515447D02*
X293307D01*
X287008D02*
Y528046D01*
X293307D01*
X280709Y515447D02*
Y528046D01*
X274410Y515447D02*
X280709D01*
X274410D02*
Y528046D01*
X280709D01*
X430709Y389370D02*
X443307D01*
X430709D02*
Y395669D01*
X443307D01*
Y389370D02*
Y395669D01*
X290551Y336614D02*
Y349213D01*
X296850D01*
Y336614D02*
Y349213D01*
X290551Y336614D02*
X296850D01*
X277559Y322047D02*
X290158D01*
X277559D02*
Y328346D01*
X290158D01*
Y322047D02*
Y328346D01*
X183071Y357480D02*
X195669D01*
X183071D02*
Y363779D01*
X195669D01*
Y357480D02*
Y363779D01*
X183071Y344882D02*
X195669D01*
X183071D02*
Y351181D01*
X195669D01*
Y344882D02*
Y351181D01*
X183071Y436220D02*
X195669D01*
X183071D02*
Y442520D01*
X195669D01*
Y436220D02*
Y442520D01*
X183071Y423622D02*
X195669D01*
X183071D02*
Y429921D01*
X195669D01*
Y423622D02*
Y429921D01*
X183071Y514961D02*
X195669D01*
X183071D02*
Y521260D01*
X195669D01*
Y514961D02*
Y521260D01*
X424791Y334831D02*
Y373831D01*
X413791Y334831D02*
X424791D01*
X413791D02*
Y373831D01*
X424791D01*
X200984Y182677D02*
X241535D01*
X200984Y132283D02*
Y182677D01*
Y132283D02*
X241535D01*
Y182677D01*
X200984Y261417D02*
X241535D01*
X200984Y211024D02*
Y261417D01*
Y211024D02*
X241535D01*
Y261417D01*
X200984Y340158D02*
X241535D01*
X200984Y289764D02*
Y340158D01*
Y289764D02*
X241535D01*
Y340158D01*
X200984Y418898D02*
X241535D01*
X200984Y368504D02*
Y418898D01*
Y368504D02*
X241535D01*
Y418898D01*
X200984Y497638D02*
X241535D01*
X200984Y447244D02*
Y497638D01*
Y447244D02*
X241535D01*
Y497638D01*
X200984Y576378D02*
X241535D01*
X200984Y525984D02*
Y576378D01*
Y525984D02*
X241535D01*
Y576378D01*
X363386Y435039D02*
X388583D01*
Y414567D02*
Y435039D01*
X363386Y414567D02*
X388583D01*
X363386D02*
Y435039D01*
X307480Y372047D02*
X342913D01*
Y336614D02*
Y372047D01*
X307480Y336614D02*
X342913D01*
X307480D02*
Y372047D01*
X382283Y575591D02*
Y597638D01*
X299606Y575591D02*
Y597638D01*
X382283D01*
X299606Y575591D02*
X382283D01*
X248228Y396457D02*
X267520D01*
Y420079D01*
X248228D02*
X267520D01*
X248228Y396457D02*
Y420079D01*
M02*
