G04*
G04 #@! TF.GenerationSoftware,Altium Limited,Altium Designer,20.2.6 (244)*
G04*
G04 Layer_Color=255*
%FSLAX25Y25*%
%MOIN*%
G70*
G04*
G04 #@! TF.SameCoordinates,DA10D54E-F5E1-4E40-92F4-FD95AF22BDD1*
G04*
G04*
G04 #@! TF.FilePolarity,Positive*
G04*
G01*
G75*
%ADD47R,0.05315X0.05315*%
%ADD48C,0.05315*%
%ADD51C,0.05118*%
%ADD52R,0.05118X0.05118*%
%ADD55C,0.06496*%
%ADD57C,0.06500*%
%ADD58R,0.06500X0.06500*%
%ADD69R,0.05906X0.05906*%
%ADD70C,0.05906*%
%ADD71C,0.07000*%
%ADD72R,0.07000X0.07000*%
%ADD73C,0.13780*%
%ADD74R,0.13780X0.13780*%
%ADD75C,0.06102*%
%ADD76O,0.07874X0.07087*%
%ADD77C,0.05200*%
%ADD78C,0.07874*%
%ADD79C,0.11811*%
D47*
X350512Y219724D02*
D03*
X368386Y474370D02*
D03*
D48*
X350512Y209724D02*
D03*
Y199724D02*
D03*
Y189724D02*
D03*
X381772D02*
D03*
Y199724D02*
D03*
Y209724D02*
D03*
Y219724D02*
D03*
X368386Y484370D02*
D03*
Y494370D02*
D03*
Y504370D02*
D03*
X337126D02*
D03*
Y494370D02*
D03*
Y484370D02*
D03*
Y474370D02*
D03*
D51*
X401063Y125787D02*
D03*
Y115787D02*
D03*
Y165787D02*
D03*
Y155787D02*
D03*
Y105787D02*
D03*
Y135787D02*
D03*
Y145787D02*
D03*
Y175787D02*
D03*
X446063Y100787D02*
D03*
Y110787D02*
D03*
Y120787D02*
D03*
Y130787D02*
D03*
Y140787D02*
D03*
Y150787D02*
D03*
Y160787D02*
D03*
Y170787D02*
D03*
X416063D02*
D03*
Y160787D02*
D03*
Y150787D02*
D03*
Y140787D02*
D03*
Y130787D02*
D03*
Y120787D02*
D03*
Y110787D02*
D03*
D52*
X401063Y95787D02*
D03*
X416063Y100787D02*
D03*
D55*
X419291Y336614D02*
D03*
Y372047D02*
D03*
D57*
X312677Y173228D02*
D03*
X352677D02*
D03*
X277165Y344724D02*
D03*
D58*
Y363937D02*
D03*
D69*
X326772Y189606D02*
D03*
X283465Y111732D02*
D03*
Y123858D02*
D03*
D70*
X326772Y199606D02*
D03*
Y209606D02*
D03*
X309842Y561024D02*
D03*
Y549213D02*
D03*
X283465Y101732D02*
D03*
Y91732D02*
D03*
Y143858D02*
D03*
Y133858D02*
D03*
D71*
X366142Y173228D02*
D03*
X375984D02*
D03*
X155512Y556260D02*
D03*
X145512D02*
D03*
X135512D02*
D03*
X125512D02*
D03*
X115512D02*
D03*
X105512D02*
D03*
X95512D02*
D03*
X85512D02*
D03*
X155512Y546260D02*
D03*
X145512D02*
D03*
X135512D02*
D03*
X125512D02*
D03*
X115512D02*
D03*
X105512D02*
D03*
X95512D02*
D03*
X85512D02*
D03*
X155512Y507047D02*
D03*
X145512D02*
D03*
X135512D02*
D03*
X125512D02*
D03*
X115512D02*
D03*
X105512D02*
D03*
X95512D02*
D03*
X85512D02*
D03*
X155512Y497047D02*
D03*
X145512D02*
D03*
X135512D02*
D03*
X125512D02*
D03*
X115512D02*
D03*
X105512D02*
D03*
X95512D02*
D03*
X85512D02*
D03*
X155512Y457835D02*
D03*
X145512D02*
D03*
X135512D02*
D03*
X125512D02*
D03*
X115512D02*
D03*
X105512D02*
D03*
X95512D02*
D03*
X85512D02*
D03*
X155512Y447835D02*
D03*
X145512D02*
D03*
X135512D02*
D03*
X125512D02*
D03*
X115512D02*
D03*
X105512D02*
D03*
X95512D02*
D03*
X85512D02*
D03*
X155512Y162559D02*
D03*
X145512D02*
D03*
X135512D02*
D03*
X125512D02*
D03*
X115512D02*
D03*
X105512D02*
D03*
X95512D02*
D03*
X85512D02*
D03*
X155512Y152559D02*
D03*
X145512D02*
D03*
X135512D02*
D03*
X125512D02*
D03*
X115512D02*
D03*
X105512D02*
D03*
X95512D02*
D03*
X85512D02*
D03*
X155512Y211772D02*
D03*
X145512D02*
D03*
X135512D02*
D03*
X125512D02*
D03*
X115512D02*
D03*
X105512D02*
D03*
X95512D02*
D03*
X85512D02*
D03*
X155512Y201772D02*
D03*
X145512D02*
D03*
X135512D02*
D03*
X125512D02*
D03*
X115512D02*
D03*
X105512D02*
D03*
X95512D02*
D03*
X85512D02*
D03*
X155512Y260984D02*
D03*
X145512D02*
D03*
X135512D02*
D03*
X125512D02*
D03*
X115512D02*
D03*
X105512D02*
D03*
X95512D02*
D03*
X85512D02*
D03*
X155512Y250984D02*
D03*
X145512D02*
D03*
X135512D02*
D03*
X125512D02*
D03*
X115512D02*
D03*
X105512D02*
D03*
X95512D02*
D03*
X85512D02*
D03*
X155512Y310197D02*
D03*
X145512D02*
D03*
X135512D02*
D03*
X125512D02*
D03*
X115512D02*
D03*
X105512D02*
D03*
X95512D02*
D03*
X85512D02*
D03*
X155512Y300197D02*
D03*
X145512D02*
D03*
X135512D02*
D03*
X125512D02*
D03*
X115512D02*
D03*
X105512D02*
D03*
X95512D02*
D03*
X85512D02*
D03*
X155512Y359409D02*
D03*
X145512D02*
D03*
X135512D02*
D03*
X125512D02*
D03*
X115512D02*
D03*
X105512D02*
D03*
X95512D02*
D03*
X85512D02*
D03*
X155512Y349410D02*
D03*
X145512D02*
D03*
X135512D02*
D03*
X125512D02*
D03*
X115512D02*
D03*
X105512D02*
D03*
X95512D02*
D03*
X85512D02*
D03*
X155512Y408622D02*
D03*
X145512D02*
D03*
X135512D02*
D03*
X125512D02*
D03*
X115512D02*
D03*
X105512D02*
D03*
X95512D02*
D03*
X85512D02*
D03*
X155512Y398622D02*
D03*
X145512D02*
D03*
X135512D02*
D03*
X125512D02*
D03*
X115512D02*
D03*
X105512D02*
D03*
X95512D02*
D03*
X85512D02*
D03*
X289370Y443701D02*
D03*
X299213D02*
D03*
X326378D02*
D03*
X316535D02*
D03*
D72*
X385827Y173228D02*
D03*
X279528Y443701D02*
D03*
X336221D02*
D03*
D73*
X413387Y258441D02*
D03*
Y228441D02*
D03*
X413387Y503917D02*
D03*
Y563760D02*
D03*
D74*
X413387Y198441D02*
D03*
X413387Y473917D02*
D03*
Y533760D02*
D03*
D75*
X419291Y327087D02*
D03*
Y287087D02*
D03*
X380709Y528819D02*
D03*
Y568819D02*
D03*
D76*
X349213Y534646D02*
D03*
Y544488D02*
D03*
Y540551D02*
D03*
Y554331D02*
D03*
X309842Y527559D02*
D03*
Y517717D02*
D03*
D77*
X329134Y429803D02*
D03*
Y419803D02*
D03*
X277559Y570748D02*
D03*
Y560748D02*
D03*
D78*
X380945Y586614D02*
D03*
X300945D02*
D03*
D79*
X437008Y594488D02*
D03*
Y74803D02*
D03*
X74803Y594488D02*
D03*
Y74803D02*
D03*
M02*
