G04*
G04 #@! TF.GenerationSoftware,Altium Limited,Altium Designer,20.2.6 (244)*
G04*
G04 Layer_Color=16711935*
%FSLAX25Y25*%
%MOIN*%
G70*
G04*
G04 #@! TF.SameCoordinates,E97EBE13-EBD0-4CAC-9F2B-1EA0C24CC531*
G04*
G04*
G04 #@! TF.FilePolarity,Negative*
G04*
G01*
G75*
%ADD40C,0.28359*%
%ADD41C,0.06800*%
%ADD42R,0.06800X0.06800*%
%ADD43R,0.06800X0.06800*%
%ADD44C,0.06500*%
%ADD45R,0.06500X0.06500*%
%ADD46C,0.13595*%
%ADD47C,0.10426*%
%ADD48C,0.06824*%
%ADD49C,0.06304*%
%ADD50R,0.06304X0.06304*%
%ADD51C,0.07099*%
%ADD52C,0.07300*%
%ADD53R,0.14580X0.14580*%
%ADD54C,0.14580*%
G04:AMPARAMS|DCode=79|XSize=63.16mil|YSize=128.43mil|CornerRadius=18.63mil|HoleSize=0mil|Usage=FLASHONLY|Rotation=270.000|XOffset=0mil|YOffset=0mil|HoleType=Round|Shape=RoundedRectangle|*
%AMROUNDEDRECTD79*
21,1,0.06316,0.09117,0,0,270.0*
21,1,0.02590,0.12843,0,0,270.0*
1,1,0.03727,-0.04558,-0.01295*
1,1,0.03727,-0.04558,0.01295*
1,1,0.03727,0.04558,0.01295*
1,1,0.03727,0.04558,-0.01295*
%
%ADD79ROUNDEDRECTD79*%
G04:AMPARAMS|DCode=80|XSize=63.16mil|YSize=37.49mil|CornerRadius=18.74mil|HoleSize=0mil|Usage=FLASHONLY|Rotation=270.000|XOffset=0mil|YOffset=0mil|HoleType=Round|Shape=RoundedRectangle|*
%AMROUNDEDRECTD80*
21,1,0.06316,0.00000,0,0,270.0*
21,1,0.02568,0.03749,0,0,270.0*
1,1,0.03749,0.00000,-0.01284*
1,1,0.03749,0.00000,0.01284*
1,1,0.03749,0.00000,0.01284*
1,1,0.03749,0.00000,-0.01284*
%
%ADD80ROUNDEDRECTD80*%
%ADD81R,0.03749X0.06316*%
D40*
X86614Y586614D02*
D03*
Y354331D02*
D03*
X350394Y586614D02*
D03*
X354331Y354331D02*
D03*
D41*
X262000Y451000D02*
D03*
Y441000D02*
D03*
X253000Y471000D02*
D03*
X263000D02*
D03*
X243000D02*
D03*
D42*
X262000Y431000D02*
D03*
D43*
X233000Y471000D02*
D03*
D44*
X311894Y472000D02*
D03*
X164600Y521000D02*
D03*
D45*
X331106Y472000D02*
D03*
X183812Y521000D02*
D03*
D46*
X320583Y566709D02*
D03*
X275583D02*
D03*
D47*
X267590Y554701D02*
D03*
X328575D02*
D03*
D48*
X282000Y586000D02*
D03*
X272000D02*
D03*
X314165D02*
D03*
X324165D02*
D03*
D49*
X280602Y531709D02*
D03*
X285602Y541709D02*
D03*
X290602Y531709D02*
D03*
X295602Y541709D02*
D03*
X300602Y531709D02*
D03*
X305602Y541709D02*
D03*
X310602Y531709D02*
D03*
D50*
X315602Y541709D02*
D03*
D51*
X241500Y346500D02*
D03*
X251500D02*
D03*
X261500D02*
D03*
X271500D02*
D03*
X281500D02*
D03*
X291500D02*
D03*
X301500D02*
D03*
X311500D02*
D03*
X241500Y356500D02*
D03*
X251500D02*
D03*
X261500D02*
D03*
X271500D02*
D03*
X281500D02*
D03*
X291500D02*
D03*
X301500D02*
D03*
X311500D02*
D03*
X200000D02*
D03*
X190000D02*
D03*
X180000D02*
D03*
X170000D02*
D03*
X160000D02*
D03*
X150000D02*
D03*
X140000D02*
D03*
X130000D02*
D03*
X200000Y346500D02*
D03*
X190000D02*
D03*
X180000D02*
D03*
X170000D02*
D03*
X160000D02*
D03*
X150000D02*
D03*
X140000D02*
D03*
X130000D02*
D03*
D52*
X108000Y554000D02*
D03*
X148000D02*
D03*
D53*
X181905Y570253D02*
D03*
X245059Y570253D02*
D03*
D54*
X151906Y570253D02*
D03*
X121906D02*
D03*
X215059Y570253D02*
D03*
D79*
X278000Y483634D02*
D03*
X240000D02*
D03*
D80*
X287016Y510366D02*
D03*
X278000D02*
D03*
X240000D02*
D03*
X249016D02*
D03*
D81*
X268984D02*
D03*
X230984D02*
D03*
M02*
