G04*
G04 #@! TF.GenerationSoftware,Altium Limited,Altium Designer,20.2.6 (244)*
G04*
G04 Layer_Physical_Order=3*
G04 Layer_Color=16440176*
%FSLAX25Y25*%
%MOIN*%
G70*
G04*
G04 #@! TF.SameCoordinates,67F572C8-D8A7-448A-AE13-BF973E4C7752*
G04*
G04*
G04 #@! TF.FilePolarity,Positive*
G04*
G01*
G75*
%ADD63C,0.05000*%
%ADD73C,0.05504*%
%ADD77R,0.06000X0.06000*%
%ADD79C,0.02000*%
%ADD80C,0.03500*%
%ADD81C,0.02500*%
%ADD82C,0.05000*%
%ADD83C,0.03937*%
G36*
X326130Y577390D02*
X378409Y525111D01*
X378409Y457677D01*
X347795D01*
X347795Y497891D01*
X348211Y498169D01*
X348314Y498127D01*
X349150Y498017D01*
X349985Y498127D01*
X350763Y498449D01*
X351432Y498962D01*
X351945Y499630D01*
X352267Y500409D01*
X352377Y501244D01*
X352267Y502079D01*
X351945Y502858D01*
X351432Y503526D01*
X350763Y504039D01*
X349985Y504362D01*
X349150Y504472D01*
X348314Y504362D01*
X348211Y504319D01*
X347795Y504597D01*
X347795Y524228D01*
X347080Y524943D01*
X347129Y525441D01*
X347311Y525563D01*
X347742Y526208D01*
X347894Y526968D01*
X347742Y527729D01*
X347311Y528374D01*
X346666Y528805D01*
X345905Y528957D01*
X345145Y528805D01*
X344500Y528374D01*
X344378Y528192D01*
X343880Y528143D01*
X323784Y548240D01*
X323791Y548312D01*
X324222Y548956D01*
X324373Y549717D01*
X324222Y550478D01*
X323791Y551123D01*
X323146Y551554D01*
X322385Y551706D01*
X321624Y551554D01*
X320979Y551123D01*
X320907Y551116D01*
X295096Y576928D01*
X295287Y577390D01*
X326130Y577390D01*
D02*
G37*
G36*
X257181Y606968D02*
X290531D01*
X292500Y605000D01*
Y571650D01*
X312009Y552141D01*
X311844Y551598D01*
X311624Y551554D01*
X310979Y551123D01*
X310548Y550478D01*
X310397Y549717D01*
X310548Y548956D01*
X310979Y548311D01*
X311624Y547881D01*
X312385Y547729D01*
X313146Y547881D01*
X313791Y548311D01*
X314222Y548956D01*
X314266Y549177D01*
X314808Y549341D01*
X334918Y529231D01*
X334840Y528602D01*
X334500Y528374D01*
X334069Y527729D01*
X333917Y526968D01*
X334069Y526208D01*
X334500Y525563D01*
X335145Y525132D01*
X335906Y524980D01*
X336666Y525132D01*
X337311Y525563D01*
X337539Y525903D01*
X338168Y525981D01*
X342854Y521295D01*
X342854Y451968D01*
X258151Y451968D01*
X258090Y452114D01*
X257577Y452782D01*
X256909Y453295D01*
X256131Y453618D01*
X255295Y453728D01*
X254460Y453618D01*
X253681Y453295D01*
X253013Y452782D01*
X252500Y452114D01*
X252440Y451968D01*
X229854Y451968D01*
Y456566D01*
X230085Y456721D01*
X230516Y457366D01*
X230667Y458126D01*
X230516Y458887D01*
X230085Y459532D01*
X229854Y459687D01*
X229854Y606968D01*
X257181Y606968D01*
D02*
G37*
G36*
X241581Y448102D02*
X241911Y447726D01*
X241868Y447400D01*
X241995Y446434D01*
X242368Y445534D01*
X242961Y444761D01*
X243734Y444168D01*
X244634Y443795D01*
X245600Y443668D01*
X246566Y443795D01*
X247466Y444168D01*
X248239Y444761D01*
X248832Y445534D01*
X249205Y446434D01*
X249332Y447400D01*
X249289Y447726D01*
X249619Y448102D01*
X253164D01*
X253681Y447705D01*
X254460Y447382D01*
X255295Y447272D01*
X256131Y447382D01*
X256909Y447705D01*
X257426Y448102D01*
X288861Y448102D01*
X288973Y447539D01*
X289404Y446894D01*
X290049Y446463D01*
X290810Y446312D01*
X291571Y446463D01*
X292216Y446894D01*
X292647Y447539D01*
X292759Y448102D01*
X298862D01*
X298973Y447539D01*
X299404Y446894D01*
X300049Y446463D01*
X300810Y446312D01*
X301571Y446463D01*
X302216Y446894D01*
X302647Y447539D01*
X302759Y448102D01*
X308861D01*
X308973Y447539D01*
X309404Y446894D01*
X310049Y446463D01*
X310810Y446312D01*
X311571Y446463D01*
X312216Y446894D01*
X312647Y447539D01*
X312759Y448102D01*
X318862Y448102D01*
X318973Y447539D01*
X319404Y446894D01*
X320049Y446463D01*
X320810Y446312D01*
X321258Y446401D01*
X321410Y446431D01*
X321556Y445950D01*
X321182Y445795D01*
X320513Y445282D01*
X320000Y444614D01*
X319678Y443835D01*
X319568Y443000D01*
X319678Y442165D01*
X320000Y441386D01*
X320513Y440718D01*
X321182Y440205D01*
X321960Y439882D01*
X322795Y439772D01*
X323631Y439882D01*
X324409Y440205D01*
X325078Y440718D01*
X325590Y441386D01*
X325913Y442165D01*
X326023Y443000D01*
X325913Y443835D01*
X325590Y444614D01*
X325078Y445282D01*
X324409Y445795D01*
X323631Y446118D01*
X322795Y446228D01*
X322025Y446126D01*
X321960Y446118D01*
X321940Y446119D01*
X321708Y446554D01*
X321836Y446640D01*
X322216Y446894D01*
X322647Y447539D01*
X322759Y448102D01*
X328861D01*
X328973Y447539D01*
X329404Y446894D01*
X330049Y446463D01*
X330810Y446312D01*
X331571Y446463D01*
X332216Y446894D01*
X332647Y447539D01*
X332759Y448102D01*
X395905Y448102D01*
Y437296D01*
X395406Y436907D01*
X395000Y436988D01*
X394239Y436837D01*
X393594Y436406D01*
X393163Y435761D01*
X393012Y435000D01*
X393163Y434239D01*
X393594Y433594D01*
X394239Y433163D01*
X395000Y433012D01*
X395406Y433092D01*
X395905Y432704D01*
X395905Y412296D01*
X395406Y411907D01*
X395000Y411988D01*
X394239Y411837D01*
X393971Y411658D01*
X393625Y412028D01*
X393724Y412157D01*
X394072Y412996D01*
X394190Y413898D01*
X394072Y414799D01*
X393724Y415638D01*
X393171Y416360D01*
X392449Y416913D01*
X391610Y417261D01*
X390709Y417379D01*
X389808Y417261D01*
X388968Y416913D01*
X388247Y416360D01*
X387693Y415638D01*
X387346Y414799D01*
X387227Y413898D01*
X387346Y412996D01*
X387693Y412157D01*
X388247Y411436D01*
X388968Y410882D01*
X389808Y410534D01*
X390709Y410416D01*
X391610Y410534D01*
X392449Y410882D01*
X392846Y411187D01*
X393216Y410841D01*
X393163Y410761D01*
X393012Y410000D01*
X393163Y409239D01*
X393594Y408594D01*
X394239Y408163D01*
X395000Y408012D01*
X395406Y408092D01*
X395905Y407704D01*
Y392296D01*
X395406Y391908D01*
X395000Y391988D01*
X394239Y391837D01*
X393971Y391658D01*
X393625Y392028D01*
X393724Y392157D01*
X394072Y392997D01*
X394190Y393898D01*
X394072Y394799D01*
X393724Y395638D01*
X393171Y396360D01*
X392449Y396913D01*
X391610Y397261D01*
X390709Y397379D01*
X389808Y397261D01*
X388968Y396913D01*
X388247Y396360D01*
X387693Y395638D01*
X387346Y394799D01*
X387227Y393898D01*
X387346Y392997D01*
X387693Y392157D01*
X388247Y391436D01*
X388814Y391000D01*
X388645Y390500D01*
X383781D01*
X383724Y390638D01*
X383171Y391360D01*
X382450Y391913D01*
X381610Y392261D01*
X380709Y392379D01*
X379807Y392261D01*
X378968Y391913D01*
X378247Y391360D01*
X377693Y390638D01*
X377636Y390500D01*
X340295Y390500D01*
X282795Y333000D01*
X105295Y333000D01*
Y333626D01*
X105315Y333642D01*
X106076Y333793D01*
X106721Y334224D01*
X107152Y334869D01*
X107303Y335630D01*
X107152Y336391D01*
X106721Y337036D01*
X106076Y337467D01*
X105315Y337618D01*
X105295Y337634D01*
Y338547D01*
X105315Y338563D01*
X106076Y338714D01*
X106721Y339145D01*
X107152Y339790D01*
X107303Y340551D01*
X107152Y341312D01*
X106721Y341957D01*
X106076Y342388D01*
X105315Y342539D01*
X105295Y342555D01*
Y343468D01*
X105315Y343484D01*
X106076Y343636D01*
X106721Y344067D01*
X107152Y344712D01*
X107303Y345472D01*
X107152Y346233D01*
X106721Y346878D01*
X106076Y347309D01*
X105315Y347461D01*
X105295Y347477D01*
X105295Y370500D01*
X179366Y370500D01*
X179399Y370337D01*
X179774Y369774D01*
X180337Y369399D01*
X181000Y369267D01*
X181663Y369399D01*
X182226Y369774D01*
X182601Y370337D01*
X182634Y370500D01*
X202795D01*
X229854Y397559D01*
Y448102D01*
X241581D01*
D02*
G37*
G36*
X226500Y606968D02*
X226500Y400705D01*
X203269Y377473D01*
X183855Y377473D01*
X183663Y377601D01*
X183000Y377733D01*
X182337Y377601D01*
X182145Y377473D01*
X170731Y377473D01*
X165295Y382909D01*
X165295Y602352D01*
X169912Y606968D01*
X226500Y606968D01*
D02*
G37*
G36*
X389189Y369383D02*
X388973Y369061D01*
X388822Y368300D01*
X388973Y367539D01*
X389404Y366894D01*
X390049Y366463D01*
X390810Y366312D01*
X391571Y366463D01*
X391957Y366721D01*
X394563Y364216D01*
Y349217D01*
X392543D01*
X392216Y349706D01*
X391571Y350137D01*
X390810Y350288D01*
X390049Y350137D01*
X389404Y349706D01*
X389077Y349217D01*
X382543D01*
X382216Y349706D01*
X381571Y350137D01*
X380810Y350288D01*
X380049Y350137D01*
X379404Y349706D01*
X379077Y349217D01*
X374563D01*
Y364216D01*
X363645Y374520D01*
X348881D01*
X343265Y368517D01*
X342725Y368671D01*
X342647Y369061D01*
X342216Y369706D01*
X341571Y370137D01*
X340810Y370288D01*
X340049Y370137D01*
X339404Y369706D01*
X338973Y369061D01*
X338822Y368300D01*
X338973Y367539D01*
X339404Y366894D01*
X340049Y366463D01*
X340563Y366361D01*
X340750Y365829D01*
X333201Y357758D01*
X332738Y357996D01*
X332798Y358300D01*
X332647Y359061D01*
X332216Y359706D01*
X331571Y360137D01*
X330810Y360288D01*
X330049Y360137D01*
X329404Y359706D01*
X328973Y359061D01*
X328822Y358300D01*
X328973Y357539D01*
X329404Y356894D01*
X330049Y356463D01*
X330810Y356312D01*
X331243Y356398D01*
X331498Y355939D01*
X320338Y344009D01*
Y338103D01*
X306558D01*
X304590Y340072D01*
X304560Y349324D01*
X316314Y360448D01*
X341007Y385347D01*
X342976Y387316D01*
X370535D01*
X389189Y369383D01*
D02*
G37*
%LPC*%
G36*
X327385Y551706D02*
X326624Y551554D01*
X325979Y551123D01*
X325548Y550478D01*
X325397Y549717D01*
X325548Y548956D01*
X325979Y548311D01*
X326624Y547881D01*
X327385Y547729D01*
X328146Y547881D01*
X328791Y548311D01*
X329222Y548956D01*
X329373Y549717D01*
X329222Y550478D01*
X328791Y551123D01*
X328146Y551554D01*
X327385Y551706D01*
D02*
G37*
G36*
X355906Y533957D02*
X355145Y533805D01*
X354500Y533374D01*
X354069Y532729D01*
X353917Y531968D01*
X354069Y531208D01*
X354500Y530563D01*
X355145Y530132D01*
X355906Y529980D01*
X356666Y530132D01*
X357311Y530563D01*
X357742Y531208D01*
X357894Y531968D01*
X357742Y532729D01*
X357311Y533374D01*
X356666Y533805D01*
X355906Y533957D01*
D02*
G37*
G36*
X370810Y530288D02*
X370049Y530137D01*
X369404Y529706D01*
X368973Y529061D01*
X368822Y528300D01*
X368973Y527539D01*
X369404Y526894D01*
X370049Y526463D01*
X370810Y526312D01*
X371571Y526463D01*
X372216Y526894D01*
X372647Y527539D01*
X372798Y528300D01*
X372647Y529061D01*
X372216Y529706D01*
X371571Y530137D01*
X370810Y530288D01*
D02*
G37*
G36*
X355906Y528957D02*
X355145Y528805D01*
X354500Y528374D01*
X354069Y527729D01*
X353917Y526968D01*
X354069Y526208D01*
X354500Y525563D01*
X355145Y525132D01*
X355906Y524980D01*
X356666Y525132D01*
X357311Y525563D01*
X357742Y526208D01*
X357894Y526968D01*
X357742Y527729D01*
X357311Y528374D01*
X356666Y528805D01*
X355906Y528957D01*
D02*
G37*
G36*
X350905D02*
X350145Y528805D01*
X349500Y528374D01*
X349069Y527729D01*
X348917Y526968D01*
X349069Y526208D01*
X349500Y525563D01*
X350145Y525132D01*
X350905Y524980D01*
X351666Y525132D01*
X352311Y525563D01*
X352742Y526208D01*
X352894Y526968D01*
X352742Y527729D01*
X352311Y528374D01*
X351666Y528805D01*
X350905Y528957D01*
D02*
G37*
G36*
X362929Y467799D02*
X362168Y467648D01*
X361523Y467217D01*
X361092Y466572D01*
X360941Y465811D01*
X361092Y465050D01*
X361523Y464405D01*
X362168Y463974D01*
X362929Y463823D01*
X363690Y463974D01*
X364335Y464405D01*
X364766Y465050D01*
X364917Y465811D01*
X364766Y466572D01*
X364335Y467217D01*
X363690Y467648D01*
X362929Y467799D01*
D02*
G37*
G36*
X241063Y599108D02*
X240366Y599016D01*
X239717Y598747D01*
X239160Y598320D01*
X238732Y597762D01*
X238463Y597113D01*
X238371Y596417D01*
X238463Y595720D01*
X238732Y595071D01*
X239160Y594513D01*
X239717Y594086D01*
X240366Y593817D01*
X241063Y593725D01*
X241760Y593817D01*
X242409Y594086D01*
X242966Y594513D01*
X243394Y595071D01*
X243663Y595720D01*
X243755Y596417D01*
X243663Y597113D01*
X243394Y597762D01*
X242966Y598320D01*
X242409Y598747D01*
X241760Y599016D01*
X241063Y599108D01*
D02*
G37*
G36*
X265905Y583702D02*
X265242Y583570D01*
X264680Y583194D01*
X264304Y582632D01*
X264172Y581968D01*
X264304Y581305D01*
X264680Y580743D01*
X265242Y580367D01*
X265905Y580235D01*
X266569Y580367D01*
X267131Y580743D01*
X267507Y581305D01*
X267639Y581968D01*
X267507Y582632D01*
X267131Y583194D01*
X266569Y583570D01*
X265905Y583702D01*
D02*
G37*
G36*
X255906D02*
X255242Y583570D01*
X254680Y583194D01*
X254304Y582632D01*
X254172Y581968D01*
X254304Y581305D01*
X254680Y580743D01*
X255242Y580367D01*
X255906Y580235D01*
X256569Y580367D01*
X257131Y580743D01*
X257507Y581305D01*
X257639Y581968D01*
X257507Y582632D01*
X257131Y583194D01*
X256569Y583570D01*
X255906Y583702D01*
D02*
G37*
G36*
X255354Y576733D02*
X254691Y576601D01*
X254129Y576226D01*
X253753Y575663D01*
X253621Y575000D01*
X253753Y574337D01*
X254129Y573774D01*
X254691Y573399D01*
X255354Y573267D01*
X256018Y573399D01*
X256131Y573475D01*
X256490Y573119D01*
X256493Y573115D01*
X256342Y572355D01*
X256426Y571930D01*
X256018Y571601D01*
X255354Y571733D01*
X254691Y571601D01*
X254129Y571226D01*
X253753Y570663D01*
X253621Y570000D01*
X253753Y569337D01*
X254129Y568774D01*
X254691Y568399D01*
X255354Y568267D01*
X256018Y568399D01*
X256580Y568774D01*
X256956Y569337D01*
X257088Y570000D01*
X257033Y570275D01*
X257483Y570576D01*
X257569Y570518D01*
X258330Y570367D01*
X259091Y570518D01*
X259736Y570949D01*
X260167Y571594D01*
X260318Y572355D01*
X260167Y573116D01*
X259736Y573761D01*
X259091Y574192D01*
X258330Y574343D01*
X257569Y574192D01*
X257372Y574060D01*
X257083Y574252D01*
X256966Y574391D01*
X257088Y575000D01*
X256956Y575663D01*
X256580Y576226D01*
X256018Y576601D01*
X255354Y576733D01*
D02*
G37*
G36*
X273854Y566733D02*
X273191Y566601D01*
X272629Y566226D01*
X272253Y565663D01*
X272121Y565000D01*
X272253Y564337D01*
X272629Y563774D01*
X273191Y563399D01*
X273854Y563267D01*
X274518Y563399D01*
X275080Y563774D01*
X275456Y564337D01*
X275588Y565000D01*
X275456Y565663D01*
X275080Y566226D01*
X274518Y566601D01*
X273854Y566733D01*
D02*
G37*
G36*
X255354D02*
X254691Y566601D01*
X254129Y566226D01*
X253753Y565663D01*
X253621Y565000D01*
X253753Y564337D01*
X254129Y563774D01*
X254691Y563399D01*
X255354Y563267D01*
X256018Y563399D01*
X256580Y563774D01*
X256956Y564337D01*
X257088Y565000D01*
X256956Y565663D01*
X256580Y566226D01*
X256018Y566601D01*
X255354Y566733D01*
D02*
G37*
G36*
X259854Y564733D02*
X259191Y564601D01*
X258629Y564226D01*
X258253Y563663D01*
X258121Y563000D01*
X258253Y562337D01*
X258629Y561774D01*
X259191Y561399D01*
X259854Y561267D01*
X260518Y561399D01*
X261080Y561774D01*
X261456Y562337D01*
X261588Y563000D01*
X261456Y563663D01*
X261080Y564226D01*
X260518Y564601D01*
X259854Y564733D01*
D02*
G37*
G36*
X273854Y561733D02*
X273191Y561601D01*
X272629Y561226D01*
X272253Y560663D01*
X272121Y560000D01*
X272253Y559337D01*
X272629Y558774D01*
X273191Y558399D01*
X273854Y558267D01*
X274518Y558399D01*
X275080Y558774D01*
X275456Y559337D01*
X275588Y560000D01*
X275456Y560663D01*
X275080Y561226D01*
X274518Y561601D01*
X273854Y561733D01*
D02*
G37*
G36*
X257346Y560564D02*
X256585Y560412D01*
X255940Y559981D01*
X255509Y559336D01*
X255358Y558576D01*
X255509Y557815D01*
X255940Y557170D01*
X256585Y556739D01*
X257346Y556587D01*
X258106Y556739D01*
X258752Y557170D01*
X259183Y557815D01*
X259334Y558576D01*
X259183Y559336D01*
X258752Y559981D01*
X258106Y560412D01*
X257346Y560564D01*
D02*
G37*
G36*
X260863Y557408D02*
X260166Y557316D01*
X259517Y557048D01*
X258960Y556620D01*
X258532Y556062D01*
X258263Y555413D01*
X258172Y554716D01*
X258263Y554020D01*
X258532Y553371D01*
X258960Y552813D01*
X259517Y552386D01*
X260166Y552117D01*
X260863Y552025D01*
X261560Y552117D01*
X262209Y552386D01*
X262766Y552813D01*
X263194Y553371D01*
X263463Y554020D01*
X263555Y554716D01*
X263463Y555413D01*
X263194Y556062D01*
X262766Y556620D01*
X262209Y557048D01*
X261560Y557316D01*
X260863Y557408D01*
D02*
G37*
G36*
X307385Y551706D02*
X306624Y551554D01*
X305979Y551123D01*
X305548Y550478D01*
X305397Y549717D01*
X305548Y548956D01*
X305979Y548311D01*
X306624Y547881D01*
X307385Y547729D01*
X308146Y547881D01*
X308791Y548311D01*
X309222Y548956D01*
X309373Y549717D01*
X309222Y550478D01*
X308791Y551123D01*
X308146Y551554D01*
X307385Y551706D01*
D02*
G37*
G36*
X302385D02*
X301624Y551554D01*
X300979Y551123D01*
X300548Y550478D01*
X300397Y549717D01*
X300548Y548956D01*
X300979Y548311D01*
X301624Y547881D01*
X302385Y547729D01*
X303146Y547881D01*
X303791Y548311D01*
X304222Y548956D01*
X304373Y549717D01*
X304222Y550478D01*
X303791Y551123D01*
X303146Y551554D01*
X302385Y551706D01*
D02*
G37*
G36*
X305906Y533957D02*
X305145Y533805D01*
X304500Y533374D01*
X304069Y532729D01*
X303917Y531968D01*
X304069Y531208D01*
X304500Y530563D01*
X305145Y530132D01*
X305906Y529980D01*
X306666Y530132D01*
X307311Y530563D01*
X307742Y531208D01*
X307894Y531968D01*
X307742Y532729D01*
X307311Y533374D01*
X306666Y533805D01*
X305906Y533957D01*
D02*
G37*
G36*
X300905D02*
X300145Y533805D01*
X299500Y533374D01*
X299069Y532729D01*
X298917Y531968D01*
X299069Y531208D01*
X299500Y530563D01*
X300145Y530132D01*
X300905Y529980D01*
X301666Y530132D01*
X302311Y530563D01*
X302742Y531208D01*
X302894Y531968D01*
X302742Y532729D01*
X302311Y533374D01*
X301666Y533805D01*
X300905Y533957D01*
D02*
G37*
G36*
X288126Y531277D02*
X287463Y531145D01*
X286900Y530769D01*
X286525Y530207D01*
X286412Y529642D01*
X285903D01*
X285790Y530207D01*
X285415Y530769D01*
X284852Y531145D01*
X284189Y531277D01*
X283526Y531145D01*
X282963Y530769D01*
X282588Y530207D01*
X282456Y529543D01*
X282588Y528880D01*
X282680Y528742D01*
X282379Y528292D01*
X282221Y528324D01*
X281557Y528192D01*
X280995Y527816D01*
X280619Y527254D01*
X280487Y526590D01*
X280619Y525927D01*
X280995Y525365D01*
X281557Y524989D01*
X282221Y524857D01*
X282884Y524989D01*
X283446Y525365D01*
X283822Y525927D01*
X283934Y526491D01*
X284444D01*
X284556Y525927D01*
X284932Y525365D01*
X285494Y524989D01*
X286157Y524857D01*
X286821Y524989D01*
X287383Y525365D01*
X287759Y525927D01*
X287891Y526590D01*
X287759Y527254D01*
X287667Y527391D01*
X287967Y527842D01*
X288126Y527810D01*
X288789Y527942D01*
X289352Y528318D01*
X289727Y528880D01*
X289859Y529543D01*
X289727Y530207D01*
X289352Y530769D01*
X288789Y531145D01*
X288126Y531277D01*
D02*
G37*
G36*
X264504Y528568D02*
X263841Y528436D01*
X263278Y528060D01*
X262903Y527498D01*
X262771Y526835D01*
X262903Y526171D01*
X263278Y525609D01*
X263841Y525233D01*
X264504Y525101D01*
X265167Y525233D01*
X265730Y525609D01*
X266105Y526171D01*
X266237Y526835D01*
X266105Y527498D01*
X265730Y528060D01*
X265167Y528436D01*
X264504Y528568D01*
D02*
G37*
G36*
X330906Y528957D02*
X330145Y528805D01*
X329500Y528374D01*
X329069Y527729D01*
X328917Y526968D01*
X329069Y526208D01*
X329500Y525563D01*
X330145Y525132D01*
X330906Y524980D01*
X331666Y525132D01*
X332311Y525563D01*
X332742Y526208D01*
X332894Y526968D01*
X332742Y527729D01*
X332311Y528374D01*
X331666Y528805D01*
X330906Y528957D01*
D02*
G37*
G36*
X320905D02*
X320145Y528805D01*
X319500Y528374D01*
X319069Y527729D01*
X318917Y526968D01*
X319069Y526208D01*
X319500Y525563D01*
X320145Y525132D01*
X320905Y524980D01*
X321666Y525132D01*
X322311Y525563D01*
X322742Y526208D01*
X322894Y526968D01*
X322742Y527729D01*
X322311Y528374D01*
X321666Y528805D01*
X320905Y528957D01*
D02*
G37*
G36*
X315905D02*
X315145Y528805D01*
X314500Y528374D01*
X314069Y527729D01*
X313917Y526968D01*
X314069Y526208D01*
X314500Y525563D01*
X315145Y525132D01*
X315905Y524980D01*
X316666Y525132D01*
X317311Y525563D01*
X317742Y526208D01*
X317894Y526968D01*
X317742Y527729D01*
X317311Y528374D01*
X316666Y528805D01*
X315905Y528957D01*
D02*
G37*
G36*
X310906D02*
X310145Y528805D01*
X309500Y528374D01*
X309069Y527729D01*
X308917Y526968D01*
X309069Y526208D01*
X309500Y525563D01*
X310145Y525132D01*
X310906Y524980D01*
X311666Y525132D01*
X312311Y525563D01*
X312742Y526208D01*
X312894Y526968D01*
X312742Y527729D01*
X312311Y528374D01*
X311666Y528805D01*
X310906Y528957D01*
D02*
G37*
G36*
X305906D02*
X305145Y528805D01*
X304500Y528374D01*
X304069Y527729D01*
X303917Y526968D01*
X304069Y526208D01*
X304500Y525563D01*
X305145Y525132D01*
X305906Y524980D01*
X306666Y525132D01*
X307311Y525563D01*
X307742Y526208D01*
X307894Y526968D01*
X307742Y527729D01*
X307311Y528374D01*
X306666Y528805D01*
X305906Y528957D01*
D02*
G37*
G36*
X300905D02*
X300145Y528805D01*
X299500Y528374D01*
X299069Y527729D01*
X298917Y526968D01*
X299069Y526208D01*
X299500Y525563D01*
X300145Y525132D01*
X300905Y524980D01*
X301666Y525132D01*
X302311Y525563D01*
X302742Y526208D01*
X302894Y526968D01*
X302742Y527729D01*
X302311Y528374D01*
X301666Y528805D01*
X300905Y528957D01*
D02*
G37*
G36*
X295905D02*
X295145Y528805D01*
X294500Y528374D01*
X294069Y527729D01*
X293917Y526968D01*
X294069Y526208D01*
X294500Y525563D01*
X295145Y525132D01*
X295905Y524980D01*
X296666Y525132D01*
X297311Y525563D01*
X297742Y526208D01*
X297894Y526968D01*
X297742Y527729D01*
X297311Y528374D01*
X296666Y528805D01*
X295905Y528957D01*
D02*
G37*
G36*
X274346Y531277D02*
X273683Y531145D01*
X273121Y530769D01*
X272745Y530207D01*
X272613Y529543D01*
X272745Y528880D01*
X273121Y528318D01*
X273683Y527942D01*
X274346Y527810D01*
X274505Y527842D01*
X274806Y527391D01*
X274714Y527254D01*
X274582Y526590D01*
X274714Y525927D01*
X275089Y525365D01*
X275652Y524989D01*
X276315Y524857D01*
X276978Y524989D01*
X277541Y525365D01*
X277916Y525927D01*
X278048Y526590D01*
X277916Y527254D01*
X277541Y527816D01*
X276978Y528192D01*
X276315Y528324D01*
X276156Y528292D01*
X275856Y528742D01*
X275948Y528880D01*
X276080Y529543D01*
X275948Y530207D01*
X275572Y530769D01*
X275010Y531145D01*
X274346Y531277D01*
D02*
G37*
G36*
X248031Y524371D02*
X247368Y524239D01*
X246806Y523863D01*
X246430Y523301D01*
X246318Y522737D01*
X245808D01*
X245696Y523301D01*
X245320Y523863D01*
X244758Y524239D01*
X244094Y524371D01*
X243431Y524239D01*
X242869Y523863D01*
X242493Y523301D01*
X242361Y522638D01*
X242493Y521975D01*
X242869Y521412D01*
X243431Y521036D01*
X244094Y520904D01*
X244758Y521036D01*
X245320Y521412D01*
X245696Y521975D01*
X245808Y522539D01*
X246318D01*
X246430Y521975D01*
X246806Y521412D01*
X247368Y521036D01*
X248031Y520904D01*
X248695Y521036D01*
X249257Y521412D01*
X249633Y521975D01*
X249765Y522638D01*
X249633Y523301D01*
X249257Y523863D01*
X248695Y524239D01*
X248031Y524371D01*
D02*
G37*
G36*
X260298Y525131D02*
X259538Y524979D01*
X258893Y524548D01*
X258462Y523903D01*
X258310Y523142D01*
X258462Y522382D01*
X258893Y521737D01*
X259538Y521306D01*
X260298Y521154D01*
X261059Y521306D01*
X261704Y521737D01*
X262135Y522382D01*
X262287Y523142D01*
X262135Y523903D01*
X261704Y524548D01*
X261059Y524979D01*
X260298Y525131D01*
D02*
G37*
G36*
X254393D02*
X253632Y524979D01*
X252987Y524548D01*
X252556Y523903D01*
X252405Y523142D01*
X252556Y522382D01*
X252987Y521737D01*
X253632Y521306D01*
X254393Y521154D01*
X255154Y521306D01*
X255799Y521737D01*
X256230Y522382D01*
X256381Y523142D01*
X256230Y523903D01*
X255799Y524548D01*
X255154Y524979D01*
X254393Y525131D01*
D02*
G37*
G36*
X246034Y520463D02*
X245371Y520331D01*
X244809Y519955D01*
X244433Y519393D01*
X244361Y519034D01*
X244332Y518886D01*
X243822D01*
X243794Y519030D01*
X243727Y519364D01*
X243352Y519926D01*
X242789Y520302D01*
X242126Y520434D01*
X241463Y520302D01*
X240900Y519926D01*
X240525Y519364D01*
X240393Y518701D01*
X240525Y518038D01*
X240900Y517475D01*
X241463Y517099D01*
X242126Y516967D01*
X242789Y517099D01*
X243352Y517475D01*
X243727Y518038D01*
X243799Y518396D01*
X243828Y518544D01*
X244338D01*
X244366Y518401D01*
X244433Y518066D01*
X244809Y517504D01*
X245371Y517128D01*
X246034Y516996D01*
X246698Y517128D01*
X247260Y517504D01*
X247636Y518066D01*
X247767Y518729D01*
X247636Y519393D01*
X247260Y519955D01*
X246698Y520331D01*
X246034Y520463D01*
D02*
G37*
G36*
X250000Y520434D02*
X249337Y520302D01*
X248774Y519926D01*
X248399Y519364D01*
X248267Y518701D01*
X248399Y518038D01*
X248774Y517475D01*
X249337Y517099D01*
X250000Y516967D01*
X250663Y517099D01*
X251226Y517475D01*
X251601Y518038D01*
X251733Y518701D01*
X251601Y519364D01*
X251226Y519926D01*
X250663Y520302D01*
X250000Y520434D01*
D02*
G37*
G36*
X260810Y520288D02*
X260049Y520137D01*
X259404Y519706D01*
X258973Y519061D01*
X258822Y518300D01*
X258973Y517539D01*
X259404Y516894D01*
X260049Y516463D01*
X260810Y516312D01*
X261571Y516463D01*
X262216Y516894D01*
X262647Y517539D01*
X262798Y518300D01*
X262647Y519061D01*
X262216Y519706D01*
X261571Y520137D01*
X260810Y520288D01*
D02*
G37*
G36*
X254393Y520210D02*
X253632Y520058D01*
X252987Y519627D01*
X252556Y518982D01*
X252405Y518221D01*
X252556Y517460D01*
X252987Y516815D01*
X253632Y516384D01*
X254393Y516233D01*
X255154Y516384D01*
X255799Y516815D01*
X256230Y517460D01*
X256381Y518221D01*
X256230Y518982D01*
X255799Y519627D01*
X255154Y520058D01*
X254393Y520210D01*
D02*
G37*
G36*
X290354Y514529D02*
X289691Y514397D01*
X289129Y514021D01*
X288753Y513459D01*
X288621Y512795D01*
X288753Y512132D01*
X289129Y511570D01*
X289691Y511194D01*
X290354Y511062D01*
X291018Y511194D01*
X291580Y511570D01*
X291956Y512132D01*
X292088Y512795D01*
X291956Y513459D01*
X291580Y514021D01*
X291018Y514397D01*
X290354Y514529D01*
D02*
G37*
G36*
X285433D02*
X284770Y514397D01*
X284207Y514021D01*
X283832Y513459D01*
X283700Y512795D01*
X283832Y512132D01*
X284207Y511570D01*
X284770Y511194D01*
X285433Y511062D01*
X286096Y511194D01*
X286659Y511570D01*
X287034Y512132D01*
X287166Y512795D01*
X287034Y513459D01*
X286659Y514021D01*
X286096Y514397D01*
X285433Y514529D01*
D02*
G37*
G36*
X280252Y513560D02*
X279589Y513428D01*
X279026Y513052D01*
X278651Y512490D01*
X278519Y511827D01*
X278651Y511164D01*
X279026Y510601D01*
X279589Y510225D01*
X280252Y510093D01*
X280915Y510225D01*
X281478Y510601D01*
X281853Y511164D01*
X281985Y511827D01*
X281853Y512490D01*
X281478Y513052D01*
X280915Y513428D01*
X280252Y513560D01*
D02*
G37*
G36*
X272378D02*
X271715Y513428D01*
X271152Y513052D01*
X270777Y512490D01*
X270645Y511827D01*
X270777Y511164D01*
X271152Y510601D01*
X271715Y510225D01*
X272378Y510093D01*
X273041Y510225D01*
X273604Y510601D01*
X273979Y511164D01*
X274111Y511827D01*
X273979Y512490D01*
X273604Y513052D01*
X273041Y513428D01*
X272378Y513560D01*
D02*
G37*
G36*
X330810Y510288D02*
X330049Y510137D01*
X329404Y509706D01*
X328973Y509061D01*
X328822Y508300D01*
X328973Y507539D01*
X329404Y506894D01*
X330049Y506463D01*
X330810Y506312D01*
X331571Y506463D01*
X332216Y506894D01*
X332647Y507539D01*
X332798Y508300D01*
X332647Y509061D01*
X332216Y509706D01*
X331571Y510137D01*
X330810Y510288D01*
D02*
G37*
G36*
X296260Y509607D02*
X295597Y509475D01*
X295034Y509100D01*
X294658Y508537D01*
X294527Y507874D01*
X294658Y507211D01*
X295034Y506648D01*
X295597Y506273D01*
X296260Y506141D01*
X296923Y506273D01*
X297485Y506648D01*
X297861Y507211D01*
X297993Y507874D01*
X297861Y508537D01*
X297485Y509100D01*
X296923Y509475D01*
X296260Y509607D01*
D02*
G37*
G36*
X290354D02*
X289691Y509475D01*
X289129Y509100D01*
X288753Y508537D01*
X288621Y507874D01*
X288753Y507211D01*
X289129Y506648D01*
X289691Y506273D01*
X290354Y506141D01*
X291018Y506273D01*
X291580Y506648D01*
X291956Y507211D01*
X292088Y507874D01*
X291956Y508537D01*
X291580Y509100D01*
X291018Y509475D01*
X290354Y509607D01*
D02*
G37*
G36*
X285433D02*
X284770Y509475D01*
X284207Y509100D01*
X283832Y508537D01*
X283700Y507874D01*
X283832Y507211D01*
X284207Y506648D01*
X284770Y506273D01*
X285433Y506141D01*
X286096Y506273D01*
X286659Y506648D01*
X287034Y507211D01*
X287166Y507874D01*
X287034Y508537D01*
X286659Y509100D01*
X286096Y509475D01*
X285433Y509607D01*
D02*
G37*
G36*
X275590D02*
X274927Y509475D01*
X274365Y509100D01*
X273989Y508537D01*
X273857Y507874D01*
X273989Y507211D01*
X274365Y506648D01*
X274927Y506273D01*
X275590Y506141D01*
X276254Y506273D01*
X276816Y506648D01*
X277192Y507211D01*
X277324Y507874D01*
X277192Y508537D01*
X276816Y509100D01*
X276254Y509475D01*
X275590Y509607D01*
D02*
G37*
G36*
X328212Y503457D02*
X310495D01*
Y501947D01*
X309995Y501680D01*
X309663Y501901D01*
X309000Y502033D01*
X308337Y501901D01*
X307774Y501526D01*
X307399Y500963D01*
X307267Y500300D01*
X307399Y499637D01*
X307774Y499074D01*
X308337Y498699D01*
X309000Y498567D01*
X309663Y498699D01*
X309995Y498920D01*
X310495Y498653D01*
Y472946D01*
X328212D01*
Y503457D01*
D02*
G37*
G36*
X290354Y504686D02*
X289691Y504554D01*
X289129Y504178D01*
X288753Y503616D01*
X288621Y502953D01*
X288753Y502289D01*
X289129Y501727D01*
X289691Y501351D01*
X290354Y501220D01*
X291018Y501351D01*
X291580Y501727D01*
X291956Y502289D01*
X292088Y502953D01*
X291956Y503616D01*
X291580Y504178D01*
X291018Y504554D01*
X290354Y504686D01*
D02*
G37*
G36*
X285433D02*
X284770Y504554D01*
X284207Y504178D01*
X283832Y503616D01*
X283700Y502953D01*
X283832Y502289D01*
X284207Y501727D01*
X284770Y501351D01*
X285433Y501220D01*
X286096Y501351D01*
X286659Y501727D01*
X287034Y502289D01*
X287166Y502953D01*
X287034Y503616D01*
X286659Y504178D01*
X286096Y504554D01*
X285433Y504686D01*
D02*
G37*
G36*
X280512D02*
X279849Y504554D01*
X279286Y504178D01*
X278910Y503616D01*
X278779Y502953D01*
X278910Y502289D01*
X279286Y501727D01*
X279849Y501351D01*
X280512Y501220D01*
X281175Y501351D01*
X281737Y501727D01*
X282113Y502289D01*
X282245Y502953D01*
X282113Y503616D01*
X281737Y504178D01*
X281175Y504554D01*
X280512Y504686D01*
D02*
G37*
G36*
X275590D02*
X274927Y504554D01*
X274365Y504178D01*
X273989Y503616D01*
X273857Y502953D01*
X273989Y502289D01*
X274365Y501727D01*
X274927Y501351D01*
X275590Y501220D01*
X276254Y501351D01*
X276816Y501727D01*
X277192Y502289D01*
X277324Y502953D01*
X277192Y503616D01*
X276816Y504178D01*
X276254Y504554D01*
X275590Y504686D01*
D02*
G37*
G36*
X270669D02*
X270006Y504554D01*
X269444Y504178D01*
X269068Y503616D01*
X268936Y502953D01*
X269068Y502289D01*
X269444Y501727D01*
X270006Y501351D01*
X270669Y501220D01*
X271333Y501351D01*
X271895Y501727D01*
X272271Y502289D01*
X272403Y502953D01*
X272271Y503616D01*
X271895Y504178D01*
X271333Y504554D01*
X270669Y504686D01*
D02*
G37*
G36*
X265748D02*
X265085Y504554D01*
X264522Y504178D01*
X264147Y503616D01*
X264015Y502953D01*
X264147Y502289D01*
X264522Y501727D01*
X265085Y501351D01*
X265748Y501220D01*
X266411Y501351D01*
X266974Y501727D01*
X267349Y502289D01*
X267481Y502953D01*
X267349Y503616D01*
X266974Y504178D01*
X266411Y504554D01*
X265748Y504686D01*
D02*
G37*
G36*
X260827D02*
X260163Y504554D01*
X259601Y504178D01*
X259225Y503616D01*
X259093Y502953D01*
X259225Y502289D01*
X259601Y501727D01*
X260163Y501351D01*
X260827Y501220D01*
X261490Y501351D01*
X262052Y501727D01*
X262428Y502289D01*
X262560Y502953D01*
X262428Y503616D01*
X262052Y504178D01*
X261490Y504554D01*
X260827Y504686D01*
D02*
G37*
G36*
X296000Y504946D02*
X295337Y504814D01*
X294774Y504438D01*
X294399Y503876D01*
X294267Y503213D01*
X294399Y502549D01*
X294654Y502168D01*
X294495Y501658D01*
X294464Y501620D01*
X294368Y501601D01*
X293806Y501226D01*
X293430Y500663D01*
X293298Y500000D01*
X293430Y499337D01*
X293806Y498774D01*
X294368Y498399D01*
X294932Y498286D01*
Y497777D01*
X294368Y497664D01*
X293806Y497289D01*
X293430Y496726D01*
X293298Y496063D01*
X293430Y495400D01*
X293806Y494837D01*
X294368Y494462D01*
X295031Y494330D01*
X295695Y494462D01*
X296257Y494837D01*
X296633Y495400D01*
X296765Y496063D01*
X296633Y496726D01*
X296257Y497289D01*
X295695Y497664D01*
X295130Y497777D01*
Y498286D01*
X295695Y498399D01*
X296257Y498774D01*
X296633Y499337D01*
X296765Y500000D01*
X296633Y500663D01*
X296378Y501045D01*
X296536Y501555D01*
X296568Y501592D01*
X296663Y501611D01*
X297226Y501987D01*
X297601Y502549D01*
X297733Y503213D01*
X297601Y503876D01*
X297226Y504438D01*
X296663Y504814D01*
X296000Y504946D01*
D02*
G37*
G36*
X242126Y501733D02*
X241463Y501601D01*
X240900Y501226D01*
X240525Y500663D01*
X240393Y500000D01*
X240525Y499337D01*
X240900Y498774D01*
X241463Y498399D01*
X242027Y498286D01*
Y497777D01*
X241463Y497664D01*
X240900Y497289D01*
X240525Y496726D01*
X240393Y496063D01*
X240525Y495400D01*
X240900Y494837D01*
X241463Y494462D01*
X242126Y494330D01*
X242789Y494462D01*
X243352Y494837D01*
X243727Y495400D01*
X243859Y496063D01*
X243727Y496726D01*
X243352Y497289D01*
X242789Y497664D01*
X242225Y497777D01*
Y498286D01*
X242789Y498399D01*
X243352Y498774D01*
X243727Y499337D01*
X243859Y500000D01*
X243727Y500663D01*
X243352Y501226D01*
X242789Y501601D01*
X242126Y501733D01*
D02*
G37*
G36*
X291094Y499765D02*
X290431Y499633D01*
X289869Y499257D01*
X289493Y498695D01*
X289361Y498032D01*
X289493Y497368D01*
X289869Y496806D01*
X290431Y496430D01*
X290996Y496318D01*
Y495808D01*
X290431Y495696D01*
X289869Y495320D01*
X289493Y494758D01*
X289361Y494095D01*
X289493Y493431D01*
X289869Y492869D01*
X290431Y492493D01*
X291094Y492361D01*
X291758Y492493D01*
X292320Y492869D01*
X292696Y493431D01*
X292828Y494095D01*
X292696Y494758D01*
X292320Y495320D01*
X291758Y495696D01*
X291194Y495808D01*
Y496318D01*
X291758Y496430D01*
X292320Y496806D01*
X292696Y497368D01*
X292828Y498032D01*
X292696Y498695D01*
X292320Y499257D01*
X291758Y499633D01*
X291094Y499765D01*
D02*
G37*
G36*
X246063Y503702D02*
X245400Y503570D01*
X244837Y503194D01*
X244462Y502632D01*
X244330Y501968D01*
X244462Y501305D01*
X244837Y500743D01*
X245400Y500367D01*
X245964Y500255D01*
Y499745D01*
X245400Y499633D01*
X244837Y499257D01*
X244462Y498695D01*
X244330Y498032D01*
X244462Y497368D01*
X244837Y496806D01*
X245400Y496430D01*
X245964Y496318D01*
Y495808D01*
X245400Y495696D01*
X244837Y495320D01*
X244462Y494758D01*
X244330Y494095D01*
X244462Y493431D01*
X244837Y492869D01*
X245400Y492493D01*
X246063Y492361D01*
X246726Y492493D01*
X247289Y492869D01*
X247664Y493431D01*
X247796Y494095D01*
X247664Y494758D01*
X247289Y495320D01*
X246726Y495696D01*
X246162Y495808D01*
Y496318D01*
X246726Y496430D01*
X247289Y496806D01*
X247664Y497368D01*
X247796Y498032D01*
X247664Y498695D01*
X247289Y499257D01*
X246726Y499633D01*
X246162Y499745D01*
Y500255D01*
X246726Y500367D01*
X247289Y500743D01*
X247664Y501305D01*
X247796Y501968D01*
X247664Y502632D01*
X247289Y503194D01*
X246726Y503570D01*
X246063Y503702D01*
D02*
G37*
G36*
X242126Y491891D02*
X241463Y491759D01*
X240900Y491383D01*
X240525Y490821D01*
X240393Y490158D01*
X240525Y489494D01*
X240900Y488932D01*
X241463Y488556D01*
X242126Y488424D01*
X242789Y488556D01*
X243352Y488932D01*
X243727Y489494D01*
X243859Y490158D01*
X243727Y490821D01*
X243352Y491383D01*
X242789Y491759D01*
X242126Y491891D01*
D02*
G37*
G36*
X295031Y489733D02*
X294368Y489601D01*
X293806Y489226D01*
X293430Y488663D01*
X293298Y488000D01*
X293372Y487628D01*
X292966Y487199D01*
X292795Y487233D01*
X292132Y487101D01*
X291570Y486726D01*
X291194Y486163D01*
X291062Y485500D01*
X291155Y485033D01*
X291146Y485014D01*
X290781Y484649D01*
X290762Y484641D01*
X290295Y484733D01*
X289632Y484601D01*
X289070Y484226D01*
X288694Y483663D01*
X288562Y483000D01*
X288694Y482337D01*
X288954Y481947D01*
X288917Y481321D01*
X288774Y481226D01*
X288399Y480663D01*
X288267Y480000D01*
X288399Y479337D01*
X288774Y478774D01*
X289337Y478399D01*
X290000Y478267D01*
X290663Y478399D01*
X291226Y478774D01*
X291467Y479136D01*
X292033D01*
X292274Y478774D01*
X292837Y478399D01*
X293500Y478267D01*
X294163Y478399D01*
X294726Y478774D01*
X295101Y479337D01*
X295233Y480000D01*
X295101Y480663D01*
X294726Y481226D01*
X294163Y481601D01*
X293500Y481733D01*
X292837Y481601D01*
X292274Y481226D01*
X292177Y481079D01*
X291598Y481048D01*
X291443Y481221D01*
X291501Y481761D01*
X291521Y481774D01*
X291897Y482337D01*
X292029Y483000D01*
X291936Y483467D01*
X291944Y483486D01*
X292310Y483851D01*
X292329Y483859D01*
X292795Y483767D01*
X293459Y483899D01*
X294021Y484274D01*
X294397Y484837D01*
X294529Y485500D01*
X294455Y485872D01*
X294860Y486301D01*
X295031Y486267D01*
X295695Y486399D01*
X296257Y486774D01*
X296633Y487337D01*
X296765Y488000D01*
X296633Y488663D01*
X296257Y489226D01*
X295695Y489601D01*
X295031Y489733D01*
D02*
G37*
G36*
X274078Y485761D02*
X273317Y485609D01*
X272672Y485178D01*
X272312Y484640D01*
X271915Y484572D01*
X271743Y484592D01*
X271635Y484753D01*
X271073Y485129D01*
X270409Y485261D01*
X269746Y485129D01*
X269184Y484753D01*
X268808Y484191D01*
X268676Y483528D01*
X268808Y482864D01*
X269184Y482302D01*
X269746Y481926D01*
X270409Y481794D01*
X271073Y481926D01*
X271635Y482302D01*
X271874Y482660D01*
X272440Y482699D01*
X272453Y482694D01*
X272672Y482367D01*
X273317Y481936D01*
X274078Y481784D01*
X274839Y481936D01*
X275484Y482367D01*
X275915Y483012D01*
X276066Y483772D01*
X275915Y484533D01*
X275484Y485178D01*
X274839Y485609D01*
X274078Y485761D01*
D02*
G37*
G36*
X262090Y482788D02*
X261329Y482637D01*
X260684Y482206D01*
X260253Y481561D01*
X260102Y480800D01*
X260253Y480039D01*
X260684Y479394D01*
X261329Y478963D01*
X262090Y478812D01*
X262851Y478963D01*
X263496Y479394D01*
X263927Y480039D01*
X264078Y480800D01*
X263927Y481561D01*
X263496Y482206D01*
X262851Y482637D01*
X262090Y482788D01*
D02*
G37*
G36*
X285000Y481733D02*
X284337Y481601D01*
X283774Y481226D01*
X283399Y480663D01*
X283267Y480000D01*
X283399Y479337D01*
X283774Y478774D01*
X284337Y478399D01*
X285000Y478267D01*
X285663Y478399D01*
X286226Y478774D01*
X286601Y479337D01*
X286733Y480000D01*
X286601Y480663D01*
X286226Y481226D01*
X285663Y481601D01*
X285000Y481733D01*
D02*
G37*
G36*
X280000D02*
X279337Y481601D01*
X278774Y481226D01*
X278399Y480663D01*
X278267Y480000D01*
X278399Y479337D01*
X278774Y478774D01*
X279337Y478399D01*
X280000Y478267D01*
X280663Y478399D01*
X281226Y478774D01*
X281601Y479337D01*
X281733Y480000D01*
X281601Y480663D01*
X281226Y481226D01*
X280663Y481601D01*
X280000Y481733D01*
D02*
G37*
G36*
X268441Y481324D02*
X267778Y481192D01*
X267215Y480816D01*
X266840Y480254D01*
X266708Y479591D01*
X266840Y478927D01*
X267215Y478365D01*
X267778Y477989D01*
X268441Y477857D01*
X269104Y477989D01*
X269667Y478365D01*
X270042Y478927D01*
X270174Y479591D01*
X270042Y480254D01*
X269667Y480816D01*
X269104Y481192D01*
X268441Y481324D01*
D02*
G37*
G36*
X305900Y478633D02*
X305237Y478501D01*
X304674Y478126D01*
X304299Y477563D01*
X304167Y476900D01*
X304299Y476237D01*
X304674Y475674D01*
X305237Y475299D01*
X305900Y475167D01*
X306563Y475299D01*
X307126Y475674D01*
X307501Y476237D01*
X307633Y476900D01*
X307501Y477563D01*
X307126Y478126D01*
X306563Y478501D01*
X305900Y478633D01*
D02*
G37*
G36*
X255000Y476733D02*
X254337Y476601D01*
X253774Y476226D01*
X253399Y475663D01*
X253267Y475000D01*
X253399Y474337D01*
X253774Y473774D01*
X254337Y473399D01*
X255000Y473267D01*
X255663Y473399D01*
X256226Y473774D01*
X256601Y474337D01*
X256733Y475000D01*
X256601Y475663D01*
X256226Y476226D01*
X255663Y476601D01*
X255000Y476733D01*
D02*
G37*
G36*
X297100Y473633D02*
X296437Y473501D01*
X295874Y473126D01*
X295499Y472563D01*
X295367Y471900D01*
X295499Y471237D01*
X295874Y470674D01*
X296437Y470299D01*
X297100Y470167D01*
X297763Y470299D01*
X298326Y470674D01*
X298701Y471237D01*
X298833Y471900D01*
X298701Y472563D01*
X298326Y473126D01*
X297763Y473501D01*
X297100Y473633D01*
D02*
G37*
G36*
X255000Y471733D02*
X254337Y471601D01*
X253774Y471226D01*
X253399Y470663D01*
X253267Y470000D01*
X253399Y469337D01*
X253774Y468774D01*
X254337Y468399D01*
X255000Y468267D01*
X255663Y468399D01*
X256226Y468774D01*
X256601Y469337D01*
X256733Y470000D01*
X256601Y470663D01*
X256226Y471226D01*
X255663Y471601D01*
X255000Y471733D01*
D02*
G37*
G36*
X330810Y470288D02*
X330049Y470137D01*
X329404Y469706D01*
X328973Y469061D01*
X328822Y468300D01*
X328973Y467539D01*
X329404Y466894D01*
X330049Y466463D01*
X330810Y466312D01*
X331571Y466463D01*
X332216Y466894D01*
X332647Y467539D01*
X332798Y468300D01*
X332647Y469061D01*
X332216Y469706D01*
X331571Y470137D01*
X330810Y470288D01*
D02*
G37*
G36*
X320810D02*
X320049Y470137D01*
X319404Y469706D01*
X318973Y469061D01*
X318822Y468300D01*
X318973Y467539D01*
X319404Y466894D01*
X320049Y466463D01*
X320810Y466312D01*
X321571Y466463D01*
X322216Y466894D01*
X322647Y467539D01*
X322798Y468300D01*
X322647Y469061D01*
X322216Y469706D01*
X321571Y470137D01*
X320810Y470288D01*
D02*
G37*
G36*
X282236Y466544D02*
X281573Y466412D01*
X281011Y466037D01*
X280635Y465474D01*
X280523Y464910D01*
X280013D01*
X279901Y465474D01*
X279525Y466037D01*
X278962Y466412D01*
X278299Y466544D01*
X277636Y466412D01*
X277074Y466037D01*
X276698Y465474D01*
X276586Y464910D01*
X276076D01*
X275964Y465474D01*
X275588Y466037D01*
X275026Y466412D01*
X274362Y466544D01*
X273699Y466412D01*
X273137Y466037D01*
X272761Y465474D01*
X272629Y464811D01*
X272761Y464148D01*
X273137Y463585D01*
X273699Y463210D01*
X274362Y463078D01*
X275026Y463210D01*
X275588Y463585D01*
X275964Y464148D01*
X276076Y464712D01*
X276586D01*
X276698Y464148D01*
X277074Y463585D01*
X277636Y463210D01*
X278299Y463078D01*
X278962Y463210D01*
X279525Y463585D01*
X279901Y464148D01*
X280013Y464712D01*
X280523D01*
X280635Y464148D01*
X281011Y463585D01*
X281573Y463210D01*
X282236Y463078D01*
X282364Y463103D01*
X282665Y462653D01*
X282588Y462537D01*
X282456Y461874D01*
X282588Y461211D01*
X282963Y460648D01*
X283526Y460273D01*
X284189Y460141D01*
X284852Y460273D01*
X285415Y460648D01*
X285790Y461211D01*
X285917Y461845D01*
X286393Y461819D01*
X286525Y461156D01*
X286900Y460594D01*
X287463Y460218D01*
X288126Y460086D01*
X288789Y460218D01*
X289352Y460594D01*
X289727Y461156D01*
X289859Y461819D01*
X289727Y462483D01*
X289352Y463045D01*
X288789Y463420D01*
X288126Y463553D01*
X287463Y463420D01*
X286900Y463045D01*
X286525Y462483D01*
X286398Y461848D01*
X285922Y461874D01*
X285790Y462537D01*
X285415Y463100D01*
X284852Y463475D01*
X284189Y463607D01*
X284061Y463582D01*
X283760Y464032D01*
X283838Y464148D01*
X283969Y464811D01*
X283838Y465474D01*
X283462Y466037D01*
X282899Y466412D01*
X282236Y466544D01*
D02*
G37*
G36*
X268701Y465316D02*
X268038Y465184D01*
X267475Y464808D01*
X267099Y464246D01*
X266968Y463583D01*
X267099Y462919D01*
X267475Y462357D01*
X268038Y461981D01*
X268701Y461849D01*
X269364Y461981D01*
X269926Y462357D01*
X270302Y462919D01*
X270434Y463583D01*
X270302Y464246D01*
X269926Y464808D01*
X269364Y465184D01*
X268701Y465316D01*
D02*
G37*
G36*
X292079Y464576D02*
X291415Y464444D01*
X290853Y464068D01*
X290477Y463506D01*
X290345Y462843D01*
X290477Y462179D01*
X290853Y461617D01*
X291415Y461241D01*
X292079Y461109D01*
X292742Y461241D01*
X293304Y461617D01*
X293680Y462179D01*
X293812Y462843D01*
X293680Y463506D01*
X293304Y464068D01*
X292742Y464444D01*
X292079Y464576D01*
D02*
G37*
G36*
X280252Y462478D02*
X279589Y462346D01*
X279026Y461970D01*
X278651Y461408D01*
X278538Y460844D01*
X278029D01*
X277916Y461408D01*
X277541Y461970D01*
X276978Y462346D01*
X276315Y462478D01*
X275652Y462346D01*
X275089Y461970D01*
X274714Y461408D01*
X274582Y460744D01*
X274714Y460081D01*
X275089Y459519D01*
X275652Y459143D01*
X276315Y459011D01*
X276978Y459143D01*
X277541Y459519D01*
X277916Y460081D01*
X278029Y460645D01*
X278538D01*
X278651Y460081D01*
X279026Y459519D01*
X279589Y459143D01*
X280252Y459011D01*
X280915Y459143D01*
X281478Y459519D01*
X281853Y460081D01*
X281985Y460744D01*
X281853Y461408D01*
X281478Y461970D01*
X280915Y462346D01*
X280252Y462478D01*
D02*
G37*
G36*
X265000D02*
X264337Y462346D01*
X263774Y461970D01*
X263399Y461408D01*
X263267Y460744D01*
X263399Y460081D01*
X263774Y459519D01*
X264337Y459143D01*
X265000Y459011D01*
X265663Y459143D01*
X266226Y459519D01*
X266601Y460081D01*
X266733Y460744D01*
X266601Y461408D01*
X266226Y461970D01*
X265663Y462346D01*
X265000Y462478D01*
D02*
G37*
G36*
X245600Y461132D02*
X244634Y461005D01*
X243734Y460632D01*
X242961Y460039D01*
X242368Y459266D01*
X241995Y458366D01*
X241868Y457400D01*
X241995Y456434D01*
X242368Y455534D01*
X242961Y454761D01*
X243734Y454168D01*
X244634Y453795D01*
X245600Y453668D01*
X246566Y453795D01*
X247466Y454168D01*
X248239Y454761D01*
X248832Y455534D01*
X249205Y456434D01*
X249332Y457400D01*
X249205Y458366D01*
X248832Y459266D01*
X248239Y460039D01*
X247466Y460632D01*
X246566Y461005D01*
X245600Y461132D01*
D02*
G37*
G36*
X340810Y440288D02*
X340049Y440137D01*
X339404Y439706D01*
X338973Y439061D01*
X338822Y438300D01*
X338973Y437539D01*
X339404Y436894D01*
X340049Y436463D01*
X340810Y436312D01*
X341571Y436463D01*
X342216Y436894D01*
X342647Y437539D01*
X342798Y438300D01*
X342647Y439061D01*
X342216Y439706D01*
X341571Y440137D01*
X340810Y440288D01*
D02*
G37*
G36*
X300810D02*
X300049Y440137D01*
X299404Y439706D01*
X298973Y439061D01*
X298822Y438300D01*
X298973Y437539D01*
X299404Y436894D01*
X300049Y436463D01*
X300810Y436312D01*
X301571Y436463D01*
X302216Y436894D01*
X302647Y437539D01*
X302798Y438300D01*
X302647Y439061D01*
X302216Y439706D01*
X301571Y440137D01*
X300810Y440288D01*
D02*
G37*
G36*
X290810D02*
X290049Y440137D01*
X289404Y439706D01*
X288973Y439061D01*
X288822Y438300D01*
X288973Y437539D01*
X289404Y436894D01*
X290049Y436463D01*
X290810Y436312D01*
X291571Y436463D01*
X292216Y436894D01*
X292647Y437539D01*
X292798Y438300D01*
X292647Y439061D01*
X292216Y439706D01*
X291571Y440137D01*
X290810Y440288D01*
D02*
G37*
G36*
X245600Y441132D02*
X244634Y441005D01*
X243734Y440632D01*
X242961Y440039D01*
X242368Y439266D01*
X241995Y438366D01*
X241868Y437400D01*
X241995Y436434D01*
X242368Y435534D01*
X242961Y434761D01*
X243734Y434168D01*
X244634Y433795D01*
X245600Y433668D01*
X246566Y433795D01*
X247466Y434168D01*
X248239Y434761D01*
X248832Y435534D01*
X249205Y436434D01*
X249332Y437400D01*
X249205Y438366D01*
X248832Y439266D01*
X248239Y440039D01*
X247466Y440632D01*
X246566Y441005D01*
X245600Y441132D01*
D02*
G37*
G36*
X380709Y422379D02*
X379807Y422261D01*
X378968Y421913D01*
X378247Y421360D01*
X377693Y420639D01*
X377345Y419799D01*
X377227Y418898D01*
X377345Y417997D01*
X377693Y417157D01*
X378247Y416436D01*
X378968Y415882D01*
X379807Y415534D01*
X380709Y415416D01*
X381610Y415534D01*
X382450Y415882D01*
X383171Y416436D01*
X383724Y417157D01*
X384072Y417997D01*
X384190Y418898D01*
X384072Y419799D01*
X383724Y420639D01*
X383171Y421360D01*
X382450Y421913D01*
X381610Y422261D01*
X380709Y422379D01*
D02*
G37*
G36*
X240295Y421228D02*
X239460Y421118D01*
X238682Y420795D01*
X238013Y420282D01*
X237500Y419614D01*
X237178Y418835D01*
X237068Y418000D01*
X237178Y417165D01*
X237500Y416386D01*
X238013Y415718D01*
X238682Y415205D01*
X239460Y414882D01*
X240295Y414772D01*
X241131Y414882D01*
X241909Y415205D01*
X242578Y415718D01*
X243091Y416386D01*
X243413Y417165D01*
X243523Y418000D01*
X243413Y418835D01*
X243091Y419614D01*
X242578Y420282D01*
X241909Y420795D01*
X241131Y421118D01*
X240295Y421228D01*
D02*
G37*
G36*
X366891Y420318D02*
X366055Y420208D01*
X365277Y419886D01*
X364609Y419373D01*
X364096Y418705D01*
X363773Y417926D01*
X363663Y417091D01*
X363773Y416255D01*
X364096Y415477D01*
X364609Y414809D01*
X365277Y414296D01*
X366055Y413973D01*
X366891Y413863D01*
X367726Y413973D01*
X368505Y414296D01*
X369173Y414809D01*
X369686Y415477D01*
X370008Y416255D01*
X370118Y417091D01*
X370008Y417926D01*
X369686Y418705D01*
X369173Y419373D01*
X368505Y419886D01*
X367726Y420208D01*
X366891Y420318D01*
D02*
G37*
G36*
X264590Y415033D02*
X263927Y414901D01*
X263364Y414526D01*
X262988Y413963D01*
X262857Y413300D01*
X262988Y412637D01*
X263364Y412074D01*
X263927Y411699D01*
X264590Y411567D01*
X265253Y411699D01*
X265815Y412074D01*
X266191Y412637D01*
X266323Y413300D01*
X266191Y413963D01*
X265815Y414526D01*
X265253Y414901D01*
X264590Y415033D01*
D02*
G37*
G36*
X315200Y419390D02*
X314169Y419255D01*
X313208Y418857D01*
X312383Y418223D01*
X311750Y417398D01*
X311352Y416437D01*
X311216Y415406D01*
X311352Y414375D01*
X311750Y413414D01*
X312383Y412589D01*
X313208Y411956D01*
X314169Y411558D01*
X315200Y411422D01*
X316231Y411558D01*
X317192Y411956D01*
X318017Y412589D01*
X318650Y413414D01*
X319048Y414375D01*
X319184Y415406D01*
X319048Y416437D01*
X318650Y417398D01*
X318017Y418223D01*
X317192Y418857D01*
X316231Y419255D01*
X315200Y419390D01*
D02*
G37*
G36*
X320810Y410288D02*
X320049Y410137D01*
X319404Y409706D01*
X318973Y409061D01*
X318822Y408300D01*
X318973Y407539D01*
X319404Y406894D01*
X320049Y406463D01*
X320810Y406312D01*
X321571Y406463D01*
X322216Y406894D01*
X322647Y407539D01*
X322798Y408300D01*
X322647Y409061D01*
X322216Y409706D01*
X321571Y410137D01*
X320810Y410288D01*
D02*
G37*
G36*
X380709Y412379D02*
X379807Y412261D01*
X378968Y411913D01*
X378247Y411360D01*
X377693Y410639D01*
X377345Y409799D01*
X377227Y408898D01*
X377345Y407997D01*
X377693Y407157D01*
X378247Y406436D01*
X378968Y405882D01*
X379807Y405535D01*
X380709Y405416D01*
X381610Y405535D01*
X382450Y405882D01*
X383171Y406436D01*
X383724Y407157D01*
X384072Y407997D01*
X384190Y408898D01*
X384072Y409799D01*
X383724Y410639D01*
X383171Y411360D01*
X382450Y411913D01*
X381610Y412261D01*
X380709Y412379D01*
D02*
G37*
G36*
X240295Y411228D02*
X239460Y411118D01*
X238682Y410795D01*
X238013Y410282D01*
X237500Y409614D01*
X237178Y408835D01*
X237068Y408000D01*
X237178Y407165D01*
X237500Y406386D01*
X238013Y405718D01*
X238682Y405205D01*
X239460Y404882D01*
X240295Y404772D01*
X241131Y404882D01*
X241909Y405205D01*
X242578Y405718D01*
X243091Y406386D01*
X243413Y407165D01*
X243523Y408000D01*
X243413Y408835D01*
X243091Y409614D01*
X242578Y410282D01*
X241909Y410795D01*
X241131Y411118D01*
X240295Y411228D01*
D02*
G37*
G36*
X269590Y405033D02*
X268927Y404901D01*
X268364Y404526D01*
X267988Y403963D01*
X267857Y403300D01*
X267988Y402637D01*
X268364Y402074D01*
X268927Y401699D01*
X269590Y401567D01*
X270253Y401699D01*
X270815Y402074D01*
X271191Y402637D01*
X271323Y403300D01*
X271191Y403963D01*
X270815Y404526D01*
X270253Y404901D01*
X269590Y405033D01*
D02*
G37*
G36*
Y400033D02*
X268927Y399901D01*
X268364Y399526D01*
X267988Y398963D01*
X267857Y398300D01*
X267988Y397637D01*
X268364Y397074D01*
X268927Y396699D01*
X269590Y396567D01*
X270253Y396699D01*
X270815Y397074D01*
X271191Y397637D01*
X271323Y398300D01*
X271191Y398963D01*
X270815Y399526D01*
X270253Y399901D01*
X269590Y400033D01*
D02*
G37*
G36*
X300810Y400288D02*
X300049Y400137D01*
X299404Y399706D01*
X298973Y399061D01*
X298822Y398300D01*
X298973Y397539D01*
X299404Y396894D01*
X300049Y396463D01*
X300810Y396312D01*
X301571Y396463D01*
X302216Y396894D01*
X302647Y397539D01*
X302798Y398300D01*
X302647Y399061D01*
X302216Y399706D01*
X301571Y400137D01*
X300810Y400288D01*
D02*
G37*
G36*
X280810D02*
X280049Y400137D01*
X279404Y399706D01*
X278973Y399061D01*
X278822Y398300D01*
X278973Y397539D01*
X279404Y396894D01*
X280049Y396463D01*
X280810Y396312D01*
X281571Y396463D01*
X282216Y396894D01*
X282647Y397539D01*
X282798Y398300D01*
X282647Y399061D01*
X282216Y399706D01*
X281571Y400137D01*
X280810Y400288D01*
D02*
G37*
G36*
X240295Y398728D02*
X239460Y398618D01*
X238682Y398295D01*
X238013Y397782D01*
X237500Y397114D01*
X237178Y396335D01*
X237068Y395500D01*
X237178Y394665D01*
X237500Y393886D01*
X238013Y393218D01*
X238682Y392705D01*
X239460Y392382D01*
X240295Y392272D01*
X241131Y392382D01*
X241909Y392705D01*
X242578Y393218D01*
X243091Y393886D01*
X243413Y394665D01*
X243523Y395500D01*
X243413Y396335D01*
X243091Y397114D01*
X242578Y397782D01*
X241909Y398295D01*
X241131Y398618D01*
X240295Y398728D01*
D02*
G37*
G36*
X319150Y400144D02*
X311250D01*
Y392244D01*
X319150D01*
Y400144D01*
D02*
G37*
G36*
X267090Y395033D02*
X266426Y394901D01*
X265864Y394526D01*
X265488Y393963D01*
X265356Y393300D01*
X265488Y392637D01*
X265864Y392074D01*
X266426Y391699D01*
X267090Y391567D01*
X267753Y391699D01*
X268315Y392074D01*
X268691Y392637D01*
X268823Y393300D01*
X268691Y393963D01*
X268315Y394526D01*
X267753Y394901D01*
X267090Y395033D01*
D02*
G37*
G36*
X264590Y390033D02*
X263927Y389901D01*
X263364Y389526D01*
X262988Y388963D01*
X262857Y388300D01*
X262988Y387637D01*
X263364Y387074D01*
X263927Y386699D01*
X264590Y386567D01*
X265253Y386699D01*
X265815Y387074D01*
X266191Y387637D01*
X266323Y388300D01*
X266191Y388963D01*
X265815Y389526D01*
X265253Y389901D01*
X264590Y390033D01*
D02*
G37*
G36*
X320810Y390288D02*
X320049Y390137D01*
X319404Y389706D01*
X318973Y389061D01*
X318822Y388300D01*
X318973Y387539D01*
X319404Y386894D01*
X320049Y386463D01*
X320810Y386312D01*
X321571Y386463D01*
X322216Y386894D01*
X322647Y387539D01*
X322798Y388300D01*
X322647Y389061D01*
X322216Y389706D01*
X321571Y390137D01*
X320810Y390288D01*
D02*
G37*
G36*
X310810D02*
X310049Y390137D01*
X309404Y389706D01*
X308973Y389061D01*
X308822Y388300D01*
X308973Y387539D01*
X309404Y386894D01*
X310049Y386463D01*
X310810Y386312D01*
X311571Y386463D01*
X312216Y386894D01*
X312647Y387539D01*
X312798Y388300D01*
X312647Y389061D01*
X312216Y389706D01*
X311571Y390137D01*
X310810Y390288D01*
D02*
G37*
G36*
X270810D02*
X270049Y390137D01*
X269404Y389706D01*
X268973Y389061D01*
X268822Y388300D01*
X268973Y387539D01*
X269404Y386894D01*
X270049Y386463D01*
X270810Y386312D01*
X271571Y386463D01*
X272216Y386894D01*
X272647Y387539D01*
X272798Y388300D01*
X272647Y389061D01*
X272216Y389706D01*
X271571Y390137D01*
X270810Y390288D01*
D02*
G37*
G36*
X280968Y377493D02*
X280207Y377342D01*
X279562Y376911D01*
X279131Y376266D01*
X278979Y375505D01*
X279131Y374744D01*
X279562Y374099D01*
X280207Y373668D01*
X280968Y373517D01*
X281729Y373668D01*
X282374Y374099D01*
X282805Y374744D01*
X282956Y375505D01*
X282805Y376266D01*
X282374Y376911D01*
X281729Y377342D01*
X280968Y377493D01*
D02*
G37*
G36*
X267090Y375033D02*
X266426Y374901D01*
X265864Y374526D01*
X265488Y373963D01*
X265356Y373300D01*
X265488Y372637D01*
X265864Y372074D01*
X266426Y371699D01*
X267090Y371567D01*
X267753Y371699D01*
X268315Y372074D01*
X268691Y372637D01*
X268823Y373300D01*
X268691Y373963D01*
X268315Y374526D01*
X267753Y374901D01*
X267090Y375033D01*
D02*
G37*
G36*
X299590Y375033D02*
X298926Y374901D01*
X298364Y374526D01*
X297988Y373963D01*
X297856Y373300D01*
X297988Y372637D01*
X298364Y372074D01*
X298926Y371699D01*
X299590Y371567D01*
X300253Y371699D01*
X300815Y372074D01*
X301191Y372637D01*
X301323Y373300D01*
X301191Y373963D01*
X300815Y374526D01*
X300253Y374901D01*
X299590Y375033D01*
D02*
G37*
G36*
X270810Y370288D02*
X270049Y370137D01*
X269404Y369706D01*
X269100Y369251D01*
X268554Y369205D01*
X268522Y369217D01*
X268315Y369526D01*
X267753Y369901D01*
X267090Y370033D01*
X266426Y369901D01*
X265864Y369526D01*
X265488Y368963D01*
X265356Y368300D01*
X265488Y367637D01*
X265864Y367074D01*
X266426Y366699D01*
X267090Y366567D01*
X267753Y366699D01*
X268315Y367074D01*
X268522Y367383D01*
X268554Y367395D01*
X269100Y367349D01*
X269404Y366894D01*
X270049Y366463D01*
X270810Y366312D01*
X271571Y366463D01*
X272216Y366894D01*
X272647Y367539D01*
X272798Y368300D01*
X272647Y369061D01*
X272216Y369706D01*
X271571Y370137D01*
X270810Y370288D01*
D02*
G37*
G36*
X282090Y370033D02*
X281427Y369901D01*
X280864Y369526D01*
X280488Y368963D01*
X280357Y368300D01*
X280488Y367637D01*
X280864Y367074D01*
X281427Y366699D01*
X282090Y366567D01*
X282753Y366699D01*
X283315Y367074D01*
X283691Y367637D01*
X283823Y368300D01*
X283691Y368963D01*
X283315Y369526D01*
X282753Y369901D01*
X282090Y370033D01*
D02*
G37*
G36*
X179000Y367733D02*
X178337Y367601D01*
X177774Y367226D01*
X177399Y366663D01*
X177267Y366000D01*
X177399Y365337D01*
X177774Y364774D01*
X178337Y364399D01*
X179000Y364267D01*
X179663Y364399D01*
X180226Y364774D01*
X180601Y365337D01*
X180733Y366000D01*
X180601Y366663D01*
X180226Y367226D01*
X179663Y367601D01*
X179000Y367733D01*
D02*
G37*
G36*
X177000Y362733D02*
X176337Y362601D01*
X175774Y362226D01*
X175399Y361663D01*
X175267Y361000D01*
X175399Y360337D01*
X175774Y359774D01*
X176337Y359399D01*
X177000Y359267D01*
X177663Y359399D01*
X178226Y359774D01*
X178601Y360337D01*
X178733Y361000D01*
X178601Y361663D01*
X178226Y362226D01*
X177663Y362601D01*
X177000Y362733D01*
D02*
G37*
G36*
X242500Y360488D02*
X241739Y360337D01*
X241094Y359906D01*
X240663Y359261D01*
X240512Y358500D01*
X240663Y357739D01*
X241094Y357094D01*
X241739Y356663D01*
X242500Y356512D01*
X243261Y356663D01*
X243906Y357094D01*
X244337Y357739D01*
X244488Y358500D01*
X244337Y359261D01*
X243906Y359906D01*
X243261Y360337D01*
X242500Y360488D01*
D02*
G37*
G36*
X280810Y360288D02*
X280049Y360137D01*
X279404Y359706D01*
X278973Y359061D01*
X278822Y358300D01*
X278973Y357539D01*
X279404Y356894D01*
X280049Y356463D01*
X280810Y356312D01*
X281571Y356463D01*
X282216Y356894D01*
X282647Y357539D01*
X282798Y358300D01*
X282647Y359061D01*
X282216Y359706D01*
X281571Y360137D01*
X280810Y360288D01*
D02*
G37*
G36*
X270810D02*
X270049Y360137D01*
X269404Y359706D01*
X268973Y359061D01*
X268822Y358300D01*
X268973Y357539D01*
X269404Y356894D01*
X270049Y356463D01*
X270810Y356312D01*
X271571Y356463D01*
X272216Y356894D01*
X272647Y357539D01*
X272798Y358300D01*
X272647Y359061D01*
X272216Y359706D01*
X271571Y360137D01*
X270810Y360288D01*
D02*
G37*
G36*
X250810D02*
X250049Y360137D01*
X249404Y359706D01*
X248973Y359061D01*
X248822Y358300D01*
X248973Y357539D01*
X249404Y356894D01*
X250049Y356463D01*
X250810Y356312D01*
X251571Y356463D01*
X252216Y356894D01*
X252647Y357539D01*
X252798Y358300D01*
X252647Y359061D01*
X252216Y359706D01*
X251571Y360137D01*
X250810Y360288D01*
D02*
G37*
G36*
X220810D02*
X220049Y360137D01*
X219404Y359706D01*
X218973Y359061D01*
X218822Y358300D01*
X218973Y357539D01*
X219404Y356894D01*
X220049Y356463D01*
X220810Y356312D01*
X221571Y356463D01*
X222216Y356894D01*
X222647Y357539D01*
X222798Y358300D01*
X222647Y359061D01*
X222216Y359706D01*
X221571Y360137D01*
X220810Y360288D01*
D02*
G37*
G36*
X237205Y359782D02*
X236249Y359591D01*
X235438Y359050D01*
X234897Y358239D01*
X234707Y357283D01*
X234897Y356328D01*
X235438Y355517D01*
X236249Y354976D01*
X237205Y354785D01*
X238161Y354976D01*
X238971Y355517D01*
X239513Y356328D01*
X239703Y357283D01*
X239513Y358239D01*
X238971Y359050D01*
X238161Y359591D01*
X237205Y359782D01*
D02*
G37*
G36*
X175000Y357733D02*
X174337Y357601D01*
X173774Y357226D01*
X173399Y356663D01*
X173267Y356000D01*
X173399Y355337D01*
X173774Y354774D01*
X174337Y354399D01*
X175000Y354267D01*
X175663Y354399D01*
X176226Y354774D01*
X176601Y355337D01*
X176733Y356000D01*
X176601Y356663D01*
X176226Y357226D01*
X175663Y357601D01*
X175000Y357733D01*
D02*
G37*
G36*
X190810Y350288D02*
X190049Y350137D01*
X189404Y349706D01*
X188973Y349061D01*
X188822Y348300D01*
X188973Y347539D01*
X189404Y346894D01*
X190049Y346463D01*
X190810Y346312D01*
X191571Y346463D01*
X192216Y346894D01*
X192647Y347539D01*
X192798Y348300D01*
X192647Y349061D01*
X192216Y349706D01*
X191571Y350137D01*
X190810Y350288D01*
D02*
G37*
G36*
X180810D02*
X180049Y350137D01*
X179404Y349706D01*
X178973Y349061D01*
X178822Y348300D01*
X178973Y347539D01*
X179404Y346894D01*
X180049Y346463D01*
X180810Y346312D01*
X181571Y346463D01*
X182216Y346894D01*
X182647Y347539D01*
X182798Y348300D01*
X182647Y349061D01*
X182216Y349706D01*
X181571Y350137D01*
X180810Y350288D01*
D02*
G37*
G36*
X160810D02*
X160049Y350137D01*
X159404Y349706D01*
X158973Y349061D01*
X158822Y348300D01*
X158973Y347539D01*
X159404Y346894D01*
X160049Y346463D01*
X160810Y346312D01*
X161571Y346463D01*
X162216Y346894D01*
X162647Y347539D01*
X162798Y348300D01*
X162647Y349061D01*
X162216Y349706D01*
X161571Y350137D01*
X160810Y350288D01*
D02*
G37*
G36*
X230295Y349988D02*
X229534Y349837D01*
X228889Y349406D01*
X228458Y348761D01*
X228307Y348000D01*
X228458Y347239D01*
X228889Y346594D01*
X229534Y346163D01*
X230295Y346012D01*
X231056Y346163D01*
X231701Y346594D01*
X232132Y347239D01*
X232283Y348000D01*
X232132Y348761D01*
X231701Y349406D01*
X231056Y349837D01*
X230295Y349988D01*
D02*
G37*
G36*
X210810Y340288D02*
X210049Y340137D01*
X209404Y339706D01*
X208973Y339061D01*
X208822Y338300D01*
X208973Y337539D01*
X209404Y336894D01*
X210049Y336463D01*
X210810Y336312D01*
X211571Y336463D01*
X212216Y336894D01*
X212647Y337539D01*
X212798Y338300D01*
X212647Y339061D01*
X212216Y339706D01*
X211571Y340137D01*
X210810Y340288D01*
D02*
G37*
G36*
X200810D02*
X200049Y340137D01*
X199404Y339706D01*
X198973Y339061D01*
X198822Y338300D01*
X198973Y337539D01*
X199404Y336894D01*
X200049Y336463D01*
X200810Y336312D01*
X201571Y336463D01*
X202216Y336894D01*
X202647Y337539D01*
X202798Y338300D01*
X202647Y339061D01*
X202216Y339706D01*
X201571Y340137D01*
X200810Y340288D01*
D02*
G37*
G36*
X190810D02*
X190049Y340137D01*
X189404Y339706D01*
X188973Y339061D01*
X188822Y338300D01*
X188973Y337539D01*
X189404Y336894D01*
X190049Y336463D01*
X190810Y336312D01*
X191571Y336463D01*
X192216Y336894D01*
X192647Y337539D01*
X192798Y338300D01*
X192647Y339061D01*
X192216Y339706D01*
X191571Y340137D01*
X190810Y340288D01*
D02*
G37*
G36*
X180810D02*
X180049Y340137D01*
X179404Y339706D01*
X178973Y339061D01*
X178822Y338300D01*
X178973Y337539D01*
X179404Y336894D01*
X180049Y336463D01*
X180810Y336312D01*
X181571Y336463D01*
X182216Y336894D01*
X182647Y337539D01*
X182798Y338300D01*
X182647Y339061D01*
X182216Y339706D01*
X181571Y340137D01*
X180810Y340288D01*
D02*
G37*
G36*
X170810D02*
X170049Y340137D01*
X169404Y339706D01*
X168973Y339061D01*
X168822Y338300D01*
X168973Y337539D01*
X169404Y336894D01*
X170049Y336463D01*
X170810Y336312D01*
X171571Y336463D01*
X172216Y336894D01*
X172647Y337539D01*
X172798Y338300D01*
X172647Y339061D01*
X172216Y339706D01*
X171571Y340137D01*
X170810Y340288D01*
D02*
G37*
G36*
X135295Y349191D02*
X134599Y349100D01*
X133949Y348831D01*
X133392Y348403D01*
X132964Y347846D01*
X132695Y347197D01*
X132604Y346500D01*
X132695Y345803D01*
X132964Y345154D01*
X133392Y344597D01*
X133778Y344301D01*
X133814Y344201D01*
Y343799D01*
X133778Y343699D01*
X133392Y343403D01*
X132964Y342846D01*
X132695Y342197D01*
X132604Y341500D01*
X132695Y340803D01*
X132964Y340154D01*
X133392Y339597D01*
X133778Y339301D01*
X133814Y339201D01*
Y338799D01*
X133778Y338699D01*
X133392Y338403D01*
X132964Y337846D01*
X132695Y337197D01*
X132604Y336500D01*
X132695Y335803D01*
X132964Y335154D01*
X133392Y334597D01*
X133949Y334169D01*
X134599Y333900D01*
X135295Y333808D01*
X135992Y333900D01*
X136641Y334169D01*
X137198Y334597D01*
X137626Y335154D01*
X137895Y335803D01*
X137987Y336500D01*
X137895Y337197D01*
X137626Y337846D01*
X137198Y338403D01*
X136813Y338699D01*
X136776Y338799D01*
Y339201D01*
X136813Y339301D01*
X137198Y339597D01*
X137626Y340154D01*
X137895Y340803D01*
X137987Y341500D01*
X137895Y342197D01*
X137626Y342846D01*
X137198Y343403D01*
X136813Y343699D01*
X136776Y343799D01*
Y344201D01*
X136813Y344301D01*
X137198Y344597D01*
X137626Y345154D01*
X137895Y345803D01*
X137987Y346500D01*
X137895Y347197D01*
X137626Y347846D01*
X137198Y348403D01*
X136641Y348831D01*
X135992Y349100D01*
X135295Y349191D01*
D02*
G37*
G36*
X190810Y590288D02*
X190049Y590137D01*
X189404Y589706D01*
X188973Y589061D01*
X188822Y588300D01*
X188973Y587539D01*
X189404Y586894D01*
X190049Y586463D01*
X190810Y586312D01*
X191571Y586463D01*
X192216Y586894D01*
X192647Y587539D01*
X192798Y588300D01*
X192647Y589061D01*
X192216Y589706D01*
X191571Y590137D01*
X190810Y590288D01*
D02*
G37*
G36*
X180810D02*
X180049Y590137D01*
X179404Y589706D01*
X178973Y589061D01*
X178822Y588300D01*
X178973Y587539D01*
X179404Y586894D01*
X180049Y586463D01*
X180810Y586312D01*
X181571Y586463D01*
X182216Y586894D01*
X182647Y587539D01*
X182798Y588300D01*
X182647Y589061D01*
X182216Y589706D01*
X181571Y590137D01*
X180810Y590288D01*
D02*
G37*
G36*
X190810Y580288D02*
X190049Y580137D01*
X189404Y579706D01*
X188973Y579061D01*
X188822Y578300D01*
X188973Y577539D01*
X189404Y576894D01*
X190049Y576463D01*
X190810Y576312D01*
X191571Y576463D01*
X192216Y576894D01*
X192647Y577539D01*
X192798Y578300D01*
X192647Y579061D01*
X192216Y579706D01*
X191571Y580137D01*
X190810Y580288D01*
D02*
G37*
G36*
X180810D02*
X180049Y580137D01*
X179404Y579706D01*
X178973Y579061D01*
X178822Y578300D01*
X178973Y577539D01*
X179404Y576894D01*
X180049Y576463D01*
X180810Y576312D01*
X181571Y576463D01*
X182216Y576894D01*
X182647Y577539D01*
X182798Y578300D01*
X182647Y579061D01*
X182216Y579706D01*
X181571Y580137D01*
X180810Y580288D01*
D02*
G37*
G36*
X213000Y595498D02*
X212044Y595308D01*
X211234Y594766D01*
X210692Y593956D01*
X210502Y593000D01*
X210692Y592044D01*
X211234Y591234D01*
X211916Y590778D01*
X211944Y590674D01*
Y590326D01*
X211916Y590222D01*
X211234Y589766D01*
X210692Y588956D01*
X210502Y588000D01*
X210692Y587044D01*
X211234Y586234D01*
X211916Y585778D01*
X211944Y585674D01*
Y585326D01*
X211916Y585222D01*
X211234Y584766D01*
X210692Y583956D01*
X210502Y583000D01*
X210692Y582044D01*
X211234Y581234D01*
X211916Y580778D01*
X211944Y580674D01*
Y580326D01*
X211916Y580222D01*
X211234Y579766D01*
X210692Y578956D01*
X210502Y578000D01*
X210692Y577044D01*
X211234Y576234D01*
X211916Y575778D01*
X211944Y575674D01*
Y575326D01*
X211916Y575222D01*
X211234Y574766D01*
X210692Y573956D01*
X210502Y573000D01*
X210692Y572044D01*
X211234Y571234D01*
X212044Y570692D01*
X213000Y570502D01*
X213956Y570692D01*
X214766Y571234D01*
X215308Y572044D01*
X215498Y573000D01*
X215308Y573956D01*
X214766Y574766D01*
X214084Y575222D01*
X214056Y575326D01*
Y575674D01*
X214084Y575778D01*
X214766Y576234D01*
X215308Y577044D01*
X215498Y578000D01*
X215308Y578956D01*
X214766Y579766D01*
X214084Y580222D01*
X214056Y580326D01*
Y580674D01*
X214084Y580778D01*
X214766Y581234D01*
X215308Y582044D01*
X215498Y583000D01*
X215308Y583956D01*
X214766Y584766D01*
X214084Y585222D01*
X214056Y585326D01*
Y585674D01*
X214084Y585778D01*
X214766Y586234D01*
X215308Y587044D01*
X215498Y588000D01*
X215308Y588956D01*
X214766Y589766D01*
X214084Y590222D01*
X214056Y590326D01*
Y590674D01*
X214084Y590778D01*
X214766Y591234D01*
X215308Y592044D01*
X215498Y593000D01*
X215308Y593956D01*
X214766Y594766D01*
X213956Y595308D01*
X213000Y595498D01*
D02*
G37*
G36*
X190810Y570288D02*
X190049Y570137D01*
X189404Y569706D01*
X188973Y569061D01*
X188822Y568300D01*
X188973Y567539D01*
X189404Y566894D01*
X190049Y566463D01*
X190810Y566312D01*
X191571Y566463D01*
X192216Y566894D01*
X192647Y567539D01*
X192798Y568300D01*
X192647Y569061D01*
X192216Y569706D01*
X191571Y570137D01*
X190810Y570288D01*
D02*
G37*
G36*
X180810D02*
X180049Y570137D01*
X179404Y569706D01*
X178973Y569061D01*
X178822Y568300D01*
X178973Y567539D01*
X179404Y566894D01*
X180049Y566463D01*
X180810Y566312D01*
X181571Y566463D01*
X182216Y566894D01*
X182647Y567539D01*
X182798Y568300D01*
X182647Y569061D01*
X182216Y569706D01*
X181571Y570137D01*
X180810Y570288D01*
D02*
G37*
G36*
X196863Y565508D02*
X196166Y565416D01*
X195517Y565147D01*
X194960Y564720D01*
X194532Y564162D01*
X194263Y563513D01*
X194172Y562816D01*
X194263Y562120D01*
X194532Y561471D01*
X194960Y560913D01*
X195517Y560486D01*
X196166Y560217D01*
X196863Y560125D01*
X197560Y560217D01*
X198209Y560486D01*
X198766Y560913D01*
X199194Y561471D01*
X199463Y562120D01*
X199555Y562816D01*
X199463Y563513D01*
X199194Y564162D01*
X198766Y564720D01*
X198209Y565147D01*
X197560Y565416D01*
X196863Y565508D01*
D02*
G37*
G36*
X190810Y560288D02*
X190049Y560137D01*
X189404Y559706D01*
X188973Y559061D01*
X188822Y558300D01*
X188973Y557539D01*
X189404Y556894D01*
X190049Y556463D01*
X190810Y556312D01*
X191571Y556463D01*
X192216Y556894D01*
X192647Y557539D01*
X192798Y558300D01*
X192647Y559061D01*
X192216Y559706D01*
X191571Y560137D01*
X190810Y560288D01*
D02*
G37*
G36*
X180810D02*
X180049Y560137D01*
X179404Y559706D01*
X178973Y559061D01*
X178822Y558300D01*
X178973Y557539D01*
X179404Y556894D01*
X180049Y556463D01*
X180810Y556312D01*
X181571Y556463D01*
X182216Y556894D01*
X182647Y557539D01*
X182798Y558300D01*
X182647Y559061D01*
X182216Y559706D01*
X181571Y560137D01*
X180810Y560288D01*
D02*
G37*
G36*
X190810Y550288D02*
X190049Y550137D01*
X189404Y549706D01*
X188973Y549061D01*
X188822Y548300D01*
X188973Y547539D01*
X189404Y546894D01*
X190049Y546463D01*
X190810Y546312D01*
X191571Y546463D01*
X192216Y546894D01*
X192647Y547539D01*
X192798Y548300D01*
X192647Y549061D01*
X192216Y549706D01*
X191571Y550137D01*
X190810Y550288D01*
D02*
G37*
G36*
X180810D02*
X180049Y550137D01*
X179404Y549706D01*
X178973Y549061D01*
X178822Y548300D01*
X178973Y547539D01*
X179404Y546894D01*
X180049Y546463D01*
X180810Y546312D01*
X181571Y546463D01*
X182216Y546894D01*
X182647Y547539D01*
X182798Y548300D01*
X182647Y549061D01*
X182216Y549706D01*
X181571Y550137D01*
X180810Y550288D01*
D02*
G37*
G36*
X199000Y546733D02*
X198337Y546601D01*
X197774Y546226D01*
X197399Y545663D01*
X197267Y545000D01*
X197399Y544337D01*
X197774Y543774D01*
X198337Y543399D01*
X199000Y543267D01*
X199663Y543399D01*
X200226Y543774D01*
X200601Y544337D01*
X200733Y545000D01*
X200601Y545663D01*
X200226Y546226D01*
X199663Y546601D01*
X199000Y546733D01*
D02*
G37*
G36*
X197000Y541733D02*
X196337Y541601D01*
X195774Y541226D01*
X195399Y540663D01*
X195267Y540000D01*
X195399Y539337D01*
X195774Y538774D01*
X196337Y538399D01*
X197000Y538267D01*
X197663Y538399D01*
X198226Y538774D01*
X198601Y539337D01*
X198733Y540000D01*
X198601Y540663D01*
X198226Y541226D01*
X197663Y541601D01*
X197000Y541733D01*
D02*
G37*
G36*
X190810Y540288D02*
X190049Y540137D01*
X189404Y539706D01*
X188973Y539061D01*
X188822Y538300D01*
X188973Y537539D01*
X189404Y536894D01*
X190049Y536463D01*
X190810Y536312D01*
X191571Y536463D01*
X192216Y536894D01*
X192647Y537539D01*
X192798Y538300D01*
X192647Y539061D01*
X192216Y539706D01*
X191571Y540137D01*
X190810Y540288D01*
D02*
G37*
G36*
X180810D02*
X180049Y540137D01*
X179404Y539706D01*
X178973Y539061D01*
X178822Y538300D01*
X178973Y537539D01*
X179404Y536894D01*
X180049Y536463D01*
X180810Y536312D01*
X181571Y536463D01*
X182216Y536894D01*
X182647Y537539D01*
X182798Y538300D01*
X182647Y539061D01*
X182216Y539706D01*
X181571Y540137D01*
X180810Y540288D01*
D02*
G37*
G36*
X195000Y536733D02*
X194337Y536601D01*
X193774Y536226D01*
X193399Y535663D01*
X193267Y535000D01*
X193399Y534337D01*
X193774Y533774D01*
X194337Y533399D01*
X195000Y533267D01*
X195663Y533399D01*
X196226Y533774D01*
X196601Y534337D01*
X196733Y535000D01*
X196601Y535663D01*
X196226Y536226D01*
X195663Y536601D01*
X195000Y536733D01*
D02*
G37*
G36*
X193000Y531733D02*
X192337Y531601D01*
X191774Y531226D01*
X191399Y530663D01*
X191267Y530000D01*
X191399Y529337D01*
X191774Y528774D01*
X192337Y528399D01*
X193000Y528267D01*
X193663Y528399D01*
X194226Y528774D01*
X194601Y529337D01*
X194733Y530000D01*
X194601Y530663D01*
X194226Y531226D01*
X193663Y531601D01*
X193000Y531733D01*
D02*
G37*
G36*
X180810Y530288D02*
X180049Y530137D01*
X179404Y529706D01*
X178973Y529061D01*
X178822Y528300D01*
X178973Y527539D01*
X179404Y526894D01*
X180049Y526463D01*
X180810Y526312D01*
X181571Y526463D01*
X182216Y526894D01*
X182647Y527539D01*
X182798Y528300D01*
X182647Y529061D01*
X182216Y529706D01*
X181571Y530137D01*
X180810Y530288D01*
D02*
G37*
G36*
X191000Y526733D02*
X190337Y526601D01*
X189774Y526226D01*
X189399Y525663D01*
X189267Y525000D01*
X189399Y524337D01*
X189774Y523774D01*
X190337Y523399D01*
X191000Y523267D01*
X191663Y523399D01*
X192226Y523774D01*
X192601Y524337D01*
X192733Y525000D01*
X192601Y525663D01*
X192226Y526226D01*
X191663Y526601D01*
X191000Y526733D01*
D02*
G37*
G36*
X189000Y521733D02*
X188337Y521601D01*
X187774Y521226D01*
X187399Y520663D01*
X187267Y520000D01*
X187399Y519337D01*
X187774Y518774D01*
X188337Y518399D01*
X189000Y518267D01*
X189663Y518399D01*
X190226Y518774D01*
X190601Y519337D01*
X190733Y520000D01*
X190601Y520663D01*
X190226Y521226D01*
X189663Y521601D01*
X189000Y521733D01*
D02*
G37*
G36*
X180810Y520288D02*
X180049Y520137D01*
X179404Y519706D01*
X178973Y519061D01*
X178822Y518300D01*
X178973Y517539D01*
X179404Y516894D01*
X180049Y516463D01*
X180810Y516312D01*
X181571Y516463D01*
X182216Y516894D01*
X182647Y517539D01*
X182798Y518300D01*
X182647Y519061D01*
X182216Y519706D01*
X181571Y520137D01*
X180810Y520288D01*
D02*
G37*
G36*
X187000Y516733D02*
X186337Y516601D01*
X185774Y516226D01*
X185399Y515663D01*
X185267Y515000D01*
X185399Y514337D01*
X185774Y513774D01*
X186337Y513399D01*
X187000Y513267D01*
X187663Y513399D01*
X188226Y513774D01*
X188601Y514337D01*
X188733Y515000D01*
X188601Y515663D01*
X188226Y516226D01*
X187663Y516601D01*
X187000Y516733D01*
D02*
G37*
G36*
X180810Y510288D02*
X180049Y510137D01*
X179404Y509706D01*
X178973Y509061D01*
X178822Y508300D01*
X178973Y507539D01*
X179404Y506894D01*
X180049Y506463D01*
X180810Y506312D01*
X181571Y506463D01*
X182216Y506894D01*
X182647Y507539D01*
X182798Y508300D01*
X182647Y509061D01*
X182216Y509706D01*
X181571Y510137D01*
X180810Y510288D01*
D02*
G37*
G36*
X213000Y547498D02*
X212044Y547308D01*
X211234Y546766D01*
X210692Y545956D01*
X210502Y545000D01*
X210692Y544044D01*
X211234Y543234D01*
X211916Y542778D01*
X211944Y542674D01*
Y542326D01*
X211916Y542222D01*
X211234Y541766D01*
X210692Y540956D01*
X210502Y540000D01*
X210692Y539044D01*
X211234Y538234D01*
X211916Y537778D01*
X211944Y537674D01*
Y537326D01*
X211916Y537222D01*
X211234Y536766D01*
X210692Y535956D01*
X210502Y535000D01*
X210692Y534044D01*
X211234Y533234D01*
X211916Y532778D01*
X211944Y532674D01*
Y532326D01*
X211916Y532222D01*
X211234Y531766D01*
X210692Y530956D01*
X210502Y530000D01*
X210692Y529044D01*
X211234Y528234D01*
X211916Y527778D01*
X211944Y527674D01*
Y527326D01*
X211916Y527222D01*
X211234Y526766D01*
X210692Y525956D01*
X210502Y525000D01*
X210692Y524044D01*
X211234Y523234D01*
X211916Y522778D01*
X211944Y522674D01*
Y522326D01*
X211916Y522222D01*
X211234Y521766D01*
X210692Y520956D01*
X210502Y520000D01*
X210692Y519044D01*
X211234Y518234D01*
X211916Y517778D01*
X211944Y517674D01*
Y517326D01*
X211916Y517222D01*
X211234Y516766D01*
X210692Y515956D01*
X210502Y515000D01*
X210692Y514044D01*
X211234Y513234D01*
X211916Y512778D01*
X211944Y512674D01*
Y512326D01*
X211916Y512222D01*
X211234Y511766D01*
X210692Y510956D01*
X210502Y510000D01*
X210692Y509044D01*
X211234Y508234D01*
X211916Y507778D01*
X211944Y507674D01*
Y507326D01*
X211916Y507222D01*
X211234Y506766D01*
X210692Y505956D01*
X210502Y505000D01*
X210692Y504044D01*
X211234Y503234D01*
X212044Y502692D01*
X213000Y502502D01*
X213956Y502692D01*
X214766Y503234D01*
X215308Y504044D01*
X215498Y505000D01*
X215308Y505956D01*
X214766Y506766D01*
X214084Y507222D01*
X214056Y507326D01*
Y507674D01*
X214084Y507778D01*
X214766Y508234D01*
X215308Y509044D01*
X215498Y510000D01*
X215308Y510956D01*
X214766Y511766D01*
X214084Y512222D01*
X214056Y512326D01*
Y512674D01*
X214084Y512778D01*
X214766Y513234D01*
X215308Y514044D01*
X215498Y515000D01*
X215308Y515956D01*
X214766Y516766D01*
X214084Y517222D01*
X214056Y517326D01*
Y517674D01*
X214084Y517778D01*
X214766Y518234D01*
X215308Y519044D01*
X215498Y520000D01*
X215308Y520956D01*
X214766Y521766D01*
X214084Y522222D01*
X214056Y522326D01*
Y522674D01*
X214084Y522778D01*
X214766Y523234D01*
X215308Y524044D01*
X215498Y525000D01*
X215308Y525956D01*
X214766Y526766D01*
X214084Y527222D01*
X214056Y527326D01*
Y527674D01*
X214084Y527778D01*
X214766Y528234D01*
X215308Y529044D01*
X215498Y530000D01*
X215308Y530956D01*
X214766Y531766D01*
X214084Y532222D01*
X214056Y532326D01*
Y532674D01*
X214084Y532778D01*
X214766Y533234D01*
X215308Y534044D01*
X215498Y535000D01*
X215308Y535956D01*
X214766Y536766D01*
X214084Y537222D01*
X214056Y537326D01*
Y537674D01*
X214084Y537778D01*
X214766Y538234D01*
X215308Y539044D01*
X215498Y540000D01*
X215308Y540956D01*
X214766Y541766D01*
X214084Y542222D01*
X214056Y542326D01*
Y542674D01*
X214084Y542778D01*
X214766Y543234D01*
X215308Y544044D01*
X215498Y545000D01*
X215308Y545956D01*
X214766Y546766D01*
X213956Y547308D01*
X213000Y547498D01*
D02*
G37*
G36*
X180810Y500288D02*
X180049Y500137D01*
X179404Y499706D01*
X178973Y499061D01*
X178822Y498300D01*
X178973Y497539D01*
X179404Y496894D01*
X180049Y496463D01*
X180810Y496312D01*
X181571Y496463D01*
X182216Y496894D01*
X182647Y497539D01*
X182798Y498300D01*
X182647Y499061D01*
X182216Y499706D01*
X181571Y500137D01*
X180810Y500288D01*
D02*
G37*
G36*
X199000Y493733D02*
X198337Y493601D01*
X197774Y493226D01*
X197399Y492663D01*
X197267Y492000D01*
X197399Y491337D01*
X197774Y490774D01*
X198337Y490399D01*
X199000Y490267D01*
X199663Y490399D01*
X200226Y490774D01*
X200601Y491337D01*
X200733Y492000D01*
X200601Y492663D01*
X200226Y493226D01*
X199663Y493601D01*
X199000Y493733D01*
D02*
G37*
G36*
X217568Y491988D02*
X216807Y491837D01*
X216162Y491406D01*
X215731Y490761D01*
X215580Y490000D01*
X215731Y489239D01*
X216162Y488594D01*
X216807Y488163D01*
X217568Y488012D01*
X218329Y488163D01*
X218974Y488594D01*
X219405Y489239D01*
X219556Y490000D01*
X219405Y490761D01*
X218974Y491406D01*
X218329Y491837D01*
X217568Y491988D01*
D02*
G37*
G36*
X180810Y490288D02*
X180049Y490137D01*
X179404Y489706D01*
X178973Y489061D01*
X178822Y488300D01*
X178973Y487539D01*
X179404Y486894D01*
X180049Y486463D01*
X180810Y486312D01*
X181571Y486463D01*
X182216Y486894D01*
X182647Y487539D01*
X182798Y488300D01*
X182647Y489061D01*
X182216Y489706D01*
X181571Y490137D01*
X180810Y490288D01*
D02*
G37*
G36*
X185000Y488733D02*
X184337Y488601D01*
X183774Y488226D01*
X183399Y487663D01*
X183267Y487000D01*
X183399Y486337D01*
X183774Y485774D01*
X184337Y485399D01*
X185000Y485267D01*
X185663Y485399D01*
X186226Y485774D01*
X186601Y486337D01*
X186733Y487000D01*
X186601Y487663D01*
X186226Y488226D01*
X185663Y488601D01*
X185000Y488733D01*
D02*
G37*
G36*
X217568Y486488D02*
X216807Y486337D01*
X216162Y485906D01*
X215731Y485261D01*
X215580Y484500D01*
X215731Y483739D01*
X216162Y483094D01*
X216807Y482663D01*
X217568Y482512D01*
X218329Y482663D01*
X218974Y483094D01*
X219405Y483739D01*
X219556Y484500D01*
X219405Y485261D01*
X218974Y485906D01*
X218329Y486337D01*
X217568Y486488D01*
D02*
G37*
G36*
X183000Y483733D02*
X182337Y483601D01*
X181774Y483226D01*
X181399Y482663D01*
X181267Y482000D01*
X181399Y481337D01*
X181774Y480774D01*
X182337Y480399D01*
X183000Y480267D01*
X183663Y480399D01*
X184226Y480774D01*
X184601Y481337D01*
X184733Y482000D01*
X184601Y482663D01*
X184226Y483226D01*
X183663Y483601D01*
X183000Y483733D01*
D02*
G37*
G36*
X217568Y481488D02*
X216807Y481337D01*
X216162Y480906D01*
X215731Y480261D01*
X215580Y479500D01*
X215731Y478739D01*
X216162Y478094D01*
X216807Y477663D01*
X217568Y477512D01*
X218329Y477663D01*
X218974Y478094D01*
X219405Y478739D01*
X219556Y479500D01*
X219405Y480261D01*
X218974Y480906D01*
X218329Y481337D01*
X217568Y481488D01*
D02*
G37*
G36*
X181000Y478733D02*
X180337Y478601D01*
X179774Y478226D01*
X179399Y477663D01*
X179267Y477000D01*
X179399Y476337D01*
X179774Y475774D01*
X180337Y475399D01*
X181000Y475267D01*
X181663Y475399D01*
X182226Y475774D01*
X182601Y476337D01*
X182733Y477000D01*
X182601Y477663D01*
X182226Y478226D01*
X181663Y478601D01*
X181000Y478733D01*
D02*
G37*
G36*
X217568Y476488D02*
X216807Y476337D01*
X216162Y475906D01*
X215731Y475261D01*
X215580Y474500D01*
X215731Y473739D01*
X216162Y473094D01*
X216807Y472663D01*
X217568Y472512D01*
X218329Y472663D01*
X218974Y473094D01*
X219405Y473739D01*
X219556Y474500D01*
X219405Y475261D01*
X218974Y475906D01*
X218329Y476337D01*
X217568Y476488D01*
D02*
G37*
G36*
X179000Y473733D02*
X178337Y473601D01*
X177774Y473226D01*
X177399Y472663D01*
X177267Y472000D01*
X177399Y471337D01*
X177774Y470774D01*
X178337Y470399D01*
X179000Y470267D01*
X179663Y470399D01*
X180226Y470774D01*
X180601Y471337D01*
X180733Y472000D01*
X180601Y472663D01*
X180226Y473226D01*
X179663Y473601D01*
X179000Y473733D01*
D02*
G37*
G36*
X217568Y471488D02*
X216807Y471337D01*
X216162Y470906D01*
X215731Y470261D01*
X215580Y469500D01*
X215731Y468739D01*
X216162Y468094D01*
X216807Y467663D01*
X217568Y467512D01*
X218329Y467663D01*
X218974Y468094D01*
X219405Y468739D01*
X219556Y469500D01*
X219405Y470261D01*
X218974Y470906D01*
X218329Y471337D01*
X217568Y471488D01*
D02*
G37*
G36*
X177000Y468733D02*
X176337Y468601D01*
X175774Y468226D01*
X175399Y467663D01*
X175267Y467000D01*
X175399Y466337D01*
X175774Y465774D01*
X176337Y465399D01*
X177000Y465267D01*
X177663Y465399D01*
X178226Y465774D01*
X178601Y466337D01*
X178733Y467000D01*
X178601Y467663D01*
X178226Y468226D01*
X177663Y468601D01*
X177000Y468733D01*
D02*
G37*
G36*
X217568Y466640D02*
X216807Y466489D01*
X216162Y466057D01*
X215731Y465413D01*
X215580Y464652D01*
X215731Y463891D01*
X216162Y463246D01*
X216807Y462815D01*
X217568Y462664D01*
X218329Y462815D01*
X218974Y463246D01*
X219405Y463891D01*
X219556Y464652D01*
X219405Y465413D01*
X218974Y466057D01*
X218329Y466489D01*
X217568Y466640D01*
D02*
G37*
G36*
X175000Y463733D02*
X174337Y463601D01*
X173774Y463226D01*
X173399Y462663D01*
X173267Y462000D01*
X173399Y461337D01*
X173774Y460774D01*
X174337Y460399D01*
X175000Y460267D01*
X175663Y460399D01*
X176226Y460774D01*
X176601Y461337D01*
X176733Y462000D01*
X176601Y462663D01*
X176226Y463226D01*
X175663Y463601D01*
X175000Y463733D01*
D02*
G37*
G36*
X213000Y489498D02*
X212044Y489308D01*
X211234Y488766D01*
X210692Y487956D01*
X210502Y487000D01*
X210692Y486044D01*
X211234Y485234D01*
X211916Y484778D01*
X211944Y484674D01*
Y484326D01*
X211916Y484222D01*
X211234Y483766D01*
X210692Y482956D01*
X210502Y482000D01*
X210692Y481044D01*
X211234Y480234D01*
X211916Y479778D01*
X211944Y479674D01*
Y479326D01*
X211916Y479222D01*
X211234Y478766D01*
X210692Y477956D01*
X210502Y477000D01*
X210692Y476044D01*
X211234Y475234D01*
X211916Y474778D01*
X211944Y474674D01*
Y474326D01*
X211916Y474222D01*
X211234Y473766D01*
X210692Y472956D01*
X210502Y472000D01*
X210692Y471044D01*
X211234Y470234D01*
X211916Y469778D01*
X211944Y469674D01*
Y469326D01*
X211916Y469222D01*
X211234Y468766D01*
X210692Y467956D01*
X210502Y467000D01*
X210692Y466044D01*
X211234Y465234D01*
X211916Y464778D01*
X211944Y464674D01*
Y464326D01*
X211916Y464222D01*
X211234Y463766D01*
X210692Y462956D01*
X210502Y462000D01*
X210692Y461044D01*
X211234Y460234D01*
X212044Y459692D01*
X213000Y459502D01*
X213956Y459692D01*
X214766Y460234D01*
X215308Y461044D01*
X215498Y462000D01*
X215308Y462956D01*
X214766Y463766D01*
X214084Y464222D01*
X214056Y464326D01*
Y464674D01*
X214084Y464778D01*
X214766Y465234D01*
X215308Y466044D01*
X215498Y467000D01*
X215308Y467956D01*
X214766Y468766D01*
X214084Y469222D01*
X214056Y469326D01*
Y469674D01*
X214084Y469778D01*
X214766Y470234D01*
X215308Y471044D01*
X215498Y472000D01*
X215308Y472956D01*
X214766Y473766D01*
X214084Y474222D01*
X214056Y474326D01*
Y474674D01*
X214084Y474778D01*
X214766Y475234D01*
X215308Y476044D01*
X215498Y477000D01*
X215308Y477956D01*
X214766Y478766D01*
X214084Y479222D01*
X214056Y479326D01*
Y479674D01*
X214084Y479778D01*
X214766Y480234D01*
X215308Y481044D01*
X215498Y482000D01*
X215308Y482956D01*
X214766Y483766D01*
X214084Y484222D01*
X214056Y484326D01*
Y484674D01*
X214084Y484778D01*
X214766Y485234D01*
X215308Y486044D01*
X215498Y487000D01*
X215308Y487956D01*
X214766Y488766D01*
X213956Y489308D01*
X213000Y489498D01*
D02*
G37*
G36*
X213054Y457217D02*
X212294Y457066D01*
X211649Y456635D01*
X211217Y455990D01*
X211066Y455229D01*
X211217Y454468D01*
X211649Y453823D01*
X212294Y453392D01*
X213054Y453241D01*
X213815Y453392D01*
X214460Y453823D01*
X214891Y454468D01*
X215042Y455229D01*
X214891Y455990D01*
X214460Y456635D01*
X213815Y457066D01*
X213054Y457217D01*
D02*
G37*
G36*
X199000Y440733D02*
X198337Y440601D01*
X197774Y440226D01*
X197399Y439663D01*
X197267Y439000D01*
X197399Y438337D01*
X197774Y437774D01*
X198337Y437399D01*
X199000Y437267D01*
X199663Y437399D01*
X200226Y437774D01*
X200601Y438337D01*
X200733Y439000D01*
X200601Y439663D01*
X200226Y440226D01*
X199663Y440601D01*
X199000Y440733D01*
D02*
G37*
G36*
X213000Y441691D02*
X212303Y441600D01*
X211654Y441331D01*
X211097Y440903D01*
X210669Y440346D01*
X210400Y439697D01*
X210309Y439000D01*
X210400Y438303D01*
X210669Y437654D01*
X211097Y437097D01*
X211654Y436669D01*
X212303Y436400D01*
X213000Y436308D01*
X213697Y436400D01*
X214346Y436669D01*
X214903Y437097D01*
X215331Y437654D01*
X215600Y438303D01*
X215691Y439000D01*
X215600Y439697D01*
X215331Y440346D01*
X214903Y440903D01*
X214346Y441331D01*
X213697Y441600D01*
X213000Y441691D01*
D02*
G37*
G36*
X197000Y435733D02*
X196337Y435601D01*
X195774Y435226D01*
X195399Y434663D01*
X195267Y434000D01*
X195399Y433337D01*
X195774Y432774D01*
X196337Y432399D01*
X197000Y432267D01*
X197663Y432399D01*
X198226Y432774D01*
X198601Y433337D01*
X198733Y434000D01*
X198601Y434663D01*
X198226Y435226D01*
X197663Y435601D01*
X197000Y435733D01*
D02*
G37*
G36*
X195000Y430733D02*
X194337Y430601D01*
X193774Y430226D01*
X193399Y429663D01*
X193267Y429000D01*
X193399Y428337D01*
X193774Y427774D01*
X194337Y427399D01*
X195000Y427267D01*
X195663Y427399D01*
X196226Y427774D01*
X196601Y428337D01*
X196733Y429000D01*
X196601Y429663D01*
X196226Y430226D01*
X195663Y430601D01*
X195000Y430733D01*
D02*
G37*
G36*
X215295Y431228D02*
X214460Y431118D01*
X213682Y430795D01*
X213013Y430282D01*
X212500Y429614D01*
X212178Y428835D01*
X212068Y428000D01*
X212178Y427165D01*
X212500Y426386D01*
X213013Y425718D01*
X213682Y425205D01*
X214460Y424882D01*
X215295Y424772D01*
X216131Y424882D01*
X216909Y425205D01*
X217578Y425718D01*
X218091Y426386D01*
X218413Y427165D01*
X218523Y428000D01*
X218413Y428835D01*
X218091Y429614D01*
X217578Y430282D01*
X216909Y430795D01*
X216131Y431118D01*
X215295Y431228D01*
D02*
G37*
G36*
X193000Y425733D02*
X192337Y425601D01*
X191774Y425226D01*
X191399Y424663D01*
X191267Y424000D01*
X191399Y423337D01*
X191774Y422774D01*
X192337Y422399D01*
X193000Y422267D01*
X193663Y422399D01*
X194226Y422774D01*
X194601Y423337D01*
X194733Y424000D01*
X194601Y424663D01*
X194226Y425226D01*
X193663Y425601D01*
X193000Y425733D01*
D02*
G37*
G36*
X191000Y420733D02*
X190337Y420601D01*
X189774Y420226D01*
X189399Y419663D01*
X189267Y419000D01*
X189399Y418337D01*
X189774Y417774D01*
X190337Y417399D01*
X191000Y417267D01*
X191663Y417399D01*
X192226Y417774D01*
X192601Y418337D01*
X192733Y419000D01*
X192601Y419663D01*
X192226Y420226D01*
X191663Y420601D01*
X191000Y420733D01*
D02*
G37*
G36*
X213054Y416863D02*
X212294Y416712D01*
X211649Y416281D01*
X211217Y415636D01*
X211066Y414875D01*
X211217Y414114D01*
X211649Y413469D01*
X212294Y413038D01*
X213054Y412887D01*
X213815Y413038D01*
X214460Y413469D01*
X214891Y414114D01*
X215042Y414875D01*
X214891Y415636D01*
X214460Y416281D01*
X213815Y416712D01*
X213054Y416863D01*
D02*
G37*
G36*
X189000Y415733D02*
X188337Y415601D01*
X187774Y415226D01*
X187399Y414663D01*
X187267Y414000D01*
X187399Y413337D01*
X187774Y412774D01*
X188337Y412399D01*
X189000Y412267D01*
X189663Y412399D01*
X190226Y412774D01*
X190601Y413337D01*
X190733Y414000D01*
X190601Y414663D01*
X190226Y415226D01*
X189663Y415601D01*
X189000Y415733D01*
D02*
G37*
G36*
X187000Y410733D02*
X186337Y410601D01*
X185774Y410226D01*
X185399Y409663D01*
X185267Y409000D01*
X185399Y408337D01*
X185774Y407774D01*
X186337Y407399D01*
X187000Y407267D01*
X187663Y407399D01*
X188226Y407774D01*
X188601Y408337D01*
X188733Y409000D01*
X188601Y409663D01*
X188226Y410226D01*
X187663Y410601D01*
X187000Y410733D01*
D02*
G37*
G36*
X213000Y405733D02*
X212337Y405601D01*
X211774Y405226D01*
X211399Y404663D01*
X211267Y404000D01*
X211399Y403337D01*
X211774Y402774D01*
X212337Y402399D01*
X213000Y402267D01*
X213663Y402399D01*
X214226Y402774D01*
X214601Y403337D01*
X214733Y404000D01*
X214601Y404663D01*
X214226Y405226D01*
X213663Y405601D01*
X213000Y405733D01*
D02*
G37*
G36*
Y400733D02*
X212337Y400601D01*
X211774Y400226D01*
X211399Y399663D01*
X211267Y399000D01*
X211399Y398337D01*
X211774Y397774D01*
X212337Y397399D01*
X213000Y397267D01*
X213663Y397399D01*
X214226Y397774D01*
X214601Y398337D01*
X214733Y399000D01*
X214601Y399663D01*
X214226Y400226D01*
X213663Y400601D01*
X213000Y400733D01*
D02*
G37*
G36*
X199000Y387733D02*
X198337Y387601D01*
X197774Y387226D01*
X197399Y386663D01*
X197267Y386000D01*
X197399Y385337D01*
X197774Y384774D01*
X198337Y384399D01*
X199000Y384267D01*
X199663Y384399D01*
X200226Y384774D01*
X200601Y385337D01*
X200733Y386000D01*
X200601Y386663D01*
X200226Y387226D01*
X199663Y387601D01*
X199000Y387733D01*
D02*
G37*
G36*
X185000Y382733D02*
X184337Y382601D01*
X183774Y382226D01*
X183399Y381663D01*
X183267Y381000D01*
X183399Y380337D01*
X183774Y379774D01*
X184337Y379399D01*
X185000Y379267D01*
X185663Y379399D01*
X186226Y379774D01*
X186601Y380337D01*
X186733Y381000D01*
X186601Y381663D01*
X186226Y382226D01*
X185663Y382601D01*
X185000Y382733D01*
D02*
G37*
%LPD*%
D63*
X314257Y346961D02*
X317385D01*
X310295Y343000D02*
X314257Y346961D01*
X310295Y343000D02*
Y350500D01*
X310886D01*
X342276Y381890D01*
X381795Y353500D02*
Y362055D01*
X342276Y381890D02*
X361961D01*
X381795Y362055D01*
D73*
X390709Y403898D02*
D03*
X380709Y398898D02*
D03*
D77*
X245600Y467400D02*
D03*
D79*
X292500Y529210D02*
D03*
D80*
X239000Y541000D02*
D03*
X239057Y532432D02*
D03*
X255090Y529300D02*
D03*
X272500Y580000D02*
D03*
X277500D02*
D03*
X282500D02*
D03*
X287500D02*
D03*
Y585000D02*
D03*
X282500D02*
D03*
X277500D02*
D03*
X272500D02*
D03*
X255700Y603006D02*
D03*
D81*
X300000Y387500D02*
D03*
X311479Y510347D02*
D03*
X310495Y514284D02*
D03*
X314432D02*
D03*
X318369D02*
D03*
X306558Y519206D02*
D03*
Y523142D02*
D03*
X302621Y466056D02*
D03*
X307542D02*
D03*
Y471961D02*
D03*
D82*
X132795Y365500D02*
D03*
X279787Y386332D02*
D03*
X317385Y346961D02*
D03*
X297795Y358000D02*
D03*
X290295D02*
D03*
X265295Y435500D02*
D03*
X257795D02*
D03*
Y443000D02*
D03*
X342795Y393000D02*
D03*
Y428000D02*
D03*
X300295Y413000D02*
D03*
X215295Y378000D02*
D03*
X366874Y490000D02*
D03*
X327795Y563000D02*
D03*
X335295D02*
D03*
X180295Y603000D02*
D03*
X187795D02*
D03*
X195295D02*
D03*
X302795Y573000D02*
D03*
X310295D02*
D03*
X317795D02*
D03*
X214795Y552500D02*
D03*
X213295Y498500D02*
D03*
X213795Y392301D02*
D03*
Y446500D02*
D03*
X191295Y402000D02*
D03*
Y395000D02*
D03*
Y388000D02*
D03*
X107795Y358000D02*
D03*
Y365500D02*
D03*
X132795Y358000D02*
D03*
X310295Y350500D02*
D03*
Y343000D02*
D03*
X381795Y361000D02*
D03*
X389295Y353500D02*
D03*
Y361000D02*
D03*
X381795Y353500D02*
D03*
D83*
X334854Y520000D02*
D03*
X213000Y603000D02*
D03*
M02*
