G04*
G04 #@! TF.GenerationSoftware,Altium Limited,Altium Designer,20.2.6 (244)*
G04*
G04 Layer_Physical_Order=2*
G04 Layer_Color=36540*
%FSLAX25Y25*%
%MOIN*%
G70*
G04*
G04 #@! TF.SameCoordinates,67F572C8-D8A7-448A-AE13-BF973E4C7752*
G04*
G04*
G04 #@! TF.FilePolarity,Positive*
G04*
G01*
G75*
%ADD69C,0.07087*%
%ADD72C,0.06024*%
%ADD73C,0.05504*%
%ADD75C,0.27559*%
%ADD78C,0.06000*%
%ADD79C,0.02000*%
%ADD81C,0.02500*%
%ADD82C,0.05000*%
%ADD83C,0.03937*%
G36*
X456980Y608644D02*
X456981Y331728D01*
X64012Y331728D01*
X64012Y609128D01*
X456273Y609351D01*
X456980Y608644D01*
D02*
G37*
%LPC*%
G36*
X255700Y605504D02*
X254744Y605314D01*
X253934Y604772D01*
X253392Y603962D01*
X253202Y603006D01*
X253392Y602050D01*
X253934Y601239D01*
X254744Y600698D01*
X255700Y600508D01*
X256656Y600698D01*
X257466Y601239D01*
X258008Y602050D01*
X258198Y603006D01*
X258008Y603962D01*
X257466Y604772D01*
X256656Y605314D01*
X255700Y605504D01*
D02*
G37*
G36*
X213000Y605691D02*
X212303Y605600D01*
X211654Y605331D01*
X211097Y604903D01*
X210669Y604346D01*
X210400Y603697D01*
X210309Y603000D01*
X210400Y602303D01*
X210669Y601654D01*
X211097Y601097D01*
X211654Y600669D01*
X212303Y600400D01*
X213000Y600309D01*
X213697Y600400D01*
X214346Y600669D01*
X214903Y601097D01*
X215331Y601654D01*
X215600Y602303D01*
X215691Y603000D01*
X215600Y603697D01*
X215331Y604346D01*
X214903Y604903D01*
X214346Y605331D01*
X213697Y605600D01*
X213000Y605691D01*
D02*
G37*
G36*
X195295Y606228D02*
X194460Y606118D01*
X193682Y605795D01*
X193013Y605282D01*
X192500Y604614D01*
X192178Y603835D01*
X192068Y603000D01*
X192178Y602165D01*
X192500Y601386D01*
X193013Y600718D01*
X193682Y600205D01*
X194460Y599882D01*
X195295Y599772D01*
X196131Y599882D01*
X196909Y600205D01*
X197578Y600718D01*
X198091Y601386D01*
X198413Y602165D01*
X198523Y603000D01*
X198413Y603835D01*
X198091Y604614D01*
X197578Y605282D01*
X196909Y605795D01*
X196131Y606118D01*
X195295Y606228D01*
D02*
G37*
G36*
X187795D02*
X186960Y606118D01*
X186181Y605795D01*
X185513Y605282D01*
X185000Y604614D01*
X184678Y603835D01*
X184568Y603000D01*
X184678Y602165D01*
X185000Y601386D01*
X185513Y600718D01*
X186181Y600205D01*
X186960Y599882D01*
X187795Y599772D01*
X188631Y599882D01*
X189409Y600205D01*
X190077Y600718D01*
X190591Y601386D01*
X190913Y602165D01*
X191023Y603000D01*
X190913Y603835D01*
X190591Y604614D01*
X190077Y605282D01*
X189409Y605795D01*
X188631Y606118D01*
X187795Y606228D01*
D02*
G37*
G36*
X180295D02*
X179460Y606118D01*
X178682Y605795D01*
X178013Y605282D01*
X177500Y604614D01*
X177178Y603835D01*
X177068Y603000D01*
X177178Y602165D01*
X177500Y601386D01*
X178013Y600718D01*
X178682Y600205D01*
X179460Y599882D01*
X180295Y599772D01*
X181131Y599882D01*
X181909Y600205D01*
X182578Y600718D01*
X183090Y601386D01*
X183413Y602165D01*
X183523Y603000D01*
X183413Y603835D01*
X183090Y604614D01*
X182578Y605282D01*
X181909Y605795D01*
X181131Y606118D01*
X180295Y606228D01*
D02*
G37*
G36*
X137795Y600498D02*
X136839Y600308D01*
X136029Y599766D01*
X135487Y598956D01*
X135297Y598000D01*
X135487Y597044D01*
X136029Y596234D01*
X136839Y595692D01*
X137795Y595502D01*
X138751Y595692D01*
X139562Y596234D01*
X140103Y597044D01*
X140293Y598000D01*
X140103Y598956D01*
X139562Y599766D01*
X138751Y600308D01*
X137795Y600498D01*
D02*
G37*
G36*
X145295Y595498D02*
X144339Y595308D01*
X143529Y594766D01*
X142987Y593956D01*
X142797Y593000D01*
X142987Y592044D01*
X143529Y591234D01*
X144339Y590692D01*
X145295Y590502D01*
X146251Y590692D01*
X147062Y591234D01*
X147603Y592044D01*
X147793Y593000D01*
X147603Y593956D01*
X147062Y594766D01*
X146251Y595308D01*
X145295Y595498D01*
D02*
G37*
G36*
X287500Y587498D02*
X286544Y587308D01*
X285734Y586766D01*
X285601Y586568D01*
X284399D01*
X284266Y586766D01*
X283456Y587308D01*
X282500Y587498D01*
X281544Y587308D01*
X280734Y586766D01*
X280601Y586568D01*
X279399D01*
X279266Y586766D01*
X278456Y587308D01*
X277500Y587498D01*
X276544Y587308D01*
X275734Y586766D01*
X275601Y586568D01*
X274399D01*
X274266Y586766D01*
X273456Y587308D01*
X272500Y587498D01*
X271544Y587308D01*
X270734Y586766D01*
X270192Y585956D01*
X270002Y585000D01*
X270192Y584044D01*
X270734Y583234D01*
X270932Y583101D01*
Y581899D01*
X270734Y581766D01*
X270192Y580956D01*
X270002Y580000D01*
X270192Y579044D01*
X270734Y578234D01*
X271544Y577692D01*
X272500Y577502D01*
X273456Y577692D01*
X274266Y578234D01*
X274399Y578432D01*
X275601D01*
X275734Y578234D01*
X276544Y577692D01*
X277500Y577502D01*
X278456Y577692D01*
X279266Y578234D01*
X279399Y578432D01*
X280601D01*
X280734Y578234D01*
X281544Y577692D01*
X282500Y577502D01*
X283456Y577692D01*
X284266Y578234D01*
X284399Y578432D01*
X285601D01*
X285734Y578234D01*
X286544Y577692D01*
X287500Y577502D01*
X288456Y577692D01*
X289266Y578234D01*
X289808Y579044D01*
X289998Y580000D01*
X289808Y580956D01*
X289266Y581766D01*
X289068Y581899D01*
Y583101D01*
X289266Y583234D01*
X289808Y584044D01*
X289998Y585000D01*
X289808Y585956D01*
X289266Y586766D01*
X288456Y587308D01*
X287500Y587498D01*
D02*
G37*
G36*
X439479Y604480D02*
X410521D01*
Y575521D01*
X439479D01*
Y604480D01*
D02*
G37*
G36*
X117068Y578725D02*
X116112Y578535D01*
X115302Y577993D01*
X114760Y577183D01*
X114570Y576227D01*
X114760Y575271D01*
X115302Y574461D01*
X116112Y573919D01*
X117068Y573729D01*
X118024Y573919D01*
X118835Y574461D01*
X119376Y575271D01*
X119566Y576227D01*
X119376Y577183D01*
X118835Y577993D01*
X118024Y578535D01*
X117068Y578725D01*
D02*
G37*
G36*
X255354Y576733D02*
X254691Y576601D01*
X254129Y576226D01*
X253753Y575663D01*
X253621Y575000D01*
X253753Y574337D01*
X254129Y573774D01*
X254691Y573399D01*
X255354Y573267D01*
X256018Y573399D01*
X256580Y573774D01*
X256956Y574337D01*
X257088Y575000D01*
X256956Y575663D01*
X256580Y576226D01*
X256018Y576601D01*
X255354Y576733D01*
D02*
G37*
G36*
X350394Y601138D02*
X348122Y600960D01*
X345905Y600428D01*
X343800Y599555D01*
X341857Y598365D01*
X340124Y596884D01*
X338643Y595151D01*
X337452Y593208D01*
X336580Y591102D01*
X336048Y588886D01*
X335869Y586614D01*
X336048Y584342D01*
X336580Y582126D01*
X337452Y580020D01*
X338643Y578077D01*
X340124Y576344D01*
X341857Y574864D01*
X343800Y573673D01*
X345905Y572801D01*
X348122Y572269D01*
X350394Y572090D01*
X352666Y572269D01*
X354882Y572801D01*
X356988Y573673D01*
X358931Y574864D01*
X360664Y576344D01*
X362144Y578077D01*
X363335Y580020D01*
X364207Y582126D01*
X364739Y584342D01*
X364918Y586614D01*
X364739Y588886D01*
X364207Y591102D01*
X363335Y593208D01*
X362144Y595151D01*
X360664Y596884D01*
X358931Y598365D01*
X356988Y599555D01*
X354882Y600428D01*
X352666Y600960D01*
X350394Y601138D01*
D02*
G37*
G36*
X86614D02*
X84342Y600960D01*
X82126Y600428D01*
X80020Y599555D01*
X78077Y598365D01*
X76344Y596884D01*
X74864Y595151D01*
X73673Y593208D01*
X72801Y591102D01*
X72269Y588886D01*
X72090Y586614D01*
X72269Y584342D01*
X72801Y582126D01*
X73673Y580020D01*
X74864Y578077D01*
X76344Y576344D01*
X78077Y574864D01*
X80020Y573673D01*
X82126Y572801D01*
X84342Y572269D01*
X86614Y572090D01*
X88886Y572269D01*
X91102Y572801D01*
X93208Y573673D01*
X95151Y574864D01*
X96884Y576344D01*
X98365Y578077D01*
X99555Y580020D01*
X100428Y582126D01*
X100960Y584342D01*
X101138Y586614D01*
X100960Y588886D01*
X100428Y591102D01*
X99555Y593208D01*
X98365Y595151D01*
X96884Y596884D01*
X95151Y598365D01*
X93208Y599555D01*
X91102Y600428D01*
X88886Y600960D01*
X86614Y601138D01*
D02*
G37*
G36*
X213000Y595498D02*
X212044Y595308D01*
X211234Y594766D01*
X210692Y593956D01*
X210502Y593000D01*
X210692Y592044D01*
X211234Y591234D01*
X211432Y591101D01*
Y589899D01*
X211234Y589766D01*
X210692Y588956D01*
X210502Y588000D01*
X210692Y587044D01*
X211234Y586234D01*
X211432Y586101D01*
Y584899D01*
X211234Y584766D01*
X210692Y583956D01*
X210502Y583000D01*
X210692Y582044D01*
X211234Y581234D01*
X211432Y581101D01*
Y579899D01*
X211234Y579766D01*
X210692Y578956D01*
X210502Y578000D01*
X210692Y577044D01*
X211234Y576234D01*
X211432Y576101D01*
Y574899D01*
X211234Y574766D01*
X210692Y573956D01*
X210502Y573000D01*
X210692Y572044D01*
X211234Y571234D01*
X212044Y570692D01*
X213000Y570502D01*
X213956Y570692D01*
X214766Y571234D01*
X215308Y572044D01*
X215498Y573000D01*
X215308Y573956D01*
X214766Y574766D01*
X214568Y574899D01*
Y576101D01*
X214766Y576234D01*
X215308Y577044D01*
X215498Y578000D01*
X215308Y578956D01*
X214766Y579766D01*
X214568Y579899D01*
Y581101D01*
X214766Y581234D01*
X215308Y582044D01*
X215498Y583000D01*
X215308Y583956D01*
X214766Y584766D01*
X214568Y584899D01*
Y586101D01*
X214766Y586234D01*
X215308Y587044D01*
X215498Y588000D01*
X215308Y588956D01*
X214766Y589766D01*
X214568Y589899D01*
Y591101D01*
X214766Y591234D01*
X215308Y592044D01*
X215498Y593000D01*
X215308Y593956D01*
X214766Y594766D01*
X213956Y595308D01*
X213000Y595498D01*
D02*
G37*
G36*
X317795Y576228D02*
X316960Y576118D01*
X316181Y575795D01*
X315513Y575282D01*
X315000Y574614D01*
X314678Y573835D01*
X314568Y573000D01*
X314678Y572165D01*
X315000Y571386D01*
X315513Y570718D01*
X316181Y570205D01*
X316960Y569882D01*
X317795Y569772D01*
X318631Y569882D01*
X319409Y570205D01*
X320077Y570718D01*
X320590Y571386D01*
X320913Y572165D01*
X321023Y573000D01*
X320913Y573835D01*
X320590Y574614D01*
X320077Y575282D01*
X319409Y575795D01*
X318631Y576118D01*
X317795Y576228D01*
D02*
G37*
G36*
X310295D02*
X309460Y576118D01*
X308682Y575795D01*
X308013Y575282D01*
X307500Y574614D01*
X307178Y573835D01*
X307068Y573000D01*
X307178Y572165D01*
X307500Y571386D01*
X308013Y570718D01*
X308682Y570205D01*
X309460Y569882D01*
X310295Y569772D01*
X311131Y569882D01*
X311909Y570205D01*
X312578Y570718D01*
X313090Y571386D01*
X313413Y572165D01*
X313523Y573000D01*
X313413Y573835D01*
X313090Y574614D01*
X312578Y575282D01*
X311909Y575795D01*
X311131Y576118D01*
X310295Y576228D01*
D02*
G37*
G36*
X302795D02*
X301960Y576118D01*
X301182Y575795D01*
X300513Y575282D01*
X300000Y574614D01*
X299678Y573835D01*
X299568Y573000D01*
X299678Y572165D01*
X300000Y571386D01*
X300513Y570718D01*
X301182Y570205D01*
X301960Y569882D01*
X302795Y569772D01*
X303631Y569882D01*
X304409Y570205D01*
X305078Y570718D01*
X305591Y571386D01*
X305913Y572165D01*
X306023Y573000D01*
X305913Y573835D01*
X305591Y574614D01*
X305078Y575282D01*
X304409Y575795D01*
X303631Y576118D01*
X302795Y576228D01*
D02*
G37*
G36*
X255354Y571733D02*
X254691Y571601D01*
X254129Y571226D01*
X253753Y570663D01*
X253621Y570000D01*
X253753Y569337D01*
X254129Y568774D01*
X254691Y568399D01*
X255354Y568267D01*
X256018Y568399D01*
X256580Y568774D01*
X256956Y569337D01*
X257088Y570000D01*
X256956Y570663D01*
X256580Y571226D01*
X256018Y571601D01*
X255354Y571733D01*
D02*
G37*
G36*
X273854Y566733D02*
X273191Y566601D01*
X272629Y566226D01*
X272253Y565663D01*
X272121Y565000D01*
X272253Y564337D01*
X272629Y563774D01*
X273191Y563399D01*
X273854Y563267D01*
X274518Y563399D01*
X275080Y563774D01*
X275456Y564337D01*
X275588Y565000D01*
X275456Y565663D01*
X275080Y566226D01*
X274518Y566601D01*
X273854Y566733D01*
D02*
G37*
G36*
X255354D02*
X254691Y566601D01*
X254129Y566226D01*
X253753Y565663D01*
X253621Y565000D01*
X253753Y564337D01*
X254129Y563774D01*
X254691Y563399D01*
X255354Y563267D01*
X256018Y563399D01*
X256580Y563774D01*
X256956Y564337D01*
X257088Y565000D01*
X256956Y565663D01*
X256580Y566226D01*
X256018Y566601D01*
X255354Y566733D01*
D02*
G37*
G36*
X259854Y564733D02*
X259191Y564601D01*
X258629Y564226D01*
X258253Y563663D01*
X258121Y563000D01*
X258253Y562337D01*
X258629Y561774D01*
X259191Y561399D01*
X259854Y561267D01*
X260518Y561399D01*
X261080Y561774D01*
X261456Y562337D01*
X261588Y563000D01*
X261456Y563663D01*
X261080Y564226D01*
X260518Y564601D01*
X259854Y564733D01*
D02*
G37*
G36*
X335295Y566228D02*
X334460Y566118D01*
X333682Y565795D01*
X333013Y565282D01*
X332500Y564614D01*
X332178Y563835D01*
X332068Y563000D01*
X332178Y562165D01*
X332500Y561386D01*
X333013Y560718D01*
X333682Y560205D01*
X334460Y559882D01*
X335295Y559772D01*
X336131Y559882D01*
X336909Y560205D01*
X337578Y560718D01*
X338090Y561386D01*
X338413Y562165D01*
X338523Y563000D01*
X338413Y563835D01*
X338090Y564614D01*
X337578Y565282D01*
X336909Y565795D01*
X336131Y566118D01*
X335295Y566228D01*
D02*
G37*
G36*
X327795D02*
X326960Y566118D01*
X326182Y565795D01*
X325513Y565282D01*
X325000Y564614D01*
X324678Y563835D01*
X324568Y563000D01*
X324678Y562165D01*
X325000Y561386D01*
X325513Y560718D01*
X326182Y560205D01*
X326960Y559882D01*
X327795Y559772D01*
X328631Y559882D01*
X329409Y560205D01*
X330078Y560718D01*
X330591Y561386D01*
X330913Y562165D01*
X331023Y563000D01*
X330913Y563835D01*
X330591Y564614D01*
X330078Y565282D01*
X329409Y565795D01*
X328631Y566118D01*
X327795Y566228D01*
D02*
G37*
G36*
X273854Y561733D02*
X273191Y561601D01*
X272629Y561226D01*
X272253Y560663D01*
X272121Y560000D01*
X272253Y559337D01*
X272629Y558774D01*
X273191Y558399D01*
X273854Y558267D01*
X274518Y558399D01*
X275080Y558774D01*
X275456Y559337D01*
X275588Y560000D01*
X275456Y560663D01*
X275080Y561226D01*
X274518Y561601D01*
X273854Y561733D01*
D02*
G37*
G36*
X214795Y555728D02*
X213960Y555618D01*
X213181Y555295D01*
X212513Y554782D01*
X212000Y554114D01*
X211678Y553335D01*
X211568Y552500D01*
X211678Y551665D01*
X212000Y550886D01*
X212513Y550218D01*
X213181Y549705D01*
X213960Y549382D01*
X214795Y549272D01*
X215631Y549382D01*
X216409Y549705D01*
X217077Y550218D01*
X217590Y550886D01*
X217913Y551665D01*
X218023Y552500D01*
X217913Y553335D01*
X217590Y554114D01*
X217077Y554782D01*
X216409Y555295D01*
X215631Y555618D01*
X214795Y555728D01*
D02*
G37*
G36*
X145000Y554280D02*
X143892Y554134D01*
X142860Y553707D01*
X141974Y553026D01*
X141294Y552140D01*
X140866Y551108D01*
X140720Y550000D01*
X140866Y548892D01*
X141294Y547860D01*
X141974Y546974D01*
X142860Y546293D01*
X143892Y545866D01*
X145000Y545720D01*
X146108Y545866D01*
X147140Y546293D01*
X148026Y546974D01*
X148706Y547860D01*
X149134Y548892D01*
X149280Y550000D01*
X149134Y551108D01*
X148706Y552140D01*
X148026Y553026D01*
X147140Y553707D01*
X146108Y554134D01*
X145000Y554280D01*
D02*
G37*
G36*
X135000D02*
X133892Y554134D01*
X132860Y553707D01*
X131974Y553026D01*
X131293Y552140D01*
X130866Y551108D01*
X130720Y550000D01*
X130866Y548892D01*
X131293Y547860D01*
X131974Y546974D01*
X132860Y546293D01*
X133892Y545866D01*
X135000Y545720D01*
X136108Y545866D01*
X137140Y546293D01*
X138026Y546974D01*
X138707Y547860D01*
X139134Y548892D01*
X139280Y550000D01*
X139134Y551108D01*
X138707Y552140D01*
X138026Y553026D01*
X137140Y553707D01*
X136108Y554134D01*
X135000Y554280D01*
D02*
G37*
G36*
X125000D02*
X123892Y554134D01*
X122860Y553707D01*
X121974Y553026D01*
X121293Y552140D01*
X120866Y551108D01*
X120720Y550000D01*
X120866Y548892D01*
X121293Y547860D01*
X121974Y546974D01*
X122860Y546293D01*
X123892Y545866D01*
X125000Y545720D01*
X126108Y545866D01*
X127140Y546293D01*
X128026Y546974D01*
X128707Y547860D01*
X129134Y548892D01*
X129280Y550000D01*
X129134Y551108D01*
X128707Y552140D01*
X128026Y553026D01*
X127140Y553707D01*
X126108Y554134D01*
X125000Y554280D01*
D02*
G37*
G36*
X115000D02*
X113892Y554134D01*
X112860Y553707D01*
X111974Y553026D01*
X111293Y552140D01*
X110866Y551108D01*
X110720Y550000D01*
X110866Y548892D01*
X111293Y547860D01*
X111974Y546974D01*
X112860Y546293D01*
X113892Y545866D01*
X115000Y545720D01*
X116108Y545866D01*
X117140Y546293D01*
X118026Y546974D01*
X118707Y547860D01*
X119134Y548892D01*
X119280Y550000D01*
X119134Y551108D01*
X118707Y552140D01*
X118026Y553026D01*
X117140Y553707D01*
X116108Y554134D01*
X115000Y554280D01*
D02*
G37*
G36*
X105000D02*
X103892Y554134D01*
X102860Y553707D01*
X101974Y553026D01*
X101294Y552140D01*
X100866Y551108D01*
X100720Y550000D01*
X100866Y548892D01*
X101294Y547860D01*
X101974Y546974D01*
X102860Y546293D01*
X103892Y545866D01*
X105000Y545720D01*
X106108Y545866D01*
X107140Y546293D01*
X108026Y546974D01*
X108706Y547860D01*
X109134Y548892D01*
X109280Y550000D01*
X109134Y551108D01*
X108706Y552140D01*
X108026Y553026D01*
X107140Y553707D01*
X106108Y554134D01*
X105000Y554280D01*
D02*
G37*
G36*
X95000D02*
X93892Y554134D01*
X92860Y553707D01*
X91974Y553026D01*
X91294Y552140D01*
X90866Y551108D01*
X90720Y550000D01*
X90866Y548892D01*
X91294Y547860D01*
X91974Y546974D01*
X92860Y546293D01*
X93892Y545866D01*
X95000Y545720D01*
X96108Y545866D01*
X97140Y546293D01*
X98026Y546974D01*
X98707Y547860D01*
X99134Y548892D01*
X99280Y550000D01*
X99134Y551108D01*
X98707Y552140D01*
X98026Y553026D01*
X97140Y553707D01*
X96108Y554134D01*
X95000Y554280D01*
D02*
G37*
G36*
X85000D02*
X83892Y554134D01*
X82860Y553707D01*
X81974Y553026D01*
X81293Y552140D01*
X80866Y551108D01*
X80720Y550000D01*
X80866Y548892D01*
X81293Y547860D01*
X81974Y546974D01*
X82860Y546293D01*
X83892Y545866D01*
X85000Y545720D01*
X86108Y545866D01*
X87140Y546293D01*
X88026Y546974D01*
X88706Y547860D01*
X89134Y548892D01*
X89280Y550000D01*
X89134Y551108D01*
X88706Y552140D01*
X88026Y553026D01*
X87140Y553707D01*
X86108Y554134D01*
X85000Y554280D01*
D02*
G37*
G36*
X75000D02*
X73892Y554134D01*
X72860Y553707D01*
X71974Y553026D01*
X71293Y552140D01*
X70866Y551108D01*
X70720Y550000D01*
X70866Y548892D01*
X71293Y547860D01*
X71974Y546974D01*
X72860Y546293D01*
X73892Y545866D01*
X75000Y545720D01*
X76108Y545866D01*
X77140Y546293D01*
X78026Y546974D01*
X78707Y547860D01*
X79134Y548892D01*
X79280Y550000D01*
X79134Y551108D01*
X78707Y552140D01*
X78026Y553026D01*
X77140Y553707D01*
X76108Y554134D01*
X75000Y554280D01*
D02*
G37*
G36*
X199000Y546733D02*
X198337Y546601D01*
X197774Y546226D01*
X197399Y545663D01*
X197267Y545000D01*
X197399Y544337D01*
X197774Y543774D01*
X198337Y543399D01*
X199000Y543267D01*
X199663Y543399D01*
X200226Y543774D01*
X200601Y544337D01*
X200733Y545000D01*
X200601Y545663D01*
X200226Y546226D01*
X199663Y546601D01*
X199000Y546733D01*
D02*
G37*
G36*
X239000Y543498D02*
X238044Y543308D01*
X237234Y542766D01*
X236692Y541956D01*
X236502Y541000D01*
X236692Y540044D01*
X237234Y539234D01*
X238044Y538692D01*
X239000Y538502D01*
X239956Y538692D01*
X240766Y539234D01*
X241308Y540044D01*
X241498Y541000D01*
X241308Y541956D01*
X240766Y542766D01*
X239956Y543308D01*
X239000Y543498D01*
D02*
G37*
G36*
X197000Y541733D02*
X196337Y541601D01*
X195774Y541226D01*
X195399Y540663D01*
X195267Y540000D01*
X195399Y539337D01*
X195774Y538774D01*
X196337Y538399D01*
X197000Y538267D01*
X197663Y538399D01*
X198226Y538774D01*
X198601Y539337D01*
X198733Y540000D01*
X198601Y540663D01*
X198226Y541226D01*
X197663Y541601D01*
X197000Y541733D01*
D02*
G37*
G36*
X145000Y544280D02*
X143892Y544134D01*
X142860Y543707D01*
X141974Y543026D01*
X141294Y542140D01*
X140866Y541108D01*
X140720Y540000D01*
X140866Y538892D01*
X141294Y537860D01*
X141974Y536974D01*
X142860Y536294D01*
X143892Y535866D01*
X145000Y535720D01*
X146108Y535866D01*
X147140Y536294D01*
X148026Y536974D01*
X148706Y537860D01*
X149134Y538892D01*
X149280Y540000D01*
X149134Y541108D01*
X148706Y542140D01*
X148026Y543026D01*
X147140Y543707D01*
X146108Y544134D01*
X145000Y544280D01*
D02*
G37*
G36*
X125000D02*
X123892Y544134D01*
X122860Y543707D01*
X121974Y543026D01*
X121293Y542140D01*
X120866Y541108D01*
X120720Y540000D01*
X120866Y538892D01*
X121293Y537860D01*
X121974Y536974D01*
X122860Y536294D01*
X123892Y535866D01*
X125000Y535720D01*
X126108Y535866D01*
X127140Y536294D01*
X128026Y536974D01*
X128707Y537860D01*
X129134Y538892D01*
X129280Y540000D01*
X129134Y541108D01*
X128707Y542140D01*
X128026Y543026D01*
X127140Y543707D01*
X126108Y544134D01*
X125000Y544280D01*
D02*
G37*
G36*
X105000D02*
X103892Y544134D01*
X102860Y543707D01*
X101974Y543026D01*
X101294Y542140D01*
X100866Y541108D01*
X100720Y540000D01*
X100866Y538892D01*
X101294Y537860D01*
X101974Y536974D01*
X102860Y536294D01*
X103892Y535866D01*
X105000Y535720D01*
X106108Y535866D01*
X107140Y536294D01*
X108026Y536974D01*
X108706Y537860D01*
X109134Y538892D01*
X109280Y540000D01*
X109134Y541108D01*
X108706Y542140D01*
X108026Y543026D01*
X107140Y543707D01*
X106108Y544134D01*
X105000Y544280D01*
D02*
G37*
G36*
X95000D02*
X93892Y544134D01*
X92860Y543707D01*
X91974Y543026D01*
X91294Y542140D01*
X90866Y541108D01*
X90720Y540000D01*
X90866Y538892D01*
X91294Y537860D01*
X91974Y536974D01*
X92860Y536294D01*
X93892Y535866D01*
X95000Y535720D01*
X96108Y535866D01*
X97140Y536294D01*
X98026Y536974D01*
X98707Y537860D01*
X99134Y538892D01*
X99280Y540000D01*
X99134Y541108D01*
X98707Y542140D01*
X98026Y543026D01*
X97140Y543707D01*
X96108Y544134D01*
X95000Y544280D01*
D02*
G37*
G36*
X85000D02*
X83892Y544134D01*
X82860Y543707D01*
X81974Y543026D01*
X81293Y542140D01*
X80866Y541108D01*
X80720Y540000D01*
X80866Y538892D01*
X81293Y537860D01*
X81974Y536974D01*
X82860Y536294D01*
X83892Y535866D01*
X85000Y535720D01*
X86108Y535866D01*
X87140Y536294D01*
X88026Y536974D01*
X88706Y537860D01*
X89134Y538892D01*
X89280Y540000D01*
X89134Y541108D01*
X88706Y542140D01*
X88026Y543026D01*
X87140Y543707D01*
X86108Y544134D01*
X85000Y544280D01*
D02*
G37*
G36*
X195000Y536733D02*
X194337Y536601D01*
X193774Y536226D01*
X193399Y535663D01*
X193267Y535000D01*
X193399Y534337D01*
X193774Y533774D01*
X194337Y533399D01*
X195000Y533267D01*
X195663Y533399D01*
X196226Y533774D01*
X196601Y534337D01*
X196733Y535000D01*
X196601Y535663D01*
X196226Y536226D01*
X195663Y536601D01*
X195000Y536733D01*
D02*
G37*
G36*
X288126Y531277D02*
X287463Y531145D01*
X286900Y530769D01*
X286713Y530489D01*
X286574Y530446D01*
X285741D01*
X285602Y530489D01*
X285415Y530769D01*
X284852Y531145D01*
X284189Y531277D01*
X283526Y531145D01*
X282963Y530769D01*
X282588Y530207D01*
X282456Y529543D01*
X282507Y529286D01*
X282321Y528661D01*
X281811Y528242D01*
X281557Y528192D01*
X280995Y527816D01*
X280619Y527254D01*
X280487Y526590D01*
X280619Y525927D01*
X280995Y525365D01*
X281557Y524989D01*
X282221Y524857D01*
X282884Y524989D01*
X283446Y525365D01*
X283633Y525645D01*
X283772Y525688D01*
X284606D01*
X284745Y525645D01*
X284932Y525365D01*
X285494Y524989D01*
X286157Y524857D01*
X286821Y524989D01*
X287383Y525365D01*
X287759Y525927D01*
X287891Y526590D01*
X287840Y526847D01*
X288026Y527473D01*
X288535Y527891D01*
X288789Y527942D01*
X289352Y528318D01*
X289727Y528880D01*
X289728Y528880D01*
X289803Y528943D01*
X290881Y528634D01*
X290899Y528547D01*
X290899Y528547D01*
X290914Y528524D01*
X291274Y527985D01*
X291837Y527609D01*
X292500Y527477D01*
X293163Y527609D01*
X293726Y527985D01*
X294101Y528547D01*
X294233Y529210D01*
X294101Y529874D01*
X293726Y530436D01*
X293163Y530812D01*
X292500Y530943D01*
X291837Y530812D01*
X291274Y530436D01*
X290899Y529874D01*
X290898Y529873D01*
X290823Y529810D01*
X289745Y530119D01*
X289727Y530206D01*
X289727Y530207D01*
X289712Y530229D01*
X289352Y530769D01*
X288789Y531145D01*
X288126Y531277D01*
D02*
G37*
G36*
X239057Y534930D02*
X238101Y534740D01*
X237291Y534198D01*
X236749Y533388D01*
X236559Y532432D01*
X236749Y531476D01*
X237291Y530666D01*
X238101Y530124D01*
X239057Y529934D01*
X240013Y530124D01*
X240823Y530666D01*
X241365Y531476D01*
X241555Y532432D01*
X241365Y533388D01*
X240823Y534198D01*
X240013Y534740D01*
X239057Y534930D01*
D02*
G37*
G36*
X193000Y531733D02*
X192337Y531601D01*
X191774Y531226D01*
X191399Y530663D01*
X191267Y530000D01*
X191399Y529337D01*
X191774Y528774D01*
X192337Y528399D01*
X193000Y528267D01*
X193663Y528399D01*
X194226Y528774D01*
X194601Y529337D01*
X194733Y530000D01*
X194601Y530663D01*
X194226Y531226D01*
X193663Y531601D01*
X193000Y531733D01*
D02*
G37*
G36*
X255090Y531798D02*
X254134Y531608D01*
X253323Y531066D01*
X252782Y530256D01*
X252592Y529300D01*
X252782Y528344D01*
X253323Y527534D01*
X254134Y526992D01*
X255090Y526802D01*
X256046Y526992D01*
X256856Y527534D01*
X257398Y528344D01*
X257588Y529300D01*
X257398Y530256D01*
X256856Y531066D01*
X256046Y531608D01*
X255090Y531798D01*
D02*
G37*
G36*
X274346Y531277D02*
X273683Y531145D01*
X273121Y530769D01*
X272745Y530207D01*
X272613Y529543D01*
X272745Y528880D01*
X273121Y528318D01*
X273683Y527942D01*
X273937Y527891D01*
X274447Y527473D01*
X274633Y526847D01*
X274582Y526590D01*
X274714Y525927D01*
X275089Y525365D01*
X275652Y524989D01*
X276315Y524857D01*
X276978Y524989D01*
X277541Y525365D01*
X277916Y525927D01*
X278048Y526590D01*
X277916Y527254D01*
X277541Y527816D01*
X276978Y528192D01*
X276725Y528242D01*
X276215Y528661D01*
X276029Y529286D01*
X276080Y529543D01*
X275948Y530207D01*
X275572Y530769D01*
X275010Y531145D01*
X274346Y531277D01*
D02*
G37*
G36*
X248031Y524371D02*
X247368Y524239D01*
X246806Y523863D01*
X246619Y523583D01*
X246480Y523541D01*
X245646D01*
X245507Y523583D01*
X245320Y523863D01*
X244758Y524239D01*
X244094Y524371D01*
X243431Y524239D01*
X242869Y523863D01*
X242493Y523301D01*
X242361Y522638D01*
X242493Y521975D01*
X242821Y521484D01*
X242870Y521358D01*
X242162Y520431D01*
X242126Y520434D01*
X242056Y520420D01*
X241463Y520302D01*
X240900Y519926D01*
X240525Y519364D01*
X240393Y518701D01*
X240525Y518038D01*
X240900Y517475D01*
X241463Y517099D01*
X242126Y516967D01*
X242789Y517099D01*
X243352Y517475D01*
X243534Y517748D01*
X243601Y517772D01*
X244527Y517786D01*
X244645Y517748D01*
X244809Y517504D01*
X245371Y517128D01*
X246034Y516996D01*
X246698Y517128D01*
X247260Y517504D01*
X247452Y517791D01*
X247679Y517850D01*
X248400Y517840D01*
X248563Y517791D01*
X248774Y517475D01*
X249337Y517099D01*
X250000Y516967D01*
X250663Y517099D01*
X251226Y517475D01*
X251601Y518038D01*
X251733Y518701D01*
X251601Y519364D01*
X251226Y519926D01*
X250663Y520302D01*
X250069Y520420D01*
X250000Y520434D01*
X249964Y520431D01*
X249257Y521357D01*
X249298Y521473D01*
X249396Y521620D01*
X249633Y521975D01*
X249765Y522638D01*
X249633Y523301D01*
X249257Y523863D01*
X248695Y524239D01*
X248031Y524371D01*
D02*
G37*
G36*
X191000Y526733D02*
X190337Y526601D01*
X189774Y526226D01*
X189399Y525663D01*
X189267Y525000D01*
X189399Y524337D01*
X189774Y523774D01*
X190337Y523399D01*
X191000Y523267D01*
X191663Y523399D01*
X192226Y523774D01*
X192601Y524337D01*
X192733Y525000D01*
X192601Y525663D01*
X192226Y526226D01*
X191663Y526601D01*
X191000Y526733D01*
D02*
G37*
G36*
X189000Y521733D02*
X188337Y521601D01*
X187774Y521226D01*
X187399Y520663D01*
X187267Y520000D01*
X187399Y519337D01*
X187774Y518774D01*
X188337Y518399D01*
X189000Y518267D01*
X189663Y518399D01*
X190226Y518774D01*
X190601Y519337D01*
X190733Y520000D01*
X190601Y520663D01*
X190226Y521226D01*
X189663Y521601D01*
X189000Y521733D01*
D02*
G37*
G36*
X334854Y522691D02*
X334158Y522600D01*
X333509Y522331D01*
X332951Y521903D01*
X332523Y521346D01*
X332255Y520697D01*
X332163Y520000D01*
X332255Y519303D01*
X332523Y518654D01*
X332951Y518097D01*
X333509Y517669D01*
X334158Y517400D01*
X334854Y517309D01*
X335551Y517400D01*
X336200Y517669D01*
X336757Y518097D01*
X337185Y518654D01*
X337454Y519303D01*
X337546Y520000D01*
X337454Y520697D01*
X337185Y521346D01*
X336757Y521903D01*
X336200Y522331D01*
X335551Y522600D01*
X334854Y522691D01*
D02*
G37*
G36*
X306558Y525131D02*
X305797Y524979D01*
X305152Y524548D01*
X304721Y523903D01*
X304570Y523142D01*
X304721Y522382D01*
X305152Y521737D01*
Y520611D01*
X304721Y519966D01*
X304570Y519206D01*
X304721Y518445D01*
X305152Y517800D01*
X305797Y517369D01*
X306558Y517217D01*
X307319Y517369D01*
X307964Y517800D01*
X308395Y518445D01*
X308546Y519206D01*
X308395Y519966D01*
X307964Y520611D01*
Y521737D01*
X308395Y522382D01*
X308546Y523142D01*
X308395Y523903D01*
X307964Y524548D01*
X307319Y524979D01*
X306558Y525131D01*
D02*
G37*
G36*
X318369Y516272D02*
X317608Y516121D01*
X316963Y515690D01*
X315838D01*
X315193Y516121D01*
X314432Y516272D01*
X313671Y516121D01*
X313026Y515690D01*
X311901D01*
X311256Y516121D01*
X310495Y516272D01*
X309734Y516121D01*
X309089Y515690D01*
X308658Y515045D01*
X308507Y514284D01*
X308658Y513523D01*
X309089Y512878D01*
X309524Y512588D01*
X309756Y512235D01*
X309842Y511406D01*
X309643Y511108D01*
X309491Y510347D01*
X309643Y509586D01*
X310074Y508941D01*
X310719Y508510D01*
X311479Y508359D01*
X312240Y508510D01*
X312885Y508941D01*
X313316Y509586D01*
X313468Y510347D01*
X313316Y511108D01*
X312885Y511753D01*
X312874Y511761D01*
X312934Y512025D01*
X313671Y512447D01*
X314432Y512296D01*
X315193Y512447D01*
X315838Y512878D01*
X316963D01*
X317608Y512447D01*
X318369Y512296D01*
X319130Y512447D01*
X319775Y512878D01*
X320206Y513523D01*
X320357Y514284D01*
X320206Y515045D01*
X319775Y515690D01*
X319130Y516121D01*
X318369Y516272D01*
D02*
G37*
G36*
X187000Y516733D02*
X186337Y516601D01*
X185774Y516226D01*
X185399Y515663D01*
X185267Y515000D01*
X185399Y514337D01*
X185774Y513774D01*
X186337Y513399D01*
X187000Y513267D01*
X187663Y513399D01*
X188226Y513774D01*
X188601Y514337D01*
X188733Y515000D01*
X188601Y515663D01*
X188226Y516226D01*
X187663Y516601D01*
X187000Y516733D01*
D02*
G37*
G36*
X280252Y513560D02*
X279589Y513428D01*
X279026Y513052D01*
X278651Y512490D01*
X278519Y511827D01*
X278651Y511164D01*
X279026Y510601D01*
X279589Y510225D01*
X280252Y510093D01*
X280915Y510225D01*
X281478Y510601D01*
X281853Y511164D01*
X281985Y511827D01*
X281853Y512490D01*
X281478Y513052D01*
X280915Y513428D01*
X280252Y513560D01*
D02*
G37*
G36*
X272378D02*
X271715Y513428D01*
X271152Y513052D01*
X270777Y512490D01*
X270645Y511827D01*
X270777Y511164D01*
X271152Y510601D01*
X271715Y510225D01*
X272378Y510093D01*
X273041Y510225D01*
X273604Y510601D01*
X273979Y511164D01*
X274111Y511827D01*
X273979Y512490D01*
X273604Y513052D01*
X273041Y513428D01*
X272378Y513560D01*
D02*
G37*
G36*
X296260Y509607D02*
X295597Y509475D01*
X295034Y509100D01*
X294658Y508537D01*
X294527Y507874D01*
X294658Y507211D01*
X295034Y506648D01*
X295597Y506273D01*
X296260Y506141D01*
X296923Y506273D01*
X297485Y506648D01*
X297861Y507211D01*
X297993Y507874D01*
X297861Y508537D01*
X297485Y509100D01*
X296923Y509475D01*
X296260Y509607D01*
D02*
G37*
G36*
X275590D02*
X274927Y509475D01*
X274365Y509100D01*
X273989Y508537D01*
X273857Y507874D01*
X273989Y507211D01*
X274365Y506648D01*
X274927Y506273D01*
X275590Y506141D01*
X276254Y506273D01*
X276816Y506648D01*
X277192Y507211D01*
X277324Y507874D01*
X277192Y508537D01*
X276816Y509100D01*
X276254Y509475D01*
X275590Y509607D01*
D02*
G37*
G36*
X246063Y503702D02*
X245400Y503570D01*
X244837Y503194D01*
X244462Y502632D01*
X244343Y502038D01*
X244330Y501968D01*
X244333Y501932D01*
X243407Y501225D01*
X243291Y501266D01*
X243144Y501364D01*
X242789Y501601D01*
X242126Y501733D01*
X241463Y501601D01*
X240900Y501226D01*
X240525Y500663D01*
X240393Y500000D01*
X240525Y499337D01*
X240900Y498774D01*
X241181Y498587D01*
X241223Y498448D01*
Y497615D01*
X241181Y497476D01*
X240900Y497289D01*
X240525Y496726D01*
X240393Y496063D01*
X240525Y495400D01*
X240900Y494837D01*
X241463Y494462D01*
X242126Y494330D01*
X242789Y494462D01*
X243291Y494797D01*
X243407Y494838D01*
X244333Y494131D01*
X244330Y494095D01*
X244343Y494025D01*
X244462Y493431D01*
X244837Y492869D01*
X245400Y492493D01*
X246063Y492361D01*
X246726Y492493D01*
X247289Y492869D01*
X247664Y493431D01*
X247796Y494095D01*
X247664Y494758D01*
X247289Y495320D01*
X247008Y495507D01*
X246966Y495646D01*
Y496480D01*
X247008Y496619D01*
X247289Y496806D01*
X247664Y497368D01*
X247796Y498032D01*
X247664Y498695D01*
X247289Y499257D01*
X247008Y499444D01*
X246966Y499583D01*
Y500417D01*
X247008Y500556D01*
X247289Y500743D01*
X247664Y501305D01*
X247796Y501968D01*
X247664Y502632D01*
X247289Y503194D01*
X246726Y503570D01*
X246063Y503702D01*
D02*
G37*
G36*
X295031Y501733D02*
X294368Y501601D01*
X293806Y501226D01*
X293430Y500663D01*
X293312Y500069D01*
X293298Y500000D01*
X293301Y499964D01*
X292375Y499257D01*
X292259Y499298D01*
X292113Y499396D01*
X291758Y499633D01*
X291094Y499765D01*
X290431Y499633D01*
X289869Y499257D01*
X289493Y498695D01*
X289361Y498032D01*
X289493Y497368D01*
X289869Y496806D01*
X290149Y496619D01*
X290192Y496480D01*
Y495646D01*
X290149Y495507D01*
X289869Y495320D01*
X289493Y494758D01*
X289361Y494095D01*
X289493Y493431D01*
X289869Y492869D01*
X290431Y492493D01*
X291094Y492361D01*
X291758Y492493D01*
X292320Y492869D01*
X292696Y493431D01*
X292814Y494025D01*
X292828Y494095D01*
X292825Y494131D01*
X293751Y494838D01*
X293867Y494797D01*
X294013Y494699D01*
X294368Y494462D01*
X295031Y494330D01*
X295695Y494462D01*
X296257Y494837D01*
X296633Y495400D01*
X296765Y496063D01*
X296633Y496726D01*
X296257Y497289D01*
X295977Y497476D01*
X295934Y497615D01*
Y498448D01*
X295977Y498587D01*
X296257Y498774D01*
X296633Y499337D01*
X296765Y500000D01*
X296633Y500663D01*
X296257Y501226D01*
X295695Y501601D01*
X295031Y501733D01*
D02*
G37*
G36*
X145000Y504280D02*
X143892Y504134D01*
X142860Y503707D01*
X141974Y503026D01*
X141294Y502140D01*
X140866Y501108D01*
X140720Y500000D01*
X140866Y498892D01*
X141294Y497860D01*
X141974Y496974D01*
X142860Y496293D01*
X143892Y495866D01*
X145000Y495720D01*
X146108Y495866D01*
X147140Y496293D01*
X148026Y496974D01*
X148706Y497860D01*
X149134Y498892D01*
X149280Y500000D01*
X149134Y501108D01*
X148706Y502140D01*
X148026Y503026D01*
X147140Y503707D01*
X146108Y504134D01*
X145000Y504280D01*
D02*
G37*
G36*
X135000D02*
X133892Y504134D01*
X132860Y503707D01*
X131974Y503026D01*
X131293Y502140D01*
X130866Y501108D01*
X130720Y500000D01*
X130866Y498892D01*
X131293Y497860D01*
X131974Y496974D01*
X132860Y496293D01*
X133892Y495866D01*
X135000Y495720D01*
X136108Y495866D01*
X137140Y496293D01*
X138026Y496974D01*
X138707Y497860D01*
X139134Y498892D01*
X139280Y500000D01*
X139134Y501108D01*
X138707Y502140D01*
X138026Y503026D01*
X137140Y503707D01*
X136108Y504134D01*
X135000Y504280D01*
D02*
G37*
G36*
X125000D02*
X123892Y504134D01*
X122860Y503707D01*
X121974Y503026D01*
X121293Y502140D01*
X120866Y501108D01*
X120720Y500000D01*
X120866Y498892D01*
X121293Y497860D01*
X121974Y496974D01*
X122860Y496293D01*
X123892Y495866D01*
X125000Y495720D01*
X126108Y495866D01*
X127140Y496293D01*
X128026Y496974D01*
X128707Y497860D01*
X129134Y498892D01*
X129280Y500000D01*
X129134Y501108D01*
X128707Y502140D01*
X128026Y503026D01*
X127140Y503707D01*
X126108Y504134D01*
X125000Y504280D01*
D02*
G37*
G36*
X115000D02*
X113892Y504134D01*
X112860Y503707D01*
X111974Y503026D01*
X111293Y502140D01*
X110866Y501108D01*
X110720Y500000D01*
X110866Y498892D01*
X111293Y497860D01*
X111974Y496974D01*
X112860Y496293D01*
X113892Y495866D01*
X115000Y495720D01*
X116108Y495866D01*
X117140Y496293D01*
X118026Y496974D01*
X118707Y497860D01*
X119134Y498892D01*
X119280Y500000D01*
X119134Y501108D01*
X118707Y502140D01*
X118026Y503026D01*
X117140Y503707D01*
X116108Y504134D01*
X115000Y504280D01*
D02*
G37*
G36*
X105000D02*
X103892Y504134D01*
X102860Y503707D01*
X101974Y503026D01*
X101294Y502140D01*
X100866Y501108D01*
X100720Y500000D01*
X100866Y498892D01*
X101294Y497860D01*
X101974Y496974D01*
X102860Y496293D01*
X103892Y495866D01*
X105000Y495720D01*
X106108Y495866D01*
X107140Y496293D01*
X108026Y496974D01*
X108706Y497860D01*
X109134Y498892D01*
X109280Y500000D01*
X109134Y501108D01*
X108706Y502140D01*
X108026Y503026D01*
X107140Y503707D01*
X106108Y504134D01*
X105000Y504280D01*
D02*
G37*
G36*
X95000D02*
X93892Y504134D01*
X92860Y503707D01*
X91974Y503026D01*
X91294Y502140D01*
X90866Y501108D01*
X90720Y500000D01*
X90866Y498892D01*
X91294Y497860D01*
X91974Y496974D01*
X92860Y496293D01*
X93892Y495866D01*
X95000Y495720D01*
X96108Y495866D01*
X97140Y496293D01*
X98026Y496974D01*
X98707Y497860D01*
X99134Y498892D01*
X99280Y500000D01*
X99134Y501108D01*
X98707Y502140D01*
X98026Y503026D01*
X97140Y503707D01*
X96108Y504134D01*
X95000Y504280D01*
D02*
G37*
G36*
X85000D02*
X83892Y504134D01*
X82860Y503707D01*
X81974Y503026D01*
X81293Y502140D01*
X80866Y501108D01*
X80720Y500000D01*
X80866Y498892D01*
X81293Y497860D01*
X81974Y496974D01*
X82860Y496293D01*
X83892Y495866D01*
X85000Y495720D01*
X86108Y495866D01*
X87140Y496293D01*
X88026Y496974D01*
X88706Y497860D01*
X89134Y498892D01*
X89280Y500000D01*
X89134Y501108D01*
X88706Y502140D01*
X88026Y503026D01*
X87140Y503707D01*
X86108Y504134D01*
X85000Y504280D01*
D02*
G37*
G36*
X75000D02*
X73892Y504134D01*
X72860Y503707D01*
X71974Y503026D01*
X71293Y502140D01*
X70866Y501108D01*
X70720Y500000D01*
X70866Y498892D01*
X71293Y497860D01*
X71974Y496974D01*
X72860Y496293D01*
X73892Y495866D01*
X75000Y495720D01*
X76108Y495866D01*
X77140Y496293D01*
X78026Y496974D01*
X78707Y497860D01*
X79134Y498892D01*
X79280Y500000D01*
X79134Y501108D01*
X78707Y502140D01*
X78026Y503026D01*
X77140Y503707D01*
X76108Y504134D01*
X75000Y504280D01*
D02*
G37*
G36*
X213000Y547498D02*
X212044Y547308D01*
X211234Y546766D01*
X210692Y545956D01*
X210502Y545000D01*
X210692Y544044D01*
X211234Y543234D01*
X211432Y543101D01*
Y541899D01*
X211234Y541766D01*
X210692Y540956D01*
X210502Y540000D01*
X210692Y539044D01*
X211234Y538234D01*
X211432Y538101D01*
Y536899D01*
X211234Y536766D01*
X210692Y535956D01*
X210502Y535000D01*
X210692Y534044D01*
X211234Y533234D01*
X211432Y533101D01*
Y531899D01*
X211234Y531766D01*
X210692Y530956D01*
X210502Y530000D01*
X210692Y529044D01*
X211234Y528234D01*
X211432Y528101D01*
Y526899D01*
X211234Y526766D01*
X210692Y525956D01*
X210502Y525000D01*
X210692Y524044D01*
X211234Y523234D01*
X211432Y523101D01*
Y521899D01*
X211234Y521766D01*
X210692Y520956D01*
X210502Y520000D01*
X210692Y519044D01*
X211234Y518234D01*
X211432Y518101D01*
Y516899D01*
X211234Y516766D01*
X210692Y515956D01*
X210502Y515000D01*
X210692Y514044D01*
X211234Y513234D01*
X211432Y513101D01*
Y511899D01*
X211234Y511766D01*
X210692Y510956D01*
X210502Y510000D01*
X210692Y509044D01*
X211234Y508234D01*
X211432Y508101D01*
Y506899D01*
X211234Y506766D01*
X210692Y505956D01*
X210502Y505000D01*
X210692Y504044D01*
X211234Y503234D01*
X212044Y502692D01*
X212392Y502623D01*
X212450Y501686D01*
X212415Y501599D01*
X211682Y501295D01*
X211013Y500782D01*
X210500Y500114D01*
X210178Y499335D01*
X210068Y498500D01*
X210178Y497665D01*
X210500Y496886D01*
X211013Y496218D01*
X211682Y495705D01*
X212460Y495382D01*
X213295Y495272D01*
X214131Y495382D01*
X214909Y495705D01*
X215578Y496218D01*
X216090Y496886D01*
X216413Y497665D01*
X216523Y498500D01*
X216413Y499335D01*
X216090Y500114D01*
X215578Y500782D01*
X214909Y501295D01*
X214131Y501618D01*
X213859Y501653D01*
X213826Y502666D01*
X213956Y502692D01*
X214766Y503234D01*
X215308Y504044D01*
X215498Y505000D01*
X215308Y505956D01*
X214766Y506766D01*
X214568Y506899D01*
Y508101D01*
X214766Y508234D01*
X215308Y509044D01*
X215498Y510000D01*
X215308Y510956D01*
X214766Y511766D01*
X214568Y511899D01*
Y513101D01*
X214766Y513234D01*
X215308Y514044D01*
X215498Y515000D01*
X215308Y515956D01*
X214766Y516766D01*
X214568Y516899D01*
Y518101D01*
X214766Y518234D01*
X215308Y519044D01*
X215498Y520000D01*
X215308Y520956D01*
X214766Y521766D01*
X214568Y521899D01*
Y523101D01*
X214766Y523234D01*
X215308Y524044D01*
X215498Y525000D01*
X215308Y525956D01*
X214766Y526766D01*
X214568Y526899D01*
Y528101D01*
X214766Y528234D01*
X215308Y529044D01*
X215498Y530000D01*
X215308Y530956D01*
X214766Y531766D01*
X214568Y531899D01*
Y533101D01*
X214766Y533234D01*
X215308Y534044D01*
X215498Y535000D01*
X215308Y535956D01*
X214766Y536766D01*
X214568Y536899D01*
Y538101D01*
X214766Y538234D01*
X215308Y539044D01*
X215498Y540000D01*
X215308Y540956D01*
X214766Y541766D01*
X214568Y541899D01*
Y543101D01*
X214766Y543234D01*
X215308Y544044D01*
X215498Y545000D01*
X215308Y545956D01*
X214766Y546766D01*
X213956Y547308D01*
X213000Y547498D01*
D02*
G37*
G36*
X319600Y502290D02*
X318569Y502155D01*
X317608Y501757D01*
X316783Y501124D01*
X316150Y500298D01*
X315752Y499337D01*
X315616Y498306D01*
X315752Y497275D01*
X316150Y496314D01*
X316783Y495489D01*
X317608Y494856D01*
X318569Y494458D01*
X319600Y494322D01*
X320631Y494458D01*
X321592Y494856D01*
X322417Y495489D01*
X323050Y496314D01*
X323448Y497275D01*
X323584Y498306D01*
X323448Y499337D01*
X323050Y500298D01*
X322417Y501124D01*
X321592Y501757D01*
X320631Y502155D01*
X319600Y502290D01*
D02*
G37*
G36*
X199000Y493733D02*
X198337Y493601D01*
X197774Y493226D01*
X197399Y492663D01*
X197267Y492000D01*
X197399Y491337D01*
X197774Y490774D01*
X198337Y490399D01*
X199000Y490267D01*
X199663Y490399D01*
X200226Y490774D01*
X200601Y491337D01*
X200733Y492000D01*
X200601Y492663D01*
X200226Y493226D01*
X199663Y493601D01*
X199000Y493733D01*
D02*
G37*
G36*
X383900Y497184D02*
X382869Y497048D01*
X381908Y496650D01*
X381083Y496017D01*
X380450Y495192D01*
X380052Y494231D01*
X379916Y493200D01*
X380052Y492169D01*
X380450Y491208D01*
X381083Y490383D01*
X381908Y489750D01*
X382869Y489352D01*
X383900Y489216D01*
X384931Y489352D01*
X385892Y489750D01*
X386717Y490383D01*
X387350Y491208D01*
X387748Y492169D01*
X387884Y493200D01*
X387748Y494231D01*
X387350Y495192D01*
X386717Y496017D01*
X385892Y496650D01*
X384931Y497048D01*
X383900Y497184D01*
D02*
G37*
G36*
X425000Y517910D02*
X422728Y517731D01*
X420512Y517199D01*
X418406Y516327D01*
X416463Y515136D01*
X414730Y513656D01*
X413250Y511923D01*
X412059Y509980D01*
X411187Y507874D01*
X410654Y505658D01*
X410476Y503386D01*
X410654Y501114D01*
X411187Y498898D01*
X412059Y496792D01*
X413250Y494849D01*
X414730Y493116D01*
X416463Y491635D01*
X418406Y490445D01*
X420512Y489572D01*
X422728Y489040D01*
X425000Y488862D01*
X427272Y489040D01*
X429488Y489572D01*
X431594Y490445D01*
X433537Y491635D01*
X435270Y493116D01*
X436750Y494849D01*
X437941Y496792D01*
X438813Y498898D01*
X439346Y501114D01*
X439524Y503386D01*
X439346Y505658D01*
X438813Y507874D01*
X437941Y509980D01*
X436750Y511923D01*
X435270Y513656D01*
X433537Y515136D01*
X431594Y516327D01*
X429488Y517199D01*
X427272Y517731D01*
X425000Y517910D01*
D02*
G37*
G36*
X242126Y491891D02*
X241463Y491759D01*
X240900Y491383D01*
X240525Y490821D01*
X240393Y490158D01*
X240525Y489494D01*
X240900Y488932D01*
X241463Y488556D01*
X242126Y488424D01*
X242789Y488556D01*
X243352Y488932D01*
X243727Y489494D01*
X243859Y490158D01*
X243727Y490821D01*
X243352Y491383D01*
X242789Y491759D01*
X242126Y491891D01*
D02*
G37*
G36*
X366874Y493228D02*
X366038Y493118D01*
X365260Y492795D01*
X364591Y492282D01*
X364078Y491614D01*
X363756Y490835D01*
X363646Y490000D01*
X363756Y489165D01*
X364078Y488386D01*
X364591Y487718D01*
X365260Y487205D01*
X366038Y486882D01*
X366874Y486772D01*
X367709Y486882D01*
X368487Y487205D01*
X369156Y487718D01*
X369669Y488386D01*
X369991Y489165D01*
X370101Y490000D01*
X369991Y490835D01*
X369669Y491614D01*
X369156Y492282D01*
X368487Y492795D01*
X367709Y493118D01*
X366874Y493228D01*
D02*
G37*
G36*
X145000Y494280D02*
X143892Y494134D01*
X142860Y493707D01*
X141974Y493026D01*
X141294Y492140D01*
X140866Y491108D01*
X140720Y490000D01*
X140866Y488892D01*
X141294Y487860D01*
X141974Y486974D01*
X142860Y486294D01*
X143892Y485866D01*
X145000Y485720D01*
X146108Y485866D01*
X147140Y486294D01*
X148026Y486974D01*
X148706Y487860D01*
X149134Y488892D01*
X149280Y490000D01*
X149134Y491108D01*
X148706Y492140D01*
X148026Y493026D01*
X147140Y493707D01*
X146108Y494134D01*
X145000Y494280D01*
D02*
G37*
G36*
X125000D02*
X123892Y494134D01*
X122860Y493707D01*
X121974Y493026D01*
X121293Y492140D01*
X120866Y491108D01*
X120720Y490000D01*
X120866Y488892D01*
X121293Y487860D01*
X121974Y486974D01*
X122860Y486294D01*
X123892Y485866D01*
X125000Y485720D01*
X126108Y485866D01*
X127140Y486294D01*
X128026Y486974D01*
X128707Y487860D01*
X129134Y488892D01*
X129280Y490000D01*
X129134Y491108D01*
X128707Y492140D01*
X128026Y493026D01*
X127140Y493707D01*
X126108Y494134D01*
X125000Y494280D01*
D02*
G37*
G36*
X105000D02*
X103892Y494134D01*
X102860Y493707D01*
X101974Y493026D01*
X101294Y492140D01*
X100866Y491108D01*
X100720Y490000D01*
X100866Y488892D01*
X101294Y487860D01*
X101974Y486974D01*
X102860Y486294D01*
X103892Y485866D01*
X105000Y485720D01*
X106108Y485866D01*
X107140Y486294D01*
X108026Y486974D01*
X108706Y487860D01*
X109134Y488892D01*
X109280Y490000D01*
X109134Y491108D01*
X108706Y492140D01*
X108026Y493026D01*
X107140Y493707D01*
X106108Y494134D01*
X105000Y494280D01*
D02*
G37*
G36*
X95000D02*
X93892Y494134D01*
X92860Y493707D01*
X91974Y493026D01*
X91294Y492140D01*
X90866Y491108D01*
X90720Y490000D01*
X90866Y488892D01*
X91294Y487860D01*
X91974Y486974D01*
X92860Y486294D01*
X93892Y485866D01*
X95000Y485720D01*
X96108Y485866D01*
X97140Y486294D01*
X98026Y486974D01*
X98707Y487860D01*
X99134Y488892D01*
X99280Y490000D01*
X99134Y491108D01*
X98707Y492140D01*
X98026Y493026D01*
X97140Y493707D01*
X96108Y494134D01*
X95000Y494280D01*
D02*
G37*
G36*
X85000D02*
X83892Y494134D01*
X82860Y493707D01*
X81974Y493026D01*
X81293Y492140D01*
X80866Y491108D01*
X80720Y490000D01*
X80866Y488892D01*
X81293Y487860D01*
X81974Y486974D01*
X82860Y486294D01*
X83892Y485866D01*
X85000Y485720D01*
X86108Y485866D01*
X87140Y486294D01*
X88026Y486974D01*
X88706Y487860D01*
X89134Y488892D01*
X89280Y490000D01*
X89134Y491108D01*
X88706Y492140D01*
X88026Y493026D01*
X87140Y493707D01*
X86108Y494134D01*
X85000Y494280D01*
D02*
G37*
G36*
X185000Y488733D02*
X184337Y488601D01*
X183774Y488226D01*
X183399Y487663D01*
X183267Y487000D01*
X183399Y486337D01*
X183774Y485774D01*
X184337Y485399D01*
X185000Y485267D01*
X185663Y485399D01*
X186226Y485774D01*
X186601Y486337D01*
X186733Y487000D01*
X186601Y487663D01*
X186226Y488226D01*
X185663Y488601D01*
X185000Y488733D01*
D02*
G37*
G36*
X270409Y485261D02*
X269746Y485129D01*
X269184Y484753D01*
X268808Y484191D01*
X268676Y483528D01*
X268808Y482864D01*
X269143Y482363D01*
X269184Y482247D01*
X268477Y481321D01*
X268441Y481324D01*
X268372Y481310D01*
X267778Y481192D01*
X267215Y480816D01*
X266840Y480254D01*
X266708Y479591D01*
X266840Y478927D01*
X267215Y478365D01*
X267778Y477989D01*
X268441Y477857D01*
X269104Y477989D01*
X269667Y478365D01*
X270042Y478927D01*
X270174Y479591D01*
X270042Y480254D01*
X269707Y480755D01*
X269666Y480871D01*
X270373Y481797D01*
X270409Y481794D01*
X270479Y481808D01*
X271073Y481926D01*
X271635Y482302D01*
X272011Y482864D01*
X272143Y483528D01*
X272011Y484191D01*
X271635Y484753D01*
X271073Y485129D01*
X270409Y485261D01*
D02*
G37*
G36*
X295031Y489733D02*
X294368Y489601D01*
X293806Y489226D01*
X293430Y488663D01*
X293313Y488072D01*
X293298Y488000D01*
X292795Y487233D01*
X292132Y487101D01*
X291570Y486726D01*
X291194Y486163D01*
X291081Y485597D01*
X291062Y485500D01*
X290295Y484733D01*
X290199Y484714D01*
X289632Y484601D01*
X289070Y484226D01*
X288694Y483663D01*
X288562Y483000D01*
X288694Y482337D01*
X289070Y481774D01*
X289632Y481399D01*
X290295Y481267D01*
X290959Y481399D01*
X291521Y481774D01*
X291897Y482337D01*
X292009Y482903D01*
X292029Y483000D01*
X292795Y483767D01*
X292892Y483786D01*
X293459Y483899D01*
X294021Y484274D01*
X294397Y484837D01*
X294514Y485428D01*
X294529Y485500D01*
X295031Y486267D01*
X295695Y486399D01*
X296257Y486774D01*
X296633Y487337D01*
X296765Y488000D01*
X296633Y488663D01*
X296257Y489226D01*
X295695Y489601D01*
X295031Y489733D01*
D02*
G37*
G36*
X183000Y483733D02*
X182337Y483601D01*
X181774Y483226D01*
X181399Y482663D01*
X181267Y482000D01*
X181399Y481337D01*
X181774Y480774D01*
X182337Y480399D01*
X183000Y480267D01*
X183663Y480399D01*
X184226Y480774D01*
X184601Y481337D01*
X184733Y482000D01*
X184601Y482663D01*
X184226Y483226D01*
X183663Y483601D01*
X183000Y483733D01*
D02*
G37*
G36*
X344854Y481733D02*
X344191Y481601D01*
X343629Y481226D01*
X343253Y480663D01*
X343121Y480000D01*
X343253Y479337D01*
X343629Y478774D01*
X344191Y478399D01*
X344854Y478267D01*
X345518Y478399D01*
X346080Y478774D01*
X346456Y479337D01*
X346588Y480000D01*
X346456Y480663D01*
X346080Y481226D01*
X345518Y481601D01*
X344854Y481733D01*
D02*
G37*
G36*
X181000Y478733D02*
X180337Y478601D01*
X179774Y478226D01*
X179399Y477663D01*
X179267Y477000D01*
X179399Y476337D01*
X179774Y475774D01*
X180337Y475399D01*
X181000Y475267D01*
X181663Y475399D01*
X182226Y475774D01*
X182601Y476337D01*
X182733Y477000D01*
X182601Y477663D01*
X182226Y478226D01*
X181663Y478601D01*
X181000Y478733D01*
D02*
G37*
G36*
X323550Y483044D02*
X315650D01*
Y475144D01*
X323550D01*
Y483044D01*
D02*
G37*
G36*
X179000Y473733D02*
X178337Y473601D01*
X177774Y473226D01*
X177399Y472663D01*
X177267Y472000D01*
X177399Y471337D01*
X177774Y470774D01*
X178337Y470399D01*
X179000Y470267D01*
X179663Y470399D01*
X180226Y470774D01*
X180601Y471337D01*
X180733Y472000D01*
X180601Y472663D01*
X180226Y473226D01*
X179663Y473601D01*
X179000Y473733D01*
D02*
G37*
G36*
X307542Y473950D02*
X306782Y473798D01*
X306137Y473367D01*
X305706Y472722D01*
X305554Y471961D01*
X305706Y471201D01*
X306137Y470556D01*
X306782Y470125D01*
X307542Y469973D01*
X308303Y470125D01*
X308948Y470556D01*
X309379Y471201D01*
X309531Y471961D01*
X309379Y472722D01*
X308948Y473367D01*
X308303Y473798D01*
X307542Y473950D01*
D02*
G37*
G36*
X344854Y471733D02*
X344191Y471601D01*
X343629Y471226D01*
X343253Y470663D01*
X343121Y470000D01*
X343253Y469337D01*
X343629Y468774D01*
X344191Y468399D01*
X344854Y468267D01*
X345518Y468399D01*
X346080Y468774D01*
X346456Y469337D01*
X346588Y470000D01*
X346456Y470663D01*
X346080Y471226D01*
X345518Y471601D01*
X344854Y471733D01*
D02*
G37*
G36*
X282236Y466544D02*
X281573Y466412D01*
X281011Y466037D01*
X280823Y465756D01*
X280684Y465714D01*
X279851D01*
X279712Y465756D01*
X279525Y466037D01*
X278962Y466412D01*
X278299Y466544D01*
X277636Y466412D01*
X277074Y466037D01*
X276886Y465756D01*
X276747Y465714D01*
X275914D01*
X275775Y465756D01*
X275588Y466037D01*
X275026Y466412D01*
X274362Y466544D01*
X273699Y466412D01*
X273137Y466037D01*
X272761Y465474D01*
X272629Y464811D01*
X272761Y464148D01*
X273137Y463585D01*
X273699Y463210D01*
X274362Y463078D01*
X275026Y463210D01*
X275588Y463585D01*
X275775Y463866D01*
X275914Y463908D01*
X276747D01*
X276886Y463866D01*
X277074Y463585D01*
X277636Y463210D01*
X278299Y463078D01*
X278962Y463210D01*
X279525Y463585D01*
X279712Y463866D01*
X279851Y463908D01*
X280684D01*
X280823Y463866D01*
X281011Y463585D01*
X281573Y463210D01*
X281641Y462771D01*
X280915Y462346D01*
X280252Y462478D01*
X279589Y462346D01*
X279026Y461970D01*
X278839Y461690D01*
X278700Y461647D01*
X277867D01*
X277728Y461690D01*
X277541Y461970D01*
X276978Y462346D01*
X276315Y462478D01*
X275652Y462346D01*
X275089Y461970D01*
X274714Y461408D01*
X274582Y460744D01*
X274714Y460081D01*
X275089Y459519D01*
X275652Y459143D01*
X276315Y459011D01*
X276978Y459143D01*
X277541Y459519D01*
X277728Y459799D01*
X277867Y459842D01*
X278700D01*
X278839Y459799D01*
X279026Y459519D01*
X279589Y459143D01*
X280252Y459011D01*
X280915Y459143D01*
X281478Y459519D01*
X281853Y460081D01*
X281919Y460411D01*
X282939Y460685D01*
X282963Y460648D01*
X283526Y460273D01*
X284189Y460141D01*
X284852Y460273D01*
X285415Y460648D01*
X285584Y460901D01*
X285779Y460954D01*
X286608Y460931D01*
X286695Y460901D01*
X286900Y460594D01*
X287463Y460218D01*
X288126Y460086D01*
X288789Y460218D01*
X289352Y460594D01*
X289727Y461156D01*
X289780Y461422D01*
X290837Y461642D01*
X290853Y461617D01*
X291415Y461241D01*
X292079Y461109D01*
X292742Y461241D01*
X293304Y461617D01*
X293680Y462179D01*
X293812Y462843D01*
X293680Y463506D01*
X293304Y464068D01*
X292742Y464444D01*
X292079Y464576D01*
X291415Y464444D01*
X290853Y464068D01*
X290477Y463506D01*
X290424Y463239D01*
X289368Y463020D01*
X289352Y463045D01*
X288789Y463420D01*
X288126Y463553D01*
X287463Y463420D01*
X286900Y463045D01*
X286731Y462792D01*
X286536Y462739D01*
X285707Y462762D01*
X285620Y462792D01*
X285415Y463100D01*
X284852Y463475D01*
X284622Y463521D01*
X284097Y463940D01*
X283922Y464574D01*
X283969Y464811D01*
X283838Y465474D01*
X283462Y466037D01*
X282899Y466412D01*
X282236Y466544D01*
D02*
G37*
G36*
X177000Y468733D02*
X176337Y468601D01*
X175774Y468226D01*
X175399Y467663D01*
X175267Y467000D01*
X175399Y466337D01*
X175774Y465774D01*
X176337Y465399D01*
X177000Y465267D01*
X177663Y465399D01*
X178226Y465774D01*
X178601Y466337D01*
X178733Y467000D01*
X178601Y467663D01*
X178226Y468226D01*
X177663Y468601D01*
X177000Y468733D01*
D02*
G37*
G36*
X307542Y468044D02*
X306782Y467893D01*
X306137Y467462D01*
X305706Y466817D01*
X305554Y466056D01*
X305706Y465295D01*
X306137Y464650D01*
X306782Y464219D01*
X307542Y464068D01*
X308303Y464219D01*
X308948Y464650D01*
X309379Y465295D01*
X309531Y466056D01*
X309379Y466817D01*
X308948Y467462D01*
X308303Y467893D01*
X307542Y468044D01*
D02*
G37*
G36*
X302621D02*
X301860Y467893D01*
X301215Y467462D01*
X300784Y466817D01*
X300633Y466056D01*
X300784Y465295D01*
X301215Y464650D01*
X301860Y464219D01*
X302621Y464068D01*
X303382Y464219D01*
X304027Y464650D01*
X304458Y465295D01*
X304609Y466056D01*
X304458Y466817D01*
X304027Y467462D01*
X303382Y467893D01*
X302621Y468044D01*
D02*
G37*
G36*
X249300Y471100D02*
X241900D01*
Y463700D01*
X249300D01*
Y471100D01*
D02*
G37*
G36*
X344854Y466733D02*
X344191Y466601D01*
X343629Y466226D01*
X343253Y465663D01*
X343121Y465000D01*
X343253Y464337D01*
X343629Y463774D01*
X344191Y463399D01*
X344854Y463267D01*
X345518Y463399D01*
X346080Y463774D01*
X346456Y464337D01*
X346588Y465000D01*
X346456Y465663D01*
X346080Y466226D01*
X345518Y466601D01*
X344854Y466733D01*
D02*
G37*
G36*
X268701Y465316D02*
X268038Y465184D01*
X267475Y464808D01*
X267099Y464246D01*
X266968Y463583D01*
X267099Y462919D01*
X267475Y462357D01*
X268038Y461981D01*
X268701Y461849D01*
X269364Y461981D01*
X269926Y462357D01*
X270302Y462919D01*
X270434Y463583D01*
X270302Y464246D01*
X269926Y464808D01*
X269364Y465184D01*
X268701Y465316D01*
D02*
G37*
G36*
X175000Y463733D02*
X174337Y463601D01*
X173774Y463226D01*
X173399Y462663D01*
X173267Y462000D01*
X173399Y461337D01*
X173774Y460774D01*
X174337Y460399D01*
X175000Y460267D01*
X175663Y460399D01*
X176226Y460774D01*
X176601Y461337D01*
X176733Y462000D01*
X176601Y462663D01*
X176226Y463226D01*
X175663Y463601D01*
X175000Y463733D01*
D02*
G37*
G36*
X213000Y489498D02*
X212044Y489308D01*
X211234Y488766D01*
X210692Y487956D01*
X210502Y487000D01*
X210692Y486044D01*
X211234Y485234D01*
X211432Y485101D01*
Y483899D01*
X211234Y483766D01*
X210692Y482956D01*
X210502Y482000D01*
X210692Y481044D01*
X211234Y480234D01*
X211432Y480101D01*
Y478899D01*
X211234Y478766D01*
X210692Y477956D01*
X210502Y477000D01*
X210692Y476044D01*
X211234Y475234D01*
X211432Y475101D01*
Y473899D01*
X211234Y473766D01*
X210692Y472956D01*
X210502Y472000D01*
X210692Y471044D01*
X211234Y470234D01*
X211432Y470101D01*
Y468899D01*
X211234Y468766D01*
X210692Y467956D01*
X210502Y467000D01*
X210692Y466044D01*
X211234Y465234D01*
X211432Y465101D01*
Y463899D01*
X211234Y463766D01*
X210692Y462956D01*
X210502Y462000D01*
X210692Y461044D01*
X211234Y460234D01*
X212044Y459692D01*
X213000Y459502D01*
X213956Y459692D01*
X214766Y460234D01*
X215308Y461044D01*
X215498Y462000D01*
X215308Y462956D01*
X214766Y463766D01*
X214568Y463899D01*
Y465101D01*
X214766Y465234D01*
X215308Y466044D01*
X215498Y467000D01*
X215308Y467956D01*
X214766Y468766D01*
X214568Y468899D01*
Y470101D01*
X214766Y470234D01*
X215308Y471044D01*
X215498Y472000D01*
X215308Y472956D01*
X214766Y473766D01*
X214568Y473899D01*
Y475101D01*
X214766Y475234D01*
X215308Y476044D01*
X215498Y477000D01*
X215308Y477956D01*
X214766Y478766D01*
X214568Y478899D01*
Y480101D01*
X214766Y480234D01*
X215308Y481044D01*
X215498Y482000D01*
X215308Y482956D01*
X214766Y483766D01*
X214568Y483899D01*
Y485101D01*
X214766Y485234D01*
X215308Y486044D01*
X215498Y487000D01*
X215308Y487956D01*
X214766Y488766D01*
X213956Y489308D01*
X213000Y489498D01*
D02*
G37*
G36*
X245600Y461132D02*
X244634Y461005D01*
X243734Y460632D01*
X242961Y460039D01*
X242368Y459266D01*
X241995Y458366D01*
X241868Y457400D01*
X241995Y456434D01*
X242368Y455534D01*
X242961Y454761D01*
X243734Y454168D01*
X244634Y453795D01*
X245600Y453668D01*
X246566Y453795D01*
X247466Y454168D01*
X248239Y454761D01*
X248832Y455534D01*
X249205Y456434D01*
X249332Y457400D01*
X249205Y458366D01*
X248832Y459266D01*
X248239Y460039D01*
X247466Y460632D01*
X246566Y461005D01*
X245600Y461132D01*
D02*
G37*
G36*
X383900Y457184D02*
X382869Y457048D01*
X381908Y456650D01*
X381083Y456017D01*
X380450Y455192D01*
X380052Y454231D01*
X379916Y453200D01*
X380052Y452169D01*
X380450Y451208D01*
X381083Y450383D01*
X381908Y449750D01*
X382869Y449352D01*
X383900Y449216D01*
X384931Y449352D01*
X385892Y449750D01*
X386717Y450383D01*
X387350Y451208D01*
X387748Y452169D01*
X387884Y453200D01*
X387748Y454231D01*
X387350Y455192D01*
X386717Y456017D01*
X385892Y456650D01*
X384931Y457048D01*
X383900Y457184D01*
D02*
G37*
G36*
X145000Y454280D02*
X143892Y454134D01*
X142860Y453707D01*
X141974Y453026D01*
X141294Y452140D01*
X140866Y451108D01*
X140720Y450000D01*
X140866Y448892D01*
X141294Y447860D01*
X141974Y446974D01*
X142860Y446293D01*
X143892Y445866D01*
X145000Y445720D01*
X146108Y445866D01*
X147140Y446293D01*
X148026Y446974D01*
X148706Y447860D01*
X149134Y448892D01*
X149280Y450000D01*
X149134Y451108D01*
X148706Y452140D01*
X148026Y453026D01*
X147140Y453707D01*
X146108Y454134D01*
X145000Y454280D01*
D02*
G37*
G36*
X135000D02*
X133892Y454134D01*
X132860Y453707D01*
X131974Y453026D01*
X131293Y452140D01*
X130866Y451108D01*
X130720Y450000D01*
X130866Y448892D01*
X131293Y447860D01*
X131974Y446974D01*
X132860Y446293D01*
X133892Y445866D01*
X135000Y445720D01*
X136108Y445866D01*
X137140Y446293D01*
X138026Y446974D01*
X138707Y447860D01*
X139134Y448892D01*
X139280Y450000D01*
X139134Y451108D01*
X138707Y452140D01*
X138026Y453026D01*
X137140Y453707D01*
X136108Y454134D01*
X135000Y454280D01*
D02*
G37*
G36*
X125000D02*
X123892Y454134D01*
X122860Y453707D01*
X121974Y453026D01*
X121293Y452140D01*
X120866Y451108D01*
X120720Y450000D01*
X120866Y448892D01*
X121293Y447860D01*
X121974Y446974D01*
X122860Y446293D01*
X123892Y445866D01*
X125000Y445720D01*
X126108Y445866D01*
X127140Y446293D01*
X128026Y446974D01*
X128707Y447860D01*
X129134Y448892D01*
X129280Y450000D01*
X129134Y451108D01*
X128707Y452140D01*
X128026Y453026D01*
X127140Y453707D01*
X126108Y454134D01*
X125000Y454280D01*
D02*
G37*
G36*
X115000D02*
X113892Y454134D01*
X112860Y453707D01*
X111974Y453026D01*
X111293Y452140D01*
X110866Y451108D01*
X110720Y450000D01*
X110866Y448892D01*
X111293Y447860D01*
X111974Y446974D01*
X112860Y446293D01*
X113892Y445866D01*
X115000Y445720D01*
X116108Y445866D01*
X117140Y446293D01*
X118026Y446974D01*
X118707Y447860D01*
X119134Y448892D01*
X119280Y450000D01*
X119134Y451108D01*
X118707Y452140D01*
X118026Y453026D01*
X117140Y453707D01*
X116108Y454134D01*
X115000Y454280D01*
D02*
G37*
G36*
X105000D02*
X103892Y454134D01*
X102860Y453707D01*
X101974Y453026D01*
X101294Y452140D01*
X100866Y451108D01*
X100720Y450000D01*
X100866Y448892D01*
X101294Y447860D01*
X101974Y446974D01*
X102860Y446293D01*
X103892Y445866D01*
X105000Y445720D01*
X106108Y445866D01*
X107140Y446293D01*
X108026Y446974D01*
X108706Y447860D01*
X109134Y448892D01*
X109280Y450000D01*
X109134Y451108D01*
X108706Y452140D01*
X108026Y453026D01*
X107140Y453707D01*
X106108Y454134D01*
X105000Y454280D01*
D02*
G37*
G36*
X95000D02*
X93892Y454134D01*
X92860Y453707D01*
X91974Y453026D01*
X91294Y452140D01*
X90866Y451108D01*
X90720Y450000D01*
X90866Y448892D01*
X91294Y447860D01*
X91974Y446974D01*
X92860Y446293D01*
X93892Y445866D01*
X95000Y445720D01*
X96108Y445866D01*
X97140Y446293D01*
X98026Y446974D01*
X98707Y447860D01*
X99134Y448892D01*
X99280Y450000D01*
X99134Y451108D01*
X98707Y452140D01*
X98026Y453026D01*
X97140Y453707D01*
X96108Y454134D01*
X95000Y454280D01*
D02*
G37*
G36*
X85000D02*
X83892Y454134D01*
X82860Y453707D01*
X81974Y453026D01*
X81293Y452140D01*
X80866Y451108D01*
X80720Y450000D01*
X80866Y448892D01*
X81293Y447860D01*
X81974Y446974D01*
X82860Y446293D01*
X83892Y445866D01*
X85000Y445720D01*
X86108Y445866D01*
X87140Y446293D01*
X88026Y446974D01*
X88706Y447860D01*
X89134Y448892D01*
X89280Y450000D01*
X89134Y451108D01*
X88706Y452140D01*
X88026Y453026D01*
X87140Y453707D01*
X86108Y454134D01*
X85000Y454280D01*
D02*
G37*
G36*
X75000D02*
X73892Y454134D01*
X72860Y453707D01*
X71974Y453026D01*
X71293Y452140D01*
X70866Y451108D01*
X70720Y450000D01*
X70866Y448892D01*
X71293Y447860D01*
X71974Y446974D01*
X72860Y446293D01*
X73892Y445866D01*
X75000Y445720D01*
X76108Y445866D01*
X77140Y446293D01*
X78026Y446974D01*
X78707Y447860D01*
X79134Y448892D01*
X79280Y450000D01*
X79134Y451108D01*
X78707Y452140D01*
X78026Y453026D01*
X77140Y453707D01*
X76108Y454134D01*
X75000Y454280D01*
D02*
G37*
G36*
X425000Y474603D02*
X422728Y474424D01*
X420512Y473892D01*
X418406Y473020D01*
X416463Y471829D01*
X414730Y470349D01*
X413250Y468616D01*
X412059Y466673D01*
X411187Y464567D01*
X410654Y462351D01*
X410476Y460079D01*
X410654Y457807D01*
X411187Y455590D01*
X412059Y453485D01*
X413250Y451542D01*
X414730Y449809D01*
X416463Y448328D01*
X418406Y447137D01*
X420512Y446265D01*
X422728Y445733D01*
X425000Y445554D01*
X427272Y445733D01*
X429488Y446265D01*
X431594Y447137D01*
X433537Y448328D01*
X435270Y449809D01*
X436750Y451542D01*
X437941Y453485D01*
X438813Y455590D01*
X439346Y457807D01*
X439524Y460079D01*
X439346Y462351D01*
X438813Y464567D01*
X437941Y466673D01*
X436750Y468616D01*
X435270Y470349D01*
X433537Y471829D01*
X431594Y473020D01*
X429488Y473892D01*
X427272Y474424D01*
X425000Y474603D01*
D02*
G37*
G36*
X245600Y451132D02*
X244634Y451005D01*
X243734Y450632D01*
X242961Y450039D01*
X242368Y449266D01*
X241995Y448366D01*
X241868Y447400D01*
X241995Y446434D01*
X242368Y445534D01*
X242961Y444761D01*
X243734Y444168D01*
X244634Y443795D01*
X245600Y443668D01*
X246566Y443795D01*
X247466Y444168D01*
X248239Y444761D01*
X248832Y445534D01*
X249205Y446434D01*
X249332Y447400D01*
X249205Y448366D01*
X248832Y449266D01*
X248239Y450039D01*
X247466Y450632D01*
X246566Y451005D01*
X245600Y451132D01*
D02*
G37*
G36*
X213795Y449728D02*
X212960Y449618D01*
X212181Y449295D01*
X211513Y448782D01*
X211000Y448114D01*
X210678Y447335D01*
X210568Y446500D01*
X210678Y445665D01*
X211000Y444886D01*
X211513Y444218D01*
X212181Y443705D01*
X212960Y443382D01*
X213795Y443272D01*
X214631Y443382D01*
X215409Y443705D01*
X216077Y444218D01*
X216590Y444886D01*
X216913Y445665D01*
X217023Y446500D01*
X216913Y447335D01*
X216590Y448114D01*
X216077Y448782D01*
X215409Y449295D01*
X214631Y449618D01*
X213795Y449728D01*
D02*
G37*
G36*
X257795Y446228D02*
X256960Y446118D01*
X256182Y445795D01*
X255513Y445282D01*
X255000Y444614D01*
X254678Y443835D01*
X254568Y443000D01*
X254678Y442165D01*
X255000Y441386D01*
X255513Y440718D01*
X256182Y440205D01*
X256960Y439882D01*
X257795Y439772D01*
X258631Y439882D01*
X259409Y440205D01*
X260078Y440718D01*
X260591Y441386D01*
X260913Y442165D01*
X261023Y443000D01*
X260913Y443835D01*
X260591Y444614D01*
X260078Y445282D01*
X259409Y445795D01*
X258631Y446118D01*
X257795Y446228D01*
D02*
G37*
G36*
X199000Y440733D02*
X198337Y440601D01*
X197774Y440226D01*
X197399Y439663D01*
X197267Y439000D01*
X197399Y438337D01*
X197774Y437774D01*
X198337Y437399D01*
X199000Y437267D01*
X199663Y437399D01*
X200226Y437774D01*
X200601Y438337D01*
X200733Y439000D01*
X200601Y439663D01*
X200226Y440226D01*
X199663Y440601D01*
X199000Y440733D01*
D02*
G37*
G36*
X213000Y441691D02*
X212303Y441600D01*
X211654Y441331D01*
X211097Y440903D01*
X210669Y440346D01*
X210400Y439697D01*
X210309Y439000D01*
X210400Y438303D01*
X210669Y437654D01*
X211097Y437097D01*
X211654Y436669D01*
X212303Y436400D01*
X213000Y436308D01*
X213697Y436400D01*
X214346Y436669D01*
X214903Y437097D01*
X215331Y437654D01*
X215600Y438303D01*
X215691Y439000D01*
X215600Y439697D01*
X215331Y440346D01*
X214903Y440903D01*
X214346Y441331D01*
X213697Y441600D01*
X213000Y441691D01*
D02*
G37*
G36*
X145000Y444280D02*
X143892Y444134D01*
X142860Y443707D01*
X141974Y443026D01*
X141294Y442140D01*
X140866Y441108D01*
X140720Y440000D01*
X140866Y438892D01*
X141294Y437860D01*
X141974Y436974D01*
X142860Y436294D01*
X143892Y435866D01*
X145000Y435720D01*
X146108Y435866D01*
X147140Y436294D01*
X148026Y436974D01*
X148706Y437860D01*
X149134Y438892D01*
X149280Y440000D01*
X149134Y441108D01*
X148706Y442140D01*
X148026Y443026D01*
X147140Y443707D01*
X146108Y444134D01*
X145000Y444280D01*
D02*
G37*
G36*
X125000D02*
X123892Y444134D01*
X122860Y443707D01*
X121974Y443026D01*
X121293Y442140D01*
X120866Y441108D01*
X120720Y440000D01*
X120866Y438892D01*
X121293Y437860D01*
X121974Y436974D01*
X122860Y436294D01*
X123892Y435866D01*
X125000Y435720D01*
X126108Y435866D01*
X127140Y436294D01*
X128026Y436974D01*
X128707Y437860D01*
X129134Y438892D01*
X129280Y440000D01*
X129134Y441108D01*
X128707Y442140D01*
X128026Y443026D01*
X127140Y443707D01*
X126108Y444134D01*
X125000Y444280D01*
D02*
G37*
G36*
X105000D02*
X103892Y444134D01*
X102860Y443707D01*
X101974Y443026D01*
X101294Y442140D01*
X100866Y441108D01*
X100720Y440000D01*
X100866Y438892D01*
X101294Y437860D01*
X101974Y436974D01*
X102860Y436294D01*
X103892Y435866D01*
X105000Y435720D01*
X106108Y435866D01*
X107140Y436294D01*
X108026Y436974D01*
X108706Y437860D01*
X109134Y438892D01*
X109280Y440000D01*
X109134Y441108D01*
X108706Y442140D01*
X108026Y443026D01*
X107140Y443707D01*
X106108Y444134D01*
X105000Y444280D01*
D02*
G37*
G36*
X95000D02*
X93892Y444134D01*
X92860Y443707D01*
X91974Y443026D01*
X91294Y442140D01*
X90866Y441108D01*
X90720Y440000D01*
X90866Y438892D01*
X91294Y437860D01*
X91974Y436974D01*
X92860Y436294D01*
X93892Y435866D01*
X95000Y435720D01*
X96108Y435866D01*
X97140Y436294D01*
X98026Y436974D01*
X98707Y437860D01*
X99134Y438892D01*
X99280Y440000D01*
X99134Y441108D01*
X98707Y442140D01*
X98026Y443026D01*
X97140Y443707D01*
X96108Y444134D01*
X95000Y444280D01*
D02*
G37*
G36*
X85000D02*
X83892Y444134D01*
X82860Y443707D01*
X81974Y443026D01*
X81293Y442140D01*
X80866Y441108D01*
X80720Y440000D01*
X80866Y438892D01*
X81293Y437860D01*
X81974Y436974D01*
X82860Y436294D01*
X83892Y435866D01*
X85000Y435720D01*
X86108Y435866D01*
X87140Y436294D01*
X88026Y436974D01*
X88706Y437860D01*
X89134Y438892D01*
X89280Y440000D01*
X89134Y441108D01*
X88706Y442140D01*
X88026Y443026D01*
X87140Y443707D01*
X86108Y444134D01*
X85000Y444280D01*
D02*
G37*
G36*
X265295Y438728D02*
X264460Y438618D01*
X263682Y438295D01*
X263013Y437782D01*
X262500Y437114D01*
X262178Y436335D01*
X262068Y435500D01*
X262178Y434665D01*
X262500Y433886D01*
X263013Y433218D01*
X263682Y432705D01*
X264460Y432382D01*
X265295Y432272D01*
X266131Y432382D01*
X266909Y432705D01*
X267578Y433218D01*
X268091Y433886D01*
X268413Y434665D01*
X268523Y435500D01*
X268413Y436335D01*
X268091Y437114D01*
X267578Y437782D01*
X266909Y438295D01*
X266131Y438618D01*
X265295Y438728D01*
D02*
G37*
G36*
X257795D02*
X256960Y438618D01*
X256182Y438295D01*
X255513Y437782D01*
X255000Y437114D01*
X254678Y436335D01*
X254568Y435500D01*
X254678Y434665D01*
X255000Y433886D01*
X255513Y433218D01*
X256182Y432705D01*
X256960Y432382D01*
X257795Y432272D01*
X258631Y432382D01*
X259409Y432705D01*
X260078Y433218D01*
X260591Y433886D01*
X260913Y434665D01*
X261023Y435500D01*
X260913Y436335D01*
X260591Y437114D01*
X260078Y437782D01*
X259409Y438295D01*
X258631Y438618D01*
X257795Y438728D01*
D02*
G37*
G36*
X197000Y435733D02*
X196337Y435601D01*
X195774Y435226D01*
X195399Y434663D01*
X195267Y434000D01*
X195399Y433337D01*
X195774Y432774D01*
X196337Y432399D01*
X197000Y432267D01*
X197663Y432399D01*
X198226Y432774D01*
X198601Y433337D01*
X198733Y434000D01*
X198601Y434663D01*
X198226Y435226D01*
X197663Y435601D01*
X197000Y435733D01*
D02*
G37*
G36*
X195000Y430733D02*
X194337Y430601D01*
X193774Y430226D01*
X193399Y429663D01*
X193267Y429000D01*
X193399Y428337D01*
X193774Y427774D01*
X194337Y427399D01*
X195000Y427267D01*
X195663Y427399D01*
X196226Y427774D01*
X196601Y428337D01*
X196733Y429000D01*
X196601Y429663D01*
X196226Y430226D01*
X195663Y430601D01*
X195000Y430733D01*
D02*
G37*
G36*
X403701Y437470D02*
X402262Y437281D01*
X400920Y436725D01*
X399769Y435841D01*
X398885Y434690D01*
X398330Y433349D01*
X398140Y431910D01*
X398330Y430470D01*
X398885Y429129D01*
X399769Y427978D01*
X400920Y427094D01*
X402262Y426538D01*
X403701Y426349D01*
X405140Y426538D01*
X406481Y427094D01*
X407633Y427978D01*
X408516Y429129D01*
X409072Y430470D01*
X409261Y431910D01*
X409072Y433349D01*
X408516Y434690D01*
X407633Y435841D01*
X406481Y436725D01*
X405140Y437281D01*
X403701Y437470D01*
D02*
G37*
G36*
X342795Y431228D02*
X341960Y431118D01*
X341181Y430795D01*
X340513Y430282D01*
X340000Y429614D01*
X339678Y428835D01*
X339568Y428000D01*
X339678Y427165D01*
X340000Y426386D01*
X340513Y425718D01*
X341181Y425205D01*
X341960Y424882D01*
X342795Y424772D01*
X343631Y424882D01*
X344409Y425205D01*
X345077Y425718D01*
X345590Y426386D01*
X345913Y427165D01*
X346023Y428000D01*
X345913Y428835D01*
X345590Y429614D01*
X345077Y430282D01*
X344409Y430795D01*
X343631Y431118D01*
X342795Y431228D01*
D02*
G37*
G36*
X435000Y431244D02*
X434031Y431116D01*
X433128Y430742D01*
X432353Y430147D01*
X431758Y429372D01*
X431384Y428469D01*
X431256Y427500D01*
X431384Y426531D01*
X431758Y425628D01*
X432353Y424853D01*
X433128Y424258D01*
X434031Y423884D01*
X435000Y423756D01*
X435969Y423884D01*
X436872Y424258D01*
X437647Y424853D01*
X438242Y425628D01*
X438616Y426531D01*
X438744Y427500D01*
X438616Y428469D01*
X438242Y429372D01*
X437647Y430147D01*
X436872Y430742D01*
X435969Y431116D01*
X435000Y431244D01*
D02*
G37*
G36*
X193000Y425733D02*
X192337Y425601D01*
X191774Y425226D01*
X191399Y424663D01*
X191267Y424000D01*
X191399Y423337D01*
X191774Y422774D01*
X192337Y422399D01*
X193000Y422267D01*
X193663Y422399D01*
X194226Y422774D01*
X194601Y423337D01*
X194733Y424000D01*
X194601Y424663D01*
X194226Y425226D01*
X193663Y425601D01*
X193000Y425733D01*
D02*
G37*
G36*
X191000Y420733D02*
X190337Y420601D01*
X189774Y420226D01*
X189399Y419663D01*
X189267Y419000D01*
X189399Y418337D01*
X189774Y417774D01*
X190337Y417399D01*
X191000Y417267D01*
X191663Y417399D01*
X192226Y417774D01*
X192601Y418337D01*
X192733Y419000D01*
X192601Y419663D01*
X192226Y420226D01*
X191663Y420601D01*
X191000Y420733D01*
D02*
G37*
G36*
X415709Y431049D02*
X414317Y430912D01*
X412979Y430506D01*
X411746Y429847D01*
X410666Y428960D01*
X409779Y427880D01*
X409120Y426647D01*
X408714Y425309D01*
X408577Y423917D01*
X408714Y422526D01*
X409120Y421188D01*
X409779Y419955D01*
X410666Y418874D01*
X411746Y417987D01*
X412979Y417328D01*
X414317Y416922D01*
X415709Y416785D01*
X417100Y416922D01*
X418438Y417328D01*
X419671Y417987D01*
X420752Y418874D01*
X421639Y419955D01*
X422298Y421188D01*
X422704Y422526D01*
X422841Y423917D01*
X422704Y425309D01*
X422298Y426647D01*
X421639Y427880D01*
X420752Y428960D01*
X419671Y429847D01*
X418438Y430506D01*
X417100Y430912D01*
X415709Y431049D01*
D02*
G37*
G36*
X366891Y420318D02*
X366055Y420208D01*
X365277Y419886D01*
X364609Y419373D01*
X364096Y418705D01*
X363773Y417926D01*
X363663Y417091D01*
X363773Y416255D01*
X364096Y415477D01*
X364609Y414809D01*
X365277Y414296D01*
X366055Y413973D01*
X366891Y413863D01*
X367726Y413973D01*
X368505Y414296D01*
X369173Y414809D01*
X369686Y415477D01*
X370008Y416255D01*
X370118Y417091D01*
X370008Y417926D01*
X369686Y418705D01*
X369173Y419373D01*
X368505Y419886D01*
X367726Y420208D01*
X366891Y420318D01*
D02*
G37*
G36*
X189000Y415733D02*
X188337Y415601D01*
X187774Y415226D01*
X187399Y414663D01*
X187267Y414000D01*
X187399Y413337D01*
X187774Y412774D01*
X188337Y412399D01*
X189000Y412267D01*
X189663Y412399D01*
X190226Y412774D01*
X190601Y413337D01*
X190733Y414000D01*
X190601Y414663D01*
X190226Y415226D01*
X189663Y415601D01*
X189000Y415733D01*
D02*
G37*
G36*
X264590Y415033D02*
X263927Y414901D01*
X263364Y414526D01*
X262988Y413963D01*
X262857Y413300D01*
X262988Y412637D01*
X263364Y412074D01*
X263927Y411699D01*
X264590Y411567D01*
X265253Y411699D01*
X265815Y412074D01*
X266191Y412637D01*
X266323Y413300D01*
X266191Y413963D01*
X265815Y414526D01*
X265253Y414901D01*
X264590Y415033D01*
D02*
G37*
G36*
X315200Y419390D02*
X314169Y419255D01*
X313208Y418857D01*
X312383Y418223D01*
X311750Y417398D01*
X311352Y416437D01*
X311216Y415406D01*
X311352Y414375D01*
X311750Y413414D01*
X312383Y412589D01*
X313208Y411956D01*
X314169Y411558D01*
X315200Y411422D01*
X316231Y411558D01*
X317192Y411956D01*
X318017Y412589D01*
X318650Y413414D01*
X319048Y414375D01*
X319184Y415406D01*
X319048Y416437D01*
X318650Y417398D01*
X318017Y418223D01*
X317192Y418857D01*
X316231Y419255D01*
X315200Y419390D01*
D02*
G37*
G36*
X390709Y417379D02*
X389808Y417261D01*
X388968Y416913D01*
X388247Y416360D01*
X387693Y415638D01*
X387346Y414799D01*
X387227Y413898D01*
X387346Y412996D01*
X387693Y412157D01*
X388247Y411436D01*
X388968Y410882D01*
X389808Y410534D01*
X390709Y410416D01*
X391610Y410534D01*
X392449Y410882D01*
X393171Y411436D01*
X393724Y412157D01*
X394072Y412996D01*
X394190Y413898D01*
X394072Y414799D01*
X393724Y415638D01*
X393171Y416360D01*
X392449Y416913D01*
X391610Y417261D01*
X390709Y417379D01*
D02*
G37*
G36*
X300295Y416228D02*
X299460Y416118D01*
X298681Y415795D01*
X298013Y415282D01*
X297500Y414614D01*
X297178Y413835D01*
X297068Y413000D01*
X297178Y412165D01*
X297500Y411386D01*
X298013Y410718D01*
X298681Y410205D01*
X299460Y409882D01*
X300295Y409772D01*
X301131Y409882D01*
X301909Y410205D01*
X302577Y410718D01*
X303091Y411386D01*
X303413Y412165D01*
X303523Y413000D01*
X303413Y413835D01*
X303091Y414614D01*
X302577Y415282D01*
X301909Y415795D01*
X301131Y416118D01*
X300295Y416228D01*
D02*
G37*
G36*
X187000Y410733D02*
X186337Y410601D01*
X185774Y410226D01*
X185399Y409663D01*
X185267Y409000D01*
X185399Y408337D01*
X185774Y407774D01*
X186337Y407399D01*
X187000Y407267D01*
X187663Y407399D01*
X188226Y407774D01*
X188601Y408337D01*
X188733Y409000D01*
X188601Y409663D01*
X188226Y410226D01*
X187663Y410601D01*
X187000Y410733D01*
D02*
G37*
G36*
X380709Y412379D02*
X379807Y412261D01*
X378968Y411913D01*
X378247Y411360D01*
X377693Y410639D01*
X377345Y409799D01*
X377227Y408898D01*
X377345Y407997D01*
X377693Y407157D01*
X378247Y406436D01*
X378968Y405882D01*
X379807Y405535D01*
X380709Y405416D01*
X381610Y405535D01*
X382450Y405882D01*
X383171Y406436D01*
X383724Y407157D01*
X384072Y407997D01*
X384190Y408898D01*
X384072Y409799D01*
X383724Y410639D01*
X383171Y411360D01*
X382450Y411913D01*
X381610Y412261D01*
X380709Y412379D01*
D02*
G37*
G36*
X213000Y405733D02*
X212337Y405601D01*
X211774Y405226D01*
X211399Y404663D01*
X211267Y404000D01*
X211399Y403337D01*
X211774Y402774D01*
X212337Y402399D01*
X213000Y402267D01*
X213663Y402399D01*
X214226Y402774D01*
X214601Y403337D01*
X214733Y404000D01*
X214601Y404663D01*
X214226Y405226D01*
X213663Y405601D01*
X213000Y405733D01*
D02*
G37*
G36*
X269590Y405033D02*
X268927Y404901D01*
X268364Y404526D01*
X267988Y403963D01*
X267857Y403300D01*
X267988Y402637D01*
X268364Y402074D01*
X268927Y401699D01*
X269590Y401567D01*
X270253Y401699D01*
X270815Y402074D01*
X271191Y402637D01*
X271323Y403300D01*
X271191Y403963D01*
X270815Y404526D01*
X270253Y404901D01*
X269590Y405033D01*
D02*
G37*
G36*
X390709Y407379D02*
X389808Y407261D01*
X388968Y406913D01*
X388247Y406360D01*
X387693Y405639D01*
X387346Y404799D01*
X387227Y403898D01*
X387346Y402996D01*
X387693Y402157D01*
X388247Y401436D01*
X388968Y400882D01*
X389808Y400534D01*
X390709Y400416D01*
X391610Y400534D01*
X392449Y400882D01*
X393171Y401436D01*
X393724Y402157D01*
X394072Y402996D01*
X394190Y403898D01*
X394072Y404799D01*
X393724Y405639D01*
X393171Y406360D01*
X392449Y406913D01*
X391610Y407261D01*
X390709Y407379D01*
D02*
G37*
G36*
X213000Y400733D02*
X212337Y400601D01*
X211774Y400226D01*
X211399Y399663D01*
X211267Y399000D01*
X211399Y398337D01*
X211774Y397774D01*
X212337Y397399D01*
X213000Y397267D01*
X213663Y397399D01*
X214226Y397774D01*
X214601Y398337D01*
X214733Y399000D01*
X214601Y399663D01*
X214226Y400226D01*
X213663Y400601D01*
X213000Y400733D01*
D02*
G37*
G36*
X269590Y400033D02*
X268927Y399901D01*
X268364Y399526D01*
X267988Y398963D01*
X267857Y398300D01*
X267988Y397637D01*
X268364Y397074D01*
X268927Y396699D01*
X269590Y396567D01*
X270253Y396699D01*
X270815Y397074D01*
X271191Y397637D01*
X271323Y398300D01*
X271191Y398963D01*
X270815Y399526D01*
X270253Y399901D01*
X269590Y400033D01*
D02*
G37*
G36*
X145000Y404280D02*
X143892Y404134D01*
X142860Y403707D01*
X141974Y403026D01*
X141294Y402140D01*
X140866Y401108D01*
X140720Y400000D01*
X140866Y398892D01*
X141294Y397860D01*
X141974Y396974D01*
X142860Y396293D01*
X143892Y395866D01*
X145000Y395720D01*
X146108Y395866D01*
X147140Y396293D01*
X148026Y396974D01*
X148706Y397860D01*
X149134Y398892D01*
X149280Y400000D01*
X149134Y401108D01*
X148706Y402140D01*
X148026Y403026D01*
X147140Y403707D01*
X146108Y404134D01*
X145000Y404280D01*
D02*
G37*
G36*
X135000D02*
X133892Y404134D01*
X132860Y403707D01*
X131974Y403026D01*
X131293Y402140D01*
X130866Y401108D01*
X130720Y400000D01*
X130866Y398892D01*
X131293Y397860D01*
X131974Y396974D01*
X132860Y396293D01*
X133892Y395866D01*
X135000Y395720D01*
X136108Y395866D01*
X137140Y396293D01*
X138026Y396974D01*
X138707Y397860D01*
X139134Y398892D01*
X139280Y400000D01*
X139134Y401108D01*
X138707Y402140D01*
X138026Y403026D01*
X137140Y403707D01*
X136108Y404134D01*
X135000Y404280D01*
D02*
G37*
G36*
X125000D02*
X123892Y404134D01*
X122860Y403707D01*
X121974Y403026D01*
X121293Y402140D01*
X120866Y401108D01*
X120720Y400000D01*
X120866Y398892D01*
X121293Y397860D01*
X121974Y396974D01*
X122860Y396293D01*
X123892Y395866D01*
X125000Y395720D01*
X126108Y395866D01*
X127140Y396293D01*
X128026Y396974D01*
X128707Y397860D01*
X129134Y398892D01*
X129280Y400000D01*
X129134Y401108D01*
X128707Y402140D01*
X128026Y403026D01*
X127140Y403707D01*
X126108Y404134D01*
X125000Y404280D01*
D02*
G37*
G36*
X115000D02*
X113892Y404134D01*
X112860Y403707D01*
X111974Y403026D01*
X111293Y402140D01*
X110866Y401108D01*
X110720Y400000D01*
X110866Y398892D01*
X111293Y397860D01*
X111974Y396974D01*
X112860Y396293D01*
X113892Y395866D01*
X115000Y395720D01*
X116108Y395866D01*
X117140Y396293D01*
X118026Y396974D01*
X118707Y397860D01*
X119134Y398892D01*
X119280Y400000D01*
X119134Y401108D01*
X118707Y402140D01*
X118026Y403026D01*
X117140Y403707D01*
X116108Y404134D01*
X115000Y404280D01*
D02*
G37*
G36*
X105000D02*
X103892Y404134D01*
X102860Y403707D01*
X101974Y403026D01*
X101294Y402140D01*
X100866Y401108D01*
X100720Y400000D01*
X100866Y398892D01*
X101294Y397860D01*
X101974Y396974D01*
X102860Y396293D01*
X103892Y395866D01*
X105000Y395720D01*
X106108Y395866D01*
X107140Y396293D01*
X108026Y396974D01*
X108706Y397860D01*
X109134Y398892D01*
X109280Y400000D01*
X109134Y401108D01*
X108706Y402140D01*
X108026Y403026D01*
X107140Y403707D01*
X106108Y404134D01*
X105000Y404280D01*
D02*
G37*
G36*
X95000D02*
X93892Y404134D01*
X92860Y403707D01*
X91974Y403026D01*
X91294Y402140D01*
X90866Y401108D01*
X90720Y400000D01*
X90866Y398892D01*
X91294Y397860D01*
X91974Y396974D01*
X92860Y396293D01*
X93892Y395866D01*
X95000Y395720D01*
X96108Y395866D01*
X97140Y396293D01*
X98026Y396974D01*
X98707Y397860D01*
X99134Y398892D01*
X99280Y400000D01*
X99134Y401108D01*
X98707Y402140D01*
X98026Y403026D01*
X97140Y403707D01*
X96108Y404134D01*
X95000Y404280D01*
D02*
G37*
G36*
X85000D02*
X83892Y404134D01*
X82860Y403707D01*
X81974Y403026D01*
X81293Y402140D01*
X80866Y401108D01*
X80720Y400000D01*
X80866Y398892D01*
X81293Y397860D01*
X81974Y396974D01*
X82860Y396293D01*
X83892Y395866D01*
X85000Y395720D01*
X86108Y395866D01*
X87140Y396293D01*
X88026Y396974D01*
X88706Y397860D01*
X89134Y398892D01*
X89280Y400000D01*
X89134Y401108D01*
X88706Y402140D01*
X88026Y403026D01*
X87140Y403707D01*
X86108Y404134D01*
X85000Y404280D01*
D02*
G37*
G36*
X75000D02*
X73892Y404134D01*
X72860Y403707D01*
X71974Y403026D01*
X71293Y402140D01*
X70866Y401108D01*
X70720Y400000D01*
X70866Y398892D01*
X71293Y397860D01*
X71974Y396974D01*
X72860Y396293D01*
X73892Y395866D01*
X75000Y395720D01*
X76108Y395866D01*
X77140Y396293D01*
X78026Y396974D01*
X78707Y397860D01*
X79134Y398892D01*
X79280Y400000D01*
X79134Y401108D01*
X78707Y402140D01*
X78026Y403026D01*
X77140Y403707D01*
X76108Y404134D01*
X75000Y404280D01*
D02*
G37*
G36*
X380709Y402379D02*
X379807Y402261D01*
X378968Y401913D01*
X378247Y401360D01*
X377693Y400638D01*
X377345Y399799D01*
X377227Y398898D01*
X377345Y397996D01*
X377693Y397157D01*
X378247Y396436D01*
X378968Y395882D01*
X379807Y395534D01*
X380709Y395416D01*
X381610Y395534D01*
X382450Y395882D01*
X383171Y396436D01*
X383724Y397157D01*
X384072Y397996D01*
X384190Y398898D01*
X384072Y399799D01*
X383724Y400638D01*
X383171Y401360D01*
X382450Y401913D01*
X381610Y402261D01*
X380709Y402379D01*
D02*
G37*
G36*
X319150Y400144D02*
X311250D01*
Y392244D01*
X319150D01*
Y400144D01*
D02*
G37*
G36*
X267090Y395033D02*
X266426Y394901D01*
X265864Y394526D01*
X265488Y393963D01*
X265356Y393300D01*
X265488Y392637D01*
X265864Y392074D01*
X266426Y391699D01*
X267090Y391567D01*
X267753Y391699D01*
X268315Y392074D01*
X268691Y392637D01*
X268823Y393300D01*
X268691Y393963D01*
X268315Y394526D01*
X267753Y394901D01*
X267090Y395033D01*
D02*
G37*
G36*
X390709Y397379D02*
X389808Y397261D01*
X388968Y396913D01*
X388247Y396360D01*
X387693Y395638D01*
X387346Y394799D01*
X387227Y393898D01*
X387346Y392997D01*
X387693Y392157D01*
X388247Y391436D01*
X388968Y390882D01*
X389808Y390534D01*
X390709Y390416D01*
X391610Y390534D01*
X392449Y390882D01*
X393171Y391436D01*
X393724Y392157D01*
X394072Y392997D01*
X394190Y393898D01*
X394072Y394799D01*
X393724Y395638D01*
X393171Y396360D01*
X392449Y396913D01*
X391610Y397261D01*
X390709Y397379D01*
D02*
G37*
G36*
X342795Y396228D02*
X341960Y396118D01*
X341181Y395795D01*
X340513Y395282D01*
X340000Y394614D01*
X339678Y393835D01*
X339568Y393000D01*
X339678Y392165D01*
X340000Y391386D01*
X340513Y390718D01*
X341181Y390205D01*
X341960Y389882D01*
X342795Y389772D01*
X343631Y389882D01*
X344409Y390205D01*
X345077Y390718D01*
X345590Y391386D01*
X345913Y392165D01*
X346023Y393000D01*
X345913Y393835D01*
X345590Y394614D01*
X345077Y395282D01*
X344409Y395795D01*
X343631Y396118D01*
X342795Y396228D01*
D02*
G37*
G36*
X213795Y395528D02*
X212960Y395418D01*
X212181Y395096D01*
X211513Y394583D01*
X211000Y393914D01*
X210678Y393136D01*
X210568Y392301D01*
X210678Y391465D01*
X211000Y390687D01*
X211513Y390018D01*
X212181Y389505D01*
X212960Y389183D01*
X213795Y389073D01*
X214631Y389183D01*
X215409Y389505D01*
X216077Y390018D01*
X216590Y390687D01*
X216913Y391465D01*
X217023Y392301D01*
X216913Y393136D01*
X216590Y393914D01*
X216077Y394583D01*
X215409Y395096D01*
X214631Y395418D01*
X213795Y395528D01*
D02*
G37*
G36*
X264590Y390033D02*
X263927Y389901D01*
X263364Y389526D01*
X262988Y388963D01*
X262857Y388300D01*
X262988Y387637D01*
X263364Y387074D01*
X263927Y386699D01*
X264590Y386567D01*
X265253Y386699D01*
X265815Y387074D01*
X266191Y387637D01*
X266323Y388300D01*
X266191Y388963D01*
X265815Y389526D01*
X265253Y389901D01*
X264590Y390033D01*
D02*
G37*
G36*
X145000Y394280D02*
X143892Y394134D01*
X142860Y393706D01*
X141974Y393026D01*
X141294Y392140D01*
X140866Y391108D01*
X140720Y390000D01*
X140866Y388892D01*
X141294Y387860D01*
X141974Y386974D01*
X142860Y386294D01*
X143892Y385866D01*
X145000Y385720D01*
X146108Y385866D01*
X147140Y386294D01*
X148026Y386974D01*
X148706Y387860D01*
X149134Y388892D01*
X149280Y390000D01*
X149134Y391108D01*
X148706Y392140D01*
X148026Y393026D01*
X147140Y393706D01*
X146108Y394134D01*
X145000Y394280D01*
D02*
G37*
G36*
X125000D02*
X123892Y394134D01*
X122860Y393706D01*
X121974Y393026D01*
X121293Y392140D01*
X120866Y391108D01*
X120720Y390000D01*
X120866Y388892D01*
X121293Y387860D01*
X121974Y386974D01*
X122860Y386294D01*
X123892Y385866D01*
X125000Y385720D01*
X126108Y385866D01*
X127140Y386294D01*
X128026Y386974D01*
X128707Y387860D01*
X129134Y388892D01*
X129280Y390000D01*
X129134Y391108D01*
X128707Y392140D01*
X128026Y393026D01*
X127140Y393706D01*
X126108Y394134D01*
X125000Y394280D01*
D02*
G37*
G36*
X105000D02*
X103892Y394134D01*
X102860Y393706D01*
X101974Y393026D01*
X101294Y392140D01*
X100866Y391108D01*
X100720Y390000D01*
X100866Y388892D01*
X101294Y387860D01*
X101974Y386974D01*
X102860Y386294D01*
X103892Y385866D01*
X105000Y385720D01*
X106108Y385866D01*
X107140Y386294D01*
X108026Y386974D01*
X108706Y387860D01*
X109134Y388892D01*
X109280Y390000D01*
X109134Y391108D01*
X108706Y392140D01*
X108026Y393026D01*
X107140Y393706D01*
X106108Y394134D01*
X105000Y394280D01*
D02*
G37*
G36*
X95000D02*
X93892Y394134D01*
X92860Y393706D01*
X91974Y393026D01*
X91294Y392140D01*
X90866Y391108D01*
X90720Y390000D01*
X90866Y388892D01*
X91294Y387860D01*
X91974Y386974D01*
X92860Y386294D01*
X93892Y385866D01*
X95000Y385720D01*
X96108Y385866D01*
X97140Y386294D01*
X98026Y386974D01*
X98707Y387860D01*
X99134Y388892D01*
X99280Y390000D01*
X99134Y391108D01*
X98707Y392140D01*
X98026Y393026D01*
X97140Y393706D01*
X96108Y394134D01*
X95000Y394280D01*
D02*
G37*
G36*
X85000D02*
X83892Y394134D01*
X82860Y393706D01*
X81974Y393026D01*
X81293Y392140D01*
X80866Y391108D01*
X80720Y390000D01*
X80866Y388892D01*
X81293Y387860D01*
X81974Y386974D01*
X82860Y386294D01*
X83892Y385866D01*
X85000Y385720D01*
X86108Y385866D01*
X87140Y386294D01*
X88026Y386974D01*
X88706Y387860D01*
X89134Y388892D01*
X89280Y390000D01*
X89134Y391108D01*
X88706Y392140D01*
X88026Y393026D01*
X87140Y393706D01*
X86108Y394134D01*
X85000Y394280D01*
D02*
G37*
G36*
X300000Y389488D02*
X299239Y389337D01*
X298594Y388906D01*
X298163Y388261D01*
X298012Y387500D01*
X298163Y386739D01*
X298594Y386094D01*
X299239Y385663D01*
X300000Y385512D01*
X300761Y385663D01*
X301406Y386094D01*
X301837Y386739D01*
X301988Y387500D01*
X301837Y388261D01*
X301406Y388906D01*
X300761Y389337D01*
X300000Y389488D01*
D02*
G37*
G36*
X380709Y392379D02*
X379807Y392261D01*
X378968Y391913D01*
X378247Y391360D01*
X377693Y390638D01*
X377345Y389799D01*
X377227Y388898D01*
X377345Y387997D01*
X377693Y387157D01*
X378247Y386436D01*
X378968Y385882D01*
X379807Y385535D01*
X380709Y385416D01*
X381610Y385535D01*
X382450Y385882D01*
X383171Y386436D01*
X383724Y387157D01*
X384072Y387997D01*
X384190Y388898D01*
X384072Y389799D01*
X383724Y390638D01*
X383171Y391360D01*
X382450Y391913D01*
X381610Y392261D01*
X380709Y392379D01*
D02*
G37*
G36*
X191295Y405228D02*
X190460Y405118D01*
X189681Y404795D01*
X189013Y404282D01*
X188500Y403614D01*
X188178Y402835D01*
X188068Y402000D01*
X188178Y401165D01*
X188500Y400386D01*
X189013Y399718D01*
X189681Y399205D01*
X190076Y399041D01*
Y397959D01*
X189681Y397795D01*
X189013Y397282D01*
X188500Y396614D01*
X188178Y395835D01*
X188068Y395000D01*
X188178Y394165D01*
X188500Y393386D01*
X189013Y392718D01*
X189681Y392205D01*
X190076Y392041D01*
Y390959D01*
X189681Y390795D01*
X189013Y390282D01*
X188500Y389614D01*
X188178Y388835D01*
X188068Y388000D01*
X188178Y387165D01*
X188500Y386386D01*
X189013Y385718D01*
X189681Y385205D01*
X190460Y384882D01*
X191295Y384772D01*
X192131Y384882D01*
X192909Y385205D01*
X193578Y385718D01*
X194090Y386386D01*
X194413Y387165D01*
X194523Y388000D01*
X194413Y388835D01*
X194090Y389614D01*
X193578Y390282D01*
X192909Y390795D01*
X192514Y390959D01*
Y392041D01*
X192909Y392205D01*
X193578Y392718D01*
X194090Y393386D01*
X194413Y394165D01*
X194523Y395000D01*
X194413Y395835D01*
X194090Y396614D01*
X193578Y397282D01*
X192909Y397795D01*
X192514Y397959D01*
Y399041D01*
X192909Y399205D01*
X193578Y399718D01*
X194090Y400386D01*
X194413Y401165D01*
X194523Y402000D01*
X194413Y402835D01*
X194090Y403614D01*
X193578Y404282D01*
X192909Y404795D01*
X192131Y405118D01*
X191295Y405228D01*
D02*
G37*
G36*
X199000Y387733D02*
X198337Y387601D01*
X197774Y387226D01*
X197399Y386663D01*
X197267Y386000D01*
X197399Y385337D01*
X197774Y384774D01*
X198337Y384399D01*
X199000Y384267D01*
X199663Y384399D01*
X200226Y384774D01*
X200601Y385337D01*
X200733Y386000D01*
X200601Y386663D01*
X200226Y387226D01*
X199663Y387601D01*
X199000Y387733D01*
D02*
G37*
G36*
X279787Y389559D02*
X278951Y389449D01*
X278173Y389127D01*
X277504Y388614D01*
X276991Y387945D01*
X276669Y387167D01*
X276559Y386332D01*
X276669Y385496D01*
X276991Y384718D01*
X277504Y384049D01*
X278173Y383536D01*
X278951Y383214D01*
X279787Y383104D01*
X280622Y383214D01*
X281400Y383536D01*
X282069Y384049D01*
X282582Y384718D01*
X282904Y385496D01*
X283014Y386332D01*
X282904Y387167D01*
X282582Y387945D01*
X282069Y388614D01*
X281400Y389127D01*
X280622Y389449D01*
X279787Y389559D01*
D02*
G37*
G36*
X394161Y387350D02*
X387257D01*
Y380446D01*
X394161D01*
Y387350D01*
D02*
G37*
G36*
X185000Y382733D02*
X184337Y382601D01*
X183774Y382226D01*
X183399Y381663D01*
X183267Y381000D01*
X183399Y380337D01*
X183774Y379774D01*
X184337Y379399D01*
X185000Y379267D01*
X185663Y379399D01*
X186226Y379774D01*
X186601Y380337D01*
X186733Y381000D01*
X186601Y381663D01*
X186226Y382226D01*
X185663Y382601D01*
X185000Y382733D01*
D02*
G37*
G36*
X215295Y381228D02*
X214460Y381118D01*
X213682Y380795D01*
X213013Y380282D01*
X212500Y379614D01*
X212178Y378835D01*
X212068Y378000D01*
X212178Y377165D01*
X212500Y376386D01*
X213013Y375718D01*
X213682Y375205D01*
X214460Y374882D01*
X215295Y374772D01*
X216131Y374882D01*
X216909Y375205D01*
X217578Y375718D01*
X218091Y376386D01*
X218413Y377165D01*
X218523Y378000D01*
X218413Y378835D01*
X218091Y379614D01*
X217578Y380282D01*
X216909Y380795D01*
X216131Y381118D01*
X215295Y381228D01*
D02*
G37*
G36*
X183000Y377733D02*
X182337Y377601D01*
X181774Y377226D01*
X181399Y376663D01*
X181267Y376000D01*
X181399Y375337D01*
X181774Y374774D01*
X182337Y374399D01*
X183000Y374267D01*
X183663Y374399D01*
X184226Y374774D01*
X184601Y375337D01*
X184733Y376000D01*
X184601Y376663D01*
X184226Y377226D01*
X183663Y377601D01*
X183000Y377733D01*
D02*
G37*
G36*
X415709Y386049D02*
X414317Y385912D01*
X412979Y385506D01*
X411746Y384847D01*
X410666Y383960D01*
X409779Y382880D01*
X409120Y381647D01*
X408714Y380309D01*
X408577Y378917D01*
X408714Y377526D01*
X409120Y376188D01*
X409779Y374955D01*
X410666Y373874D01*
X411746Y372987D01*
X412979Y372328D01*
X414317Y371922D01*
X415709Y371785D01*
X417100Y371922D01*
X418438Y372328D01*
X419671Y372987D01*
X420752Y373874D01*
X421639Y374955D01*
X422298Y376188D01*
X422704Y377526D01*
X422841Y378917D01*
X422704Y380309D01*
X422298Y381647D01*
X421639Y382880D01*
X420752Y383960D01*
X419671Y384847D01*
X418438Y385506D01*
X417100Y385912D01*
X415709Y386049D01*
D02*
G37*
G36*
X435000Y379079D02*
X434031Y378951D01*
X433128Y378577D01*
X432353Y377982D01*
X431758Y377207D01*
X431384Y376304D01*
X431256Y375335D01*
X431384Y374366D01*
X431758Y373463D01*
X432353Y372687D01*
X433128Y372092D01*
X434031Y371718D01*
X435000Y371591D01*
X435969Y371718D01*
X436872Y372092D01*
X437647Y372687D01*
X438242Y373463D01*
X438616Y374366D01*
X438744Y375335D01*
X438616Y376304D01*
X438242Y377207D01*
X437647Y377982D01*
X436872Y378577D01*
X435969Y378951D01*
X435000Y379079D01*
D02*
G37*
G36*
X267090Y375033D02*
X266426Y374901D01*
X265864Y374526D01*
X265488Y373963D01*
X265356Y373300D01*
X265488Y372637D01*
X265864Y372074D01*
X266426Y371699D01*
X267090Y371567D01*
X267753Y371699D01*
X268315Y372074D01*
X268691Y372637D01*
X268823Y373300D01*
X268691Y373963D01*
X268315Y374526D01*
X267753Y374901D01*
X267090Y375033D01*
D02*
G37*
G36*
X299590Y375033D02*
X298926Y374901D01*
X298364Y374526D01*
X297988Y373963D01*
X297856Y373300D01*
X297988Y372637D01*
X298364Y372074D01*
X298926Y371699D01*
X299590Y371567D01*
X300253Y371699D01*
X300815Y372074D01*
X301191Y372637D01*
X301323Y373300D01*
X301191Y373963D01*
X300815Y374526D01*
X300253Y374901D01*
X299590Y375033D01*
D02*
G37*
G36*
X181000Y372733D02*
X180337Y372601D01*
X179774Y372226D01*
X179399Y371663D01*
X179267Y371000D01*
X179399Y370337D01*
X179774Y369774D01*
X180337Y369399D01*
X181000Y369267D01*
X181663Y369399D01*
X182226Y369774D01*
X182601Y370337D01*
X182733Y371000D01*
X182601Y371663D01*
X182226Y372226D01*
X181663Y372601D01*
X181000Y372733D01*
D02*
G37*
G36*
X282090Y370033D02*
X281427Y369901D01*
X280864Y369526D01*
X280488Y368963D01*
X280357Y368300D01*
X280488Y367637D01*
X280864Y367074D01*
X281427Y366699D01*
X282090Y366567D01*
X282753Y366699D01*
X283315Y367074D01*
X283691Y367637D01*
X283823Y368300D01*
X283691Y368963D01*
X283315Y369526D01*
X282753Y369901D01*
X282090Y370033D01*
D02*
G37*
G36*
X267090D02*
X266426Y369901D01*
X265864Y369526D01*
X265488Y368963D01*
X265356Y368300D01*
X265488Y367637D01*
X265864Y367074D01*
X266426Y366699D01*
X267090Y366567D01*
X267753Y366699D01*
X268315Y367074D01*
X268691Y367637D01*
X268823Y368300D01*
X268691Y368963D01*
X268315Y369526D01*
X267753Y369901D01*
X267090Y370033D01*
D02*
G37*
G36*
X403701Y376486D02*
X402262Y376296D01*
X400920Y375741D01*
X399769Y374857D01*
X398885Y373706D01*
X398330Y372364D01*
X398140Y370925D01*
X398330Y369486D01*
X398885Y368145D01*
X399769Y366993D01*
X400920Y366110D01*
X402262Y365554D01*
X403701Y365365D01*
X405140Y365554D01*
X406481Y366110D01*
X407633Y366993D01*
X408516Y368145D01*
X409072Y369486D01*
X409261Y370925D01*
X409072Y372364D01*
X408516Y373706D01*
X407633Y374857D01*
X406481Y375741D01*
X405140Y376296D01*
X403701Y376486D01*
D02*
G37*
G36*
X179000Y367733D02*
X178337Y367601D01*
X177774Y367226D01*
X177399Y366663D01*
X177267Y366000D01*
X177399Y365337D01*
X177774Y364774D01*
X178337Y364399D01*
X179000Y364267D01*
X179663Y364399D01*
X180226Y364774D01*
X180601Y365337D01*
X180733Y366000D01*
X180601Y366663D01*
X180226Y367226D01*
X179663Y367601D01*
X179000Y367733D01*
D02*
G37*
G36*
X132795Y368728D02*
X131960Y368618D01*
X131182Y368295D01*
X130513Y367782D01*
X130000Y367114D01*
X129678Y366335D01*
X129568Y365500D01*
X129678Y364665D01*
X130000Y363886D01*
X130513Y363218D01*
X131182Y362705D01*
X131960Y362382D01*
X132795Y362272D01*
X133631Y362382D01*
X134409Y362705D01*
X135078Y363218D01*
X135591Y363886D01*
X135913Y364665D01*
X136023Y365500D01*
X135913Y366335D01*
X135591Y367114D01*
X135078Y367782D01*
X134409Y368295D01*
X133631Y368618D01*
X132795Y368728D01*
D02*
G37*
G36*
X107795D02*
X106960Y368618D01*
X106182Y368295D01*
X105513Y367782D01*
X105000Y367114D01*
X104678Y366335D01*
X104568Y365500D01*
X104678Y364665D01*
X105000Y363886D01*
X105513Y363218D01*
X106182Y362705D01*
X106960Y362382D01*
X107795Y362272D01*
X108631Y362382D01*
X109409Y362705D01*
X110078Y363218D01*
X110591Y363886D01*
X110913Y364665D01*
X111023Y365500D01*
X110913Y366335D01*
X110591Y367114D01*
X110078Y367782D01*
X109409Y368295D01*
X108631Y368618D01*
X107795Y368728D01*
D02*
G37*
G36*
X177000Y362733D02*
X176337Y362601D01*
X175774Y362226D01*
X175399Y361663D01*
X175267Y361000D01*
X175399Y360337D01*
X175774Y359774D01*
X176337Y359399D01*
X177000Y359267D01*
X177663Y359399D01*
X178226Y359774D01*
X178601Y360337D01*
X178733Y361000D01*
X178601Y361663D01*
X178226Y362226D01*
X177663Y362601D01*
X177000Y362733D01*
D02*
G37*
G36*
X389295Y364228D02*
X388460Y364118D01*
X387682Y363795D01*
X387013Y363282D01*
X386500Y362614D01*
X386178Y361835D01*
X386068Y361000D01*
X386178Y360165D01*
X386500Y359386D01*
X387013Y358718D01*
X387682Y358205D01*
X388460Y357882D01*
X389295Y357772D01*
X390131Y357882D01*
X390909Y358205D01*
X391578Y358718D01*
X392091Y359386D01*
X392413Y360165D01*
X392523Y361000D01*
X392413Y361835D01*
X392091Y362614D01*
X391578Y363282D01*
X390909Y363795D01*
X390131Y364118D01*
X389295Y364228D01*
D02*
G37*
G36*
X381795D02*
X380960Y364118D01*
X380182Y363795D01*
X379513Y363282D01*
X379000Y362614D01*
X378678Y361835D01*
X378568Y361000D01*
X378678Y360165D01*
X379000Y359386D01*
X379513Y358718D01*
X380182Y358205D01*
X380960Y357882D01*
X381795Y357772D01*
X382631Y357882D01*
X383409Y358205D01*
X384078Y358718D01*
X384591Y359386D01*
X384913Y360165D01*
X385023Y361000D01*
X384913Y361835D01*
X384591Y362614D01*
X384078Y363282D01*
X383409Y363795D01*
X382631Y364118D01*
X381795Y364228D01*
D02*
G37*
G36*
X237205Y359782D02*
X236249Y359591D01*
X235438Y359050D01*
X234897Y358239D01*
X234707Y357283D01*
X234897Y356328D01*
X235438Y355517D01*
X236249Y354976D01*
X237205Y354785D01*
X238161Y354976D01*
X238971Y355517D01*
X239513Y356328D01*
X239703Y357283D01*
X239513Y358239D01*
X238971Y359050D01*
X238161Y359591D01*
X237205Y359782D01*
D02*
G37*
G36*
X297795Y361228D02*
X296960Y361118D01*
X296182Y360795D01*
X295513Y360282D01*
X295000Y359614D01*
X294678Y358835D01*
X294568Y358000D01*
X294678Y357165D01*
X295000Y356386D01*
X295513Y355718D01*
X296182Y355205D01*
X296960Y354882D01*
X297795Y354772D01*
X298631Y354882D01*
X299409Y355205D01*
X300078Y355718D01*
X300590Y356386D01*
X300913Y357165D01*
X301023Y358000D01*
X300913Y358835D01*
X300590Y359614D01*
X300078Y360282D01*
X299409Y360795D01*
X298631Y361118D01*
X297795Y361228D01*
D02*
G37*
G36*
X290295D02*
X289460Y361118D01*
X288682Y360795D01*
X288013Y360282D01*
X287500Y359614D01*
X287178Y358835D01*
X287068Y358000D01*
X287178Y357165D01*
X287500Y356386D01*
X288013Y355718D01*
X288682Y355205D01*
X289460Y354882D01*
X290295Y354772D01*
X291131Y354882D01*
X291909Y355205D01*
X292578Y355718D01*
X293091Y356386D01*
X293413Y357165D01*
X293523Y358000D01*
X293413Y358835D01*
X293091Y359614D01*
X292578Y360282D01*
X291909Y360795D01*
X291131Y361118D01*
X290295Y361228D01*
D02*
G37*
G36*
X132795D02*
X131960Y361118D01*
X131182Y360795D01*
X130513Y360282D01*
X130000Y359614D01*
X129678Y358835D01*
X129568Y358000D01*
X129678Y357165D01*
X130000Y356386D01*
X130513Y355718D01*
X131182Y355205D01*
X131960Y354882D01*
X132795Y354772D01*
X133631Y354882D01*
X134409Y355205D01*
X135078Y355718D01*
X135591Y356386D01*
X135913Y357165D01*
X136023Y358000D01*
X135913Y358835D01*
X135591Y359614D01*
X135078Y360282D01*
X134409Y360795D01*
X133631Y361118D01*
X132795Y361228D01*
D02*
G37*
G36*
X107795D02*
X106960Y361118D01*
X106182Y360795D01*
X105513Y360282D01*
X105000Y359614D01*
X104678Y358835D01*
X104568Y358000D01*
X104678Y357165D01*
X105000Y356386D01*
X105513Y355718D01*
X106182Y355205D01*
X106960Y354882D01*
X107795Y354772D01*
X108631Y354882D01*
X109409Y355205D01*
X110078Y355718D01*
X110591Y356386D01*
X110913Y357165D01*
X111023Y358000D01*
X110913Y358835D01*
X110591Y359614D01*
X110078Y360282D01*
X109409Y360795D01*
X108631Y361118D01*
X107795Y361228D01*
D02*
G37*
G36*
X175000Y357733D02*
X174337Y357601D01*
X173774Y357226D01*
X173399Y356663D01*
X173267Y356000D01*
X173399Y355337D01*
X173774Y354774D01*
X174337Y354399D01*
X175000Y354267D01*
X175663Y354399D01*
X176226Y354774D01*
X176601Y355337D01*
X176733Y356000D01*
X176601Y356663D01*
X176226Y357226D01*
X175663Y357601D01*
X175000Y357733D01*
D02*
G37*
G36*
X389295Y356728D02*
X388460Y356618D01*
X387682Y356295D01*
X387013Y355782D01*
X386500Y355114D01*
X386178Y354335D01*
X386068Y353500D01*
X386178Y352665D01*
X386500Y351886D01*
X387013Y351218D01*
X387682Y350705D01*
X388460Y350382D01*
X389295Y350272D01*
X390131Y350382D01*
X390909Y350705D01*
X391578Y351218D01*
X392091Y351886D01*
X392413Y352665D01*
X392523Y353500D01*
X392413Y354335D01*
X392091Y355114D01*
X391578Y355782D01*
X390909Y356295D01*
X390131Y356618D01*
X389295Y356728D01*
D02*
G37*
G36*
X381795D02*
X380960Y356618D01*
X380182Y356295D01*
X379513Y355782D01*
X379000Y355114D01*
X378678Y354335D01*
X378568Y353500D01*
X378678Y352665D01*
X379000Y351886D01*
X379513Y351218D01*
X380182Y350705D01*
X380960Y350382D01*
X381795Y350272D01*
X382631Y350382D01*
X383409Y350705D01*
X384078Y351218D01*
X384591Y351886D01*
X384913Y352665D01*
X385023Y353500D01*
X384913Y354335D01*
X384591Y355114D01*
X384078Y355782D01*
X383409Y356295D01*
X382631Y356618D01*
X381795Y356728D01*
D02*
G37*
G36*
X310295Y353728D02*
X309460Y353618D01*
X308682Y353295D01*
X308013Y352782D01*
X307500Y352114D01*
X307178Y351335D01*
X307068Y350500D01*
X307178Y349665D01*
X307500Y348886D01*
X308013Y348218D01*
X308682Y347705D01*
X309460Y347382D01*
X310295Y347272D01*
X311131Y347382D01*
X311909Y347705D01*
X312578Y348218D01*
X313090Y348886D01*
X313413Y349665D01*
X313523Y350500D01*
X313413Y351335D01*
X313090Y352114D01*
X312578Y352782D01*
X311909Y353295D01*
X311131Y353618D01*
X310295Y353728D01*
D02*
G37*
G36*
X428890Y354096D02*
X428227Y353964D01*
X427664Y353588D01*
X427288Y353026D01*
X427156Y352362D01*
X427288Y351699D01*
X427664Y351137D01*
X427944Y350949D01*
X427987Y350810D01*
Y349977D01*
X427944Y349838D01*
X427664Y349651D01*
X427288Y349089D01*
X427156Y348425D01*
X427288Y347762D01*
X427664Y347200D01*
X428227Y346824D01*
X428890Y346692D01*
X429553Y346824D01*
X430115Y347200D01*
X430491Y347762D01*
X430623Y348425D01*
X430491Y349089D01*
X430115Y349651D01*
X429835Y349838D01*
X429793Y349977D01*
Y350810D01*
X429835Y350949D01*
X430115Y351137D01*
X430491Y351699D01*
X430623Y352362D01*
X430491Y353026D01*
X430115Y353588D01*
X429553Y353964D01*
X428890Y354096D01*
D02*
G37*
G36*
X317385Y350189D02*
X316550Y350079D01*
X315771Y349757D01*
X315103Y349244D01*
X314590Y348575D01*
X314267Y347797D01*
X314157Y346961D01*
X314267Y346126D01*
X314590Y345348D01*
X315103Y344679D01*
X315771Y344166D01*
X316550Y343844D01*
X317385Y343734D01*
X318220Y343844D01*
X318999Y344166D01*
X319667Y344679D01*
X320180Y345348D01*
X320503Y346126D01*
X320613Y346961D01*
X320503Y347797D01*
X320180Y348575D01*
X319667Y349244D01*
X318999Y349757D01*
X318220Y350079D01*
X317385Y350189D01*
D02*
G37*
G36*
X354331Y368855D02*
X352059Y368676D01*
X349843Y368144D01*
X347737Y367272D01*
X345794Y366081D01*
X344060Y364601D01*
X342580Y362868D01*
X341389Y360925D01*
X340517Y358819D01*
X339985Y356603D01*
X339806Y354331D01*
X339985Y352059D01*
X340517Y349843D01*
X341389Y347737D01*
X342580Y345794D01*
X344060Y344060D01*
X345794Y342580D01*
X347737Y341389D01*
X349843Y340517D01*
X352059Y339985D01*
X354331Y339806D01*
X356603Y339985D01*
X358819Y340517D01*
X360925Y341389D01*
X362868Y342580D01*
X364601Y344060D01*
X366081Y345794D01*
X367272Y347737D01*
X368144Y349843D01*
X368676Y352059D01*
X368855Y354331D01*
X368676Y356603D01*
X368144Y358819D01*
X367272Y360925D01*
X366081Y362868D01*
X364601Y364601D01*
X362868Y366081D01*
X360925Y367272D01*
X358819Y368144D01*
X356603Y368676D01*
X354331Y368855D01*
D02*
G37*
G36*
X86614D02*
X84342Y368676D01*
X82126Y368144D01*
X80020Y367272D01*
X78077Y366081D01*
X76344Y364601D01*
X74864Y362868D01*
X73673Y360925D01*
X72801Y358819D01*
X72269Y356603D01*
X72090Y354331D01*
X72269Y352059D01*
X72801Y349843D01*
X73673Y347737D01*
X74864Y345794D01*
X76344Y344060D01*
X78077Y342580D01*
X80020Y341389D01*
X82126Y340517D01*
X84342Y339985D01*
X86614Y339806D01*
X88886Y339985D01*
X91102Y340517D01*
X93208Y341389D01*
X95151Y342580D01*
X96884Y344060D01*
X98365Y345794D01*
X99555Y347737D01*
X100428Y349843D01*
X100960Y352059D01*
X101138Y354331D01*
X100960Y356603D01*
X100428Y358819D01*
X99555Y360925D01*
X98365Y362868D01*
X96884Y364601D01*
X95151Y366081D01*
X93208Y367272D01*
X91102Y368144D01*
X88886Y368676D01*
X86614Y368855D01*
D02*
G37*
G36*
X310295Y346228D02*
X309460Y346118D01*
X308682Y345795D01*
X308013Y345282D01*
X307500Y344614D01*
X307178Y343835D01*
X307068Y343000D01*
X307178Y342165D01*
X307500Y341386D01*
X308013Y340718D01*
X308682Y340205D01*
X309460Y339882D01*
X310295Y339772D01*
X311131Y339882D01*
X311909Y340205D01*
X312578Y340718D01*
X313090Y341386D01*
X313413Y342165D01*
X313523Y343000D01*
X313413Y343835D01*
X313090Y344614D01*
X312578Y345282D01*
X311909Y345795D01*
X311131Y346118D01*
X310295Y346228D01*
D02*
G37*
G36*
X400295Y342284D02*
X399632Y342153D01*
X399070Y341777D01*
X398694Y341214D01*
X398562Y340551D01*
X398694Y339888D01*
X399070Y339326D01*
X399632Y338950D01*
X400295Y338818D01*
X400959Y338950D01*
X401521Y339326D01*
X401897Y339888D01*
X402029Y340551D01*
X401897Y341214D01*
X401521Y341777D01*
X400959Y342153D01*
X400295Y342284D01*
D02*
G37*
G36*
X135295Y349191D02*
X134599Y349100D01*
X133949Y348831D01*
X133392Y348403D01*
X132964Y347846D01*
X132695Y347197D01*
X132604Y346500D01*
X132695Y345803D01*
X132964Y345154D01*
X133392Y344597D01*
Y343403D01*
X132964Y342846D01*
X132695Y342197D01*
X132604Y341500D01*
X132695Y340803D01*
X132964Y340154D01*
X133392Y339597D01*
Y338403D01*
X132964Y337846D01*
X132695Y337197D01*
X132604Y336500D01*
X132695Y335803D01*
X132964Y335154D01*
X133392Y334597D01*
X133949Y334169D01*
X134599Y333900D01*
X135295Y333808D01*
X135992Y333900D01*
X136641Y334169D01*
X137198Y334597D01*
X137626Y335154D01*
X137895Y335803D01*
X137987Y336500D01*
X137895Y337197D01*
X137626Y337846D01*
X137198Y338403D01*
Y339597D01*
X137626Y340154D01*
X137895Y340803D01*
X137987Y341500D01*
X137895Y342197D01*
X137626Y342846D01*
X137198Y343403D01*
Y344597D01*
X137626Y345154D01*
X137895Y345803D01*
X137987Y346500D01*
X137895Y347197D01*
X137626Y347846D01*
X137198Y348403D01*
X136641Y348831D01*
X135992Y349100D01*
X135295Y349191D01*
D02*
G37*
%LPD*%
D69*
X135000Y390000D02*
D03*
X115000D02*
D03*
X75000D02*
D03*
Y490000D02*
D03*
X115000D02*
D03*
X135000D02*
D03*
Y540000D02*
D03*
X115000D02*
D03*
X75000D02*
D03*
X135000Y440000D02*
D03*
X115000D02*
D03*
X75000D02*
D03*
D72*
X435000Y417500D02*
D03*
Y385335D02*
D03*
D73*
X380709Y418898D02*
D03*
D75*
X425000Y546693D02*
D03*
D78*
X245600Y437400D02*
D03*
D79*
X297100Y471900D02*
D03*
X305900Y476900D02*
D03*
X309000Y500300D02*
D03*
X290354Y512795D02*
D03*
X265905Y581968D02*
D03*
X255906D02*
D03*
X285433Y512795D02*
D03*
Y507874D02*
D03*
X290354D02*
D03*
Y502953D02*
D03*
X285433D02*
D03*
X280512D02*
D03*
X275590D02*
D03*
X270669D02*
D03*
X265748D02*
D03*
X260827D02*
D03*
X293500Y480000D02*
D03*
X285000D02*
D03*
X290000D02*
D03*
X280000D02*
D03*
X265000Y460744D02*
D03*
X255000Y470000D02*
D03*
Y475000D02*
D03*
X264504Y526835D02*
D03*
X296000Y503213D02*
D03*
D81*
X110329Y568781D02*
D03*
X130779Y468269D02*
D03*
X120810Y378300D02*
D03*
X217568Y484500D02*
D03*
Y464652D02*
D03*
Y469500D02*
D03*
Y474500D02*
D03*
Y479500D02*
D03*
Y490000D02*
D03*
X435000Y440000D02*
D03*
X400000Y450000D02*
D03*
X395000Y435000D02*
D03*
X425000Y420000D02*
D03*
X440000D02*
D03*
Y390000D02*
D03*
Y400000D02*
D03*
Y410000D02*
D03*
X425000D02*
D03*
X415000Y390000D02*
D03*
X395000D02*
D03*
Y410000D02*
D03*
X405000Y405000D02*
D03*
Y395000D02*
D03*
Y385000D02*
D03*
X161417Y390748D02*
D03*
X92520Y335630D02*
D03*
X98425D02*
D03*
X105315D02*
D03*
Y340551D02*
D03*
Y345472D02*
D03*
X392717Y497047D02*
D03*
X260298Y523142D02*
D03*
X254393D02*
D03*
Y518221D02*
D03*
X274078Y483772D02*
D03*
X213054Y414875D02*
D03*
Y455229D02*
D03*
X228679Y458126D02*
D03*
X220810Y358300D02*
D03*
X310810Y388300D02*
D03*
X320810D02*
D03*
X340810Y438300D02*
D03*
X330810Y508300D02*
D03*
X320810Y408300D02*
D03*
X300810Y398300D02*
D03*
Y438300D02*
D03*
X290810D02*
D03*
X310810Y448300D02*
D03*
X300810D02*
D03*
X290810D02*
D03*
X320810D02*
D03*
X330810D02*
D03*
X320810Y468300D02*
D03*
X330810D02*
D03*
X260810Y518300D02*
D03*
X330810Y578300D02*
D03*
X360810Y568300D02*
D03*
X330810Y538300D02*
D03*
X370810Y528300D02*
D03*
X380810D02*
D03*
Y538300D02*
D03*
Y548300D02*
D03*
X390810D02*
D03*
Y538300D02*
D03*
Y518300D02*
D03*
Y508300D02*
D03*
Y458300D02*
D03*
Y468300D02*
D03*
Y478300D02*
D03*
Y488300D02*
D03*
X410810D02*
D03*
X440810D02*
D03*
X410810Y538300D02*
D03*
X440810D02*
D03*
X410810Y558300D02*
D03*
X440810D02*
D03*
Y568300D02*
D03*
X430810D02*
D03*
X420810D02*
D03*
X410810D02*
D03*
Y518300D02*
D03*
X440810D02*
D03*
Y528300D02*
D03*
X430810D02*
D03*
X420810D02*
D03*
X410810D02*
D03*
X390810Y368300D02*
D03*
X410810D02*
D03*
X420810D02*
D03*
X440810D02*
D03*
X430810Y338300D02*
D03*
X370810D02*
D03*
X400810Y348300D02*
D03*
X390810D02*
D03*
X380810D02*
D03*
X340810Y368300D02*
D03*
Y338300D02*
D03*
X330810D02*
D03*
Y348300D02*
D03*
Y358300D02*
D03*
X242500Y358500D02*
D03*
X250810Y358300D02*
D03*
X280810D02*
D03*
X270810D02*
D03*
Y368300D02*
D03*
X280968Y375505D02*
D03*
X270810Y388300D02*
D03*
X280810Y398300D02*
D03*
X160810Y348300D02*
D03*
X161417Y398622D02*
D03*
X160810Y498300D02*
D03*
Y548300D02*
D03*
X120810Y518300D02*
D03*
X80810Y458300D02*
D03*
Y468300D02*
D03*
Y478300D02*
D03*
X90810Y468300D02*
D03*
Y458300D02*
D03*
X120810D02*
D03*
Y468300D02*
D03*
X160810Y448300D02*
D03*
Y458300D02*
D03*
X150810D02*
D03*
X140810D02*
D03*
X130810D02*
D03*
X120810Y418300D02*
D03*
X70810Y388300D02*
D03*
Y338300D02*
D03*
X100394Y339567D02*
D03*
X100810Y368300D02*
D03*
X70810D02*
D03*
Y378300D02*
D03*
X80810D02*
D03*
X90810D02*
D03*
X100810D02*
D03*
X110810D02*
D03*
X170810Y338300D02*
D03*
X180810D02*
D03*
X190810D02*
D03*
X200810D02*
D03*
X210810D02*
D03*
X190810Y348300D02*
D03*
X180810D02*
D03*
Y488300D02*
D03*
Y498300D02*
D03*
Y508300D02*
D03*
Y518300D02*
D03*
Y528300D02*
D03*
Y538300D02*
D03*
X190810D02*
D03*
Y548300D02*
D03*
X180810D02*
D03*
Y558300D02*
D03*
X190810D02*
D03*
Y568300D02*
D03*
X180810D02*
D03*
Y578300D02*
D03*
Y588300D02*
D03*
X190810D02*
D03*
Y578300D02*
D03*
X110810Y588300D02*
D03*
X100810Y598300D02*
D03*
X110810D02*
D03*
X120810D02*
D03*
X130810D02*
D03*
X70810Y558300D02*
D03*
Y568300D02*
D03*
X80810D02*
D03*
X160810D02*
D03*
Y558300D02*
D03*
X140810D02*
D03*
X150810D02*
D03*
X130810D02*
D03*
X140810Y568300D02*
D03*
X150810D02*
D03*
X410810Y478300D02*
D03*
X420810D02*
D03*
X430810D02*
D03*
X440810D02*
D03*
X400810Y518300D02*
D03*
Y508300D02*
D03*
Y488300D02*
D03*
Y478300D02*
D03*
Y468300D02*
D03*
Y568300D02*
D03*
Y558300D02*
D03*
Y548300D02*
D03*
Y538300D02*
D03*
Y528300D02*
D03*
X450810Y558300D02*
D03*
Y568300D02*
D03*
Y578300D02*
D03*
Y588300D02*
D03*
Y598300D02*
D03*
Y468300D02*
D03*
Y478300D02*
D03*
Y488300D02*
D03*
Y498300D02*
D03*
Y508300D02*
D03*
Y518300D02*
D03*
Y528300D02*
D03*
Y538300D02*
D03*
Y548300D02*
D03*
Y458300D02*
D03*
Y448300D02*
D03*
Y438300D02*
D03*
Y428300D02*
D03*
Y418300D02*
D03*
Y408300D02*
D03*
Y398300D02*
D03*
Y388300D02*
D03*
Y378300D02*
D03*
Y368300D02*
D03*
X302385Y549717D02*
D03*
X307385D02*
D03*
X312385D02*
D03*
X317385D02*
D03*
X322385D02*
D03*
X327385D02*
D03*
X257346Y558576D02*
D03*
X258330Y572355D02*
D03*
X355906Y531968D02*
D03*
Y526968D02*
D03*
X350905D02*
D03*
X345905D02*
D03*
X340905D02*
D03*
X335906D02*
D03*
X330906D02*
D03*
X300905Y531968D02*
D03*
X305906D02*
D03*
X320905Y526968D02*
D03*
X315905D02*
D03*
X310906D02*
D03*
X305906D02*
D03*
X300905D02*
D03*
X295905D02*
D03*
X262090Y480800D02*
D03*
X362929Y465811D02*
D03*
X230295Y348000D02*
D03*
D82*
X349150Y501244D02*
D03*
X322795Y443000D02*
D03*
X255295Y450500D02*
D03*
X215295Y428000D02*
D03*
X240295Y395500D02*
D03*
Y408000D02*
D03*
Y418000D02*
D03*
D83*
X196863Y562816D02*
D03*
X241063Y596417D02*
D03*
X260863Y554716D02*
D03*
M02*
