G04*
G04 #@! TF.GenerationSoftware,Altium Limited,Altium Designer,20.2.6 (244)*
G04*
G04 Layer_Color=8421504*
%FSLAX25Y25*%
%MOIN*%
G70*
G04*
G04 #@! TF.SameCoordinates,E97EBE13-EBD0-4CAC-9F2B-1EA0C24CC531*
G04*
G04*
G04 #@! TF.FilePolarity,Positive*
G04*
G01*
G75*
%ADD17R,0.07134X0.04953*%
%ADD18R,0.07316X0.05927*%
%ADD19R,0.01200X0.06299*%
%ADD20R,0.06299X0.01200*%
%ADD21R,0.05927X0.07316*%
%ADD22R,0.02756X0.11024*%
%ADD23R,0.06693X0.02362*%
%ADD24R,0.04953X0.07134*%
%ADD25R,0.11800X0.04600*%
%ADD26R,0.07100X0.10500*%
%ADD27R,0.04600X0.11800*%
%ADD28R,0.06890X0.06890*%
%ADD29R,0.02559X0.07677*%
%ADD30R,0.07874X0.10433*%
%ADD31R,0.02756X0.03937*%
%ADD32R,0.02362X0.02756*%
%ADD33O,0.09843X0.02756*%
D17*
X360000Y385988D02*
D03*
Y398012D02*
D03*
X346000Y385988D02*
D03*
Y398012D02*
D03*
X350000Y503988D02*
D03*
Y516012D02*
D03*
X336000D02*
D03*
Y503988D02*
D03*
X322000Y516012D02*
D03*
Y503988D02*
D03*
X308000D02*
D03*
Y516012D02*
D03*
X246000Y442012D02*
D03*
Y429988D02*
D03*
X232000Y442012D02*
D03*
Y429988D02*
D03*
D18*
X330000Y397812D02*
D03*
Y386188D02*
D03*
X316000Y397812D02*
D03*
Y386188D02*
D03*
X302000Y397812D02*
D03*
Y386188D02*
D03*
X361000Y475188D02*
D03*
Y486812D02*
D03*
X364000Y515812D02*
D03*
Y504188D02*
D03*
X148216Y441534D02*
D03*
Y429910D02*
D03*
X162000Y441812D02*
D03*
Y430188D02*
D03*
X176000Y430188D02*
D03*
Y441812D02*
D03*
X190000D02*
D03*
Y430188D02*
D03*
X204000Y442000D02*
D03*
Y430375D02*
D03*
X218000Y430188D02*
D03*
Y441812D02*
D03*
D19*
X183754Y502600D02*
D03*
X181785D02*
D03*
X179816D02*
D03*
X177848D02*
D03*
X175880D02*
D03*
X173911D02*
D03*
X171942D02*
D03*
X169974D02*
D03*
X168006D02*
D03*
X166037D02*
D03*
X164068D02*
D03*
X162100D02*
D03*
X160132D02*
D03*
X158163D02*
D03*
X156194D02*
D03*
X154226D02*
D03*
Y455600D02*
D03*
X156194D02*
D03*
X158163D02*
D03*
X160132D02*
D03*
X162100D02*
D03*
X164068D02*
D03*
X166037D02*
D03*
X168006D02*
D03*
X169974D02*
D03*
X171942D02*
D03*
X173911D02*
D03*
X175880D02*
D03*
X177848D02*
D03*
X179816D02*
D03*
X181785D02*
D03*
X183754D02*
D03*
D20*
X145352Y493726D02*
D03*
Y491757D02*
D03*
Y489789D02*
D03*
Y487820D02*
D03*
Y485852D02*
D03*
Y483883D02*
D03*
Y481915D02*
D03*
Y479947D02*
D03*
Y477978D02*
D03*
Y476010D02*
D03*
Y474041D02*
D03*
Y472073D02*
D03*
Y470104D02*
D03*
Y468135D02*
D03*
Y466167D02*
D03*
Y464198D02*
D03*
X192352D02*
D03*
Y466167D02*
D03*
Y468135D02*
D03*
Y470104D02*
D03*
Y472073D02*
D03*
Y474041D02*
D03*
Y476010D02*
D03*
Y477978D02*
D03*
Y479947D02*
D03*
Y481915D02*
D03*
Y483883D02*
D03*
Y485852D02*
D03*
Y487820D02*
D03*
Y489789D02*
D03*
Y491757D02*
D03*
Y493726D02*
D03*
D21*
X330188Y490000D02*
D03*
X341812D02*
D03*
X311812D02*
D03*
X300188D02*
D03*
X287844Y467000D02*
D03*
X276219D02*
D03*
X287844Y451000D02*
D03*
X276219D02*
D03*
X287844Y435000D02*
D03*
X276219D02*
D03*
X287812Y407000D02*
D03*
X276188D02*
D03*
X287844Y421000D02*
D03*
X276219D02*
D03*
X125812Y474000D02*
D03*
X114188D02*
D03*
X358812Y535000D02*
D03*
X347188D02*
D03*
X191437Y539000D02*
D03*
X179812D02*
D03*
X84188Y403150D02*
D03*
X95812D02*
D03*
X84188Y388150D02*
D03*
X95812D02*
D03*
X86187Y562000D02*
D03*
X97812D02*
D03*
X207660Y457784D02*
D03*
X219285D02*
D03*
X125903Y460217D02*
D03*
X114278D02*
D03*
X154188Y539000D02*
D03*
X165812D02*
D03*
X219000Y500000D02*
D03*
X207375D02*
D03*
X114188Y529850D02*
D03*
X125812D02*
D03*
X114188Y515850D02*
D03*
X125812D02*
D03*
X86187Y548000D02*
D03*
X97812D02*
D03*
X114188Y487850D02*
D03*
X125812D02*
D03*
X219285Y471783D02*
D03*
X207660D02*
D03*
X114188Y501850D02*
D03*
X125812D02*
D03*
X219097Y485783D02*
D03*
X207472D02*
D03*
D22*
X364000Y450220D02*
D03*
X359000D02*
D03*
X354000D02*
D03*
X349000D02*
D03*
X344000D02*
D03*
X339000D02*
D03*
X334000D02*
D03*
X329000D02*
D03*
X324000D02*
D03*
X319000D02*
D03*
X314000D02*
D03*
X309000D02*
D03*
X304000D02*
D03*
X299000D02*
D03*
X364000Y414000D02*
D03*
X359000D02*
D03*
X354000D02*
D03*
X349000D02*
D03*
X344000D02*
D03*
X339000D02*
D03*
X334000D02*
D03*
X329000D02*
D03*
X324000D02*
D03*
X319000D02*
D03*
X314000D02*
D03*
X309000D02*
D03*
X304000D02*
D03*
X299000D02*
D03*
D23*
X286937Y390000D02*
D03*
X279063Y386260D02*
D03*
Y393740D02*
D03*
D24*
X359012Y563000D02*
D03*
X346988D02*
D03*
X359012Y549000D02*
D03*
X346988D02*
D03*
X96012Y464000D02*
D03*
X83988D02*
D03*
X96012Y508000D02*
D03*
X83988D02*
D03*
X96012Y450000D02*
D03*
X83988D02*
D03*
X114988Y433000D02*
D03*
X127012D02*
D03*
X219012Y526000D02*
D03*
X206988D02*
D03*
D25*
X208550Y547000D02*
D03*
X231450D02*
D03*
D26*
X244000Y512100D02*
D03*
Y491900D02*
D03*
D27*
X280000Y512450D02*
D03*
Y489550D02*
D03*
D28*
X207587Y513000D02*
D03*
X218413D02*
D03*
X114587Y446000D02*
D03*
X125413D02*
D03*
D29*
X219000Y378795D02*
D03*
X224000D02*
D03*
X229000D02*
D03*
X234000D02*
D03*
X239000D02*
D03*
X244000D02*
D03*
X249000D02*
D03*
X254000D02*
D03*
X259000D02*
D03*
X264000D02*
D03*
Y416000D02*
D03*
X259000D02*
D03*
X254000D02*
D03*
X249000D02*
D03*
X244000D02*
D03*
X239000D02*
D03*
X234000D02*
D03*
X229000D02*
D03*
X224000D02*
D03*
X219000D02*
D03*
X109000Y378795D02*
D03*
X114000D02*
D03*
X119000D02*
D03*
X124000D02*
D03*
X129000D02*
D03*
X134000D02*
D03*
X139000D02*
D03*
X144000D02*
D03*
X149000D02*
D03*
X154000D02*
D03*
Y416000D02*
D03*
X149000D02*
D03*
X144000D02*
D03*
X139000D02*
D03*
X134000D02*
D03*
X129000D02*
D03*
X124000D02*
D03*
X119000D02*
D03*
X114000D02*
D03*
X109000D02*
D03*
X164000D02*
D03*
X169000D02*
D03*
X174000D02*
D03*
X179000D02*
D03*
X184000D02*
D03*
X189000D02*
D03*
X194000D02*
D03*
X199000D02*
D03*
X204000D02*
D03*
X209000D02*
D03*
Y378795D02*
D03*
X204000D02*
D03*
X199000D02*
D03*
X194000D02*
D03*
X189000D02*
D03*
X184000D02*
D03*
X179000D02*
D03*
X174000D02*
D03*
X169000D02*
D03*
X164000D02*
D03*
D30*
X248000Y538071D02*
D03*
Y555000D02*
D03*
D31*
X95284Y497811D02*
D03*
X80717D02*
D03*
X95284Y474189D02*
D03*
X80717D02*
D03*
X97284Y439311D02*
D03*
X82717D02*
D03*
X97284Y415689D02*
D03*
X82717D02*
D03*
D32*
X78158Y486000D02*
D03*
X97843D02*
D03*
X80158Y427500D02*
D03*
X99843D02*
D03*
D33*
X78354Y535500D02*
D03*
Y530500D02*
D03*
Y525500D02*
D03*
Y520500D02*
D03*
X97646Y535500D02*
D03*
Y530500D02*
D03*
Y525500D02*
D03*
Y520500D02*
D03*
M02*
