M48
;Layer_Color=9474304
;FILE_FORMAT=4:4
METRIC,TZ
;TYPE=PLATED
T1F00S00C0.2540
T2F00S00C0.3810
T3F00S00C0.4064
T4F00S00C0.5080
T5F00S00C0.7112
T6F00S00C0.7620
T7F00S00C0.8000
T8F00S00C0.8900
T9F00S00C1.0160
T10F00S00C1.0200
T11F00S00C1.6300
T12F00S00C3.0000
T13F00S00C4.0000
;TYPE=NON_PLATED
T14F00S00C3.2500
%
T01
X444500Y904240
X449580Y916940
X454660Y929640
X459740Y942340
X464820Y955040
X469900Y967740
X505460Y980440
X541020Y1013460
Y1026160
X474980Y1038860
X480060Y1051560
X485140Y1064260
X490220Y1076960
X495300Y1089660
X500380Y1102360
X505460Y1115060
X444500Y1173480
X449580Y1186180
X673100Y1170291
X682500Y1177500
X696880Y1180620
X706880
X716880
X721840Y1173160
X731840Y1173021
X741880Y1175620
X711840Y1170291
X701840
X672058Y1049782
X684758Y1024382
Y1011682
X678408Y998982
X672058Y986282
X678408Y948182
Y935482
X716508
X760958Y948182
X584950Y883920
X1016751Y865000
X1089380Y885000
Y895000
X921840Y1183160
X875930Y1181100
Y1193800
Y1219200
X776986Y1211326
X754634Y1198626
X745490Y1219200
X736600
X737350Y1226820
X743700Y1233170
X749380Y1239520
X749380Y1260000
Y1270000
X751840Y1278160
X752500Y1290000
X737500
Y1302500
X725000
Y1290000
Y1277500
X737500
X739380Y1265000
Y1255000
X712500Y1277500
X700000
X687500
X675000
X662500
X625000Y1275000
Y1265000
Y1255000
X615000Y1260000
Y1270000
Y1245000
X647700Y1206500
Y1193800
X681840Y1218160
X686840Y1228160
X711200Y1219200
X723900
X711840Y1300040
X691840
X700000Y1290000
X701840Y1337540
X696840Y1345040
X721840
X731840
X742950Y1344194
X726840Y1337540
X716840
X671840Y1338160
X630000Y1327500
X620000
X624927Y1317573
X615000Y1317500
X635000
X648600Y1435100
Y1447800
Y1460500
X650000Y1478200
X675400
X695590Y1435100
Y1422400
X660030Y1430020
X505460Y1384300
X500380Y1371600
X495300Y1358900
X490220Y1346200
X485140Y1333500
X480060Y1320800
X474980Y1308100
X469900Y1236980
X464820Y1224280
X459740Y1211580
X454660Y1198880
X505460Y1249680
X784860Y1270762
T02
X179858Y859282
X235000Y852500
X250000
X255000Y862500
X267500Y865000
Y852500
Y877500
X256058Y935482
Y960882
X230658
X205258
X179858
Y986282
Y935482
X281458Y960882
X306858
Y1062482
Y1164082
Y1189482
X332180Y1189404
X332258Y1164082
X357658
X383058
X230658
X205258
Y1189482
X230658
X408458Y1164082
Y1138682
X410000Y1012500
Y992500
X408458Y884682
X433858Y859282
X459258
X484658
X510058
X535458
X560858Y910082
X615950Y910590
X637058Y910082
X687858
X713258
X713658Y953782
X687858Y935482
Y986282
X713258Y1011682
X764058
X762000Y984250
X789458Y986282
X764058Y1113282
X738658
Y1138682
X764058
X789458
X781158Y1183782
X768658
X580845Y1163641
X552622Y1180215
X541158Y1156282
Y1053782
X484658Y884682
X459258
X840258
Y859282
X865658
X941858
X967258Y884682
X992658
X1018058
X992658Y935482
X1043458
X1068858
X1119658
X1145058
Y960882
Y986282
Y1011682
Y1037082
Y1062482
Y1087882
Y1113282
Y1138682
Y1164082
Y1189482
X1104900Y1117600
X1117600Y1066800
Y1041400
Y1016000
Y990600
X1054100
X1028700Y1003300
Y1028700
X1003300Y1041400
Y990600
X1028700Y977900
X1079500Y1041400
Y1066800
X1003300Y1104900
X1016000Y1143000
X992658Y1164082
Y1189482
X1018058
X840258
X814858
Y1138682
X840258
X865658Y1113282
X814858Y1037082
Y986282
X865658Y935482
X840258Y910082
X1094258Y859282
Y1214882
X1068858
X1043458
Y1240282
X1018058
X992658
Y1214882
X1018058
X997500Y1262500
X992658Y1291082
Y1316482
X1018058
X1043458
Y1341882
Y1367282
X1018058
X992658
X967258
Y1341882
X941858
X904000Y1338500
Y1351200
X891300Y1338500
X878600
X865900
X853200
X840500
X815100
X802400
X798658Y1306282
X808658
X840258Y1291082
Y1367282
X831558Y1396282
X818858
X806158
X840258Y1468882
X916458Y1443482
X967258Y1392682
X992658
X1018058
Y1418082
X1043458
Y1443482
X1068858
X1094258
X1119658
Y1418082
X1145058
Y1443482
Y1468882
Y1494282
Y1519682
Y1392682
Y1367282
X1119658
Y1341882
Y1316482
X1145058
Y1291082
Y1265682
Y1240282
X1119658
Y1214882
X1145058
Y1341882
X1094258
X1068858
X1018058
Y1291082
Y1443482
X793458Y1396282
X780758
X768058
X764300Y1351200
X777000
Y1338500
X778658Y1328782
Y1318782
X788658Y1306282
X791158Y1296282
X789700Y1338500
X764300
X751600
X661158Y1328782
X662458Y1316482
X646158Y1316282
Y1328782
X653658Y1418782
X656158Y1453782
X484658Y1443482
Y1418082
Y1392682
Y1367282
X459258
Y1341882
Y1316482
Y1291082
Y1265682
Y1240282
X408458Y1265682
Y1392682
Y1418082
Y1443482
X459258
Y1418082
Y1392682
Y1468882
Y1494282
X484658
Y1468882
X552622Y1244600
Y1230630
Y1217930
Y1205230
Y1192530
X665708Y1221232
X696158Y1228782
X781158Y1198782
X306858Y1316482
X332258Y1418082
X357658
X383058
Y1443482
X357658
X280237Y1444703
X281458Y1494282
Y1519682
X256058
X306858
X332258
X205258Y1443482
X179858
Y1418082
X205258Y1214882
T03
X541020Y1173480
Y1186180
Y1198880
Y1211580
Y1224280
Y1236980
Y1282700
Y1295400
Y1308100
Y1320800
Y1333500
Y1346200
Y1358900
Y1371600
Y1384300
Y1455420
Y1468120
Y1480820
Y1493520
Y1506220
T04
X199680Y879680
X192060Y900000
X199680Y920320
X220000Y927940
X240320Y920320
X247940Y900000
X240320Y879680
X220000Y872060
X343650Y867410
Y854710
Y880110
X602500Y907500
X541020Y1115060
X879680Y920320
X900000Y927940
X920320Y920320
X927940Y900000
X920320Y879680
X900000Y872060
X879680Y879680
X872060Y900000
X850530Y1320800
X869680Y1469680
X862060Y1490000
X869680Y1510320
X890000Y1517940
X910320Y1510320
X917940Y1490000
X910320Y1469680
X890000Y1462060
X730250Y1473200
X717550
X704850
X692150
Y1485900
X704850
X717550
X730250
X649478Y1531635
X612300Y1514898
X541020Y1531620
X500032Y1429554
X607060Y1374140
X607205Y1352377
X647928Y1344422
X662592Y1408980
X369050Y1506220
X350000Y1518920
X297354Y1463616
X240320Y1469680
X247940Y1490000
X240320Y1510320
X220000Y1517940
X199680Y1510320
X192060Y1490000
X199680Y1469680
X220000Y1462060
T05
X273800Y909320
Y928370
X337300
Y909320
X485890Y985520
Y1003300
Y1021080
X543040Y996443
X546850Y960120
X610350Y1004570
Y1036320
Y1061720
X546850Y1087120
X543040Y1134110
X648450Y1144270
X654800Y1125220
Y1106170
X673850
X762750Y1049020
X710658Y981282
X737350Y909320
X756400
X788150Y890270
Y871220
X806158Y881282
X969760Y897890
Y916940
X988810
Y897890
X931903Y1059411
X870700Y1087120
X819900Y1125220
X870700Y998220
X886840Y1273160
X931859Y1244600
X851650Y1430020
X832600
X807200Y1455420
X788150
X769100
X545580Y1403350
X541770Y1266190
X496050Y1531620
X477000
X457950
T06
X800608Y1006332
Y1055132
X975106Y1151128
Y1252728
X811784Y1265698
Y1216898
T07
X623824Y1110996
Y1136396
Y1161796
Y1187196
T08
X967000Y987800
Y1013200
Y1038600
Y1064000
X992400Y1051300
Y1025900
Y1000500
Y975100
T09
X190500Y990600
Y1016000
X215900
X241300
X266700
X292100
X317500
X342900
X368300
Y990600
X342900
X317500
X292100
X266700
X241300
X215900
Y1117600
Y1143000
X241300
X266700
X292100
X317500
X342900
X368300
Y1117600
X342900
X317500
X292100
X266700
X241300
X190500
Y1143000
Y1244600
X215900
X241300
X266700
X292100
X317500
X342900
X368300
Y1270000
X342900
X317500
X292100
X266700
X241300
X215900
X190500
Y1371600
Y1397000
X215900
X241300
X266700
X292100
X317500
X342900
X368300
Y1371600
X342900
X317500
X292100
X266700
X241300
X215900
T10
X1104900Y953350
Y978750
Y1060450
Y1085850
T11
X1025400Y942150
Y1097050
T12
X1079500Y1168600
Y1278600
Y1388600
Y1498600
T13
X220000Y900000
X900000
X890000Y1490000
X220000
T14
X1055900Y962450
Y1076750
M30
