M48
;Layer_Color=9474304
;FILE_FORMAT=4:4
METRIC,TZ
;TYPE=PLATED
T1F00S00C0.4064
T2F00S00C0.5080
T3F00S00C0.7112
T4F00S00C0.7500
T5F00S00C0.7620
T6F00S00C0.8000
T7F00S00C0.8900
T8F00S00C1.0160
T9F00S00C1.0200
T10F00S00C1.5000
T11F00S00C1.6300
T12F00S00C4.0000
;TYPE=NON_PLATED
T13F00S00C3.2500
%
T01
X321564Y1117190
X382914Y1138174
X380624Y1153414
X395864Y1176274
X342138Y1181862
X406024Y1181354
X416237Y1181299
X426344Y1181354
X436504
X454914Y1186688
X457200Y1177290
X466560Y1179404
X500004Y1171194
X511166Y1160984
X558330Y1137728
X604520Y1135380
X607947Y1122555
X621030Y1140206
X454660Y1138428
X441584Y1138174
X428884
X413644
X398404
X429514Y1119886
X685800Y965708
X691388Y1275080
X674306
X657225
X660654Y1323340
X506222Y1215898
X511556Y1196848
X469900Y1207262
X454914Y1207008
X462280Y1217930
X444124Y1216914
X431424
X418724
X406024
X403484Y1227074
X398780Y1236980
X403484Y1247394
X398404Y1257554
X439166Y1259332
X451104
X462788
X423804Y1293114
X431546Y1192022
X443484Y1198880
X393396Y1216636
X386080Y1256284
X370586Y1264412
X349890Y1225804
X345064Y1211834
X336428Y1200404
X241300Y1216660
T02
X199680Y879680
X192060Y900000
X199680Y920320
X220000Y927940
X240320Y920320
X247940Y900000
X240320Y879680
X220000Y872060
X273050Y869950
X304800Y863600
X342900
X374650
X339852Y941324
X327660Y941070
X273050Y939800
X234950Y952500
X196850
X190500Y1009650
Y1047750
Y1085850
Y1123950
Y1162050
X213360Y1160780
X266700Y1162050
Y1123950
Y1085850
X285750Y1079500
X302260Y1074420
X314960Y1075690
X327406
X340360
X353060
X365760
X388620Y1074420
Y1038860
X370840
X353060
X335280
X317500
Y1003300
X342900
X368300
X393700
X292100
X266700
X318137Y1148588
X441960Y1075690
X454406
X467360
X480060
X492760
X505460
X517906
X513080Y1038860
X528320
X497840
X480060
X462280
X441960Y1039368
X444500Y1003300
X469900
X495300
X520700
X546100
X571500
X596900
X622300
X647700
X673100
X647700Y1035050
X622300
X596900
X571500
X581914Y1075690
X594360
X607060
X619760
X632460
X645160
X658190Y1076960
X647700Y1120140
X762000Y1085850
X778510Y1084580
X792988Y1102360
X784860Y1169670
X773092Y1177370
X787400Y1028700
X744220Y1000760
X722376Y1013968
X729742Y949706
X774700Y958850
X755650Y863600
X685800Y927100
X636524Y928624
X623570Y920242
X592836Y915162
X565150Y914400
X539750
X552450Y895350
X565150Y876300
X539750
X505206Y928624
X482854Y927608
X467360Y937260
X454660Y924560
X441960Y943610
X400050Y939800
X406400Y863600
X419100Y1003300
X819150Y1028700
X873760Y1026160
X882650Y1079500
X899814Y1093724
X911352Y1093216
X927100Y1104900
Y1079500
X876300Y1104900
X843788Y1104392
X839216Y1090930
X819404Y1092200
X800100Y1168400
X844550
X889000Y1183640
X895350Y958850
X920750
X920320Y920320
X927940Y900000
X920320Y879680
X900000Y872060
X879680Y879680
X872060Y900000
X879680Y920320
X900000Y927940
X840069Y958665
X806450Y958850
X812800Y920750
Y889000
Y863600
X816610Y1198880
X812800Y1244600
X857250Y1219200
X899160Y1193800
X850900Y1333500
Y1358900
X912622Y1411478
X911606Y1446784
X927100Y1454150
X910320Y1469680
X890000Y1462060
X869680Y1469680
X862060Y1490000
X869680Y1510320
X890000Y1517940
X910320Y1510320
X917940Y1490000
X825500Y1524000
X787400
X749300
X704850
X660400
Y1485900
Y1447800
Y1377950
Y1346200
Y1219200
X635000Y1212850
X573278Y1229614
Y1246886
X557530Y1287272
X534162
X508000Y1403350
X469900Y1416050
X444500Y1409700
X425450Y1447800
Y1473200
X412750Y1524000
X457200
X488950
X520700Y1504950
X558800
X596900
X615950Y1485900
X635000Y1504950
X615950Y1524000
X577850
Y1485900
Y1460500
X539750Y1485900
Y1524000
X742950Y1460500
Y1441450
X781050
Y1460500
X733217Y1281684
X726440Y1271524
X740664
X774700Y1219200
X331216Y1224280
X319278Y1224026
X266700Y1225550
Y1200150
X190500
Y1244600
Y1289050
X199390Y1312164
X189484Y1370584
X190500Y1390650
Y1422400
Y1454150
X199680Y1469680
X220000Y1462060
X240320Y1469680
X247940Y1490000
X240320Y1510320
X220000Y1517940
X199680Y1510320
X192060Y1490000
X311150Y1524000
X368300
X342900Y1473200
Y1454150
X349250Y1390650
Y1371600
X323850
X298450
X342014Y1294636
X342524Y1259078
X356494Y1271016
X260350Y1287526
T03
X755396Y926592
X924560Y1188720
X909320Y1330960
X504952Y1280414
X486918Y1280160
X459740Y1299210
X438150Y1358900
X378714Y1350010
X378968Y1335786
X356362Y1328674
X341630
Y1311910
X356362Y1312164
X371094Y1284732
T04
X573786Y1315720
X579374Y1333500
Y1350518
X703580Y1211580
X718820
X734060
X248444Y1409700
T05
X841010Y1198880
X792210
X466884Y1323340
X418084
X375920Y1407160
X274320
T06
X665480Y1094740
Y1120140
Y1145540
X668020Y1196340
X642620
X617220
X591820
T07
X801630Y1375940
X776230
X750830
X725430
X712730Y1350540
X738130
X763530
X788930
T08
X330200Y880110
Y905510
X355600
X381000
Y880110
X355600
X406400
Y905510
X431800
X457200
X482600
X508000
Y880110
X482600
X457200
X431800
X613410
X638810
X664210
X689610
X715010
X740410
X765810
X791210
Y905510
X765810
X740410
X715010
X689610
X664210
X638810
X613410
T09
X797980Y1488440
X823380
X716280
X690880
T10
X462040Y1448442
X546250Y1448443
X622450
X385840Y1448442
X309640
T11
X834580Y1408940
X679680
T12
X220000Y900000
X900000
X890000Y1490000
X220000
T13
X814280Y1439440
X699980
M30
