M48
;Layer_Color=9474304
;FILE_FORMAT=4:4
METRIC,TZ
;TYPE=PLATED
T1F00S00C0.2500
T2F00S00C0.5000
T3F00S00C0.7620
T4F00S00C0.8000
T5F00S00C0.8128
T6F00S00C0.8500
T7F00S00C0.9000
T8F00S00C1.0160
T9F00S00C1.0500
T10F00S00C1.1500
T11F00S00C1.5000
T12F00S00C3.2000
%
T01
X225000Y175000
X275000
X225000Y225000
X175338Y225808
X175000Y275000
Y325000
Y375000
X425000Y325000
X451000Y316000
Y284000
X425000Y275000
X525000
Y325000
X485000Y355000
X567000Y365000
X574000Y358000
X581000Y351000
X560000Y372000
X553000Y379000
X546000Y386000
X539000Y393000
X775000Y375000
Y325000
Y275000
X725000Y175000
X675000
Y225000
X625000Y175000
X836000Y293000
X854000
Y312000
X836000
X875000Y325000
Y375000
X825000
X875000Y275000
X959000Y274000
X975000Y275000
Y225000
X1025000
X1023000Y160000
X991000
X959000
X1055000
X1075000Y175000
X1125000Y225000
X1075000Y275000
Y325000
Y375000
Y425000
Y475000
X1025000
Y525000
Y575000
X1075000
X1125000
Y525000
X1075000
Y625000
Y675000
X1125000
Y625000
X1025000
X975000Y675000
X958000
X946000
X970000Y687000
X964000Y693000
X946000Y714000
X938000Y778000
X850000Y777000
X825000Y675000
X875000
X825000Y625000
Y575000
X861000Y548000
X925000Y550000
Y589000
Y621000
Y500000
X1125000Y475000
X1140000Y739000
Y771000
X1025000Y775000
Y725000
X775000
Y675000
X740000Y653000
Y621000
X709000Y617000
X703000Y600000
X724474Y574729
Y524729
X702720Y530000
X650000
Y514000
X624474Y474729
X555000Y494000
X561913Y510087
X525000Y525000
Y475000
X532000Y400000
X451000Y484000
Y516000
X425000Y525000
X485000Y555000
X541000Y593750
X548000Y606250
X569000Y581000
X576000Y568250
X583000Y555500
X625000Y568000
X640000Y581000
X656000Y594000
Y606000
X583000Y619000
X576000Y631750
X569000Y644500
X525000Y675000
Y725000
X541000Y755500
X548000Y768250
X583000Y781000
X625000Y775000
Y725000
Y675000
X451000Y684000
Y716000
X485000Y755000
X740000Y491000
X724474Y474729
Y424729
X375000Y575000
X325000
X275000
X225000
Y475000
X175000Y425000
X225000Y725000
X275000
X325000
X375000
Y825000
X275000
X225000
Y975000
X275000
X325000
X275000Y1075000
X225000
X451000Y1084000
Y1116000
X485000Y1155000
X548000Y1155500
X583000Y1168250
X576000Y1181000
X625000Y1175000
Y1125000
X675000
Y1175000
X725000
X750000Y1064000
X724836Y974493
X725000Y925000
Y875000
X625000
Y925000
Y975000
Y1025000
Y1075000
X569000Y1031750
X576000Y1019000
X583000Y1006250
X548000Y993500
X541000Y981000
X569000Y968250
X576000Y955500
X525000Y925000
X524752Y874436
X548000Y831750
X541000Y819000
X569000Y806250
X576000Y793750
X583000Y844500
X625000Y825000
X675000
X682000Y800000
X675000Y975000
X541000Y1044500
X525000Y1075000
Y1125000
X485000Y955000
X451000Y916000
Y884000
X802000Y897500
Y917500
X827000Y924000
X833000Y919000
X839000Y924000
X845000Y919000
X850000Y904000
X916000Y932000
X975000Y925000
X978000Y906000
X997000Y887000
X1025000Y875000
Y925000
Y975000
X975000
Y1025000
Y1075000
X925000
Y1125000
Y1175000
X975000
X1025000
Y1125000
Y1075000
Y1025000
X1075000
Y975000
Y1075000
X1125000
Y1125000
Y1175000
X1075000
Y1125000
X975000
X884000Y1064000
X856000Y1085000
X798000Y1051000
X794000Y990000
X884000Y998000
X939000Y874000
X939000Y824000
X1025000Y825000
X1140000Y803000
X1125000Y1025000
X825000Y1175000
X858000Y810000
X875000Y1225000
Y1275000
Y1325000
X825000
Y1375000
Y1425000
Y1475000
Y1525000
X875000
X860000Y1500000
X925000Y1525000
X975000
X1025000
Y1475000
Y1425000
X1075000
Y1475000
Y1525000
X1125000Y1475000
Y1425000
Y1375000
Y1325000
Y1275000
X1075000
X1025000
X975000
X925000
Y1325000
Y1225000
X1025000
X1075000
X1125000
X725000
X675000
X625000
X583000Y1231750
X576000Y1244500
X548000Y1219000
X541000Y1206250
X569000Y1193750
X525000Y1275000
Y1325000
X541000Y1368250
X548000Y1381000
X569000Y1355500
X583000Y1393500
X576000Y1406250
X569000Y1419000
X541000Y1431750
X548000Y1444500
X525000Y1475000
X575000
X625000
Y1425000
Y1375000
X675000
Y1325000
Y1275000
X725000
X737000Y1295000
X705000
X775000Y1275000
X625000
Y1325000
X675000Y1425000
X725000
Y1375000
Y1475000
X675000
Y1525000
X725000
X775000
X625000
X575000
X525000
X475000
Y1475000
X425000
Y1525000
X485000Y1355000
X451000Y1316000
Y1284000
X325000Y1225000
X275000
X225000
X175000Y1275000
Y1325000
Y1375000
Y1425000
Y1475000
X225000
X275000
X325000
X375000
Y1525000
X325000
X275000
X225000
Y1325000
X275000
T02
X495764Y266264
X1071000Y205000
X970000Y637000
X902000Y730000
X888000Y778000
X785000Y668000
Y475000
X495750Y466250
Y666250
Y866250
Y1066250
X750000Y1094000
Y1006000
X746000Y958000
X736000Y810000
X868000Y985000
Y1051000
X814000Y1094000
X948000Y962000
X967600Y1490000
X764400
X689000Y1340000
X747000Y1199000
X495750Y1266250
T03
X794200Y440000
X895800
X930000
X955000
X980000
X704000Y875600
Y924400
X710000Y1127000
X735000
X760000
X804000
X829000
X854000
T04
X1018700Y243300
Y268700
Y294100
Y319500
Y344900
Y370300
Y395700
X1056800Y383000
Y357600
Y332200
Y306800
Y281400
Y256000
X1133000
Y281400
Y306800
Y332200
Y357600
Y383000
Y408400
Y433800
X1056800
Y408400
X1018700Y421100
Y446500
X887000Y1358000
Y1373000
Y1383000
Y1408000
X787000Y1395000
Y1425000
Y1340000
Y1315000
T05
X836000Y1066300
Y1091700
X705000Y1424300
Y1449700
T06
X890300Y481900
Y507300
Y532700
Y558100
X969700
Y532700
Y507300
Y481900
X935700Y1204900
Y1230300
Y1255700
Y1281100
X856300
Y1255700
Y1230300
Y1204900
T07
X720000Y233000
Y258400
Y283800
Y314600
Y340000
Y365400
X830000Y481600
Y507000
Y532400
T08
X217200Y387500
X242600
X268000
X293400
X318800
X344200
X369600
X395000
Y412900
X369600
X344200
X318800
X293400
X268000
X242600
X217200
Y512500
Y537900
X242600
X268000
X293400
X318800
X344200
X369600
X395000
Y512500
X369600
X344200
X318800
X293400
X268000
X242600
Y637500
Y662900
X268000
X293400
X318800
X344200
X369600
X395000
Y637500
X369600
X344200
X318800
X293400
X268000
X217200
Y662900
Y762500
Y787900
X242600
X268000
X293400
X318800
X344200
X369600
X395000
Y762500
X369600
X344200
X318800
X293400
X268000
X242600
Y887500
Y912900
X268000
X293400
X318800
X344200
X369600
X395000
Y887500
X369600
X344200
X318800
X293400
X268000
X217200
Y912900
Y1012500
Y1037900
X242600
X268000
X293400
X318800
X344200
X369600
X395000
Y1012500
X369600
X344200
X318800
X293400
X268000
X242600
Y1137500
Y1162900
X268000
X293400
X318800
X344200
X369600
X395000
Y1137500
X369600
X344200
X318800
X293400
X268000
X217200
Y1162900
Y1262500
Y1287900
X242600
X268000
X293400
X318800
X344200
X369600
X395000
Y1262500
X369600
X344200
X318800
X293400
X268000
X242600
Y1387500
Y1412900
X268000
X293400
X318800
X344200
X369600
X395000
Y1387500
X369600
X344200
X318800
X293400
X268000
X217200
Y1412900
T09
X1065000Y729200
Y830801
X967000Y1343199
Y1444800
T10
X1065000Y855000
Y945000
T11
X1050002Y504040
Y580240
Y656440
X1050003Y1203750
Y1279950
Y1355750
Y1431950
T12
X190000Y190000
X1110000Y190000
Y1510000
X190000
M30
